%FSTAX23Y23*%
%MOIN*%
%SFA1B1*%

%IPPOS*%
%ADD9500C,0.016000*%
%ADD9501C,0.020000*%
%ADD9502C,0.022000*%
%ADD9503C,0.025000*%
%ADD9504C,0.032000*%
%ADD9505C,0.039400*%
%ADD9506C,0.047200*%
%LNcn0349-1*%
%LPD*%
G54D9500*
X02061Y0011D03*
X01945Y00202D03*
X01946Y00254D03*
X01738Y00304D03*
X01686Y00293D03*
X00394Y00575D03*
X00283Y00618D03*
X00498Y00638D03*
X00499Y00588D03*
X00832D03*
X0083Y00638D03*
X00932Y00572D03*
X00992D03*
X01684Y00705D03*
X01884Y00626D03*
X01969Y00563D03*
X01865Y00461D03*
X01857Y00409D03*
X02001Y00369D03*
X02205Y00355D03*
X02086Y00537D03*
G54D9501*
X01621Y00069D03*
X0212Y00626D03*
G54D9502*
X0046Y00068D03*
X00869Y00069D03*
X00943Y00163D03*
X00954Y00332D03*
X01408Y00156D03*
X01801Y00113D03*
X00375Y0033D03*
Y00515D03*
X00487Y00538D03*
X00546Y0041D03*
X00869Y00496D03*
X00835Y00537D03*
X00775Y0073D03*
X01141Y00593D03*
X0131Y0054D03*
G54D9503*
X01107Y00452D03*
G54D9504*
X0111Y00154D03*
X01972Y00062D03*
X02128Y00734D03*
X02226Y00642D03*
G54D9505*
X02458Y00201D03*
Y00301D03*
Y00401D03*
Y00501D03*
Y00601D03*
G54D9506*
X00085Y0025D03*
X00185D03*
Y0035D03*
Y0045D03*
Y0055D03*
X00085D03*
Y0045D03*
Y0035D03*
M02*