%FSTAX23Y23*%
%MOIN*%
%SFA1B1*%

%IPPOS*%
%ADD11C,0.015000*%
%ADD33C,0.010000*%
%ADD35C,0.012000*%
%ADD60C,0.000800*%
%ADD61C,0.000400*%
%LNcn0349-1*%
%LPD*%
G36*
X01793Y00188D02*
X01776D01*
X01749Y00264*
X01766*
X01784Y00208*
X01804Y00264*
X01821*
X01793Y00188*
G37*
G36*
X01532Y00266D02*
X01535Y00265D01*
X01538Y00265*
X0154Y00264*
X01543Y00263*
X01545Y00262*
X01547Y00261*
X01548Y00261*
X0155Y00259*
X01551Y00259*
X01553Y00258*
X01554Y00257*
X01554Y00256*
X01555Y00256*
X01555Y00255*
X01555Y00255*
X01557Y00253*
X01559Y00251*
X0156Y00248*
X01561Y00246*
X01562Y00244*
X01563Y00241*
X01563Y00239*
X01564Y00236*
X01564Y00234*
X01565Y00232*
X01565Y0023*
X01565Y00228*
Y00227*
X01565Y00226*
Y00225*
Y00225*
X01565Y00222*
X01565Y00219*
X01564Y00216*
X01564Y00213*
X01563Y00211*
X01562Y00208*
X01561Y00206*
X0156Y00204*
X01559Y00202*
X01559Y00201*
X01558Y002*
X01557Y00199*
X01556Y00198*
X01556Y00197*
X01555Y00197*
X01555Y00197*
X01554Y00195*
X01552Y00193*
X01549Y00192*
X01547Y00191*
X01545Y0019*
X01543Y00189*
X01541Y00188*
X01539Y00188*
X01537Y00187*
X01536Y00187*
X01534Y00187*
X01533Y00186*
X01532*
X01531Y00186*
X0153*
X01528Y00186*
X01526Y00186*
X01524Y00187*
X01522Y00187*
X0152Y00188*
X01518Y00188*
X01517Y00189*
X01515Y00189*
X01514Y0019*
X01513Y0019*
X01512Y00191*
X01511Y00191*
X01511Y00192*
X0151Y00192*
X0151Y00192*
X0151Y00192*
X01508Y00194*
X01507Y00195*
X01505Y00198*
X01503Y00201*
X01501Y00204*
X015Y00205*
X015Y00207*
X01499Y00208*
X01499Y00209*
X01499Y0021*
X01498Y00211*
X01498Y00211*
Y00211*
X01513Y00216*
X01514Y00213*
X01515Y0021*
X01516Y00208*
X01517Y00206*
X01518Y00205*
X01519Y00204*
X0152Y00204*
X0152Y00203*
X01522Y00202*
X01523Y00201*
X01525Y002*
X01527Y002*
X01528Y002*
X01529Y002*
X0153Y00199*
X0153*
X01532Y002*
X01533Y002*
X01536Y002*
X01538Y00201*
X0154Y00203*
X01542Y00204*
X01543Y00205*
X01544Y00205*
X01544Y00205*
X01544Y00206*
X01545Y00207*
X01546Y00208*
X01546Y0021*
X01547Y00211*
X01548Y00215*
X01548Y00218*
X01549Y0022*
X01549Y00222*
X01549Y00223*
Y00224*
X01549Y00225*
Y00226*
Y00226*
Y00226*
X01549Y00229*
X01549Y00231*
X01549Y00233*
X01548Y00235*
X01548Y00237*
X01548Y00239*
X01547Y0024*
X01546Y00242*
X01546Y00243*
X01546Y00244*
X01545Y00244*
X01545Y00245*
X01544Y00246*
X01544Y00246*
X01544Y00246*
Y00246*
X01543Y00247*
X01542Y00248*
X01541Y00249*
X0154Y0025*
X01537Y00251*
X01535Y00252*
X01533Y00252*
X01532Y00252*
X01531Y00252*
X01531Y00253*
X0153*
X01528Y00252*
X01526Y00252*
X01524Y00251*
X01522Y00251*
X01521Y0025*
X0152Y0025*
X0152Y00249*
X0152Y00249*
X01518Y00248*
X01517Y00246*
X01516Y00245*
X01515Y00243*
X01515Y00242*
X01514Y00241*
X01514Y0024*
X01514Y0024*
Y0024*
X01498Y00243*
X015Y00247*
X01501Y00249*
X01502Y00252*
X01504Y00254*
X01505Y00255*
X01506Y00256*
X01506Y00257*
X01506Y00257*
X01506*
X01508Y00259*
X0151Y0026*
X01512Y00261*
X01514Y00262*
X01516Y00263*
X01518Y00264*
X01519Y00264*
X01521Y00265*
X01523Y00265*
X01524Y00265*
X01526Y00266*
X01527Y00266*
X01528Y00266*
X01529*
X01532Y00266*
G37*
G36*
X01885Y00188D02*
X01826D01*
Y00201*
X01869*
Y00221*
X01831*
Y00234*
X01869*
Y00251*
X01828*
Y00264*
X01885*
Y00188*
G37*
G36*
X0117Y00208D02*
X01141D01*
Y00223*
X0117*
Y00208*
G37*
G36*
X01485Y00188D02*
X0147D01*
Y00238*
X01439Y00188*
X01424*
Y00264*
X01438*
Y00213*
X0147Y00264*
X01485*
Y00188*
G37*
G36*
X01061D02*
X01047D01*
Y00248*
X01032Y00188*
X01017*
X01002Y00248*
X01001Y00188*
X00987*
Y00264*
X01011*
X01024Y00212*
X01038Y00264*
X01061*
Y00188*
G37*
G36*
X016Y00208D02*
X01571D01*
Y00223*
X016*
Y00208*
G37*
G36*
X00972Y00188D02*
X00943D01*
X0094Y00188*
X00937Y00188*
X00934Y00188*
X00933Y00188*
X00931Y00189*
X0093Y00189*
X00929Y00189*
X00929Y00189*
X00926Y0019*
X00924Y00191*
X00922Y00192*
X00921Y00193*
X0092Y00194*
X00919Y00195*
X00918Y00195*
X00918Y00195*
X00916Y00197*
X00914Y002*
X00913Y00202*
X00912Y00204*
X00911Y00206*
X00911Y00207*
X0091Y00207*
X0091Y00208*
X0091Y00209*
X0091Y00209*
Y00209*
X00909Y00212*
X00908Y00214*
X00908Y00217*
X00908Y0022*
X00907Y00222*
Y00223*
X00907Y00224*
Y00224*
Y00225*
Y00225*
Y00225*
X00907Y00229*
X00908Y00233*
X00908Y00236*
X00908Y00237*
X00909Y00238*
X00909Y0024*
X00909Y0024*
X00909Y00241*
X0091Y00242*
X0091Y00243*
X0091Y00243*
X0091Y00243*
Y00243*
X00911Y00246*
X00912Y00248*
X00913Y00251*
X00914Y00252*
X00916Y00254*
X00916Y00255*
X00917Y00256*
X00917Y00256*
X00917*
X00919Y00258*
X00921Y00259*
X00923Y0026*
X00925Y00261*
X00926Y00262*
X00928Y00263*
X00928Y00263*
X00928Y00263*
X00929Y00263*
X00929*
X00931Y00263*
X00933Y00264*
X00936Y00264*
X00938Y00264*
X0094Y00264*
X00941Y00264*
X00972*
Y00188*
G37*
G36*
X00896Y00251D02*
X0086D01*
X00901Y00202*
Y00188*
X00838*
Y00201*
X00882*
X0084Y00252*
Y00264*
X00896*
Y00251*
G37*
G36*
X01388Y00265D02*
X0139Y00264D01*
X01391Y00264*
X01393Y00263*
X01395Y00263*
X01396Y00262*
X01397Y00261*
X01399Y00261*
X014Y0026*
X01401Y00259*
X01401Y00259*
X01402Y00258*
X01402Y00257*
X01403Y00257*
X01403Y00257*
X01403Y00257*
X01404Y00255*
X01406Y00253*
X01407Y0025*
X01407Y00248*
X01408Y00245*
X01409Y00243*
X0141Y00238*
X0141Y00235*
X0141Y00233*
X0141Y00231*
X01411Y00229*
X01411Y00228*
Y00226*
Y00226*
Y00226*
Y00225*
X01411Y00222*
X0141Y00218*
X0141Y00214*
X0141Y00211*
X01409Y00209*
X01409Y00206*
X01408Y00204*
X01407Y00202*
X01407Y002*
X01406Y00199*
X01405Y00197*
X01405Y00196*
X01404Y00196*
X01404Y00195*
X01404Y00195*
X01404Y00195*
X01403Y00193*
X01401Y00192*
X014Y00191*
X01398Y0019*
X01397Y00189*
X01395Y00188*
X01394Y00188*
X01392Y00187*
X01391Y00187*
X0139Y00187*
X01389Y00186*
X01388Y00186*
X01387*
X01386Y00186*
X01386*
X01384Y00186*
X01382Y00186*
X0138Y00187*
X01378Y00187*
X01377Y00188*
X01375Y00189*
X01374Y00189*
X01373Y0019*
X01372Y00191*
X01371Y00192*
X0137Y00192*
X0137Y00193*
X01369Y00193*
X01369Y00194*
X01368Y00194*
X01368Y00194*
X01367Y00196*
X01366Y00198*
X01365Y002*
X01364Y00203*
X01363Y00205*
X01363Y00208*
X01362Y00213*
X01361Y00216*
X01361Y00218*
X01361Y0022*
X01361Y00222*
X01361Y00223*
Y00224*
Y00225*
Y00225*
Y00225*
X01361Y00229*
X01361Y00233*
X01361Y00236*
X01362Y0024*
X01363Y00242*
X01363Y00245*
X01364Y00247*
X01365Y00249*
X01365Y00251*
X01366Y00253*
X01367Y00254*
X01367Y00255*
X01368Y00256*
X01368Y00256*
X01368Y00257*
X01368Y00257*
X0137Y00258*
X01371Y00259*
X01372Y0026*
X01374Y00261*
X01375Y00262*
X01377Y00263*
X01378Y00263*
X01379Y00264*
X01381Y00264*
X01382Y00264*
X01383Y00264*
X01384Y00265*
X01385Y00265*
X01386*
X01388Y00265*
G37*
G36*
X01133Y00188D02*
X01117D01*
Y00217*
X01103*
X01102Y00217*
X011*
X01099Y00217*
X01097Y00217*
X01096Y00217*
X01095Y00217*
X01094*
X01093Y00217*
X01093Y00217*
X01092Y00218*
X01092*
X01091Y00218*
X01091*
X0109Y00218*
X01088Y00219*
X01087Y00219*
X01085Y0022*
X01085Y0022*
X01084Y00221*
X01083Y00221*
X01083Y00221*
X01082Y00222*
X0108Y00224*
X01079Y00225*
X01078Y00226*
X01077Y00227*
X01077Y00228*
X01077Y00229*
X01076Y00229*
X01076Y00231*
X01075Y00233*
X01074Y00235*
X01074Y00237*
X01074Y00238*
X01074Y0024*
Y0024*
Y0024*
Y00241*
Y00241*
X01074Y00244*
X01075Y00247*
X01075Y00249*
X01076Y00252*
X01077Y00253*
X01077Y00254*
X01078Y00255*
X01078Y00255*
X01078Y00255*
X01078Y00256*
Y00256*
X0108Y00258*
X01082Y00259*
X01084Y00261*
X01086Y00262*
X01087Y00262*
X01088Y00263*
X01089Y00263*
X01089Y00263*
X01089Y00263*
X01089*
X0109Y00264*
X01091Y00264*
X01093Y00264*
X01094Y00264*
X01097Y00264*
X011Y00264*
X01102*
X01103Y00264*
X01133*
Y00188*
G37*
G36*
X01749D02*
X01733D01*
X01726Y00205*
X01695*
X01689Y00188*
X01672*
X01703Y00264*
X01719*
X01749Y00188*
G37*
G36*
X01663D02*
X01609D01*
Y00201*
X01648*
Y00264*
X01663*
Y00188*
G37*
G36*
X01294Y00216D02*
Y00203D01*
X01262*
Y00188*
X01248*
Y00203*
X01239*
Y00216*
X01248*
Y00265*
X0126*
X01294Y00216*
G37*
G36*
X0121Y00265D02*
X01212Y00264D01*
X01214Y00264*
X01215Y00264*
X01217Y00263*
X01218Y00262*
X0122Y00262*
X01221Y00261*
X01222Y0026*
X01223Y0026*
X01224Y00259*
X01224Y00259*
X01225Y00258*
X01225Y00258*
X01226Y00258*
X01226Y00257*
X01227Y00256*
X01228Y00255*
X01229Y00253*
X0123Y00251*
X0123Y0025*
X01231Y00248*
X01232Y00245*
X01232Y00244*
X01232Y00243*
X01232Y00242*
X01233Y00241*
X01233Y0024*
Y00239*
Y00239*
Y00239*
X01233Y00236*
X01232Y00235*
X01232Y00231*
X01231Y00229*
X01231Y00228*
X0123Y00227*
X01229Y00225*
X01229Y00224*
X01228Y00223*
X01228Y00222*
X01227Y00222*
X01227Y00221*
X01226Y00221*
X01226Y0022*
X01226Y0022*
X01225Y00219*
X01224Y00218*
X01222Y00217*
X01221Y00216*
X0122Y00216*
X01218Y00215*
X01216Y00214*
X01214Y00214*
X01213Y00214*
X01212Y00214*
X01211Y00213*
X01211*
X01209Y00214*
X01207Y00214*
X01205Y00214*
X01202Y00215*
X012Y00217*
X01199Y00218*
X01198Y00219*
X01197Y00219*
X01197Y0022*
X01197Y0022*
X01197Y0022*
X01197Y00218*
X01197Y00215*
X01197Y00213*
X01198Y00212*
X01198Y0021*
X01198Y00209*
X01199Y00207*
X01199Y00206*
X01199Y00205*
X012Y00204*
X012Y00204*
X012Y00203*
X012Y00203*
X01201Y00203*
X01201Y00202*
X01202Y00201*
X01203Y002*
X01205Y00199*
X01206Y00199*
X01207Y00199*
X01208Y00198*
X01208Y00198*
X01208*
X0121Y00198*
X01211Y00199*
X01212Y00199*
X01213Y00199*
X01213Y002*
X01214Y002*
X01214Y002*
X01214Y002*
X01215Y00201*
X01216Y00202*
X01216Y00203*
X01216Y00204*
X01217Y00205*
X01217Y00206*
X01217Y00207*
Y00207*
X01231Y00205*
X0123Y00202*
X01229Y00199*
X01228Y00197*
X01227Y00195*
X01226Y00193*
X01225Y00192*
X01224Y00191*
X01224Y00191*
Y00191*
X01222Y00189*
X01219Y00188*
X01217Y00187*
X01215Y00187*
X01213Y00186*
X01212Y00186*
X01211*
X0121Y00186*
X01209*
X01207Y00186*
X01205Y00186*
X01203Y00187*
X01201Y00188*
X01199Y00188*
X01198Y00189*
X01196Y0019*
X01195Y00191*
X01193Y00192*
X01192Y00192*
X01191Y00193*
X01191Y00194*
X0119Y00195*
X0119Y00195*
X01189Y00195*
X01189Y00195*
X01188Y00197*
X01187Y00199*
X01186Y00202*
X01185Y00204*
X01184Y00207*
X01183Y00209*
X01182Y00214*
X01182Y00216*
X01182Y00219*
X01182Y00221*
X01181Y00222*
X01181Y00224*
Y00225*
Y00226*
Y00226*
X01181Y0023*
X01182Y00233*
X01182Y00236*
X01183Y00239*
X01183Y00242*
X01184Y00244*
X01184Y00247*
X01185Y00248*
X01186Y0025*
X01187Y00252*
X01187Y00253*
X01188Y00254*
X01188Y00255*
X01189Y00255*
X01189Y00255*
X01189Y00256*
X0119Y00257*
X01192Y00259*
X01193Y0026*
X01195Y00261*
X01197Y00262*
X01198Y00262*
X012Y00263*
X01201Y00264*
X01203Y00264*
X01204Y00264*
X01205Y00264*
X01206Y00265*
X01207Y00265*
X01208*
X0121Y00265*
G37*
G36*
X01511Y00172D02*
X01513Y00171D01*
X01515Y00171*
X01517Y0017*
X01518Y0017*
X01519Y00169*
X01521Y00168*
X01522Y00168*
X01523Y00167*
X01524Y00166*
X01525Y00166*
X01525Y00165*
X01526Y00164*
X01526Y00164*
X01526Y00164*
X01527Y00164*
X01528Y00162*
X01529Y0016*
X0153Y00157*
X01531Y00155*
X01532Y00152*
X01532Y0015*
X01533Y00145*
X01533Y00142*
X01534Y0014*
X01534Y00138*
X01534Y00136*
X01534Y00135*
Y00133*
Y00133*
Y00133*
Y00132*
X01534Y00129*
X01534Y00125*
X01533Y00121*
X01533Y00118*
X01532Y00116*
X01532Y00113*
X01531Y00111*
X01531Y00109*
X0153Y00107*
X01529Y00106*
X01529Y00104*
X01528Y00103*
X01528Y00103*
X01527Y00102*
X01527Y00102*
X01527Y00102*
X01526Y001*
X01524Y00099*
X01523Y00098*
X01521Y00097*
X0152Y00096*
X01518Y00095*
X01517Y00095*
X01516Y00094*
X01514Y00094*
X01513Y00094*
X01512Y00093*
X01511Y00093*
X0151*
X0151Y00093*
X01509*
X01507Y00093*
X01505Y00093*
X01503Y00094*
X01502Y00094*
X015Y00095*
X01499Y00096*
X01497Y00096*
X01496Y00097*
X01495Y00098*
X01494Y00099*
X01493Y00099*
X01493Y001*
X01492Y001*
X01492Y00101*
X01492Y00101*
X01492Y00101*
X0149Y00103*
X01489Y00105*
X01488Y00107*
X01487Y0011*
X01487Y00112*
X01486Y00115*
X01485Y0012*
X01485Y00123*
X01484Y00125*
X01484Y00127*
X01484Y00129*
X01484Y0013*
Y00131*
Y00132*
Y00132*
Y00132*
X01484Y00136*
X01484Y0014*
X01485Y00143*
X01485Y00147*
X01486Y00149*
X01486Y00152*
X01487Y00154*
X01488Y00156*
X01489Y00158*
X01489Y0016*
X0149Y00161*
X0149Y00162*
X01491Y00163*
X01491Y00163*
X01491Y00164*
X01492Y00164*
X01493Y00165*
X01494Y00166*
X01496Y00167*
X01497Y00168*
X01498Y00169*
X015Y0017*
X01501Y0017*
X01503Y00171*
X01504Y00171*
X01505Y00171*
X01506Y00171*
X01507Y00172*
X01508Y00172*
X01509*
X01511Y00172*
G37*
G36*
X01605Y00095D02*
X01592D01*
X0157Y0015*
X01585*
X01595Y00122*
X01596Y0012*
X01597Y00119*
X01597Y00118*
X01597Y00117*
X01597Y00117*
Y00117*
X01597Y00116*
X01597Y00116*
X01598Y00114*
X01598Y00113*
X01598Y00113*
X01599Y00112*
Y00112*
X01602Y00122*
X01612Y0015*
X01628*
X01605Y00095*
G37*
G36*
X01661Y00151D02*
X01663Y00151D01*
X01665Y00151*
X01667Y0015*
X01668Y0015*
X0167Y00149*
X01671Y00148*
X01672Y00147*
X01673Y00147*
X01674Y00146*
X01675Y00145*
X01676Y00145*
X01677Y00144*
X01677Y00144*
X01677Y00144*
X01677Y00143*
X01679Y00142*
X0168Y0014*
X01681Y00139*
X01681Y00137*
X01682Y00135*
X01683Y00133*
X01684Y0013*
X01684Y00128*
X01684Y00127*
X01684Y00125*
X01684Y00124*
X01684Y00123*
Y00122*
Y00122*
Y00122*
X01684Y0012*
X01684Y00118*
X01684Y00114*
X01683Y00112*
X01683Y00111*
X01682Y00109*
X01682Y00108*
X01681Y00107*
X01681Y00106*
X0168Y00105*
X0168Y00104*
X0168Y00103*
X01679Y00103*
X01679Y00103*
Y00103*
X01678Y00101*
X01676Y00099*
X01675Y00098*
X01673Y00097*
X01671Y00096*
X01669Y00095*
X01667Y00095*
X01666Y00094*
X01664Y00094*
X01662Y00094*
X01661Y00093*
X0166Y00093*
X01659*
X01658Y00093*
X01658*
X01654Y00093*
X01651Y00094*
X01649Y00094*
X01647Y00095*
X01645Y00096*
X01644Y00096*
X01643Y00097*
X01643Y00097*
X01643Y00097*
X01642Y00097*
X01642*
X0164Y00099*
X01638Y00101*
X01637Y00103*
X01636Y00105*
X01635Y00107*
X01634Y00108*
X01634Y00108*
X01634Y00109*
X01633Y00109*
X01633Y0011*
Y0011*
X01648Y00112*
X01648Y00111*
X01649Y00109*
X0165Y00108*
X0165Y00108*
X01651Y00107*
X01651Y00106*
X01651Y00106*
X01652Y00106*
X01653Y00105*
X01653Y00105*
X01655Y00105*
X01655Y00104*
X01656Y00104*
X01657Y00104*
X01657*
X01659Y00104*
X01661Y00105*
X01662Y00105*
X01664Y00106*
X01665Y00107*
X01665Y00107*
X01666Y00108*
X01666Y00108*
X01667Y00109*
X01668Y00111*
X01668Y00113*
X01669Y00114*
X01669Y00116*
X01669Y00117*
X01669Y00118*
Y00118*
Y00118*
Y00118*
X01632*
Y00121*
X01633Y00124*
X01633Y00127*
X01633Y00129*
X01634Y00131*
X01635Y00133*
X01635Y00135*
X01636Y00137*
X01636Y00138*
X01637Y0014*
X01638Y00141*
X01638Y00142*
X01639Y00142*
X01639Y00143*
X01639Y00143*
X01639Y00143*
X01641Y00145*
X01642Y00146*
X01644Y00147*
X01645Y00148*
X01647Y00149*
X01649Y00149*
X0165Y0015*
X01652Y0015*
X01653Y00151*
X01655Y00151*
X01656Y00151*
X01657Y00151*
X01658Y00151*
X01659*
X01661Y00151*
G37*
G36*
X01758Y00095D02*
X01742D01*
Y00127*
X01737*
X01735Y00127*
X01734Y00126*
X01733Y00126*
X01732Y00126*
X01732Y00126*
X01731Y00126*
X01731*
X0173Y00125*
X01729Y00125*
X01728Y00124*
X01727Y00123*
X01727Y00123*
X01727Y00123*
X01727Y00123*
X01726Y00122*
X01726Y00121*
X01724Y0012*
X01723Y00118*
X01722Y00116*
X0172Y00114*
X0172Y00113*
X01719Y00113*
X01719Y00112*
X01719Y00112*
X01718Y00111*
X01718Y00111*
X01707Y00095*
X01689*
X01698Y0011*
X01699Y00111*
X017Y00113*
X01701Y00114*
X01702Y00115*
X01703Y00117*
X01705Y00119*
X01706Y0012*
X01706Y00121*
X01707Y00122*
X01707Y00122*
X01708Y00123*
X0171Y00124*
X01711Y00126*
X01712Y00127*
X01713Y00127*
X01714Y00128*
X01715Y00128*
X01715Y00128*
X01715*
X01713Y00129*
X01712Y00129*
X0171Y0013*
X01709Y0013*
X01707Y00131*
X01706Y00131*
X01705Y00132*
X01704Y00132*
X01703Y00133*
X01702Y00134*
X01702Y00134*
X01701Y00135*
X01701Y00135*
X017Y00135*
X017Y00135*
Y00136*
X01699Y00137*
X01698Y00138*
X01697Y0014*
X01696Y00143*
X01695Y00145*
X01695Y00147*
X01695Y00148*
Y00148*
X01695Y00149*
Y00149*
Y0015*
Y0015*
X01695Y00152*
X01695Y00155*
X01696Y00157*
X01697Y00158*
X01697Y0016*
X01698Y00161*
X01698Y00162*
X01698Y00162*
X017Y00164*
X01701Y00165*
X01703Y00167*
X01704Y00168*
X01705Y00168*
X01706Y00169*
X01707Y00169*
X01707Y00169*
X01707*
X01708Y0017*
X0171Y0017*
X01712Y00171*
X01715Y00171*
X01718Y00171*
X0172Y00171*
X01722*
X01723Y00171*
X01758*
Y00095*
G37*
G36*
X01329Y00265D02*
X01331Y00264D01*
X01333Y00264*
X01335Y00264*
X01336Y00263*
X01337Y00263*
X01338Y00262*
X01338Y00262*
X01338*
X0134Y00261*
X01342Y0026*
X01343Y00259*
X01344Y00258*
X01345Y00257*
X01346Y00256*
X01346Y00256*
X01346Y00256*
X01347Y00254*
X01348Y00252*
X01349Y0025*
X01349Y00249*
X0135Y00247*
X0135Y00246*
X0135Y00245*
Y00245*
X0135Y00245*
Y00244*
X01337Y00242*
X01337Y00244*
X01336Y00246*
X01336Y00247*
X01335Y00248*
X01335Y00249*
X01334Y00249*
X01334Y0025*
X01334Y0025*
X01333Y00251*
X01331Y00251*
X0133Y00252*
X01329Y00252*
X01328Y00252*
X01328Y00253*
X01327*
X01326Y00252*
X01324Y00252*
X01323Y00252*
X01322Y00251*
X01322Y00251*
X01321Y00251*
X01321Y0025*
X01321Y0025*
X0132Y00249*
X01319Y00248*
X01319Y00247*
X01319Y00246*
X01319Y00245*
X01318Y00245*
Y00244*
Y00244*
X01319Y00242*
X01319Y00241*
X0132Y0024*
X0132Y00239*
X01321Y00238*
X01321Y00237*
X01322Y00237*
X01322Y00237*
X01323Y00236*
X01325Y00235*
X01326Y00235*
X01328Y00234*
X01329Y00234*
X0133Y00234*
X01331*
X01333Y00222*
X01331Y00223*
X0133Y00223*
X01329Y00223*
X01328Y00223*
X01327Y00223*
X01326*
X01324Y00223*
X01323Y00223*
X01322Y00222*
X01321Y00222*
X0132Y00221*
X01319Y00221*
X01319Y0022*
X01318Y0022*
X01317Y00219*
X01317Y00217*
X01316Y00216*
X01316Y00214*
X01316Y00213*
X01315Y00212*
Y00211*
Y00211*
Y00211*
X01316Y00209*
X01316Y00207*
X01316Y00206*
X01317Y00204*
X01318Y00203*
X01318Y00202*
X01318Y00202*
X01319Y00202*
X0132Y00201*
X01321Y002*
X01322Y00199*
X01324Y00199*
X01325Y00199*
X01326Y00198*
X01326*
X01328Y00198*
X01329Y00199*
X0133Y00199*
X01331Y002*
X01332Y002*
X01333Y00201*
X01333Y00201*
X01334Y00201*
X01335Y00202*
X01335Y00204*
X01336Y00205*
X01337Y00206*
X01337Y00208*
X01337Y00209*
X01337Y00209*
Y00209*
Y0021*
X01352Y00208*
X01351Y00206*
X01351Y00204*
X0135Y00201*
X01349Y00199*
X01347Y00196*
X01346Y00195*
X01346Y00195*
X01345Y00194*
X01345Y00193*
X01344Y00193*
X01344Y00192*
X01344Y00192*
X01344Y00192*
X01342Y00191*
X01341Y0019*
X01339Y00189*
X01338Y00189*
X01335Y00188*
X01332Y00187*
X01331Y00187*
X0133Y00186*
X01329Y00186*
X01328Y00186*
X01327Y00186*
X01326*
X01324Y00186*
X01322Y00186*
X0132Y00187*
X01319Y00187*
X01317Y00188*
X01316Y00188*
X01314Y00189*
X01313Y0019*
X01312Y0019*
X01311Y00191*
X0131Y00192*
X01309Y00192*
X01309Y00193*
X01308Y00193*
X01308Y00193*
X01308Y00193*
X01307Y00195*
X01305Y00196*
X01304Y00198*
X01303Y00199*
X01303Y002*
X01302Y00202*
X01301Y00205*
X01301Y00206*
X01301Y00207*
X01301Y00208*
X013Y00209*
X013Y0021*
Y0021*
Y0021*
Y00211*
X013Y00213*
X01301Y00215*
X01302Y00217*
X01302Y00219*
X01303Y00221*
X01304Y00222*
X01304Y00222*
X01304Y00222*
X01306Y00224*
X01308Y00225*
X01309Y00227*
X01311Y00227*
X01313Y00228*
X01314Y00229*
X01314Y00229*
X01315*
X01315Y00229*
X01315*
X01313Y0023*
X01311Y00231*
X0131Y00233*
X01308Y00234*
X01307Y00235*
X01306Y00237*
X01306Y00238*
X01305Y00239*
X01305Y0024*
X01304Y00241*
X01304Y00242*
X01304Y00243*
Y00244*
X01304Y00244*
Y00245*
Y00245*
Y00246*
X01304Y00248*
X01305Y0025*
X01305Y00252*
X01306Y00254*
X01307Y00256*
X01308Y00257*
X01309Y00257*
X01309Y00257*
X01309Y00258*
X01309Y00258*
X01311Y00259*
X01312Y0026*
X01313Y00261*
X01315Y00262*
X01316Y00262*
X01318Y00263*
X0132Y00264*
X01322Y00264*
X01323Y00264*
X01324Y00264*
X01325Y00265*
X01326Y00265*
X01327*
X01329Y00265*
G37*
G36*
X01813Y00652D02*
X01814D01*
X01812Y00555*
X01813Y00556*
Y00493*
X01614Y00494*
Y00591*
X01612*
Y00692*
X01814Y00693*
X01813Y00652*
G37*
%LNcn0349-2*%
%LPC*%
G36*
X01773Y00652D02*
X01653Y00592D01*
X01773Y00532*
Y00652*
G37*
G36*
X0151Y0016D02*
X01509D01*
X01508Y00159*
X01507Y00159*
X01506Y00159*
X01506Y00159*
X01505Y00158*
X01505Y00158*
X01505Y00158*
X01504Y00158*
X01504Y00157*
X01503Y00156*
X01502Y00154*
X01502Y00153*
X01501Y00152*
X01501Y00151*
Y00151*
Y00151*
X01501Y0015*
X01501Y00149*
X015Y00147*
X015Y00146*
X015Y00143*
X015Y0014*
Y00138*
Y00137*
X015Y00136*
Y00135*
Y00134*
Y00133*
Y00132*
Y00132*
Y0013*
X015Y00128*
Y00126*
X015Y00124*
X015Y00122*
X015Y0012*
X015Y00119*
X015Y00118*
X01501Y00117*
X01501Y00116*
X01501Y00115*
X01501Y00114*
X01501Y00114*
Y00113*
X01501Y00113*
Y00113*
X01502Y00112*
X01502Y0011*
X01503Y00109*
X01503Y00108*
X01504Y00108*
X01504Y00107*
X01504Y00107*
X01504Y00107*
X01505Y00106*
X01506Y00106*
X01508Y00106*
X01508Y00105*
X01509Y00105*
X01509*
X0151Y00105*
X01511Y00106*
X01512Y00106*
X01512Y00106*
X01513Y00106*
X01514Y00107*
X01514Y00107*
X01514Y00107*
X01515Y00108*
X01515Y00109*
X01516Y0011*
X01516Y00111*
X01517Y00112*
X01517Y00113*
X01517Y00113*
X01517Y00114*
X01517Y00115*
X01518Y00116*
X01518Y00117*
X01518Y00119*
X01518Y00122*
X01518Y00125*
Y00126*
Y00128*
X01518Y00129*
Y0013*
Y00131*
Y00132*
Y00132*
Y00132*
Y00135*
X01518Y00137*
Y00139*
X01518Y00141*
X01518Y00143*
X01518Y00144*
X01518Y00146*
X01518Y00147*
X01518Y00148*
X01517Y00149*
X01517Y0015*
X01517Y00151*
X01517Y00151*
X01517Y00151*
Y00152*
Y00152*
X01517Y00153*
X01516Y00155*
X01516Y00156*
X01515Y00156*
X01515Y00157*
X01514Y00157*
X01514Y00158*
X01514Y00158*
X01513Y00158*
X01512Y00159*
X01511Y00159*
X01511Y00159*
X0151Y00159*
X0151Y0016*
G37*
G36*
X01659Y0014D02*
X01658D01*
X01656Y0014*
X01655Y0014*
X01654Y00139*
X01653Y00139*
X01652Y00138*
X01651Y00137*
X01651Y00137*
X01651Y00137*
X01649Y00135*
X01649Y00134*
X01648Y00132*
X01648Y00131*
X01647Y00129*
X01647Y00128*
X01647Y00128*
Y00127*
Y00127*
Y00127*
X01669*
X01669Y00129*
X01669Y00131*
X01668Y00133*
X01668Y00134*
X01667Y00135*
X01667Y00136*
X01666Y00136*
X01666Y00137*
X01665Y00138*
X01664Y00139*
X01662Y00139*
X01661Y0014*
X0166Y0014*
X01659Y0014*
G37*
G36*
X01742Y00158D02*
X01724D01*
X01723Y00158*
X01721*
X0172Y00158*
X01719*
X01719Y00158*
X01719*
X01718Y00158*
X01716Y00157*
X01715Y00157*
X01715Y00156*
X01714Y00156*
X01713Y00155*
X01713Y00155*
X01713Y00155*
X01712Y00154*
X01712Y00153*
X01711Y00152*
X01711Y00151*
X01711Y0015*
X01711Y0015*
Y00149*
Y00149*
X01711Y00148*
X01711Y00147*
X01711Y00145*
X01712Y00145*
X01712Y00144*
X01712Y00143*
X01712Y00143*
X01713Y00143*
X01713Y00142*
X01714Y00142*
X01715Y00141*
X01716Y0014*
X01716Y0014*
X01717Y0014*
X01717*
X01718Y0014*
X01718Y0014*
X01719Y00139*
X0172Y00139*
X01722Y00139*
X01725Y00139*
X01727Y00139*
X01742*
Y00158*
G37*
G36*
X01209Y00253D02*
X01209D01*
X01207Y00252*
X01206Y00252*
X01204Y00251*
X01203Y00251*
X01202Y0025*
X01202Y00249*
X01201Y00249*
X01201Y00249*
X012Y00247*
X01199Y00245*
X01199Y00243*
X01198Y00242*
X01198Y0024*
X01198Y00239*
Y00238*
Y00238*
Y00238*
Y00237*
X01198Y00235*
X01198Y00233*
X01199Y00231*
X01199Y0023*
X012Y00229*
X012Y00228*
X01201Y00228*
X01201Y00227*
X01202Y00226*
X01203Y00226*
X01204Y00225*
X01205Y00225*
X01206Y00224*
X01207Y00224*
X01208*
X0121Y00224*
X01211Y00225*
X01212Y00225*
X01213Y00226*
X01214Y00227*
X01215Y00227*
X01215Y00227*
X01215Y00228*
X01216Y00229*
X01217Y00231*
X01217Y00233*
X01218Y00234*
X01218Y00236*
X01218Y00237*
Y00238*
Y00238*
Y00238*
Y00239*
X01218Y00241*
X01218Y00243*
X01217Y00245*
X01217Y00247*
X01216Y00248*
X01216Y00249*
X01216Y00249*
X01216Y00249*
X01215Y0025*
X01213Y00251*
X01212Y00252*
X01211Y00252*
X0121Y00252*
X01209Y00253*
G37*
G36*
X01711Y00247D02*
X017Y00218D01*
X01722*
X01711Y00247*
G37*
G36*
X01262Y00242D02*
Y00216D01*
X0128*
X01262Y00242*
G37*
G36*
X01386Y00253D02*
X01386D01*
X01385Y00252*
X01384Y00252*
X01383Y00252*
X01382Y00252*
X01382Y00251*
X01381Y00251*
X01381Y00251*
X01381Y00251*
X0138Y0025*
X0138Y00249*
X01379Y00247*
X01378Y00246*
X01378Y00245*
X01378Y00244*
Y00244*
Y00244*
X01378Y00243*
X01377Y00242*
X01377Y0024*
X01377Y00239*
X01377Y00236*
X01376Y00233*
Y00231*
Y0023*
X01376Y00229*
Y00228*
Y00227*
Y00226*
Y00225*
Y00225*
Y00223*
X01376Y00221*
Y00219*
X01377Y00217*
X01377Y00215*
X01377Y00213*
X01377Y00212*
X01377Y00211*
X01377Y0021*
X01377Y00209*
X01378Y00208*
X01378Y00207*
X01378Y00207*
Y00206*
X01378Y00206*
Y00206*
X01378Y00205*
X01379Y00203*
X01379Y00202*
X0138Y00201*
X0138Y00201*
X01381Y002*
X01381Y002*
X01381Y002*
X01382Y00199*
X01383Y00199*
X01384Y00199*
X01385Y00198*
X01385Y00198*
X01386*
X01387Y00198*
X01388Y00199*
X01388Y00199*
X01389Y00199*
X0139Y00199*
X0139Y002*
X0139Y002*
X01391Y002*
X01391Y00201*
X01392Y00202*
X01392Y00203*
X01393Y00204*
X01393Y00205*
X01394Y00206*
X01394Y00206*
X01394Y00207*
X01394Y00208*
X01394Y00209*
X01394Y0021*
X01394Y00212*
X01395Y00215*
X01395Y00218*
Y00219*
Y00221*
X01395Y00222*
Y00223*
Y00224*
Y00225*
Y00225*
Y00225*
Y00228*
X01395Y0023*
Y00232*
X01395Y00234*
X01395Y00236*
X01395Y00237*
X01394Y00239*
X01394Y0024*
X01394Y00241*
X01394Y00242*
X01394Y00243*
X01394Y00244*
X01394Y00244*
X01394Y00244*
Y00245*
Y00245*
X01393Y00246*
X01393Y00248*
X01392Y00249*
X01392Y00249*
X01391Y0025*
X01391Y0025*
X01391Y00251*
X01391Y00251*
X0139Y00251*
X01389Y00252*
X01388Y00252*
X01387Y00252*
X01387Y00252*
X01386Y00253*
G37*
G36*
X00956Y00251D02*
X00946D01*
X00944Y00251*
X00943*
X00942Y00251*
X00941*
X0094Y00251*
X00939*
X00938Y00251*
X00937Y00251*
X00937Y00251*
X00937*
X00935Y0025*
X00934Y0025*
X00932Y00249*
X00931Y00249*
X00931Y00248*
X0093Y00248*
X00929Y00247*
X00929Y00247*
X00928Y00246*
X00927Y00245*
X00927Y00244*
X00926Y00242*
X00926Y00241*
X00925Y0024*
X00925Y0024*
X00925Y0024*
X00924Y00238*
X00924Y00235*
X00924Y00233*
X00924Y00231*
X00924Y00229*
X00923Y00228*
Y00227*
Y00227*
Y00226*
Y00226*
Y00226*
X00924Y00223*
X00924Y0022*
X00924Y00218*
X00924Y00216*
X00925Y00214*
X00925Y00213*
X00925Y00212*
Y00212*
X00925Y00212*
Y00212*
X00926Y0021*
X00926Y00209*
X00927Y00207*
X00928Y00206*
X00928Y00205*
X00929Y00205*
X00929Y00205*
X00929Y00204*
X0093Y00204*
X00931Y00203*
X00933Y00202*
X00934Y00202*
X00935Y00201*
X00935Y00201*
X00935*
X00937Y00201*
X00938Y00201*
X0094Y00201*
X00941*
X00942Y00201*
X00956*
Y00251*
G37*
G36*
X01117D02*
X01106D01*
X01105Y00251*
X01103Y00251*
X01101*
X011Y00251*
X01099Y00251*
X01099Y00251*
X01099*
X01097Y00251*
X01096Y0025*
X01095Y00249*
X01094Y00249*
X01093Y00248*
X01093Y00248*
X01092Y00248*
X01092Y00247*
X01092Y00246*
X01091Y00245*
X0109Y00244*
X0109Y00243*
X0109Y00242*
X0109Y00241*
Y00241*
Y0024*
X0109Y00239*
X0109Y00238*
X0109Y00237*
X01091Y00236*
X01091Y00236*
X01091Y00235*
X01092Y00235*
X01092Y00235*
X01092Y00234*
X01093Y00233*
X01094Y00232*
X01095Y00232*
X01096Y00231*
X01096Y00231*
X01096Y00231*
X01097Y00231*
X01097Y00231*
X01098Y0023*
X011Y0023*
X01102Y0023*
X01104Y0023*
X01106*
X01107Y0023*
X01117*
Y00251*
G37*
%LNcn0349-3*%
%LPD*%
G54D11*
X01575Y00579D02*
Y00498D01*
Y00579D02*
X01548D01*
X01536Y00575*
X01528Y00567*
X01524Y00559*
X01521Y00548*
Y00528*
X01524Y00517*
X01528Y00509*
X01536Y00501*
X01548Y00498*
X01575*
X01452Y00579D02*
X01502D01*
Y00498*
X01452*
X01502Y0054D02*
X01472D01*
X01439Y00579D02*
X01408Y00498D01*
X01377Y00579D02*
X01408Y00498D01*
X01367Y00579D02*
Y00498D01*
X01292Y00559D02*
X01296Y00567D01*
X01303Y00575*
X01311Y00579*
X01327*
X01334Y00575*
X01342Y00567*
X01346Y00559*
X0135Y00548*
Y00528*
X01346Y00517*
X01342Y00509*
X01334Y00501*
X01327Y00498*
X01311*
X01303Y00501*
X01296Y00509*
X01292Y00517*
X01219Y00579D02*
X01269D01*
Y00498*
X01219*
X01269Y0054D02*
X01238D01*
X01152Y00567D02*
X01159Y00575D01*
X01171Y00579*
X01186*
X01198Y00575*
X01206Y00567*
Y00559*
X01202Y00552*
X01198Y00548*
X0119Y00544*
X01167Y00536*
X01159Y00532*
X01155Y00528*
X01152Y00521*
Y00509*
X01159Y00501*
X01171Y00498*
X01186*
X01198Y00501*
X01206Y00509*
X01516Y00606D02*
X01546Y00686D01*
X01577Y00606*
X01565Y00632D02*
X01527D01*
X01497Y00686D02*
Y00606D01*
Y00686D02*
X01444Y00606D01*
Y00686D02*
Y00606D01*
X01361D02*
X01391Y00686D01*
X01422Y00606*
X0141Y00632D02*
X01372D01*
X01342Y00686D02*
Y00606D01*
X01296*
X01265Y00686D02*
X01272Y00682D01*
X0128Y00674*
X01284Y00666*
X01287Y00655*
Y00636*
X01284Y00625*
X0128Y00617*
X01272Y00609*
X01265Y00606*
X01249*
X01242Y00609*
X01234Y00617*
X0123Y00625*
X01227Y00636*
Y00655*
X0123Y00666*
X01234Y00674*
X01242Y00682*
X01249Y00686*
X01265*
X01151Y00666D02*
X01155Y00674D01*
X01162Y00682*
X0117Y00686*
X01185*
X01193Y00682*
X012Y00674*
X01204Y00666*
X01208Y00655*
Y00636*
X01204Y00625*
X012Y00617*
X01193Y00609*
X01185Y00606*
X0117*
X01162Y00609*
X01155Y00617*
X01151Y00625*
Y00636*
X0117D02*
X01151D01*
G54D33*
X00656Y0024D02*
D01*
D01*
G75*
G03X00396I-00130J0D01*
G74*G01*
D01*
G75*
G03X00656I00130J0D01*
G74*G01*
X00586D02*
D01*
D01*
G75*
G03X00466I-00060J0D01*
G74*G01*
D01*
G75*
G03X00586I00060J0D01*
G74*G01*
X00447Y00244D02*
X00419Y00228D01*
X00413Y00227*
X0041Y00229*
X00408Y00233*
X00439Y00233D02*
X00432Y00244D01*
X0045Y00205D02*
X0043Y00188D01*
X00444Y002D02*
X00445Y00208D01*
X00444Y00212*
X0044Y00216*
X00436Y00218*
X00431Y00216*
X00416Y00204*
X00457Y0019D02*
X00437Y00173D01*
X00453Y00187D02*
X00458Y00186D01*
X00462Y00184*
X00466Y0018*
X00467Y00176*
X00466Y0017*
X00463Y00165*
X0046Y00163*
X00455Y00161*
X00449Y00161*
X00445Y00163*
X00442Y00167*
X00441Y00171*
X00441Y00177*
X00486Y00176D02*
X00483Y00175D01*
X00482Y00178*
X00485Y00179*
X00486Y00176*
X00479Y00165D02*
X0047Y0014D01*
X00498Y00169D02*
X00495Y0013D01*
X00533Y00163D02*
Y00123D01*
Y00157D02*
X00529Y00161D01*
X00525Y00163*
X00519*
X00515Y00161*
X00512Y00157*
X0051Y00152*
Y00148*
X00512Y00142*
X00515Y00138*
X00519Y00137*
X00525*
X00529Y00138*
X00533Y00142*
X00579Y0018D02*
X00593Y00157D01*
X00583Y00173D02*
X00575Y00175D01*
X00571Y00175*
X00566Y00172*
X00564Y00168*
X00565Y00163*
X00574Y00146*
X00565Y00163D02*
X00557Y00165D01*
X00553Y00164*
X00548Y00162*
X00546Y00158*
X00547Y00152*
X00556Y00136*
X00595Y00197D02*
X00598Y00199D01*
X00603Y002*
X00609Y00199*
X00613Y00197*
X00617Y00193*
X00618Y00188*
X00618Y00183*
X00615Y00178*
X00611Y00176*
X00606Y00175*
X006Y00176*
X00597Y00178*
X00593Y00182*
X00592Y00187*
X00592Y00192*
X00595Y00197*
X00604Y00215D02*
X00602Y00219D01*
X006Y00224*
X006Y00228*
X00604Y00235*
X00608Y00237*
X00613Y00238*
X00617Y00238*
X00623Y00237*
X00631Y00232*
X00635Y00228*
X00638Y00224*
X00639Y00219*
X00639Y00215*
X00635Y00208*
X00631Y00206*
X00626Y00204*
X00622Y00205*
X00614Y00314D02*
X00583Y00283D01*
X00614Y00314D02*
X00601Y00328D01*
X00595Y00331*
X00592*
X00587Y0033*
X00584Y00326*
X00583Y00322*
Y00319*
X00586Y00313*
X00599Y00299*
X00589Y0031D02*
X00561Y00304D01*
X00555Y00338D02*
X00558Y00335D01*
X00561Y00329*
X0056Y00323*
X00559Y00319*
X00555Y00313*
X00549Y00311*
X00544Y0031*
X00538Y00312*
X00535Y00316*
X00533Y00321*
X00533Y00328*
X00534Y00332*
X00538Y00337*
X00544Y0034*
X00549Y00341*
X00555Y00338*
X0049Y00306D02*
X00483Y00351D01*
X0052Y00311D02*
X00512Y00356D01*
X00487Y00327D02*
X00516Y00333D01*
X00479Y00301D02*
X00477Y00295D01*
X00473Y0029*
X00465Y00286*
X00459Y00285*
X00453Y00286*
X00451Y0029*
X0045Y00295*
X00451Y00298*
X00454Y00302*
X00463Y00312*
X00465Y00316*
X00466Y00319*
X00466Y00323*
X00463Y00329*
X00457Y00331*
X0045Y00329*
X00443Y00325*
X00438Y0032*
X00437Y00314*
G54D35*
X00537Y00209D02*
X00562Y00243D01*
X00496Y00267D02*
X00537Y00209D01*
X01613Y00493D02*
Y00692D01*
X01813*
X01613Y00493D02*
X01614Y00492D01*
X01813*
Y00692*
G54D60*
X02239Y00581D02*
X02246D01*
X02233Y0058D02*
X02254D01*
X02229Y00579D02*
X02258D01*
X02226Y00578D02*
X02262D01*
X02223Y00577D02*
X02265D01*
X02221Y00577D02*
X02267D01*
X02219Y00576D02*
X0227D01*
X02217Y00575D02*
X02271D01*
X02215Y00574D02*
X02273D01*
X02214Y00573D02*
X02275D01*
X02212Y00573D02*
X02277D01*
X02211Y00572D02*
X02278D01*
X0221Y00571D02*
X02279D01*
X02208Y0057D02*
X02281D01*
X02207Y00569D02*
X02282D01*
X02206Y00569D02*
X02283D01*
X02205Y00568D02*
X02285D01*
X02203Y00567D02*
X02286D01*
X02202Y00566D02*
X02287D01*
X02202Y00565D02*
X02288D01*
X022Y00565D02*
X02289D01*
X02199Y00564D02*
X0229D01*
X02198Y00563D02*
X02291D01*
X02198Y00562D02*
X02292D01*
X02197Y00561D02*
X02293D01*
X02196Y00561D02*
X02294D01*
X02194Y0056D02*
X02294D01*
X02194Y00559D02*
X02295D01*
X02193Y00558D02*
X02296D01*
X02193Y00557D02*
X02297D01*
X02247Y00557D02*
X02298D01*
X02192D02*
X02238D01*
X02252Y00556D02*
X02298D01*
X02191D02*
X02234D01*
X02256Y00555D02*
X02299D01*
X0219D02*
X02231D01*
X02258Y00554D02*
X023D01*
X0219D02*
X02229D01*
X02261Y00553D02*
X02301D01*
X02189D02*
X02226D01*
X02262Y00553D02*
X02302D01*
X02188D02*
X02225D01*
X02265Y00552D02*
X02302D01*
X02187D02*
X02223D01*
X02266Y00551D02*
X02302D01*
X02186D02*
X02222D01*
X02267Y0055D02*
X02303D01*
X02186D02*
X0222D01*
X02269Y00549D02*
X02304D01*
X02186D02*
X02219D01*
X0227Y00549D02*
X02304D01*
X02185D02*
X02218D01*
X02271Y00548D02*
X02305D01*
X02184D02*
X02217D01*
X02273Y00547D02*
X02306D01*
X02184D02*
X02215D01*
X02274Y00546D02*
X02306D01*
X02183D02*
X02214D01*
X02274Y00545D02*
X02306D01*
X02182D02*
X02214D01*
X02275Y00545D02*
X02307D01*
X02182D02*
X02213D01*
X02277Y00544D02*
X02307D01*
X02182D02*
X02211D01*
X02278Y00543D02*
X02308D01*
X02181D02*
X0221D01*
X02278Y00542D02*
X02308D01*
X0218D02*
X0221D01*
X02279Y00541D02*
X02309D01*
X0218D02*
X02209D01*
X0228Y00541D02*
X02309D01*
X02179D02*
X02208D01*
X02281Y0054D02*
X0231D01*
X02242D02*
X02245D01*
X02179D02*
X02207D01*
X02282Y00539D02*
X0231D01*
X02236D02*
X02251D01*
X02178D02*
X02206D01*
X02282Y00538D02*
X0231D01*
X02233D02*
X02254D01*
X02178D02*
X02206D01*
X02282Y00537D02*
X0231D01*
X0223D02*
X02256D01*
X02178D02*
X02205D01*
X02283Y00537D02*
X02311D01*
X02229D02*
X02258D01*
X02177D02*
X02205D01*
X02284Y00536D02*
X02311D01*
X02227D02*
X0226D01*
X02177D02*
X02204D01*
X02284Y00535D02*
X02312D01*
X02226D02*
X02262D01*
X02176D02*
X02203D01*
X02285Y00534D02*
X02312D01*
X02225D02*
X02262D01*
X02176D02*
X02202D01*
X02286Y00533D02*
X02313D01*
X02223D02*
X02264D01*
X02175D02*
X02202D01*
X02286Y00533D02*
X02313D01*
X02222D02*
X02265D01*
X02175D02*
X02202D01*
X02286Y00532D02*
X02313D01*
X02222D02*
X02266D01*
X02181D02*
X02201D01*
X02174D02*
X02179D01*
X02287Y00531D02*
X02314D01*
X02221D02*
X02266D01*
X02182D02*
X022D01*
X02174D02*
X02178D01*
X02287Y0053D02*
X02314D01*
X02219D02*
X02267D01*
X02182D02*
X022D01*
X02174D02*
X02178D01*
X02288Y00529D02*
X02314D01*
X02218D02*
X02268D01*
X02183D02*
X02199D01*
X02174D02*
X02177D01*
X02288Y00529D02*
X02314D01*
X02218D02*
X02269D01*
X02184D02*
X02198D01*
X02173D02*
X02176D01*
X02289Y00528D02*
X02314D01*
X02218D02*
X0227D01*
X02185D02*
X02198D01*
X02173D02*
X02175D01*
X02289Y00527D02*
X02314D01*
X02217D02*
X0227D01*
X02186D02*
X02198D01*
X02173D02*
X02174D01*
X0229Y00526D02*
X02315D01*
X02216D02*
X02271D01*
X02186D02*
X02198D01*
X02179D02*
X02181D01*
X02172D02*
X02174D01*
X0229Y00525D02*
X02315D01*
X02216D02*
X02272D01*
X02187D02*
X02197D01*
X02178D02*
X02182D01*
X02172D02*
X02173D01*
X0229Y00525D02*
X02315D01*
X02215D02*
X02272D01*
X02187D02*
X02197D01*
X02178D02*
X02182D01*
X0229Y00524D02*
X02315D01*
X02249D02*
X02273D01*
X02214D02*
X0224D01*
X02188D02*
X02196D01*
X02177D02*
X02183D01*
X0229Y00523D02*
X02316D01*
X02251D02*
X02274D01*
X02214D02*
X02238D01*
X02189D02*
X02196D01*
X02176D02*
X02184D01*
X02291Y00522D02*
X02316D01*
X02253D02*
X02274D01*
X02214D02*
X02236D01*
X0219D02*
X02195D01*
X02175D02*
X02185D01*
X02291Y00521D02*
X02316D01*
X02254D02*
X02274D01*
X02214D02*
X02234D01*
X0219D02*
X02195D01*
X02174D02*
X02186D01*
X02291Y00521D02*
X02316D01*
X02255D02*
X02274D01*
X02213D02*
X02234D01*
X02191D02*
X02194D01*
X02174D02*
X02186D01*
X02292Y0052D02*
X02316D01*
X02256D02*
X02275D01*
X02213D02*
X02233D01*
X02192D02*
X02194D01*
X02173D02*
X02187D01*
X02292Y00519D02*
X02317D01*
X02257D02*
X02275D01*
X02212D02*
X02231D01*
X02193D02*
X02194D01*
X02172D02*
X02188D01*
X02292Y00518D02*
X02317D01*
X02258D02*
X02276D01*
X02212D02*
X02231D01*
X02171D02*
X02189D01*
X02292Y00517D02*
X02317D01*
X02258D02*
X02276D01*
X02211D02*
X0223D01*
X0217D02*
X0219D01*
X02293Y00517D02*
X02317D01*
X02259D02*
X02276D01*
X02211D02*
X0223D01*
X0217D02*
X0219D01*
X02293Y00516D02*
X02317D01*
X02259D02*
X02277D01*
X02211D02*
X02229D01*
X02169D02*
X0219D01*
X02293Y00515D02*
X02317D01*
X0226D02*
X02277D01*
X02211D02*
X02228D01*
X02168D02*
X02191D01*
X02293Y00514D02*
X02318D01*
X02261D02*
X02277D01*
X0221D02*
X02228D01*
X02167D02*
X02192D01*
X02293Y00513D02*
X02318D01*
X02261D02*
X02278D01*
X0221D02*
X02227D01*
X02166D02*
X02193D01*
X02294Y00513D02*
X02318D01*
X02262D02*
X02278D01*
X0221D02*
X02227D01*
X02166D02*
X02194D01*
X02294Y00512D02*
X02318D01*
X02262D02*
X02278D01*
X0221D02*
X02226D01*
X02165D02*
X02194D01*
X02294Y00511D02*
X02318D01*
X02262D02*
X02278D01*
X0221D02*
X02226D01*
X02164D02*
X02195D01*
X02294Y0051D02*
X02318D01*
X02262D02*
X02278D01*
X0221D02*
X02226D01*
X02163D02*
X02196D01*
X02294Y00509D02*
X02318D01*
X02263D02*
X02278D01*
X0221D02*
X02226D01*
X02162D02*
X02197D01*
X02286Y00509D02*
X02327D01*
X02263D02*
X02278D01*
X0221D02*
X02225D01*
X02162D02*
X02198D01*
X02286Y00508D02*
X02326D01*
X02262D02*
X02278D01*
X0221D02*
X0223D01*
X02162D02*
X02198D01*
X02287Y00507D02*
X02326D01*
X0221D02*
X02278D01*
X02161D02*
X02198D01*
X02288Y00506D02*
X02325D01*
X0221D02*
X02278D01*
X0216D02*
X02199D01*
X02289Y00505D02*
X02324D01*
X0221D02*
X02278D01*
X02159D02*
X022D01*
X0229Y00505D02*
X02324D01*
X0221D02*
X02278D01*
X02158D02*
X02201D01*
X0229Y00504D02*
X02323D01*
X0221D02*
X02278D01*
X02168D02*
X02191D01*
X02291Y00503D02*
X02322D01*
X0221D02*
X02278D01*
X02168D02*
X02191D01*
X02292Y00502D02*
X02322D01*
X0221D02*
X02278D01*
X02168D02*
X02191D01*
X02292Y00501D02*
X02321D01*
X0221D02*
X02278D01*
X02168D02*
X02191D01*
X02293Y00501D02*
X0232D01*
X0221D02*
X02278D01*
X02168D02*
X02191D01*
X02294Y005D02*
X02319D01*
X02263D02*
X02278D01*
X02168D02*
X02191D01*
X02294Y00499D02*
X02318D01*
X02262D02*
X02278D01*
X02168D02*
X02192D01*
X02295Y00498D02*
X02318D01*
X02262D02*
X02278D01*
X02168D02*
X02192D01*
X02296Y00497D02*
X02317D01*
X02262D02*
X02278D01*
X02168D02*
X02192D01*
X02297Y00497D02*
X02316D01*
X02262D02*
X02278D01*
X0221D02*
X02214D01*
X02168D02*
X02192D01*
X02298Y00496D02*
X02315D01*
X02262D02*
X02277D01*
X02211D02*
X02214D01*
X02168D02*
X02192D01*
X02298Y00495D02*
X02314D01*
X02293D02*
X02294D01*
X02262D02*
X02277D01*
X02211D02*
X02215D01*
X02169D02*
X02192D01*
X02299Y00494D02*
X02314D01*
X02293D02*
X02294D01*
X02262D02*
X02277D01*
X02211D02*
X02215D01*
X02169D02*
X02193D01*
X023Y00493D02*
X02313D01*
X02292D02*
X02295D01*
X02262D02*
X02276D01*
X02212D02*
X02216D01*
X02169D02*
X02193D01*
X02301Y00493D02*
X02312D01*
X02292D02*
X02296D01*
X02262D02*
X02276D01*
X02212D02*
X02216D01*
X02169D02*
X02193D01*
X02316Y00492D02*
X02317D01*
X02302D02*
X02311D01*
X02292D02*
X02297D01*
X02261D02*
X02276D01*
X02212D02*
X02217D01*
X02169D02*
X02193D01*
X02315Y00491D02*
X02316D01*
X02302D02*
X0231D01*
X02292D02*
X02297D01*
X02261D02*
X02275D01*
X02213D02*
X02217D01*
X02169D02*
X02194D01*
X02314Y0049D02*
X02316D01*
X02302D02*
X0231D01*
X02291D02*
X02298D01*
X02261D02*
X02275D01*
X02213D02*
X02218D01*
X0217D02*
X02194D01*
X02314Y00489D02*
X02316D01*
X02303D02*
X02309D01*
X02291D02*
X02298D01*
X0226D02*
X02274D01*
X02214D02*
X02218D01*
X0217D02*
X02194D01*
X02313Y00489D02*
X02316D01*
X02304D02*
X02308D01*
X02291D02*
X02299D01*
X0226D02*
X02274D01*
X02214D02*
X02218D01*
X0217D02*
X02194D01*
X02312Y00488D02*
X02316D01*
X02305D02*
X02307D01*
X0229D02*
X023D01*
X02259D02*
X02274D01*
X02214D02*
X02219D01*
X0217D02*
X02194D01*
X02311Y00487D02*
X02315D01*
X02306D02*
X02307D01*
X0229D02*
X02301D01*
X02258D02*
X02274D01*
X02214D02*
X0222D01*
X0217D02*
X02194D01*
X0231Y00486D02*
X02315D01*
X0229D02*
X02302D01*
X02258D02*
X02273D01*
X02215D02*
X0222D01*
X0217D02*
X02195D01*
X0231Y00485D02*
X02315D01*
X0229D02*
X02302D01*
X02258D02*
X02273D01*
X02215D02*
X02221D01*
X0217D02*
X02195D01*
X0231Y00485D02*
X02314D01*
X0229D02*
X02302D01*
X02257D02*
X02272D01*
X02216D02*
X02222D01*
X0217D02*
X02196D01*
X02309Y00484D02*
X02314D01*
X02289D02*
X02303D01*
X02256D02*
X02271D01*
X02217D02*
X02222D01*
X0217D02*
X02196D01*
X02308Y00483D02*
X02314D01*
X02288D02*
X02304D01*
X02255D02*
X02271D01*
X02217D02*
X02224D01*
X02171D02*
X02197D01*
X02307Y00482D02*
X02314D01*
X02288D02*
X02305D01*
X02254D02*
X0227D01*
X02218D02*
X02225D01*
X02171D02*
X02197D01*
X02306Y00481D02*
X02314D01*
X02287D02*
X02306D01*
X02254D02*
X0227D01*
X02218D02*
X02226D01*
X02171D02*
X02198D01*
X02287Y00481D02*
X02314D01*
X02253D02*
X02269D01*
X02219D02*
X02227D01*
X02172D02*
X02198D01*
X02286Y0048D02*
X02314D01*
X02251D02*
X02268D01*
X0222D02*
X02229D01*
X02172D02*
X02198D01*
X02286Y00479D02*
X02313D01*
X0225D02*
X02267D01*
X02221D02*
X0223D01*
X02173D02*
X02198D01*
X02286Y00478D02*
X02313D01*
X02247D02*
X02266D01*
X02222D02*
X02233D01*
X02173D02*
X02199D01*
X02286Y00477D02*
X02313D01*
X02242D02*
X02266D01*
X02222D02*
X02238D01*
X02173D02*
X02199D01*
X02285Y00477D02*
X02312D01*
X02223D02*
X02265D01*
X02174D02*
X022D01*
X02284Y00476D02*
X02312D01*
X02224D02*
X02263D01*
X02174D02*
X02201D01*
X02284Y00475D02*
X02311D01*
X02226D02*
X02262D01*
X02174D02*
X02202D01*
X02283Y00474D02*
X02311D01*
X02226D02*
X02261D01*
X02174D02*
X02202D01*
X02282Y00473D02*
X0231D01*
X02228D02*
X02259D01*
X02175D02*
X02202D01*
X02282Y00473D02*
X0231D01*
X0223D02*
X02258D01*
X02175D02*
X02203D01*
X02281Y00472D02*
X0231D01*
X02231D02*
X02255D01*
X02175D02*
X02204D01*
X0228Y00471D02*
X0231D01*
X02234D02*
X02253D01*
X02176D02*
X02205D01*
X02279Y0047D02*
X02309D01*
X02238D02*
X02249D01*
X02177D02*
X02206D01*
X02278Y00469D02*
X02309D01*
X02177D02*
X02206D01*
X02278Y00469D02*
X02308D01*
X02178D02*
X02207D01*
X02277Y00468D02*
X02308D01*
X02178D02*
X02208D01*
X02276Y00467D02*
X02307D01*
X02178D02*
X02209D01*
X02275Y00466D02*
X02306D01*
X02178D02*
X0221D01*
X02274Y00465D02*
X02306D01*
X02179D02*
X0221D01*
X02274Y00465D02*
X02306D01*
X0218D02*
X02211D01*
X02272Y00464D02*
X02305D01*
X0218D02*
X02213D01*
X02271Y00463D02*
X02305D01*
X02181D02*
X02214D01*
X0227Y00462D02*
X02304D01*
X02182D02*
X02215D01*
X02269Y00461D02*
X02303D01*
X02182D02*
X02216D01*
X02267Y00461D02*
X02303D01*
X02182D02*
X02218D01*
X02266Y0046D02*
X02302D01*
X02183D02*
X02219D01*
X02264Y00459D02*
X02302D01*
X02184D02*
X02221D01*
X02262Y00458D02*
X02301D01*
X02184D02*
X02222D01*
X0226Y00457D02*
X02301D01*
X02185D02*
X02225D01*
X02258Y00457D02*
X023D01*
X02186D02*
X02227D01*
X02255Y00456D02*
X02299D01*
X02186D02*
X0223D01*
X02252Y00455D02*
X02298D01*
X02187D02*
X02233D01*
X02245Y00454D02*
X02298D01*
X02188D02*
X02241D01*
X02189Y00453D02*
X02297D01*
X0219Y00453D02*
X02296D01*
X0219Y00452D02*
X02295D01*
X02191Y00451D02*
X02294D01*
X02192Y0045D02*
X02294D01*
X02193Y00449D02*
X02293D01*
X02194Y00449D02*
X02292D01*
X02194Y00448D02*
X02291D01*
X02195Y00447D02*
X0229D01*
X02197Y00446D02*
X02289D01*
X02198Y00445D02*
X02288D01*
X02198Y00445D02*
X02286D01*
X022Y00444D02*
X02286D01*
X02201Y00443D02*
X02285D01*
X02202Y00442D02*
X02283D01*
X02203Y00441D02*
X02282D01*
X02205Y00441D02*
X02281D01*
X02206Y0044D02*
X02279D01*
X02208Y00439D02*
X02278D01*
X0221Y00438D02*
X02276D01*
X02211Y00437D02*
X02274D01*
X02213Y00437D02*
X02273D01*
X02214Y00436D02*
X02271D01*
X02217Y00435D02*
X02269D01*
X02219Y00434D02*
X02266D01*
X02222Y00433D02*
X02264D01*
X02224Y00433D02*
X02262D01*
X02228Y00432D02*
X02258D01*
X02233Y00431D02*
X02253D01*
G54D61*
X02157Y00074D02*
X02296D01*
X02157Y00075D02*
X02296D01*
X02157Y00075D02*
X02296D01*
X02157Y00075D02*
X02296D01*
X02157Y00076D02*
X02296D01*
X02157Y00076D02*
X02296D01*
X02157Y00077D02*
X02296D01*
X02157Y00077D02*
X02296D01*
X02157Y00077D02*
X02296D01*
X02157Y00078D02*
X02296D01*
X02157Y00078D02*
X02296D01*
X02157Y00079D02*
X02296D01*
X02157Y00079D02*
X02296D01*
X02157Y00079D02*
X02296D01*
X02157Y0008D02*
X02296D01*
X02157Y0008D02*
X02296D01*
X02157Y00081D02*
X02296D01*
X02157Y00081D02*
X02296D01*
X02157Y00081D02*
X02296D01*
X02157Y00082D02*
X02296D01*
X02157Y00082D02*
X02296D01*
X02157Y00083D02*
X02296D01*
X02157Y00083D02*
X02296D01*
X02157Y00083D02*
X02296D01*
X02157Y00084D02*
X02296D01*
X02157Y00084D02*
X02296D01*
X02157Y00085D02*
X02296D01*
X02157Y00085D02*
X02296D01*
X02157Y00085D02*
X02296D01*
X02157Y00086D02*
X02296D01*
X02157Y00086D02*
X02296D01*
X02157Y00087D02*
X02296D01*
X02157Y00087D02*
X02296D01*
X02157Y00087D02*
X02296D01*
X02157Y00088D02*
X02296D01*
X02157Y00088D02*
X02296D01*
X02157Y00089D02*
X02296D01*
X02157Y00089D02*
X02296D01*
X02157Y00089D02*
X02296D01*
X02157Y0009D02*
X02296D01*
X02157Y0009D02*
X02296D01*
X02157Y00091D02*
X02296D01*
X02157Y00091D02*
X02296D01*
X02157Y00091D02*
X02296D01*
X02157Y00092D02*
X02296D01*
X02157Y00092D02*
X02296D01*
X02157Y00093D02*
X02296D01*
X02157Y00093D02*
X02296D01*
X02157Y00093D02*
X02296D01*
X02157Y00094D02*
X02296D01*
X02157Y00094D02*
X02296D01*
X02157Y00095D02*
X02296D01*
X02157Y00095D02*
X02296D01*
X02157Y00095D02*
X02296D01*
X02157Y00096D02*
X02296D01*
X02157Y00096D02*
X02296D01*
X02157Y00097D02*
X02296D01*
X02157Y00097D02*
X02296D01*
X02157Y00097D02*
X02296D01*
X02157Y00098D02*
X02296D01*
X02157Y00098D02*
X02296D01*
X02157Y00099D02*
X02296D01*
X02157Y00099D02*
X02296D01*
X02157Y00099D02*
X02296D01*
X02157Y001D02*
X02296D01*
X02157Y001D02*
X02296D01*
X02157Y00101D02*
X02296D01*
X02157Y00101D02*
X02296D01*
X02157Y00101D02*
X02296D01*
X02157Y00102D02*
X02296D01*
X02157Y00102D02*
X02296D01*
X02157Y00103D02*
X02296D01*
X02157Y00103D02*
X02296D01*
X02157Y00103D02*
X02296D01*
X02157Y00104D02*
X02296D01*
X02157Y00104D02*
X02296D01*
X02157Y00105D02*
X02296D01*
X02157Y00105D02*
X02296D01*
X02157Y00105D02*
X02296D01*
X02157Y00106D02*
X02296D01*
X02157Y00106D02*
X02296D01*
X02157Y00107D02*
X02296D01*
X02157Y00107D02*
X02296D01*
X02157Y00107D02*
X02296D01*
X02304Y00142D02*
X02305D01*
X02154Y00143D02*
X02155D01*
X02303D02*
X02305D01*
X02153Y00143D02*
X02155D01*
X02303D02*
X02305D01*
X02153Y00143D02*
X02155D01*
X02303D02*
X02306D01*
X02153Y00144D02*
X02156D01*
X02302D02*
X02306D01*
X02152Y00144D02*
X02156D01*
X02302D02*
X02307D01*
X02152Y00145D02*
X02156D01*
X02301D02*
X02307D01*
X02151Y00145D02*
X02157D01*
X02301D02*
X02306D01*
X02152Y00145D02*
X02157D01*
X02301D02*
X02306D01*
X02152Y00146D02*
X02157D01*
X023D02*
X02305D01*
X02153Y00146D02*
X02158D01*
X023D02*
X02305D01*
X02153Y00147D02*
X02158D01*
X02299D02*
X02305D01*
X02153Y00147D02*
X02159D01*
X02299D02*
X02304D01*
X02154Y00147D02*
X02159D01*
X02299D02*
X02304D01*
X02154Y00148D02*
X02159D01*
X02298D02*
X02304D01*
X02155Y00148D02*
X0216D01*
X02298D02*
X02303D01*
X02155Y00149D02*
X0216D01*
X02297D02*
X02303D01*
X02155Y00149D02*
X02161D01*
X02297D02*
X02303D01*
X02155Y00149D02*
X02161D01*
X02297D02*
X02302D01*
X02156Y0015D02*
X02161D01*
X02296D02*
X02302D01*
X02156Y0015D02*
X02162D01*
X02296D02*
X02301D01*
X02157Y00151D02*
X02162D01*
X02295D02*
X02301D01*
X02157Y00151D02*
X02163D01*
X02295D02*
X02301D01*
X02157Y00151D02*
X02163D01*
X02295D02*
X023D01*
X02158Y00152D02*
X02163D01*
X02294D02*
X023D01*
X02158Y00152D02*
X02163D01*
X02294D02*
X02299D01*
X02159Y00153D02*
X02164D01*
X02293D02*
X02299D01*
X02159Y00153D02*
X02164D01*
X02293D02*
X02299D01*
X02159Y00153D02*
X02165D01*
X02293D02*
X02298D01*
X0216Y00154D02*
X02165D01*
X02292D02*
X02298D01*
X0216Y00154D02*
X02165D01*
X02292D02*
X02297D01*
X02161Y00155D02*
X02166D01*
X02291D02*
X02297D01*
X02161Y00155D02*
X02166D01*
X02291D02*
X02297D01*
X02161Y00155D02*
X02167D01*
X02291D02*
X02296D01*
X02162Y00156D02*
X02167D01*
X0229D02*
X02296D01*
X02162Y00156D02*
X02167D01*
X0229D02*
X02295D01*
X02163Y00157D02*
X02168D01*
X02289D02*
X02295D01*
X02163Y00157D02*
X02168D01*
X02289D02*
X02295D01*
X02163Y00157D02*
X02169D01*
X02289D02*
X02294D01*
X02163Y00158D02*
X02169D01*
X02288D02*
X02294D01*
X02164Y00158D02*
X02169D01*
X02197D02*
X02199D01*
X02288D02*
X02293D01*
X02164Y00159D02*
X0217D01*
X02195D02*
X02202D01*
X02244D02*
X02253D01*
X02287D02*
X02293D01*
X02165Y00159D02*
X0217D01*
X02193D02*
X02203D01*
X02244D02*
X02253D01*
X02287D02*
X02293D01*
X02165Y00159D02*
X02171D01*
X02192D02*
X02204D01*
X02244D02*
X02253D01*
X02287D02*
X02292D01*
X02165Y0016D02*
X02171D01*
X02192D02*
X02205D01*
X02244D02*
X02253D01*
X02286D02*
X02292D01*
X02166Y0016D02*
X02171D01*
X02191D02*
X02205D01*
X02244D02*
X02253D01*
X02286D02*
X02291D01*
X02166Y00161D02*
X02171D01*
X0219D02*
X02206D01*
X02244D02*
X02253D01*
X02285D02*
X02291D01*
X02167Y00161D02*
X02172D01*
X0219D02*
X02207D01*
X02244D02*
X02253D01*
X02285D02*
X02291D01*
X02167Y00161D02*
X02172D01*
X02189D02*
X02207D01*
X02244D02*
X02253D01*
X02285D02*
X0229D01*
X02167Y00162D02*
X02173D01*
X02189D02*
X02207D01*
X02244D02*
X02253D01*
X02285D02*
X0229D01*
X02168Y00162D02*
X02173D01*
X02188D02*
X02208D01*
X02244D02*
X02253D01*
X02284D02*
X02289D01*
X02168Y00163D02*
X02173D01*
X02188D02*
X02208D01*
X02244D02*
X02253D01*
X02284D02*
X02289D01*
X02169Y00163D02*
X02174D01*
X02188D02*
X02209D01*
X02244D02*
X02253D01*
X02283D02*
X02289D01*
X02169Y00163D02*
X02174D01*
X02187D02*
X02209D01*
X02244D02*
X02253D01*
X02283D02*
X02288D01*
X02169Y00164D02*
X02175D01*
X02187D02*
X02209D01*
X02244D02*
X02253D01*
X02283D02*
X02288D01*
X0217Y00164D02*
X02175D01*
X02187D02*
X02209D01*
X02244D02*
X02253D01*
X02282D02*
X02287D01*
X0217Y00165D02*
X02175D01*
X02187D02*
X0221D01*
X02244D02*
X02253D01*
X02282D02*
X02287D01*
X02171Y00165D02*
X02176D01*
X02186D02*
X02196D01*
X022D02*
X0221D01*
X02244D02*
X02253D01*
X02281D02*
X02287D01*
X02171Y00165D02*
X02176D01*
X02186D02*
X02195D01*
X02201D02*
X0221D01*
X02244D02*
X02253D01*
X02281D02*
X02286D01*
X02171Y00166D02*
X02177D01*
X02186D02*
X02194D01*
X02202D02*
X02254D01*
X02281D02*
X02286D01*
X02171Y00166D02*
X02177D01*
X02185D02*
X02194D01*
X02203D02*
X02254D01*
X0228D02*
X02285D01*
X02172Y00167D02*
X02177D01*
X02185D02*
X02193D01*
X02203D02*
X02255D01*
X0228D02*
X02285D01*
X02172Y00167D02*
X02178D01*
X02185D02*
X02193D01*
X02203D02*
X02255D01*
X02279D02*
X02285D01*
X02173Y00167D02*
X02178D01*
X02185D02*
X02193D01*
X02197D02*
X02199D01*
X02204D02*
X02255D01*
X02279D02*
X02284D01*
X02173Y00168D02*
X02178D01*
X02185D02*
X02192D01*
X02196D02*
X022D01*
X02204D02*
X02255D01*
X02279D02*
X02284D01*
X02173Y00168D02*
X02179D01*
X02185D02*
X02192D01*
X02195D02*
X02201D01*
X02204D02*
X02255D01*
X02278D02*
X02283D01*
X02174Y00169D02*
X02179D01*
X02185D02*
X02192D01*
X02195D02*
X02201D01*
X02205D02*
X02255D01*
X02278D02*
X02283D01*
X02174Y00169D02*
X02179D01*
X02185D02*
X02191D01*
X02195D02*
X02202D01*
X02205D02*
X02255D01*
X02277D02*
X02283D01*
X02175Y00169D02*
X0218D01*
X02185D02*
X02191D01*
X02194D02*
X02202D01*
X02205D02*
X02255D01*
X02277D02*
X02282D01*
X02175Y0017D02*
X0218D01*
X02185D02*
X02191D01*
X02194D02*
X02202D01*
X02205D02*
X02255D01*
X02277D02*
X02282D01*
X02175Y0017D02*
X02181D01*
X02185D02*
X02191D01*
X02194D02*
X02202D01*
X02205D02*
X02212D01*
X0225D02*
X02255D01*
X02276D02*
X02281D01*
X02176Y00171D02*
X02181D01*
X02185D02*
X02191D01*
X02194D02*
X02203D01*
X02205D02*
X02212D01*
X02251D02*
X02255D01*
X02276D02*
X02281D01*
X02176Y00171D02*
X02181D01*
X02185D02*
X02191D01*
X02194D02*
X02203D01*
X02205D02*
X02212D01*
X02251D02*
X02255D01*
X02275D02*
X02281D01*
X02177Y00171D02*
X02182D01*
X02184D02*
X02191D01*
X02193D02*
X02203D01*
X02205D02*
X02212D01*
X02251D02*
X02255D01*
X02275D02*
X0228D01*
X02177Y00172D02*
X02182D01*
X02184D02*
X02191D01*
X02193D02*
X02203D01*
X02205D02*
X02212D01*
X02251D02*
X02255D01*
X02275D02*
X0228D01*
X02177Y00172D02*
X02183D01*
X02184D02*
X02191D01*
X02193D02*
X02203D01*
X02205D02*
X02212D01*
X02251D02*
X02255D01*
X02274D02*
X0228D01*
X02178Y00173D02*
X02183D01*
X02184D02*
X02191D01*
X02194D02*
X02203D01*
X02205D02*
X02212D01*
X02251D02*
X02255D01*
X02274D02*
X02279D01*
X02178Y00173D02*
X02183D01*
X02185D02*
X02191D01*
X02194D02*
X02203D01*
X02205D02*
X02212D01*
X02251D02*
X02255D01*
X02273D02*
X02279D01*
X02178Y00173D02*
X02184D01*
X02185D02*
X02191D01*
X02194D02*
X02203D01*
X02205D02*
X02212D01*
X02251D02*
X02255D01*
X02273D02*
X02279D01*
X02179Y00174D02*
X02184D01*
X02185D02*
X02191D01*
X02194D02*
X02202D01*
X02205D02*
X02212D01*
X02251D02*
X02255D01*
X02273D02*
X02278D01*
X02179Y00174D02*
X02191D01*
X02194D02*
X02202D01*
X02205D02*
X02212D01*
X02251D02*
X02256D01*
X02272D02*
X02278D01*
X02179Y00175D02*
X02191D01*
X02195D02*
X02202D01*
X02205D02*
X02211D01*
X02251D02*
X02256D01*
X02272D02*
X02277D01*
X0218Y00175D02*
X02192D01*
X02195D02*
X02201D01*
X02205D02*
X02211D01*
X02251D02*
X02256D01*
X02271D02*
X02277D01*
X0218Y00175D02*
X02192D01*
X02195D02*
X02201D01*
X02204D02*
X02211D01*
X02251D02*
X02256D01*
X02271D02*
X02277D01*
X02181Y00176D02*
X02192D01*
X02196D02*
X02201D01*
X02204D02*
X02211D01*
X02251D02*
X02256D01*
X02271D02*
X02276D01*
X02181Y00176D02*
X02192D01*
X02197D02*
X022D01*
X02204D02*
X02211D01*
X02251D02*
X02256D01*
X0227D02*
X02276D01*
X02181Y00177D02*
X02193D01*
X02203D02*
X02211D01*
X02251D02*
X02256D01*
X0227D02*
X02275D01*
X02182Y00177D02*
X02193D01*
X02203D02*
X02211D01*
X02251D02*
X02256D01*
X02269D02*
X02275D01*
X02182Y00177D02*
X02193D01*
X02203D02*
X02211D01*
X02251D02*
X02256D01*
X02269D02*
X02275D01*
X02183Y00178D02*
X02194D01*
X02202D02*
X02211D01*
X02251D02*
X02256D01*
X02269D02*
X02274D01*
X02183Y00178D02*
X02195D01*
X02201D02*
X0221D01*
X02251D02*
X02256D01*
X02268D02*
X02274D01*
X02183Y00179D02*
X02195D01*
X02201D02*
X0221D01*
X02251D02*
X02256D01*
X02268D02*
X02273D01*
X02184Y00179D02*
X02197D01*
X02199D02*
X0221D01*
X02251D02*
X02256D01*
X02267D02*
X02273D01*
X02184Y00179D02*
X0221D01*
X02251D02*
X02256D01*
X02267D02*
X02273D01*
X02185Y0018D02*
X02209D01*
X02251D02*
X02256D01*
X02267D02*
X02272D01*
X02185Y0018D02*
X02209D01*
X02251D02*
X02256D01*
X02266D02*
X02272D01*
X02185Y00181D02*
X02209D01*
X02251D02*
X02256D01*
X02266D02*
X02271D01*
X02186Y00181D02*
X02209D01*
X02251D02*
X02256D01*
X02265D02*
X02271D01*
X02186Y00181D02*
X02208D01*
X02251D02*
X02256D01*
X02265D02*
X02271D01*
X02186Y00182D02*
X02207D01*
X02251D02*
X02256D01*
X02265D02*
X0227D01*
X02187Y00182D02*
X02207D01*
X02251D02*
X02256D01*
X02264D02*
X0227D01*
X02187Y00183D02*
X02207D01*
X02252D02*
X02256D01*
X02264D02*
X02269D01*
X02187Y00183D02*
X02206D01*
X02252D02*
X02256D01*
X02263D02*
X02269D01*
X02188Y00183D02*
X02205D01*
X02252D02*
X02257D01*
X02263D02*
X02269D01*
X02188Y00184D02*
X02205D01*
X02252D02*
X02257D01*
X02263D02*
X02268D01*
X02189Y00184D02*
X02204D01*
X02252D02*
X02257D01*
X02263D02*
X02268D01*
X02189Y00185D02*
X02203D01*
X02252D02*
X02257D01*
X02262D02*
X02267D01*
X02189Y00185D02*
X02202D01*
X02252D02*
X02257D01*
X02262D02*
X02267D01*
X0219Y00185D02*
X02201D01*
X02252D02*
X02257D01*
X02261D02*
X02267D01*
X0219Y00186D02*
X022D01*
X02252D02*
X02257D01*
X02261D02*
X02266D01*
X02191Y00186D02*
X022D01*
X02252D02*
X02257D01*
X02261D02*
X02266D01*
X02191Y00187D02*
X02199D01*
X02252D02*
X02257D01*
X0226D02*
X02265D01*
X02191Y00187D02*
X02199D01*
X02252D02*
X02257D01*
X0226D02*
X02265D01*
X02192Y00187D02*
X02199D01*
X02252D02*
X02257D01*
X02259D02*
X02265D01*
X02192Y00188D02*
X02199D01*
X02252D02*
X02257D01*
X02259D02*
X02264D01*
X02193Y00188D02*
X02199D01*
X02252D02*
X02257D01*
X02259D02*
X02264D01*
X02193Y00189D02*
X02199D01*
X02252D02*
X02257D01*
X02258D02*
X02263D01*
X02193Y00189D02*
X02199D01*
X02252D02*
X02257D01*
X02258D02*
X02263D01*
X02193Y00189D02*
X02199D01*
X02252D02*
X02257D01*
X02257D02*
X02263D01*
X02194Y0019D02*
X02199D01*
X02252D02*
X02262D01*
X02194Y0019D02*
X022D01*
X02252D02*
X02262D01*
X02195Y00191D02*
X022D01*
X02252D02*
X02261D01*
X02195Y00191D02*
X022D01*
X02252D02*
X02261D01*
X02195Y00191D02*
X02201D01*
X02252D02*
X02261D01*
X02194Y00192D02*
X02201D01*
X02253D02*
X0226D01*
X02194Y00192D02*
X02201D01*
X02253D02*
X0226D01*
X02194Y00193D02*
X02202D01*
X02253D02*
X02259D01*
X02194Y00193D02*
X02202D01*
X02253D02*
X02259D01*
X02194Y00193D02*
X02203D01*
X02253D02*
X02259D01*
X02194Y00194D02*
X02203D01*
X02253D02*
X02258D01*
X02194Y00194D02*
X02203D01*
X02253D02*
X02258D01*
X02194Y00195D02*
X02204D01*
X02252D02*
X02257D01*
X02194Y00195D02*
X02204D01*
X02252D02*
X02257D01*
X02194Y00195D02*
X02199D01*
X02199D02*
X02205D01*
X02251D02*
X02257D01*
X02194Y00196D02*
X02199D01*
X022D02*
X02205D01*
X02251D02*
X02257D01*
X02194Y00196D02*
X02199D01*
X022D02*
X02205D01*
X02251D02*
X02257D01*
X02194Y00197D02*
X02199D01*
X02201D02*
X02206D01*
X0225D02*
X02257D01*
X02194Y00197D02*
X02199D01*
X02201D02*
X02206D01*
X0225D02*
X02257D01*
X02194Y00197D02*
X02199D01*
X02201D02*
X02207D01*
X02249D02*
X02258D01*
X02194Y00198D02*
X02199D01*
X02201D02*
X02207D01*
X02249D02*
X02258D01*
X02194Y00198D02*
X02199D01*
X02202D02*
X02207D01*
X02249D02*
X02258D01*
X02194Y00199D02*
X02199D01*
X02202D02*
X02208D01*
X02248D02*
X02258D01*
X02194Y00199D02*
X02199D01*
X02203D02*
X02208D01*
X02248D02*
X02258D01*
X02194Y00199D02*
X02198D01*
X02203D02*
X02208D01*
X02247D02*
X02258D01*
X02194Y002D02*
X02198D01*
X02203D02*
X02209D01*
X02247D02*
X02253D01*
X02253D02*
X02258D01*
X02193Y002D02*
X02198D01*
X02204D02*
X02209D01*
X02247D02*
X02252D01*
X02253D02*
X02258D01*
X02193Y00201D02*
X02198D01*
X02204D02*
X02209D01*
X02246D02*
X02252D01*
X02253D02*
X02258D01*
X02193Y00201D02*
X02198D01*
X02205D02*
X0221D01*
X02246D02*
X02251D01*
X02253D02*
X02258D01*
X02193Y00201D02*
X02198D01*
X02205D02*
X0221D01*
X02245D02*
X02251D01*
X02253D02*
X02258D01*
X02193Y00202D02*
X02198D01*
X02205D02*
X02211D01*
X02245D02*
X02251D01*
X02253D02*
X02258D01*
X02193Y00202D02*
X02198D01*
X02206D02*
X02211D01*
X02245D02*
X0225D01*
X02253D02*
X02258D01*
X02193Y00203D02*
X02198D01*
X02206D02*
X02211D01*
X02244D02*
X0225D01*
X02253D02*
X02258D01*
X02193Y00203D02*
X02198D01*
X02207D02*
X02212D01*
X02244D02*
X02249D01*
X02253D02*
X02258D01*
X02193Y00203D02*
X02198D01*
X02207D02*
X02212D01*
X02243D02*
X02249D01*
X02253D02*
X02258D01*
X02193Y00204D02*
X02198D01*
X02207D02*
X02213D01*
X02243D02*
X02249D01*
X02253D02*
X02258D01*
X02193Y00204D02*
X02198D01*
X02208D02*
X02213D01*
X02243D02*
X02248D01*
X02253D02*
X02258D01*
X02193Y00205D02*
X02198D01*
X02208D02*
X02213D01*
X02242D02*
X02248D01*
X02253D02*
X02258D01*
X02193Y00205D02*
X02198D01*
X02209D02*
X02214D01*
X02242D02*
X02247D01*
X02253D02*
X02258D01*
X02193Y00205D02*
X02198D01*
X02209D02*
X02214D01*
X02241D02*
X02247D01*
X02253D02*
X02258D01*
X02193Y00206D02*
X02198D01*
X02209D02*
X02215D01*
X02241D02*
X02247D01*
X02254D02*
X02258D01*
X02193Y00206D02*
X02198D01*
X02209D02*
X02215D01*
X02241D02*
X02246D01*
X02254D02*
X02258D01*
X02193Y00207D02*
X02198D01*
X0221D02*
X02215D01*
X0224D02*
X02246D01*
X02254D02*
X02259D01*
X02193Y00207D02*
X02198D01*
X0221D02*
X02215D01*
X0224D02*
X02245D01*
X02254D02*
X02259D01*
X02193Y00207D02*
X02198D01*
X02211D02*
X02216D01*
X0224D02*
X02245D01*
X02254D02*
X02259D01*
X02193Y00208D02*
X02198D01*
X02211D02*
X02216D01*
X02239D02*
X02245D01*
X02254D02*
X02259D01*
X02193Y00208D02*
X02197D01*
X02211D02*
X02217D01*
X02239D02*
X02244D01*
X02254D02*
X02259D01*
X02193Y00209D02*
X02197D01*
X02212D02*
X02217D01*
X02239D02*
X02244D01*
X02254D02*
X02259D01*
X02193Y00209D02*
X02197D01*
X02212D02*
X02217D01*
X02238D02*
X02243D01*
X02254D02*
X02259D01*
X02193Y00209D02*
X02197D01*
X02213D02*
X02218D01*
X02238D02*
X02243D01*
X02254D02*
X02259D01*
X02193Y0021D02*
X02197D01*
X02213D02*
X02218D01*
X02237D02*
X02243D01*
X02254D02*
X02259D01*
X02193Y0021D02*
X02197D01*
X02213D02*
X02219D01*
X02237D02*
X02242D01*
X02254D02*
X02259D01*
X02193Y00211D02*
X02197D01*
X02214D02*
X02219D01*
X02237D02*
X02242D01*
X02254D02*
X02259D01*
X02193Y00211D02*
X02197D01*
X02214D02*
X02219D01*
X02236D02*
X02241D01*
X02254D02*
X02259D01*
X02193Y00211D02*
X02197D01*
X02215D02*
X0222D01*
X02236D02*
X02241D01*
X02254D02*
X02259D01*
X02193Y00212D02*
X02197D01*
X02215D02*
X0222D01*
X02235D02*
X02241D01*
X02254D02*
X02259D01*
X02193Y00212D02*
X02197D01*
X02215D02*
X02221D01*
X02235D02*
X0224D01*
X02254D02*
X02259D01*
X02193Y00213D02*
X02197D01*
X02216D02*
X02221D01*
X02235D02*
X0224D01*
X02254D02*
X02259D01*
X02192Y00213D02*
X02197D01*
X02216D02*
X02221D01*
X02234D02*
X02239D01*
X02254D02*
X02259D01*
X02192Y00213D02*
X02197D01*
X02216D02*
X02222D01*
X02234D02*
X02239D01*
X02254D02*
X02259D01*
X02192Y00214D02*
X02197D01*
X02217D02*
X02222D01*
X02233D02*
X02239D01*
X02254D02*
X02259D01*
X02192Y00214D02*
X02197D01*
X02217D02*
X02223D01*
X02233D02*
X02238D01*
X02254D02*
X02259D01*
X02192Y00215D02*
X02197D01*
X02217D02*
X02223D01*
X02233D02*
X02238D01*
X02254D02*
X02259D01*
X02192Y00215D02*
X02197D01*
X02218D02*
X02223D01*
X02232D02*
X02237D01*
X02255D02*
X02259D01*
X02192Y00215D02*
X02197D01*
X02218D02*
X02223D01*
X02232D02*
X02237D01*
X02255D02*
X02259D01*
X02192Y00216D02*
X02197D01*
X02219D02*
X02224D01*
X02231D02*
X02237D01*
X02255D02*
X02259D01*
X02192Y00216D02*
X02197D01*
X02219D02*
X02224D01*
X02231D02*
X02236D01*
X02255D02*
X02259D01*
X02192Y00217D02*
X02197D01*
X02219D02*
X02225D01*
X02231D02*
X02236D01*
X02255D02*
X02259D01*
X02192Y00217D02*
X02197D01*
X0222D02*
X02225D01*
X0223D02*
X02235D01*
X02255D02*
X02259D01*
X02192Y00217D02*
X02197D01*
X0222D02*
X02225D01*
X0223D02*
X02235D01*
X02255D02*
X02259D01*
X02192Y00218D02*
X02197D01*
X02221D02*
X02226D01*
X02229D02*
X02235D01*
X02255D02*
X02259D01*
X02192Y00218D02*
X02197D01*
X02221D02*
X02226D01*
X02229D02*
X02234D01*
X02255D02*
X02259D01*
X02192Y00219D02*
X02197D01*
X02221D02*
X02227D01*
X02229D02*
X02234D01*
X02255D02*
X02259D01*
X02192Y00219D02*
X02197D01*
X02222D02*
X02227D01*
X02228D02*
X02233D01*
X02255D02*
X02259D01*
X02192Y00219D02*
X02197D01*
X02222D02*
X02227D01*
X02228D02*
X02233D01*
X02255D02*
X02259D01*
X02192Y0022D02*
X02197D01*
X02223D02*
X02233D01*
X02255D02*
X02259D01*
X02192Y0022D02*
X02197D01*
X02223D02*
X02233D01*
X02255D02*
X02259D01*
X02192Y00221D02*
X02197D01*
X02223D02*
X02232D01*
X02255D02*
X0226D01*
X02192Y00221D02*
X02196D01*
X02224D02*
X02232D01*
X02255D02*
X0226D01*
X02192Y00221D02*
X02196D01*
X02224D02*
X02231D01*
X02255D02*
X0226D01*
X02191Y00222D02*
X02196D01*
X02224D02*
X02231D01*
X02255D02*
X0226D01*
X02191Y00222D02*
X02196D01*
X02225D02*
X02231D01*
X02255D02*
X0226D01*
X02191Y00223D02*
X02196D01*
X02225D02*
X0223D01*
X02255D02*
X0226D01*
X02191Y00223D02*
X02196D01*
X02224D02*
X02231D01*
X02255D02*
X0226D01*
X02191Y00223D02*
X02196D01*
X02224D02*
X02231D01*
X02255D02*
X0226D01*
X02191Y00224D02*
X02196D01*
X02223D02*
X02231D01*
X02255D02*
X0226D01*
X02191Y00224D02*
X02196D01*
X02223D02*
X02232D01*
X02255D02*
X0226D01*
X02191Y00225D02*
X02196D01*
X02223D02*
X02232D01*
X02255D02*
X0226D01*
X02191Y00225D02*
X02196D01*
X02222D02*
X02233D01*
X02255D02*
X0226D01*
X02191Y00225D02*
X02196D01*
X02222D02*
X02227D01*
X02228D02*
X02233D01*
X02255D02*
X0226D01*
X02191Y00226D02*
X02196D01*
X02221D02*
X02227D01*
X02228D02*
X02233D01*
X02255D02*
X0226D01*
X02191Y00226D02*
X02196D01*
X02221D02*
X02227D01*
X02229D02*
X02234D01*
X02255D02*
X0226D01*
X02191Y00227D02*
X02196D01*
X02221D02*
X02226D01*
X02229D02*
X02234D01*
X02255D02*
X0226D01*
X02191Y00227D02*
X02196D01*
X0222D02*
X02226D01*
X02229D02*
X02235D01*
X02255D02*
X0226D01*
X02191Y00227D02*
X02196D01*
X0222D02*
X02225D01*
X0223D02*
X02235D01*
X02255D02*
X0226D01*
X02191Y00228D02*
X02196D01*
X02219D02*
X02225D01*
X0223D02*
X02235D01*
X02255D02*
X0226D01*
X02191Y00228D02*
X02196D01*
X02219D02*
X02225D01*
X02231D02*
X02236D01*
X02255D02*
X0226D01*
X02191Y00229D02*
X02196D01*
X02219D02*
X02224D01*
X02231D02*
X02236D01*
X02255D02*
X0226D01*
X02191Y00229D02*
X02196D01*
X02218D02*
X02224D01*
X02231D02*
X02237D01*
X02256D02*
X0226D01*
X02191Y00229D02*
X02196D01*
X02218D02*
X02223D01*
X02231D02*
X02237D01*
X02256D02*
X0226D01*
X02191Y0023D02*
X02195D01*
X02218D02*
X02223D01*
X02232D02*
X02237D01*
X02256D02*
X02261D01*
X02191Y0023D02*
X02195D01*
X02217D02*
X02223D01*
X02232D02*
X02237D01*
X02256D02*
X02261D01*
X02191Y00231D02*
X02195D01*
X02217D02*
X02222D01*
X02233D02*
X02238D01*
X02256D02*
X02261D01*
X02191Y00231D02*
X02195D01*
X02217D02*
X02222D01*
X02233D02*
X02238D01*
X02256D02*
X02261D01*
X02191Y00231D02*
X02195D01*
X02216D02*
X02221D01*
X02233D02*
X02239D01*
X02256D02*
X02261D01*
X02191Y00232D02*
X02195D01*
X02216D02*
X02221D01*
X02234D02*
X02239D01*
X02256D02*
X02261D01*
X02191Y00232D02*
X02195D01*
X02215D02*
X02221D01*
X02234D02*
X02239D01*
X02256D02*
X02261D01*
X02191Y00233D02*
X02195D01*
X02215D02*
X0222D01*
X02235D02*
X0224D01*
X02256D02*
X02261D01*
X02191Y00233D02*
X02195D01*
X02215D02*
X0222D01*
X02235D02*
X0224D01*
X02256D02*
X02261D01*
X02191Y00233D02*
X02195D01*
X02214D02*
X02219D01*
X02235D02*
X02241D01*
X02256D02*
X02261D01*
X02191Y00234D02*
X02195D01*
X02214D02*
X02219D01*
X02236D02*
X02241D01*
X02256D02*
X02261D01*
X02191Y00234D02*
X02195D01*
X02213D02*
X02219D01*
X02236D02*
X02241D01*
X02256D02*
X02261D01*
X0219Y00235D02*
X02195D01*
X02213D02*
X02218D01*
X02237D02*
X02242D01*
X02256D02*
X02261D01*
X0219Y00235D02*
X02195D01*
X02213D02*
X02218D01*
X02237D02*
X02242D01*
X02256D02*
X02261D01*
X0219Y00235D02*
X02195D01*
X02212D02*
X02217D01*
X02237D02*
X02243D01*
X02256D02*
X02261D01*
X0219Y00236D02*
X02195D01*
X02212D02*
X02217D01*
X02238D02*
X02243D01*
X02256D02*
X02261D01*
X0219Y00236D02*
X02195D01*
X02211D02*
X02217D01*
X02238D02*
X02243D01*
X02256D02*
X02261D01*
X0219Y00237D02*
X02195D01*
X02211D02*
X02216D01*
X02239D02*
X02244D01*
X02256D02*
X02261D01*
X0219Y00237D02*
X02195D01*
X02211D02*
X02216D01*
X02239D02*
X02244D01*
X02256D02*
X02261D01*
X0219Y00237D02*
X02195D01*
X0221D02*
X02215D01*
X02239D02*
X02245D01*
X02256D02*
X02261D01*
X0219Y00238D02*
X02195D01*
X0221D02*
X02215D01*
X02239D02*
X02245D01*
X02256D02*
X02261D01*
X0219Y00238D02*
X02195D01*
X02209D02*
X02215D01*
X0224D02*
X02245D01*
X02257D02*
X02261D01*
X0219Y00239D02*
X02195D01*
X02209D02*
X02214D01*
X0224D02*
X02245D01*
X02257D02*
X02261D01*
X0219Y00239D02*
X02195D01*
X02209D02*
X02214D01*
X02241D02*
X02246D01*
X02257D02*
X02261D01*
X0219Y00239D02*
X02195D01*
X02208D02*
X02213D01*
X02241D02*
X02246D01*
X02257D02*
X02261D01*
X0219Y0024D02*
X02195D01*
X02208D02*
X02213D01*
X02241D02*
X02247D01*
X02257D02*
X02261D01*
X0219Y0024D02*
X02195D01*
X02207D02*
X02213D01*
X02242D02*
X02247D01*
X02257D02*
X02261D01*
X0219Y00241D02*
X02195D01*
X02207D02*
X02212D01*
X02242D02*
X02247D01*
X02257D02*
X02261D01*
X0219Y00241D02*
X02195D01*
X02207D02*
X02212D01*
X02243D02*
X02248D01*
X02257D02*
X02261D01*
X0219Y00241D02*
X02195D01*
X02206D02*
X02211D01*
X02243D02*
X02248D01*
X02257D02*
X02261D01*
X0219Y00242D02*
X02195D01*
X02206D02*
X02211D01*
X02243D02*
X02249D01*
X02257D02*
X02261D01*
X0219Y00242D02*
X02195D01*
X02205D02*
X02211D01*
X02244D02*
X02249D01*
X02257D02*
X02261D01*
X0219Y00243D02*
X02194D01*
X02205D02*
X0221D01*
X02244D02*
X02249D01*
X02257D02*
X02261D01*
X02189Y00243D02*
X02194D01*
X02205D02*
X0221D01*
X02245D02*
X0225D01*
X02257D02*
X02261D01*
X02189Y00243D02*
X02194D01*
X02204D02*
X0221D01*
X02245D02*
X0225D01*
X02257D02*
X02261D01*
X02189Y00244D02*
X02194D01*
X02204D02*
X02235D01*
X02245D02*
X02251D01*
X02257D02*
X02262D01*
X02189Y00244D02*
X02194D01*
X02203D02*
X02235D01*
X02246D02*
X02251D01*
X02257D02*
X02262D01*
X02189Y00245D02*
X02194D01*
X02203D02*
X02235D01*
X02246D02*
X02251D01*
X02257D02*
X02262D01*
X02189Y00245D02*
X02194D01*
X02203D02*
X02235D01*
X02247D02*
X02252D01*
X02257D02*
X02262D01*
X02189Y00245D02*
X02194D01*
X02202D02*
X02235D01*
X02247D02*
X02252D01*
X02257D02*
X02262D01*
X02189Y00246D02*
X02194D01*
X02202D02*
X02235D01*
X02247D02*
X02252D01*
X02257D02*
X02262D01*
X02189Y00246D02*
X02194D01*
X02201D02*
X02235D01*
X02247D02*
X02253D01*
X02257D02*
X02262D01*
X02189Y00247D02*
X02194D01*
X02201D02*
X02235D01*
X02248D02*
X02253D01*
X02257D02*
X02262D01*
X02189Y00247D02*
X02194D01*
X02201D02*
X02235D01*
X02248D02*
X02253D01*
X02257D02*
X02262D01*
X02189Y00247D02*
X02194D01*
X022D02*
X02235D01*
X02249D02*
X02254D01*
X02257D02*
X02262D01*
X02189Y00248D02*
X02194D01*
X022D02*
X02235D01*
X02249D02*
X02254D01*
X02257D02*
X02262D01*
X02189Y00248D02*
X02194D01*
X02199D02*
X02205D01*
X02206D02*
X02235D01*
X02249D02*
X02255D01*
X02257D02*
X02262D01*
X02189Y00249D02*
X02194D01*
X02199D02*
X02205D01*
X02206D02*
X02235D01*
X0225D02*
X02255D01*
X02257D02*
X02262D01*
X02189Y00249D02*
X02194D01*
X02199D02*
X02204D01*
X02206D02*
X02235D01*
X0225D02*
X02255D01*
X02257D02*
X02262D01*
X02189Y00249D02*
X02194D01*
X02198D02*
X02204D01*
X02206D02*
X02235D01*
X02251D02*
X02256D01*
X02257D02*
X02262D01*
X02189Y0025D02*
X02194D01*
X02198D02*
X02203D01*
X02206D02*
X02235D01*
X02251D02*
X02256D01*
X02257D02*
X02262D01*
X02189Y0025D02*
X02194D01*
X02197D02*
X02203D01*
X02206D02*
X02235D01*
X02251D02*
X02257D01*
X02257D02*
X02262D01*
X02189Y00251D02*
X02194D01*
X02197D02*
X02203D01*
X02206D02*
X02235D01*
X02252D02*
X02257D01*
X02257D02*
X02262D01*
X02189Y00251D02*
X02193D01*
X02197D02*
X02202D01*
X02206D02*
X02235D01*
X02252D02*
X02262D01*
X02189Y00251D02*
X02193D01*
X02196D02*
X02202D01*
X02206D02*
X02235D01*
X02253D02*
X02262D01*
X02189Y00252D02*
X02193D01*
X02196D02*
X02201D01*
X02206D02*
X02235D01*
X02253D02*
X02262D01*
X02189Y00252D02*
X02193D01*
X02196D02*
X02201D01*
X02206D02*
X02235D01*
X02253D02*
X02262D01*
X02189Y00253D02*
X02193D01*
X02195D02*
X02201D01*
X02206D02*
X02235D01*
X02254D02*
X02262D01*
X02178Y00253D02*
X02194D01*
X02195D02*
X022D01*
X02206D02*
X02235D01*
X02254D02*
X02263D01*
X02178Y00253D02*
X02194D01*
X02195D02*
X022D01*
X02254D02*
X02263D01*
X02178Y00254D02*
X02199D01*
X02255D02*
X02263D01*
X02178Y00254D02*
X02199D01*
X02255D02*
X02263D01*
X02178Y00255D02*
X02199D01*
X02255D02*
X02263D01*
X02178Y00255D02*
X02198D01*
X02256D02*
X02263D01*
X02178Y00255D02*
X02198D01*
X02256D02*
X02263D01*
X02178Y00256D02*
X02197D01*
X02257D02*
X02263D01*
X02178Y00256D02*
X02197D01*
X02257D02*
X02263D01*
X02178Y00257D02*
X02197D01*
X02257D02*
X02263D01*
X02178Y00257D02*
X02196D01*
X02258D02*
X02263D01*
X02178Y00257D02*
X02182D01*
X02188D02*
X02196D01*
X02258D02*
X02263D01*
X02178Y00258D02*
X02182D01*
X02188D02*
X02195D01*
X02258D02*
X02264D01*
X02178Y00258D02*
X02182D01*
X02188D02*
X02195D01*
X02258D02*
X02264D01*
X02178Y00259D02*
X02182D01*
X02188D02*
X02195D01*
X02258D02*
X02265D01*
X02178Y00259D02*
X02182D01*
X02188D02*
X02194D01*
X02258D02*
X02265D01*
X02178Y00259D02*
X02182D01*
X02188D02*
X02194D01*
X02258D02*
X02265D01*
X02178Y0026D02*
X02182D01*
X02188D02*
X02194D01*
X02258D02*
X02266D01*
X02178Y0026D02*
X02182D01*
X02188D02*
X02194D01*
X02258D02*
X02266D01*
X02178Y00261D02*
X02182D01*
X02187D02*
X02194D01*
X02258D02*
X02267D01*
X02178Y00261D02*
X02182D01*
X02187D02*
X02194D01*
X02258D02*
X02267D01*
X02178Y00261D02*
X02182D01*
X02187D02*
X02194D01*
X02258D02*
X02267D01*
X02178Y00262D02*
X02182D01*
X02186D02*
X02194D01*
X02259D02*
X02267D01*
X02178Y00262D02*
X02182D01*
X02186D02*
X02194D01*
X02259D02*
X02268D01*
X02178Y00263D02*
X02182D01*
X02185D02*
X02194D01*
X02259D02*
X02268D01*
X02178Y00263D02*
X02182D01*
X02185D02*
X02194D01*
X02259D02*
X02269D01*
X02178Y00263D02*
X02182D01*
X02185D02*
X02194D01*
X02259D02*
X02263D01*
X02264D02*
X02269D01*
X02178Y00264D02*
X02182D01*
X02184D02*
X02194D01*
X02259D02*
X02263D01*
X02264D02*
X02269D01*
X02178Y00264D02*
X02182D01*
X02184D02*
X02194D01*
X02259D02*
X02263D01*
X02265D02*
X0227D01*
X02178Y00265D02*
X02182D01*
X02183D02*
X02194D01*
X02259D02*
X02263D01*
X02265D02*
X0227D01*
X02178Y00265D02*
X02182D01*
X02183D02*
X02194D01*
X02259D02*
X02263D01*
X02265D02*
X02271D01*
X02178Y00265D02*
X02194D01*
X02259D02*
X02263D01*
X02266D02*
X02271D01*
X02178Y00266D02*
X02194D01*
X02259D02*
X02263D01*
X02266D02*
X02271D01*
X02178Y00266D02*
X02194D01*
X02259D02*
X02263D01*
X02267D02*
X02272D01*
X02178Y00267D02*
X02194D01*
X02259D02*
X02263D01*
X02267D02*
X02272D01*
X02178Y00267D02*
X02194D01*
X02259D02*
X02264D01*
X02267D02*
X02273D01*
X02178Y00267D02*
X02194D01*
X02259D02*
X02264D01*
X02268D02*
X02273D01*
X02178Y00268D02*
X02194D01*
X02259D02*
X02264D01*
X02268D02*
X02273D01*
X02178Y00268D02*
X02194D01*
X02259D02*
X02264D01*
X02269D02*
X02274D01*
X02178Y00269D02*
X02194D01*
X02259D02*
X02264D01*
X02269D02*
X02274D01*
X02178Y00269D02*
X02194D01*
X02259D02*
X02264D01*
X02269D02*
X02274D01*
X02178Y00269D02*
X02194D01*
X02259D02*
X02264D01*
X02269D02*
X02275D01*
X02178Y0027D02*
X02184D01*
X02187D02*
X02192D01*
X02259D02*
X02264D01*
X0227D02*
X02275D01*
X02178Y0027D02*
X02183D01*
X02187D02*
X02192D01*
X02259D02*
X02264D01*
X0227D02*
X02275D01*
X02177Y00271D02*
X02183D01*
X02187D02*
X02192D01*
X02259D02*
X02264D01*
X02271D02*
X02276D01*
X02177Y00271D02*
X02183D01*
X02187D02*
X02192D01*
X02259D02*
X02264D01*
X02271D02*
X02276D01*
X02177Y00271D02*
X02182D01*
X02187D02*
X02192D01*
X02259D02*
X02264D01*
X02271D02*
X02277D01*
X02176Y00272D02*
X02182D01*
X02187D02*
X02192D01*
X02259D02*
X02264D01*
X02272D02*
X02277D01*
X02176Y00272D02*
X02181D01*
X02187D02*
X02192D01*
X02259D02*
X02264D01*
X02272D02*
X02277D01*
X02175Y00273D02*
X02181D01*
X02187D02*
X02191D01*
X02259D02*
X02264D01*
X02273D02*
X02278D01*
X02175Y00273D02*
X02181D01*
X02187D02*
X02191D01*
X02259D02*
X02264D01*
X02273D02*
X02278D01*
X02175Y00273D02*
X0218D01*
X02187D02*
X02191D01*
X02259D02*
X02264D01*
X02273D02*
X02279D01*
X02174Y00274D02*
X0218D01*
X02187D02*
X02191D01*
X02259D02*
X02264D01*
X02274D02*
X02279D01*
X02174Y00274D02*
X02179D01*
X02187D02*
X02191D01*
X02259D02*
X02264D01*
X02274D02*
X02279D01*
X02174Y00275D02*
X02179D01*
X02187D02*
X02191D01*
X02259D02*
X02264D01*
X02275D02*
X0228D01*
X02173Y00275D02*
X02179D01*
X02187D02*
X02191D01*
X02259D02*
X02264D01*
X02275D02*
X0228D01*
X02173Y00275D02*
X02178D01*
X02187D02*
X02191D01*
X0226D02*
X02264D01*
X02275D02*
X02281D01*
X02173Y00276D02*
X02178D01*
X02187D02*
X02191D01*
X0226D02*
X02264D01*
X02276D02*
X02281D01*
X02172Y00276D02*
X02177D01*
X02187D02*
X02191D01*
X0226D02*
X02265D01*
X02276D02*
X02281D01*
X02172Y00277D02*
X02177D01*
X02183D02*
X02185D01*
X02187D02*
X02191D01*
X0226D02*
X02265D01*
X02277D02*
X02281D01*
X02171Y00277D02*
X02177D01*
X02181D02*
X02265D01*
X02277D02*
X02282D01*
X02171Y00277D02*
X02176D01*
X02181D02*
X0227D01*
X02277D02*
X02282D01*
X02171Y00278D02*
X02176D01*
X0218D02*
X0227D01*
X02277D02*
X02283D01*
X0217Y00278D02*
X02175D01*
X0218D02*
X0227D01*
X02278D02*
X02283D01*
X0217Y00279D02*
X02175D01*
X02179D02*
X0227D01*
X02278D02*
X02283D01*
X02169Y00279D02*
X02175D01*
X02179D02*
X0227D01*
X02279D02*
X02284D01*
X02169Y00279D02*
X02174D01*
X02179D02*
X0227D01*
X02279D02*
X02284D01*
X02169Y0028D02*
X02174D01*
X02178D02*
X0227D01*
X02279D02*
X02285D01*
X02168Y0028D02*
X02173D01*
X02178D02*
X0227D01*
X0228D02*
X02285D01*
X02168Y00281D02*
X02173D01*
X02178D02*
X0227D01*
X0228D02*
X02285D01*
X02167Y00281D02*
X02173D01*
X02178D02*
X0227D01*
X02281D02*
X02286D01*
X02167Y00281D02*
X02172D01*
X02178D02*
X0227D01*
X02281D02*
X02286D01*
X02167Y00282D02*
X02172D01*
X02178D02*
X02192D01*
X02247D02*
X02255D01*
X0226D02*
X02265D01*
X02281D02*
X02287D01*
X02166Y00282D02*
X02171D01*
X02178D02*
X02191D01*
X02247D02*
X02255D01*
X0226D02*
X02265D01*
X02282D02*
X02287D01*
X02166Y00283D02*
X02171D01*
X02177D02*
X02192D01*
X02247D02*
X02255D01*
X0226D02*
X02265D01*
X02282D02*
X02287D01*
X02165Y00283D02*
X02171D01*
X02177D02*
X02192D01*
X02247D02*
X02255D01*
X02259D02*
X02265D01*
X02283D02*
X02288D01*
X02165Y00283D02*
X0217D01*
X02178D02*
X02192D01*
X02247D02*
X02255D01*
X02259D02*
X02265D01*
X02283D02*
X02288D01*
X02165Y00284D02*
X0217D01*
X02178D02*
X02193D01*
X02247D02*
X02255D01*
X02259D02*
X02264D01*
X02283D02*
X02289D01*
X02164Y00284D02*
X02169D01*
X02178D02*
X02193D01*
X02247D02*
X02255D01*
X02258D02*
X02264D01*
X02284D02*
X02289D01*
X02164Y00285D02*
X02169D01*
X02178D02*
X02193D01*
X02247D02*
X02255D01*
X02258D02*
X02264D01*
X02284D02*
X02289D01*
X02163Y00285D02*
X02169D01*
X02178D02*
X02194D01*
X02247D02*
X02255D01*
X02257D02*
X02263D01*
X02285D02*
X02289D01*
X02163Y00285D02*
X02168D01*
X02178D02*
X02194D01*
X02247D02*
X02255D01*
X02257D02*
X02263D01*
X02285D02*
X0229D01*
X02163Y00286D02*
X02168D01*
X02178D02*
X02195D01*
X02247D02*
X02255D01*
X02256D02*
X02263D01*
X02285D02*
X0229D01*
X02162Y00286D02*
X02167D01*
X02179D02*
X02195D01*
X02211D02*
X02234D01*
X02247D02*
X02263D01*
X02285D02*
X02291D01*
X02162Y00287D02*
X02167D01*
X02179D02*
X02196D01*
X02211D02*
X02234D01*
X02247D02*
X02262D01*
X02286D02*
X02291D01*
X02161Y00287D02*
X02167D01*
X02179D02*
X02189D01*
X02189D02*
X02197D01*
X02211D02*
X02234D01*
X02247D02*
X02262D01*
X02286D02*
X02291D01*
X02161Y00287D02*
X02166D01*
X02179D02*
X02188D01*
X02189D02*
X02198D01*
X02211D02*
X02234D01*
X02247D02*
X02261D01*
X02287D02*
X02292D01*
X02161Y00288D02*
X02166D01*
X0218D02*
X02188D01*
X0219D02*
X02199D01*
X02211D02*
X02234D01*
X02247D02*
X02261D01*
X02287D02*
X02292D01*
X0216Y00288D02*
X02165D01*
X02181D02*
X02187D01*
X0219D02*
X022D01*
X02211D02*
X02234D01*
X02247D02*
X02261D01*
X02287D02*
X02293D01*
X0216Y00289D02*
X02165D01*
X02181D02*
X02187D01*
X02191D02*
X02201D01*
X02211D02*
X02234D01*
X02247D02*
X0226D01*
X02288D02*
X02293D01*
X02159Y00289D02*
X02165D01*
X02182D02*
X02185D01*
X02191D02*
X02203D01*
X02211D02*
X02234D01*
X02247D02*
X02259D01*
X02288D02*
X02293D01*
X02159Y00289D02*
X02164D01*
X02192D02*
X02204D01*
X02211D02*
X02234D01*
X02246D02*
X02259D01*
X02289D02*
X02294D01*
X02159Y0029D02*
X02164D01*
X02193D02*
X02206D01*
X02211D02*
X02234D01*
X02244D02*
X02258D01*
X02289D02*
X02294D01*
X02158Y0029D02*
X02163D01*
X02193D02*
X02209D01*
X02211D02*
X02234D01*
X02241D02*
X02257D01*
X02289D02*
X02295D01*
X02158Y00291D02*
X02163D01*
X02194D02*
X02234D01*
X02238D02*
X02257D01*
X0229D02*
X02295D01*
X02157Y00291D02*
X02163D01*
X02195D02*
X02215D01*
X02229D02*
X02234D01*
X02235D02*
X02256D01*
X0229D02*
X02295D01*
X02157Y00291D02*
X02163D01*
X02195D02*
X02215D01*
X02229D02*
X02255D01*
X02291D02*
X02296D01*
X02157Y00292D02*
X02162D01*
X02196D02*
X02215D01*
X02229D02*
X02255D01*
X02291D02*
X02296D01*
X02156Y00292D02*
X02162D01*
X02197D02*
X02215D01*
X02229D02*
X02255D01*
X02291D02*
X02296D01*
X02156Y00293D02*
X02161D01*
X02198D02*
X02215D01*
X02229D02*
X02255D01*
X02292D02*
X02297D01*
X02155Y00293D02*
X02161D01*
X02199D02*
X02215D01*
X02229D02*
X02255D01*
X02292D02*
X02297D01*
X02155Y00293D02*
X02161D01*
X02201D02*
X02255D01*
X02292D02*
X02297D01*
X02155Y00294D02*
X0216D01*
X02202D02*
X02255D01*
X02293D02*
X02298D01*
X02154Y00294D02*
X0216D01*
X02204D02*
X02247D01*
X02247D02*
X02255D01*
X02293D02*
X02298D01*
X02154Y00295D02*
X02159D01*
X02206D02*
X02244D01*
X02293D02*
X02299D01*
X02153Y00295D02*
X02159D01*
X02209D02*
X02242D01*
X02294D02*
X02299D01*
X02153Y00295D02*
X02159D01*
X02211D02*
X02239D01*
X02294D02*
X02299D01*
X02153Y00296D02*
X02158D01*
X02211D02*
X02235D01*
X02295D02*
X023D01*
X02152Y00296D02*
X02158D01*
X02211D02*
X02234D01*
X02295D02*
X023D01*
X02152Y00297D02*
X02157D01*
X02211D02*
X02234D01*
X02295D02*
X02301D01*
X02152Y00297D02*
X02157D01*
X02211D02*
X02234D01*
X02296D02*
X02301D01*
X02151Y00297D02*
X02157D01*
X02211D02*
X02234D01*
X02296D02*
X02301D01*
X02151Y00298D02*
X02156D01*
X02297D02*
X02302D01*
X02151Y00298D02*
X02156D01*
X02297D02*
X02302D01*
X0215Y00299D02*
X02155D01*
X02297D02*
X02303D01*
X0215Y00299D02*
X02155D01*
X02298D02*
X02303D01*
X02149Y00299D02*
X02155D01*
X02298D02*
X02303D01*
X02149Y003D02*
X02154D01*
X02299D02*
X02303D01*
X02149Y003D02*
X02154D01*
X02299D02*
X02304D01*
X02148Y00301D02*
X02153D01*
X02299D02*
X02304D01*
X02148Y00301D02*
X02153D01*
X023D02*
X02305D01*
X02147Y00301D02*
X02153D01*
X023D02*
X02305D01*
X02147Y00302D02*
X02152D01*
X023D02*
X02305D01*
X02147Y00302D02*
X02152D01*
X02301D02*
X02306D01*
X02146Y00303D02*
X02151D01*
X02301D02*
X02306D01*
X02146Y00303D02*
X02151D01*
X02301D02*
X02307D01*
X02145Y00303D02*
X02151D01*
X02302D02*
X02307D01*
X02145Y00304D02*
X0215D01*
X02302D02*
X02307D01*
X02145Y00304D02*
X0215D01*
X02303D02*
X02308D01*
X02144Y00305D02*
X02149D01*
X02303D02*
X02308D01*
X02144Y00305D02*
X02149D01*
X02303D02*
X02309D01*
X02143Y00305D02*
X02149D01*
X02304D02*
X02309D01*
X02143Y00306D02*
X02148D01*
X02304D02*
X02309D01*
X02143Y00306D02*
X02148D01*
X02305D02*
X0231D01*
X02142Y00307D02*
X02147D01*
X02305D02*
X0231D01*
X02142Y00307D02*
X02147D01*
X02305D02*
X0231D01*
X02142Y00307D02*
X02147D01*
X02306D02*
X0231D01*
X02142Y00308D02*
X02146D01*
X02306D02*
X0231D01*
X02142Y00308D02*
X02146D01*
X02307D02*
X0231D01*
X02142Y00309D02*
X02145D01*
X02307D02*
X0231D01*
X02142Y00309D02*
X02145D01*
X02307D02*
X0231D01*
X02142Y00309D02*
X02145D01*
X02307D02*
X0231D01*
X02142Y0031D02*
X02144D01*
X02308D02*
X0231D01*
X02142Y0031D02*
X02144D01*
X02308D02*
X0231D01*
X02142Y00311D02*
X02143D01*
X02309D02*
X0231D01*
X02142Y00311D02*
X02143D01*
X02309D02*
X0231D01*
X02142Y00311D02*
X02143D01*
X02309D02*
X0231D01*
X02142Y00312D02*
X02142D01*
M02*