%FSTAX23Y23*%
%MOIN*%
%SFA1B1*%

%IPPOS*%
%ADD10C,0.020000*%
%ADD11C,0.015000*%
%ADD24C,0.066900*%
%ADD25R,0.066900X0.066900*%
%ADD26C,0.050000*%
%ADD27C,0.048000*%
%ADD28C,0.070900*%
%ADD29C,0.035000*%
%ADD30C,0.045000*%
%ADD31C,0.040000*%
%ADD32C,0.004000*%
%ADD33C,0.010000*%
%LNcn0349-1*%
%LPD*%
G54D10*
X01613Y00061D02*
D01*
D01*
G75*
G03X01596Y00069I-00017J-00017D01*
G74*G01*
D01*
D01*
G75*
G03X01613Y00076I0J00023D01*
G74*G01*
X00492Y00632D02*
D01*
D01*
G75*
G03X00479Y00638I-00012J-00012D01*
G74*G01*
D01*
D01*
G75*
G03X00492Y00643I-0J00018D01*
G74*G01*
X00283Y0061D02*
D01*
D01*
G75*
G03X0027Y00605I0J-00018D01*
G74*G01*
D01*
D01*
G75*
G03X00275Y00618I-00012J00012D01*
G74*G01*
X00283Y00625D02*
D01*
D01*
G75*
G03X00295Y0063I-0J00018D01*
G74*G01*
D01*
D01*
G75*
G03X0029Y00618I00012J-00012D01*
G74*G01*
X00493Y00582D02*
D01*
D01*
G75*
G03X0048Y00588I-00012J-00012D01*
G74*G01*
D01*
D01*
G75*
G03X00493Y00593I-0J00018D01*
G74*G01*
X00399Y0058D02*
D01*
D01*
G75*
G03X00412Y00575I00012J00012D01*
G74*G01*
D01*
D01*
G75*
G03X00399Y00569I0J-00018D01*
G74*G01*
X00388D02*
D01*
D01*
G75*
G03X00375Y00575I-00012J-00012D01*
G74*G01*
D01*
D01*
G75*
G03X00388Y0058I-0J00018D01*
G74*G01*
X00861Y00488D02*
D01*
D01*
G75*
G03X0084Y00498I-00022J-00022D01*
G74*G01*
X00782Y00722D02*
D01*
D01*
G75*
G03X00775Y00705I00017J-00017D01*
G74*G01*
D01*
D01*
G75*
G03X00767Y00722I-00023J0D01*
G74*G01*
X01302Y00532D02*
D01*
D01*
G75*
G03X01285Y0054I-00017J-00017D01*
G74*G01*
D01*
D01*
G75*
G03X01302Y00547I0J00023D01*
G74*G01*
X00382Y00507D02*
D01*
D01*
G75*
G03X00375Y0049I00017J-00017D01*
G74*G01*
D01*
D01*
G75*
G03X00367Y00507I-00023J0D01*
G74*G01*
Y00337D02*
D01*
D01*
G75*
G03X00375Y00354I-00017J00017D01*
G74*G01*
D01*
D01*
G75*
G03X00382Y00337I00023J-0D01*
G74*G01*
X00943Y00173D02*
D01*
D01*
G75*
G03X0096Y0018I-0J00024D01*
G74*G01*
D01*
D01*
G75*
G03X00953Y00163I00017J-00017D01*
G74*G01*
X01142Y00425D02*
D01*
D01*
G75*
G03X01107Y00439I-00035J-00035D01*
G74*G01*
Y00464D02*
D01*
D01*
G75*
G03X01123Y00471I-0J00022D01*
G74*G01*
X0113Y00478D02*
D01*
D01*
G75*
G03X01119Y00452I00026J-00026D01*
G74*G01*
X01107Y00439D02*
D01*
D01*
G75*
G03X01078Y00427I0J-00039D01*
G74*G01*
X01088Y00437D02*
D01*
D01*
G75*
G03X01094Y00452I-00014J00014D01*
G74*G01*
X01115Y00443D02*
D01*
D01*
G75*
G03X01108Y00424I00018J-00018D01*
G74*G01*
Y00419D02*
D01*
D01*
G75*
G03X01098Y00443I-00033J-0D01*
G74*G01*
X01124Y00154D02*
D01*
D01*
G75*
G03X01141Y00111I00060J-0D01*
G74*G01*
X011Y00163D02*
D01*
D01*
G75*
G03X01108Y00183I-00019J00019D01*
G74*G01*
Y00192D02*
D01*
D01*
G75*
G03X01119Y00163I00040J-0D01*
G74*G01*
X00101Y00266D02*
D01*
D01*
G75*
G03X00141Y0025I00040J00040D01*
G74*G01*
D01*
D01*
G75*
G03X00101Y00233I-0J-00056D01*
G74*G01*
Y00366D02*
D01*
D01*
G75*
G03X00141Y0035I00040J00040D01*
G74*G01*
D01*
D01*
G75*
G03X00101Y00333I-0J-00056D01*
G74*G01*
X00185Y00273D02*
D01*
D01*
G75*
G03X00226Y0029I-0J00059D01*
G74*G01*
X00224Y00288D02*
D01*
D01*
G75*
G03X00208Y0025I00037J-00038D01*
G74*G01*
X00168Y00233D02*
D01*
D01*
G75*
G03X00128Y0025I-00040J-00040D01*
G74*G01*
D01*
D01*
G75*
G03X00168Y00266I0J00056D01*
G74*G01*
X00185Y00373D02*
D01*
D01*
G75*
G03X00226Y0039I-0J00059D01*
G74*G01*
X00224Y00388D02*
D01*
D01*
G75*
G03X00208Y0035I00037J-00038D01*
G74*G01*
X00168Y00333D02*
D01*
D01*
G75*
G03X00128Y0035I-00040J-00040D01*
G74*G01*
D01*
D01*
G75*
G03X00168Y00366I0J00056D01*
G74*G01*
X01108Y00451D02*
X01109Y00452D01*
X01108Y00145D02*
Y00451D01*
X00955Y00332D02*
Y00478D01*
X01116Y00451D02*
X01408Y00159D01*
X01108Y00451D02*
X01116D01*
X01107Y00452D02*
Y00455D01*
X01103Y00452D02*
X01107D01*
X01042Y00391D02*
X01103Y00452D01*
X01107D02*
X01109D01*
X01184Y00069D02*
X01621D01*
X01108Y00145D02*
X01184Y00069D01*
X00775Y0073D02*
Y00731D01*
Y00532D02*
Y0073D01*
X00867Y00498D02*
X00869Y00496D01*
X00809Y00498D02*
X00867D01*
X00848Y00538D02*
X00895D01*
X00375Y0033D02*
Y00505D01*
X00296Y0036D02*
Y00523D01*
X00186Y0025D02*
X00296Y0036D01*
X00185Y0025D02*
X00186D01*
X00256Y0042D02*
Y00591D01*
X00186Y0035D02*
X00256Y0042D01*
X00185Y0035D02*
X00186D01*
X0045Y00588D02*
X00499D01*
X00437Y00575D02*
X0045Y00588D01*
X00394Y00575D02*
X00437D01*
X00348D02*
X00394D01*
X00296Y00523D02*
X00348Y00575D01*
X00256Y00591D02*
X00283Y00618D01*
X00303Y00638*
X00498*
X00775Y00532D02*
X00809Y00498D01*
X00085Y0025D02*
X00185D01*
X00085Y0035D02*
X00185D01*
X01107Y00455D02*
X01192Y0054D01*
X01309*
X00943Y00163D02*
X01042Y00262D01*
X00895Y00538D02*
X00955Y00478D01*
X01042Y00262D02*
Y00391D01*
G54D11*
X01961Y0057D02*
D01*
D01*
G75*
G03X01969Y00587I-00017J00017D01*
G74*G01*
D01*
D01*
G75*
G03X01976Y0057I00024J0D01*
G74*G01*
X02096Y00537D02*
D01*
D01*
G75*
G03X02103Y00518I00026J-0D01*
G74*G01*
X02101Y0052D02*
D01*
D01*
G75*
G03X02086Y00527I-00015J-00015D01*
G74*G01*
X01738Y00314D02*
D01*
D01*
G75*
G03X01756Y00321I0J00026D01*
G74*G01*
X01754Y00319D02*
D01*
D01*
G75*
G03X01748Y00304I00015J-00015D01*
G74*G01*
X01857Y00399D02*
D01*
D01*
G75*
G03X01818Y00383I0J-00054D01*
G74*G01*
X01696Y00293D02*
D01*
D01*
G75*
G03X01703Y00275I00024J0D01*
G74*G01*
D01*
D01*
G75*
G03X01686Y00283I-00017J-00017D01*
G74*G01*
X01875Y00461D02*
D01*
D01*
G75*
G03X0188Y00447I00019J0D01*
G74*G01*
X01885Y00442D02*
D01*
D01*
G75*
G03X01865Y00451I-00020J-00020D01*
G74*G01*
X01938Y00246D02*
D01*
D01*
G75*
G03X01919Y00255I-00019J-00019D01*
G74*G01*
X01924D02*
D01*
D01*
G75*
G03X01938Y00261I0J00020D01*
G74*G01*
X02008Y00361D02*
D01*
D01*
G75*
G03X02001Y00344I00017J-00017D01*
G74*G01*
D01*
D01*
G75*
G03X01993Y00361I-00023J0D01*
G74*G01*
X01952Y00209D02*
D01*
D01*
G75*
G03X01969Y00202I00017J00017D01*
G74*G01*
D01*
D01*
G75*
G03X01952Y00194I-0J-00023D01*
G74*G01*
X01876Y00633D02*
D01*
D01*
G75*
G03X01884Y0065I-00017J00017D01*
G74*G01*
D01*
D01*
G75*
G03X01891Y00633I00023J-0D01*
G74*G01*
X01676Y00697D02*
D01*
D01*
G75*
G03X01662Y00704I-00014J-00014D01*
G74*G01*
X01657D02*
D01*
D01*
G75*
G03X01676Y00712I0J00027D01*
G74*G01*
X00839Y00595D02*
D01*
D01*
G75*
G03X00856Y00588I00017J00017D01*
G74*G01*
D01*
D01*
G75*
G03X00839Y0058I-0J-00023D01*
G74*G01*
X00984Y00579D02*
D01*
D01*
G75*
G03X00992Y00596I-00017J00017D01*
G74*G01*
D01*
D01*
G75*
G03X00999Y00579I00023J-0D01*
G74*G01*
X00837Y00645D02*
D01*
D01*
G75*
G03X00854Y00638I00017J00017D01*
G74*G01*
D01*
D01*
G75*
G03X00837Y0063I-0J-00023D01*
G74*G01*
X00935Y00575D02*
D01*
D01*
G75*
G03X00905Y00588I-00030J-00030D01*
G74*G01*
X00924Y00564D02*
D01*
D01*
G75*
G03X00869Y00588I-00055J-00055D01*
G74*G01*
X00942Y00572D02*
D01*
D01*
G75*
G03X00949Y00554I00024J0D01*
G74*G01*
D01*
D01*
G75*
G03X00932Y00562I-00017J-00017D01*
G74*G01*
X02438Y00381D02*
D01*
D01*
G75*
G03X02393Y004I-00045J-00045D01*
G74*G01*
X02388D02*
D01*
D01*
G75*
G03X02438Y0042I0J00070D01*
G74*G01*
X02116Y00722D02*
D01*
D01*
G75*
G03X02088Y00734I-00028J-00028D01*
G74*G01*
D01*
D01*
G75*
G03X02116Y00745I0J00039D01*
G74*G01*
X02083Y00734D02*
X02128D01*
X01969Y0062D02*
X02083Y00734D01*
X01969Y00563D02*
Y0062D01*
X01738Y00303D02*
X01844Y00409D01*
X02431Y004D02*
X02453Y00378D01*
X02222Y004D02*
X02431D01*
X02086Y00536D02*
X02222Y004D01*
X02001Y00226D02*
Y00369D01*
X01977Y00202D02*
X02001Y00226D01*
X01952Y00202D02*
X01977D01*
X01903Y00256D02*
Y00425D01*
X01954Y00255D02*
X01956Y00253D01*
X01844Y00409D02*
X01857D01*
X01738Y00303D02*
Y00304D01*
X01956Y00253D02*
X01957Y00254D01*
X00988Y00575D02*
X00989D01*
X0083Y00638D02*
X00992D01*
X00916Y00588D02*
X00932Y00572D01*
X00829Y00588D02*
X00916D01*
X00992Y00579D02*
Y00638D01*
X01053*
X00932Y00572D02*
X0097Y00534D01*
X01029*
X01053Y00638D02*
X0116Y00745D01*
X01831*
X01884Y00692*
X01029Y00534D02*
X01199Y00704D01*
X01683*
X02086Y00536D02*
Y00537D01*
X00988Y00575D02*
X00992Y00579D01*
X01884Y00621D02*
Y00626D01*
Y00692*
X01686Y00293D02*
X01724Y00255D01*
X01954*
X01957Y00253D02*
Y00254D01*
X01865Y00463D02*
X01903Y00425D01*
G54D24*
X00185Y0055D03*
Y0045D03*
Y0035D03*
Y0025D03*
X00085Y0055D03*
Y0045D03*
Y0035D03*
G54D25*
X00085Y0025D03*
G54D26*
X0005Y0075D03*
Y0005D03*
X02565D03*
Y00749D03*
G54D27*
X0111Y00154D03*
X02226Y00642D03*
X02128Y00734D03*
X01972Y00062D03*
G54D28*
X02458Y00601D03*
Y00501D03*
Y00201D03*
Y00301D03*
Y00401D03*
G54D29*
X0212Y00626D03*
X02205Y00355D03*
X00932Y00572D03*
X0083Y00638D03*
X00992Y00572D03*
X00832Y00588D03*
X00394Y00575D03*
X00499Y00588D03*
X00283Y00618D03*
X00498Y00638D03*
X01684Y00705D03*
X01884Y00626D03*
X01945Y00202D03*
X02001Y00369D03*
X01946Y00254D03*
X01865Y00461D03*
X01686Y00293D03*
X01857Y00409D03*
X01738Y00304D03*
X02086Y00537D03*
X02061Y0011D03*
X01969Y00563D03*
G54D30*
X01107Y00452D03*
G54D31*
X01408Y00156D03*
X00943Y00163D03*
X00375Y0033D03*
Y00515D03*
X0131Y0054D03*
X01141Y00593D03*
X00835Y00537D03*
X00775Y0073D03*
X00954Y00332D03*
X00869Y00069D03*
Y00496D03*
X0046Y00068D03*
X00487Y00538D03*
X01801Y00113D03*
X00546Y0041D03*
X01621Y00069D03*
G54D32*
X02535Y0077D02*
D01*
D01*
G75*
G03X02585Y00719I00029J-00020D01*
G74*G01*
X02504Y00601D02*
D01*
D01*
G75*
G03X02411I-00046J0D01*
G74*G01*
D01*
G75*
G03X02504I00046J0D01*
G74*G01*
X02163Y00734D02*
D01*
D01*
G75*
G03X02103Y00758I-00034J0D01*
G74*G01*
Y00709D02*
D01*
D01*
G75*
G03X02163Y00734I00024J00024D01*
G74*G01*
X02261Y00642D02*
D01*
D01*
G75*
G03X02191I-00035J0D01*
G74*G01*
D01*
G75*
G03X02261I00035J0D01*
G74*G01*
X02148Y00626D02*
D01*
D01*
G75*
G03X02091I-00028J0D01*
G74*G01*
D01*
G75*
G03X02148I00028J0D01*
G74*G01*
X02504Y00401D02*
D01*
D01*
G75*
G03X02425Y00433I-00046J-0D01*
G74*G01*
X02504Y00501D02*
D01*
D01*
G75*
G03X02411I-00046J0D01*
G74*G01*
D01*
G75*
G03X02504I00046J0D01*
G74*G01*
X02388Y00418D02*
D01*
D01*
G75*
G03X02425Y00433I-0J00052D01*
G74*G01*
X02208Y00386D02*
D01*
D01*
G75*
G03X02222Y00381I00013J00012D01*
G74*G01*
X02208Y00386D02*
D01*
D01*
G75*
G03X02222Y00381I00013J00012D01*
G74*G01*
X02088Y00752D02*
D01*
D01*
G75*
G03X02103Y00758I0J00021D01*
G74*G01*
X02083Y00752D02*
D01*
D01*
G75*
G03X02069Y00747I0J-00018D01*
G74*G01*
X02083Y00752D02*
D01*
D01*
G75*
G03X02069Y00747I0J-00018D01*
G74*G01*
X01844Y00758D02*
D01*
D01*
G75*
G03X01831Y00763I-00013J-00012D01*
G74*G01*
X01844Y00758D02*
D01*
D01*
G75*
G03X01831Y00763I-00013J-00012D01*
G74*G01*
X02103Y00709D02*
D01*
D01*
G75*
G03X0209Y00715I-00015J-00015D01*
G74*G01*
X01955Y00633D02*
D01*
D01*
G75*
G03X0195Y0062I00012J-00013D01*
G74*G01*
X01955Y00633D02*
D01*
D01*
G75*
G03X0195Y0062I00012J-00013D01*
G74*G01*
X01987Y00587D02*
D01*
D01*
G75*
G03X01989Y00583I00005J0D01*
G74*G01*
X01948D02*
D01*
D01*
G75*
G03X0195Y00587I-00003J00003D01*
G74*G01*
X02114Y00537D02*
D01*
D01*
G75*
G03X02116Y00531I00008J0D01*
G74*G01*
X02114Y00537D02*
D01*
D01*
G75*
G03X02086Y00508I-00028J0D01*
G74*G01*
X01948Y00583D02*
D01*
D01*
G75*
G03X01997Y00563I00020J-00020D01*
G74*G01*
D01*
D01*
G75*
G03X01989Y00583I-00028J-0D01*
G74*G01*
X01921Y00425D02*
D01*
D01*
G75*
G03X01916Y00438I-00018J-0D01*
G74*G01*
X01921Y00425D02*
D01*
D01*
G75*
G03X01916Y00438I-00018J-0D01*
G74*G01*
X01902Y00692D02*
D01*
D01*
G75*
G03X01897Y00705I-00018J-0D01*
G74*G01*
X01902Y0065D02*
D01*
D01*
G75*
G03X01904Y00646I00005J-0D01*
G74*G01*
X01912Y00626D02*
D01*
D01*
G75*
G03X01904Y00646I-00028J-0D01*
G74*G01*
X01902Y00692D02*
D01*
D01*
G75*
G03X01897Y00705I-00018J-0D01*
G74*G01*
X01657Y00722D02*
D01*
D01*
G75*
G03X01663Y00725I-0J00009D01*
G74*G01*
X01712Y00705D02*
D01*
D01*
G75*
G03X01702Y00726I-00028J0D01*
G74*G01*
X01663Y00684D02*
D01*
D01*
G75*
G03X01712Y00705I00020J00020D01*
G74*G01*
X01863Y00646D02*
D01*
D01*
G75*
G03X01865Y0065I-00003J00003D01*
G74*G01*
X01863Y00646D02*
D01*
D01*
G75*
G03X01912Y00626I00020J-00020D01*
G74*G01*
X01893Y00461D02*
D01*
D01*
G75*
G03X01849Y00437I-00028J-0D01*
G74*G01*
X01857Y00381D02*
D01*
D01*
G75*
G03X01884Y00402I-0J00028D01*
G74*G01*
X01849Y00437D02*
D01*
D01*
G75*
G03X01831Y00423I00007J-00027D01*
G74*G01*
X02425Y00368D02*
D01*
D01*
G75*
G03X02504Y00401I00032J00032D01*
G74*G01*
Y00301D02*
D01*
D01*
G75*
G03X02411I-00046J0D01*
G74*G01*
D01*
G75*
G03X02504I00046J0D01*
G74*G01*
X02425Y00368D02*
D01*
D01*
G75*
G03X02393Y00381I-00032J-00032D01*
G74*G01*
X02233Y00355D02*
D01*
D01*
G75*
G03X02176I-00028J0D01*
G74*G01*
D01*
G75*
G03X02233I00028J0D01*
G74*G01*
X02029Y00369D02*
D01*
D01*
G75*
G03X0198Y00348I-00028J-0D01*
G74*G01*
X02021D02*
D01*
D01*
G75*
G03X02029Y00369I-00019J00019D01*
G74*G01*
X02021Y00348D02*
D01*
D01*
G75*
G03X02019Y00344I00003J-00003D01*
G74*G01*
X02504Y00201D02*
D01*
D01*
G75*
G03X02411I-00046J0D01*
G74*G01*
D01*
G75*
G03X02504I00046J0D01*
G74*G01*
X02585Y00079D02*
D01*
D01*
G75*
G03X02535Y0003I-00020J-00029D01*
G74*G01*
X02014Y00212D02*
D01*
D01*
G75*
G03X02019Y00226I-00012J00013D01*
G74*G01*
X02014Y00212D02*
D01*
D01*
G75*
G03X02019Y00226I-00012J00013D01*
G74*G01*
X02089Y0011D02*
D01*
D01*
G75*
G03X02032I-00028J0D01*
G74*G01*
D01*
G75*
G03X02089I00028J0D01*
G74*G01*
X01982Y00344D02*
D01*
D01*
G75*
G03X0198Y00348I-00005J0D01*
G74*G01*
X01857Y00381D02*
D01*
D01*
G75*
G03X01831Y0037I0J-00036D01*
G74*G01*
X01975Y00254D02*
D01*
D01*
G75*
G03X01972Y00263I-00018J-0D01*
G74*G01*
X01975Y00254D02*
D01*
D01*
G75*
G03X01972Y00263I-00018J-0D01*
G74*G01*
D01*
D01*
G75*
G03X01925Y00274I-00026J-00009D01*
G74*G01*
X01738Y00332D02*
D01*
D01*
G75*
G03X01743Y00334I-0J00008D01*
G74*G01*
X01738Y00332D02*
D01*
D01*
G75*
G03X01709Y00308I-0J-00028D01*
G74*G01*
X01727Y00277D02*
D01*
D01*
G75*
G03X01766Y00304I00010J00026D01*
G74*G01*
X01709Y00308D02*
D01*
D01*
G75*
G03X01686Y00264I-00023J-00015D01*
G74*G01*
X0169Y00262D02*
D01*
D01*
G75*
G03X01686Y00264I-00003J-00003D01*
G74*G01*
X01971Y00241D02*
D01*
D01*
G75*
G03X01975Y00253I-00014J00011D01*
G74*G01*
X01957Y00227D02*
D01*
D01*
G75*
G03X01971Y00241I-00011J00026D01*
G74*G01*
X01977Y00183D02*
D01*
D01*
G75*
G03X0199Y00188I-0J00018D01*
G74*G01*
X01977Y00183D02*
D01*
D01*
G75*
G03X0199Y00188I-0J00018D01*
G74*G01*
X01965Y00222D02*
D01*
D01*
G75*
G03X01969Y0022I00003J00003D01*
G74*G01*
X01925Y00233D02*
D01*
D01*
G75*
G03X01933Y00228I00019J00019D01*
G74*G01*
X01925Y00233D02*
D01*
D01*
G75*
G03X01919Y00236I-00006J-00006D01*
G74*G01*
X01969Y00183D02*
D01*
D01*
G75*
G03X01965Y00181I-0J-00005D01*
G74*G01*
Y00222D02*
D01*
D01*
G75*
G03X01957Y00227I-00019J-00019D01*
G74*G01*
X01933Y00228D02*
D01*
D01*
G75*
G03X01965Y00181I00011J-00026D01*
G74*G01*
X01986Y0003D02*
D01*
D01*
G75*
G03X02007Y00062I-00014J00031D01*
G74*G01*
D01*
D01*
G75*
G03X01957Y0003I-00035J-0D01*
G74*G01*
X01832Y00113D02*
D01*
D01*
G75*
G03X0177I-00031J0D01*
G74*G01*
D01*
G75*
G03X01832I00031J0D01*
G74*G01*
X0171Y00241D02*
D01*
D01*
G75*
G03X01724Y00236I00013J00012D01*
G74*G01*
X0171Y00241D02*
D01*
D01*
G75*
G03X01724Y00236I00013J00012D01*
G74*G01*
X01652Y00069D02*
D01*
D01*
G75*
G03X01599Y0009I-00030J0D01*
G74*G01*
Y00047D02*
D01*
D01*
G75*
G03X01652Y00069I00021J00021D01*
G74*G01*
X0116Y00763D02*
D01*
D01*
G75*
G03X01146Y00758I0J-00018D01*
G74*G01*
X0116Y00763D02*
D01*
D01*
G75*
G03X01146Y00758I0J-00018D01*
G74*G01*
X01199Y00722D02*
D01*
D01*
G75*
G03X01185Y00717I0J-00018D01*
G74*G01*
X01199Y00722D02*
D01*
D01*
G75*
G03X01185Y00717I0J-00018D01*
G74*G01*
X01341Y0054D02*
D01*
D01*
G75*
G03X01288Y00561I-00030J0D01*
G74*G01*
X01192Y00561D02*
D01*
D01*
G75*
G03X01177Y00554I-0J-00020D01*
G74*G01*
X01192Y00561D02*
D01*
D01*
G75*
G03X01177Y00554I0J-00021D01*
G74*G01*
X01288Y00518D02*
D01*
D01*
G75*
G03X01341Y0054I00021J00021D01*
G74*G01*
X01172Y00593D02*
D01*
D01*
G75*
G03X01144Y00623I-00031J-0D01*
G74*G01*
X0111Y00589D02*
D01*
D01*
G75*
G03X01172Y00593I00030J00003D01*
G74*G01*
X01145Y00463D02*
D01*
D01*
G75*
G03X0114Y00455I00012J-00011D01*
G74*G01*
X00806Y0073D02*
D01*
D01*
G75*
G03X00753Y00708I-00030J0D01*
G74*G01*
X00796D02*
D01*
D01*
G75*
G03X00806Y0073I-00022J00022D01*
G74*G01*
X0085Y00658D02*
D01*
D01*
G75*
G03X00854Y00656I00003J00003D01*
G74*G01*
X0085Y00658D02*
D01*
D01*
G75*
G03X00809Y00657I-00020J-00019D01*
G74*G01*
D01*
D01*
G75*
G03X00796Y00651I00007J-00034D01*
G74*G01*
X01053Y00619D02*
D01*
D01*
G75*
G03X01066Y00624I-0J00018D01*
G74*G01*
X01053Y00619D02*
D01*
D01*
G75*
G03X01066Y00624I-0J00018D01*
G74*G01*
X0101Y00596D02*
D01*
D01*
G75*
G03X01012Y00592I00005J-0D01*
G74*G01*
X0102Y00572D02*
D01*
D01*
G75*
G03X01012Y00592I-00028J-0D01*
G74*G01*
X01012Y00552D02*
D01*
D01*
G75*
G03X0102Y00572I-00020J00019D01*
G74*G01*
X01107Y00485D02*
D01*
D01*
G75*
G03X01073Y00452I0J-00033D01*
G74*G01*
X01029Y00515D02*
D01*
D01*
G75*
G03X01042Y0052I-0J00018D01*
G74*G01*
X01029Y00515D02*
D01*
D01*
G75*
G03X01042Y0052I-0J00018D01*
G74*G01*
X00754Y00532D02*
D01*
D01*
G75*
G03X0076Y00517I00020J-0D01*
G74*G01*
X00754Y00532D02*
D01*
D01*
G75*
G03X0076Y00517I00021J0D01*
G74*G01*
X009Y00496D02*
D01*
D01*
G75*
G03X00898Y00504I-00030J0D01*
G74*G01*
X00847Y00474D02*
D01*
D01*
G75*
G03X0084Y00477I-00006J-00006D01*
G74*G01*
X00847Y00474D02*
D01*
D01*
G75*
G03X009Y00496I00021J00021D01*
G74*G01*
X00794Y00483D02*
D01*
D01*
G75*
G03X00809Y00477I00015J00015D01*
G74*G01*
X00794Y00483D02*
D01*
D01*
G75*
G03X00809Y00477I00014J00014D01*
G74*G01*
X01439Y00156D02*
D01*
D01*
G75*
G03X01409Y00187I-00031J-0D01*
G74*G01*
X01377Y0016D02*
D01*
D01*
G75*
G03X01439Y00156I00030J-00003D01*
G74*G01*
X01169Y00054D02*
D01*
D01*
G75*
G03X01184Y00048I00014J00014D01*
G74*G01*
X01169Y00054D02*
D01*
D01*
G75*
G03X01184Y00048I00015J00015D01*
G74*G01*
X01027Y00405D02*
D01*
D01*
G75*
G03X01021Y00391I00014J-00014D01*
G74*G01*
X01027Y00405D02*
D01*
D01*
G75*
G03X01021Y00391I00015J-00015D01*
G74*G01*
X00985Y00332D02*
D01*
D01*
G75*
G03X00976Y00353I-00030J0D01*
G74*G01*
X00934Y00355D02*
D01*
D01*
G75*
G03X00985Y00332I00019J-00023D01*
G74*G01*
X01145Y00154D02*
D01*
D01*
G75*
G03X01156Y00126I00039J-0D01*
G74*G01*
X01129Y00192D02*
D01*
D01*
G75*
G03X01134Y00178I00019J-0D01*
G74*G01*
X01145Y00154D02*
D01*
D01*
G75*
G03X01134Y00178I-00034J0D01*
G74*G01*
X01085D02*
D01*
D01*
G75*
G03X01103Y00119I00024J-00024D01*
G74*G01*
X01056Y00247D02*
D01*
D01*
G75*
G03X01063Y00262I-00014J00014D01*
G74*G01*
X01056Y00247D02*
D01*
D01*
G75*
G03X01063Y00262I-00015J00015D01*
G74*G01*
X01085Y00178D02*
D01*
D01*
G75*
G03X01087Y00183I-00004J00004D01*
G74*G01*
X00943Y00194D02*
D01*
D01*
G75*
G03X00974Y00163I0J-00031D01*
G74*G01*
X009Y00069D02*
D01*
D01*
G75*
G03X00838I-00031J0D01*
G74*G01*
D01*
G75*
G03X009I00031J0D01*
G74*G01*
X00527Y00588D02*
D01*
D01*
G75*
G03X00512Y00613I-00028J-0D01*
G74*G01*
D01*
D01*
G75*
G03X00526Y00638I-00014J00024D01*
G74*G01*
D01*
D01*
G75*
G03X00478Y00659I-00028J-0D01*
G74*G01*
Y00617D02*
D01*
D01*
G75*
G03X00484Y00612I00019J00021D01*
G74*G01*
D01*
D01*
G75*
G03X00479Y00609I00015J-00027D01*
G74*G01*
X0045D02*
D01*
D01*
G75*
G03X00435Y00602I-0J-00020D01*
G74*G01*
X00507Y0056D02*
D01*
D01*
G75*
G03X00527Y00588I-00008J00027D01*
G74*G01*
X00518Y00538D02*
D01*
D01*
G75*
G03X00507Y0056I-00031J-0D01*
G74*G01*
X00476Y00567D02*
D01*
D01*
G75*
G03X00518Y00538I00010J-00028D01*
G74*G01*
X00437Y00554D02*
D01*
D01*
G75*
G03X00451Y0056I-0J00021D01*
G74*G01*
X0045Y00609D02*
D01*
D01*
G75*
G03X00435Y00602I0J-00021D01*
G74*G01*
X00437Y00554D02*
D01*
D01*
G75*
G03X00451Y0056I0J00020D01*
G74*G01*
X00413Y00596D02*
D01*
D01*
G75*
G03X00374I-00019J-00021D01*
G74*G01*
Y00554D02*
D01*
D01*
G75*
G03X00413I00019J00021D01*
G74*G01*
X00303Y00659D02*
D01*
D01*
G75*
G03X00288Y00652I-0J-00020D01*
G74*G01*
X00303Y00659D02*
D01*
D01*
G75*
G03X00288Y00652I0J-00021D01*
G74*G01*
X00281Y00646D02*
D01*
D01*
G75*
G03X00254Y00619I00001J-00028D01*
G74*G01*
X00284Y00589D02*
D01*
D01*
G75*
G03X00311Y00616I-00001J00028D01*
G74*G01*
X00241Y00605D02*
D01*
D01*
G75*
G03X00235Y00591I00014J-00014D01*
G74*G01*
X00348Y00596D02*
D01*
D01*
G75*
G03X00333Y00589I-0J-00020D01*
G74*G01*
X00348Y00596D02*
D01*
D01*
G75*
G03X00333Y00589I0J-00021D01*
G74*G01*
X00406Y00515D02*
D01*
D01*
G75*
G03X00353Y00493I-00030J0D01*
G74*G01*
X00396D02*
D01*
D01*
G75*
G03X00406Y00515I-00022J00022D01*
G74*G01*
X00241Y00605D02*
D01*
D01*
G75*
G03X00235Y00591I00015J-00015D01*
G74*G01*
X00281Y00537D02*
D01*
D01*
G75*
G03X00277Y00531I00014J-00014D01*
G74*G01*
X00281Y00537D02*
D01*
D01*
G75*
G03X00277Y00531I00016J-00015D01*
G74*G01*
X00577Y0041D02*
D01*
D01*
G75*
G03X00515I-00031J0D01*
G74*G01*
D01*
G75*
G03X00577I00031J0D01*
G74*G01*
X00491Y00068D02*
D01*
D01*
G75*
G03X00429I-00031J0D01*
G74*G01*
D01*
G75*
G03X00491I00031J0D01*
G74*G01*
X0027Y00405D02*
D01*
D01*
G75*
G03X00275Y00411I-00014J00014D01*
G74*G01*
X0027Y00405D02*
D01*
D01*
G75*
G03X00275Y00411I-00016J00015D01*
G74*G01*
X00406Y0033D02*
D01*
D01*
G75*
G03X00396Y00351I-00030J0D01*
G74*G01*
X00353D02*
D01*
D01*
G75*
G03X00406Y0033I00021J-00021D01*
G74*G01*
X0031Y00345D02*
D01*
D01*
G75*
G03X00317Y0036I-00015J00015D01*
G74*G01*
X0031Y00345D02*
D01*
D01*
G75*
G03X00317Y0036I-00014J00014D01*
G74*G01*
X00229Y0055D02*
D01*
D01*
G75*
G03X0014I-00044J0D01*
G74*G01*
D01*
G75*
G03X00229I00044J0D01*
G74*G01*
Y0045D02*
D01*
D01*
G75*
G03X0014I-00044J0D01*
G74*G01*
D01*
G75*
G03X00229I00044J0D01*
G74*G01*
X00185Y00394D02*
D01*
D01*
G75*
G03X00211Y00405I-0J00038D01*
G74*G01*
X00086Y0075D02*
D01*
D01*
G75*
G03X00079Y0077I-00035J0D01*
G74*G01*
X00029Y0072D02*
D01*
D01*
G75*
G03X00086Y0075I00021J00029D01*
G74*G01*
X00129Y0055D02*
D01*
D01*
G75*
G03X0004I-00044J0D01*
G74*G01*
D01*
G75*
G03X00129I00044J0D01*
G74*G01*
Y0045D02*
D01*
D01*
G75*
G03X0004I-00044J0D01*
G74*G01*
D01*
G75*
G03X00129I00044J0D01*
G74*G01*
X00239Y00373D02*
D01*
D01*
G75*
G03X00229Y0035I00023J-00023D01*
G74*G01*
X00239Y00273D02*
D01*
D01*
G75*
G03X00229Y0025I00023J-00023D01*
G74*G01*
X00185Y00294D02*
D01*
D01*
G75*
G03X00211Y00305I-0J00038D01*
G74*G01*
X00185Y00394D02*
D01*
D01*
G75*
G03X00153Y00381I-0J-00044D01*
G74*G01*
X00135Y00371D02*
D01*
D01*
G75*
G03X00153Y00381I-00006J00034D01*
G74*G01*
Y00318D02*
D01*
D01*
G75*
G03X00135Y00328I-00025J-00026D01*
G74*G01*
X00153Y00318D02*
D01*
D01*
G75*
G03X00229Y0035I00031J00031D01*
G74*G01*
X00185Y00294D02*
D01*
D01*
G75*
G03X00153Y00281I-0J-00044D01*
G74*G01*
Y00218D02*
D01*
D01*
G75*
G03X00229Y0025I00031J00031D01*
G74*G01*
X00135Y00271D02*
D01*
D01*
G75*
G03X00153Y00281I-00006J00034D01*
G74*G01*
Y00218D02*
D01*
D01*
G75*
G03X00135Y00228I-00025J-00026D01*
G74*G01*
Y00328D02*
D01*
D01*
G75*
G03X00116Y00318I00006J-00034D01*
G74*G01*
Y00381D02*
D01*
D01*
G75*
G03X00135Y00371I00025J00026D01*
G74*G01*
X00116Y00381D02*
D01*
D01*
G75*
G03Y00318I-00031J-00031D01*
G74*G01*
X00129Y00273D02*
D01*
D01*
G75*
G03X00135Y00271I00011J00031D01*
G74*G01*
Y00228D02*
D01*
D01*
G75*
G03X00129Y00226I00006J-00035D01*
G74*G01*
X00079Y0003D02*
D01*
D01*
G75*
G03X00086Y0005I-00030J00020D01*
G74*G01*
D01*
D01*
G75*
G03X00029Y00079I-00035J0D01*
G74*G01*
X02579Y00716D02*
X02585D01*
X02532Y00763D02*
Y0077D01*
X0249D02*
X02535D01*
X02496Y00627D02*
Y0077D01*
X025Y0062D02*
Y0077D01*
X02492Y00632D02*
Y0077D01*
X02476Y00643D02*
Y0077D01*
X02244Y00672D02*
X02585D01*
X02472Y00645D02*
Y0077D01*
X02484Y00639D02*
Y0077D01*
X02488Y00636D02*
Y0077D01*
X0248Y00641D02*
Y0077D01*
X02483Y0064D02*
X02585D01*
X02488Y00636D02*
X02585D01*
X02475Y00644D02*
X02585D01*
X02495Y00628D02*
X02585D01*
X02498Y00624D02*
X02585D01*
X02492Y00632D02*
X02585D01*
X02253Y00664D02*
X02585D01*
X02256Y0066D02*
X02585D01*
X02249Y00668D02*
X02585D01*
X02259Y00652D02*
X02585D01*
X0226Y00648D02*
X02585D01*
X02258Y00656D02*
X02585D01*
X0246Y00647D02*
Y0077D01*
X02464Y00647D02*
Y0077D01*
X02452Y00647D02*
Y0077D01*
X02456Y00647D02*
Y0077D01*
X02448Y00646D02*
Y0077D01*
X02468Y00646D02*
Y0077D01*
X02444Y00645D02*
Y0077D01*
X02436Y00641D02*
Y0077D01*
X0244Y00643D02*
Y0077D01*
X02432Y00639D02*
Y0077D01*
X0242Y00627D02*
Y0077D01*
X02428Y00636D02*
Y0077D01*
X02416Y0062D02*
Y0077D01*
X0226Y00644D02*
X0244D01*
X0226Y0064D02*
X02432D01*
X0226Y0065D02*
Y0077D01*
X02424Y00632D02*
Y0077D01*
X0226Y00636D02*
X02427D01*
X02259Y00632D02*
X02423D01*
X02252Y00665D02*
Y0077D01*
X02256Y0066D02*
Y0077D01*
X02248Y00669D02*
Y0077D01*
X02258Y00628D02*
X0242D01*
X02256Y00624D02*
X02417D01*
X02253Y0062D02*
X02415D01*
X02412Y00607D02*
Y0077D01*
X02504Y00607D02*
Y0077D01*
X02404Y00421D02*
Y0077D01*
X02408Y00422D02*
Y0077D01*
X02396Y00419D02*
Y0077D01*
X024Y00419D02*
Y0077D01*
X02392Y00418D02*
Y0077D01*
X02352Y00418D02*
Y0077D01*
X02356Y00418D02*
Y0077D01*
X02348Y00418D02*
Y0077D01*
X02384Y00418D02*
Y0077D01*
X02388Y00418D02*
Y0077D01*
X0236Y00418D02*
Y0077D01*
X02501Y00616D02*
X02585D01*
X02503Y00612D02*
X02585D01*
X025Y0062D02*
X02585D01*
X02503Y00608D02*
X02585D01*
X0238Y00418D02*
Y0077D01*
X02249Y00616D02*
X02414D01*
X02244Y00612D02*
X02412D01*
X02372Y00418D02*
Y0077D01*
X02368Y00418D02*
Y0077D01*
X02376Y00418D02*
Y0077D01*
X02364Y00418D02*
Y0077D01*
X02328Y00418D02*
Y0077D01*
X02332Y00418D02*
Y0077D01*
X0232Y00418D02*
Y0077D01*
X02324Y00418D02*
Y0077D01*
X0234Y00418D02*
Y0077D01*
X02344Y00418D02*
Y0077D01*
X02336Y00418D02*
Y0077D01*
X023Y00418D02*
Y0077D01*
X02304Y00418D02*
Y0077D01*
X02296Y00418D02*
Y0077D01*
X02312Y00418D02*
Y0077D01*
X02316Y00418D02*
Y0077D01*
X02308Y00418D02*
Y0077D01*
X02276Y00418D02*
Y0077D01*
X0228Y00418D02*
Y0077D01*
X02272Y00418D02*
Y0077D01*
X02288Y00418D02*
Y0077D01*
X02292Y00418D02*
Y0077D01*
X02284Y00418D02*
Y0077D01*
X02256Y00418D02*
Y00624D01*
X02252Y00418D02*
Y00618D01*
X02248Y00418D02*
Y00614D01*
X02264Y00418D02*
Y0077D01*
X02268Y00418D02*
Y0077D01*
X0226Y00418D02*
Y00633D01*
X02162Y00736D02*
X02531D01*
X02162Y00732D02*
X02533D01*
X02161Y00744D02*
X02529D01*
X02162Y0074D02*
X0253D01*
X02162Y00728D02*
X02535D01*
X02161Y00724D02*
X02539D01*
X02244Y00672D02*
Y0077D01*
X02136Y00768D02*
X02534D01*
X02146Y00764D02*
X02532D01*
X02151Y0076D02*
X0253D01*
X02155Y00756D02*
X02529D01*
X02158Y00752D02*
X02529D01*
X0216Y00748D02*
X02529D01*
X02158Y00716D02*
X0255D01*
X02155Y00712D02*
X02585D01*
X0216Y0072D02*
X02543D01*
X02146Y00704D02*
X02585D01*
X02234Y00676D02*
X02585D01*
X02151Y00708D02*
X02585D01*
X02071Y00696D02*
X02585D01*
X02067Y00692D02*
X02585D01*
X02136Y007D02*
X02585D01*
X02059Y00684D02*
X02585D01*
X02055Y0068D02*
X02585D01*
X02063Y00688D02*
X02585D01*
X02228Y00676D02*
Y0077D01*
X02232Y00676D02*
Y0077D01*
X0222Y00676D02*
Y0077D01*
X02224Y00676D02*
Y0077D01*
X02216Y00675D02*
Y0077D01*
X02236Y00675D02*
Y0077D01*
X02212Y00674D02*
Y0077D01*
X02152Y00759D02*
Y0077D01*
X02156Y00755D02*
Y0077D01*
X02148Y00762D02*
Y0077D01*
X02204Y00669D02*
Y0077D01*
X02208Y00672D02*
Y0077D01*
X022Y00665D02*
Y0077D01*
X02144Y00765D02*
Y0077D01*
X0216Y00748D02*
Y0077D01*
X0214Y00766D02*
Y0077D01*
X02196Y0066D02*
Y0077D01*
X0224Y00674D02*
Y0077D01*
X02051Y00676D02*
X02217D01*
X02047Y00672D02*
X02208D01*
X02043Y00668D02*
X02202D01*
X02039Y00664D02*
X02198D01*
X02035Y0066D02*
X02196D01*
X02192Y0065D02*
Y0077D01*
X02196Y00452D02*
Y00624D01*
X02192Y00456D02*
Y00633D01*
X02031Y00656D02*
X02193D01*
X02131Y00652D02*
X02192D01*
X02148Y00628D02*
X02193D01*
X02148Y00624D02*
X02196D01*
X02147Y00632D02*
X02192D01*
X02212Y00436D02*
Y00609D01*
X02216Y00432D02*
Y00608D01*
X02208Y0044D02*
Y00612D01*
X02244Y00418D02*
Y00612D01*
X0224Y00418D02*
Y00609D01*
X02236Y00418D02*
Y00608D01*
X02146Y00616D02*
X02202D01*
X02144Y00612D02*
X02208D01*
X02147Y0062D02*
X02198D01*
X02204Y00444D02*
Y00614D01*
X02142Y00608D02*
X02217D01*
X022Y00448D02*
Y00618D01*
X02172Y00476D02*
Y0077D01*
X02176Y00472D02*
Y0077D01*
X02168Y0048D02*
Y0077D01*
X02184Y00464D02*
Y0077D01*
X02188Y0046D02*
Y0077D01*
X0218Y00468D02*
Y0077D01*
X02152Y00496D02*
Y00708D01*
X02148Y00631D02*
Y00705D01*
X02144Y00641D02*
Y00702D01*
X02164Y00484D02*
Y0077D01*
X0216Y00488D02*
Y00719D01*
X02156Y00492D02*
Y00713D01*
X02142Y00644D02*
X02191D01*
X02144Y0064D02*
X02191D01*
X0214Y00646D02*
Y00701D01*
X02146Y00636D02*
X02191D01*
X02148Y005D02*
Y0062D01*
X02144Y00504D02*
Y0061D01*
X02136Y00649D02*
Y00699D01*
X02132Y00651D02*
Y00699D01*
X02128Y00653D02*
Y00699D01*
X02138Y00648D02*
X02191D01*
X02503Y00592D02*
X02585D01*
X02502Y00588D02*
X02585D01*
X02504Y006D02*
X02585D01*
X02504Y00596D02*
X02585D01*
X02499Y0058D02*
X02585D01*
X02497Y00576D02*
X02585D01*
X02501Y00584D02*
X02585D01*
X0249Y00568D02*
X02585D01*
X02486Y00564D02*
X02585D01*
X02494Y00572D02*
X02585D01*
X02469Y00556D02*
X02585D01*
X02475Y00544D02*
X02585D01*
X02479Y0056D02*
X02585D01*
X02503Y00508D02*
X02585D01*
X02504Y00504D02*
X02585D01*
X02503Y00512D02*
X02585D01*
X02504Y00496D02*
X02585D01*
X02503Y00492D02*
X02585D01*
X02504Y005D02*
X02585D01*
X02488Y00536D02*
X02585D01*
X02492Y00532D02*
X02585D01*
X02483Y0054D02*
X02585D01*
X02498Y00524D02*
X02585D01*
X02501Y00516D02*
X02585D01*
X02495Y00528D02*
X02585D01*
X02504Y00604D02*
X02585D01*
X02492Y00532D02*
Y00569D01*
X02488Y00536D02*
Y00565D01*
X02484Y00539D02*
Y00562D01*
X02504Y00507D02*
Y00594D01*
X025Y0052D02*
Y00581D01*
X02496Y00527D02*
Y00574D01*
X02432Y00539D02*
Y00562D01*
X0248Y00541D02*
Y0056D01*
X02428Y00536D02*
Y00565D01*
X0242Y00527D02*
Y00574D01*
X02424Y00532D02*
Y00569D01*
X02416Y0052D02*
Y00581D01*
X02468Y00546D02*
Y00555D01*
X02464Y00547D02*
Y00555D01*
X0246Y00547D02*
Y00554D01*
X02476Y00543D02*
Y00558D01*
X025Y0052D02*
X02585D01*
X02472Y00545D02*
Y00556D01*
X02452Y00547D02*
Y00555D01*
X02456Y00547D02*
Y00554D01*
X02448Y00546D02*
Y00555D01*
X0244Y00543D02*
Y00558D01*
X02444Y00545D02*
Y00556D01*
X02436Y00541D02*
Y0056D01*
X02499Y0048D02*
X02585D01*
X02497Y00476D02*
X02585D01*
X02502Y00488D02*
X02585D01*
X02501Y00484D02*
X02585D01*
X0249Y00468D02*
X02585D01*
X02492Y00432D02*
X02585D01*
X02494Y00472D02*
X02585D01*
X02479Y0046D02*
X02585D01*
X02469Y00456D02*
X02585D01*
X02486Y00464D02*
X02585D01*
X02483Y0044D02*
X02585D01*
X02488Y00436D02*
X02585D01*
X02475Y00444D02*
X02585D01*
X02503Y00408D02*
X02585D01*
X02504Y00404D02*
X02585D01*
X02503Y00412D02*
X02585D01*
X02504Y00396D02*
X02585D01*
X02503Y00392D02*
X02585D01*
X02504Y004D02*
X02585D01*
X02498Y00424D02*
X02585D01*
X025Y0042D02*
X02585D01*
X02495Y00428D02*
X02585D01*
X02501Y00384D02*
X02585D01*
X02499Y0038D02*
X02585D01*
X02502Y00388D02*
X02585D01*
X02492Y00432D02*
Y00469D01*
X02488Y00436D02*
Y00465D01*
X02484Y00439D02*
Y00462D01*
X02504Y00407D02*
Y00494D01*
X025Y0042D02*
Y00481D01*
X02496Y00427D02*
Y00474D01*
X02436Y00441D02*
Y0046D01*
X0248Y00441D02*
Y0046D01*
X02432Y00439D02*
Y00462D01*
X02424Y00432D02*
Y00469D01*
X02428Y00436D02*
Y00465D01*
X0242Y00429D02*
Y00474D01*
X02468Y00446D02*
Y00455D01*
X02464Y00447D02*
Y00455D01*
X0246Y00447D02*
Y00454D01*
X02476Y00443D02*
Y00458D01*
X02501Y00416D02*
X02585D01*
X02472Y00445D02*
Y00456D01*
X02452Y00447D02*
Y00455D01*
X02456Y00447D02*
Y00454D01*
X02448Y00446D02*
Y00455D01*
X02444Y00445D02*
Y00456D01*
X0244Y00443D02*
Y00458D01*
X0211Y00552D02*
X02585D01*
X02112Y00548D02*
X02585D01*
X02107Y00556D02*
X02446D01*
X02113Y00544D02*
X0244D01*
X02114Y0054D02*
X02432D01*
X02114Y00536D02*
X02427D01*
X01994Y00576D02*
X02418D01*
X01996Y00572D02*
X02421D01*
X01991Y0058D02*
X02416D01*
X02095Y00564D02*
X02429D01*
X02102Y0056D02*
X02436D01*
X01997Y00568D02*
X02425D01*
X0218Y00468D02*
X02425D01*
X02184Y00464D02*
X02429D01*
X02176Y00472D02*
X02421D01*
X02192Y00456D02*
X02446D01*
X02196Y00452D02*
X02585D01*
X02188Y0046D02*
X02436D01*
X02116Y00532D02*
X02423D01*
X0212Y00528D02*
X0242D01*
X02124Y00524D02*
X02417D01*
X02168Y0048D02*
X02416D01*
X02172Y00476D02*
X02418D01*
X02128Y0052D02*
X02415D01*
X02234Y00608D02*
X02412D01*
X02132Y00516D02*
X02414D01*
X02138Y00604D02*
X02411D01*
X02132Y00516D02*
Y006D01*
X0214Y00508D02*
Y00605D01*
X02412Y00507D02*
Y00594D01*
X02136Y00512D02*
Y00602D01*
X01987Y00596D02*
X02411D01*
X01987Y00592D02*
X02412D01*
X02131Y006D02*
X02411D01*
X01987Y00588D02*
X02413D01*
X01988Y00584D02*
X02414D01*
X02128Y0052D02*
Y00598D01*
X02144Y00504D02*
X02411D01*
X02152Y00496D02*
X02411D01*
X02148Y005D02*
X02411D01*
X0216Y00488D02*
X02413D01*
X02164Y00484D02*
X02414D01*
X02156Y00492D02*
X02412D01*
X02136Y00512D02*
X02412D01*
X0214Y00508D02*
X02412D01*
X01892Y00468D02*
X02127D01*
X01894Y0046D02*
X02135D01*
X01898Y00456D02*
X02139D01*
X01893Y00464D02*
X02131D01*
X02412Y00424D02*
Y00494D01*
X02416Y00426D02*
Y00481D01*
X0222Y00428D02*
Y00607D01*
X02224Y00424D02*
Y00607D01*
X02232Y00418D02*
Y00607D01*
X02228Y0042D02*
Y00607D01*
X022Y00448D02*
X02585D01*
X02204Y00444D02*
X0244D01*
X02208Y0044D02*
X02432D01*
X02116Y00531D02*
X02229Y00418D01*
X02212Y00436D02*
X02427D01*
X02088Y00507D02*
X02208Y00386D01*
X02224Y00424D02*
X02411D01*
X02228Y0042D02*
X024D01*
X02229Y00418D02*
X02388D01*
X02222Y00381D02*
X02388D01*
X02393*
X02224Y00376D02*
Y00381D01*
X02216Y00432D02*
X02423D01*
X0222Y00428D02*
X02418D01*
X02025Y00384D02*
X02212D01*
X02218Y0038D02*
X02404D01*
X01921Y00424D02*
X02171D01*
X01921Y0042D02*
X02175D01*
X01921Y00428D02*
X02167D01*
X01921Y00412D02*
X02183D01*
X01921Y00408D02*
X02187D01*
X01921Y00416D02*
X02179D01*
X01906Y00448D02*
X02147D01*
X0191Y00444D02*
X02151D01*
X01902Y00452D02*
X02143D01*
X01917Y00436D02*
X02159D01*
X0192Y00432D02*
X02163D01*
X01914Y0044D02*
X02155D01*
X02204Y00383D02*
Y00391D01*
X02208Y00383D02*
Y00387D01*
X022Y00383D02*
Y00395D01*
X02192Y0038D02*
Y00403D01*
X02196Y00382D02*
Y00399D01*
X02188Y00377D02*
Y00407D01*
X01921Y004D02*
X02195D01*
X0201Y00396D02*
X02199D01*
X01921Y00404D02*
X02191D01*
X02017Y00392D02*
X02203D01*
X02022Y00388D02*
X02207D01*
X02027Y0038D02*
X02191D01*
X02112Y00765D02*
Y0077D01*
X02116Y00766D02*
Y0077D01*
X02104Y00759D02*
Y0077D01*
X02108Y00762D02*
Y0077D01*
X02096Y00754D02*
Y0077D01*
X021Y00756D02*
Y0077D01*
X02092Y00752D02*
Y0077D01*
X02084Y00752D02*
Y0077D01*
X02088Y00752D02*
Y0077D01*
X0208Y00752D02*
Y0077D01*
X02072Y00748D02*
Y0077D01*
X02076Y00751D02*
Y0077D01*
X02068Y00745D02*
Y0077D01*
X02083Y00752D02*
X02088D01*
X02064Y00741D02*
Y0077D01*
X0206Y00737D02*
Y0077D01*
X01841Y0076D02*
X02104D01*
X01846Y00756D02*
X02099D01*
X0185Y00752D02*
X02078D01*
X01854Y00748D02*
X0207D01*
X01858Y00744D02*
X02066D01*
X01862Y0074D02*
X02062D01*
X01852Y0075D02*
Y0077D01*
X01856Y00746D02*
Y0077D01*
X01844Y00758D02*
Y0077D01*
X01848Y00754D02*
Y0077D01*
X01864Y00738D02*
Y0077D01*
X01868Y00734D02*
Y0077D01*
X0186Y00742D02*
Y0077D01*
X018Y00763D02*
Y0077D01*
X01828Y00763D02*
Y0077D01*
X01796Y00763D02*
Y0077D01*
X01836Y00762D02*
Y0077D01*
X0184Y00761D02*
Y0077D01*
X01832Y00763D02*
Y0077D01*
X0182Y00763D02*
Y0077D01*
X01824Y00763D02*
Y0077D01*
X01816Y00763D02*
Y0077D01*
X01866Y00736D02*
X02058D01*
X01788Y00763D02*
Y0077D01*
X01792Y00763D02*
Y0077D01*
X01784Y00763D02*
Y0077D01*
X01808Y00763D02*
Y0077D01*
X01812Y00763D02*
Y0077D01*
X01804Y00763D02*
Y0077D01*
X02052Y00729D02*
Y0077D01*
X02056Y00733D02*
Y0077D01*
X02044Y00721D02*
Y0077D01*
X02048Y00725D02*
Y0077D01*
X02036Y00713D02*
Y0077D01*
X0204Y00717D02*
Y0077D01*
X02032Y00709D02*
Y0077D01*
X02024Y00701D02*
Y0077D01*
X02028Y00705D02*
Y0077D01*
X0202Y00697D02*
Y0077D01*
X01988Y00665D02*
Y0077D01*
X02016Y00693D02*
Y0077D01*
X01984Y00661D02*
Y0077D01*
X02008Y00685D02*
Y0077D01*
X02012Y00689D02*
Y0077D01*
X02004Y00681D02*
Y0077D01*
X01996Y00673D02*
Y0077D01*
X02Y00677D02*
Y0077D01*
X01992Y00669D02*
Y0077D01*
X0187Y00732D02*
X02054D01*
X01874Y00728D02*
X0205D01*
X0198Y00657D02*
Y0077D01*
X01976Y00653D02*
Y0077D01*
X01955Y00633D02*
X02069Y00747D01*
X01972Y00649D02*
Y0077D01*
X01964Y00641D02*
Y0077D01*
X01968Y00645D02*
Y0077D01*
X01956Y00633D02*
Y0077D01*
X0196Y00637D02*
Y0077D01*
X01948Y00582D02*
Y0077D01*
X01952Y00627D02*
Y0077D01*
X01944Y00576D02*
Y0077D01*
X01904Y00646D02*
Y0077D01*
X01908Y00641D02*
Y0077D01*
X019Y00701D02*
Y0077D01*
X01916Y00438D02*
Y0077D01*
X0192Y00432D02*
Y0077D01*
X01912Y00631D02*
Y0077D01*
X0188Y00722D02*
Y0077D01*
X01884Y00718D02*
Y0077D01*
X01876Y00726D02*
Y0077D01*
X01892Y0071D02*
Y0077D01*
X01896Y00706D02*
Y0077D01*
X01888Y00714D02*
Y0077D01*
X01872Y0073D02*
Y0077D01*
X01844Y00758D02*
X01897Y00705D01*
X01823Y00726D02*
X01865Y00684D01*
X01804Y00395D02*
Y00726D01*
X01808Y00399D02*
Y00726D01*
X018Y00391D02*
Y00726D01*
X01688Y00763D02*
Y0077D01*
X01692Y00763D02*
Y0077D01*
X0168Y00763D02*
Y0077D01*
X01684Y00763D02*
Y0077D01*
X017Y00763D02*
Y0077D01*
X01704Y00763D02*
Y0077D01*
X01696Y00763D02*
Y0077D01*
X0166Y00763D02*
Y0077D01*
X01664Y00763D02*
Y0077D01*
X01656Y00763D02*
Y0077D01*
X01672Y00763D02*
Y0077D01*
X01676Y00763D02*
Y0077D01*
X01668Y00763D02*
Y0077D01*
X01764Y00763D02*
Y0077D01*
X01768Y00763D02*
Y0077D01*
X0176Y00763D02*
Y0077D01*
X01776Y00763D02*
Y0077D01*
X0178Y00763D02*
Y0077D01*
X01772Y00763D02*
Y0077D01*
X01712Y00763D02*
Y0077D01*
X01716Y00763D02*
Y0077D01*
X01708Y00763D02*
Y0077D01*
X01752Y00763D02*
Y0077D01*
X01756Y00763D02*
Y0077D01*
X01728Y00763D02*
Y0077D01*
X0158Y00763D02*
Y0077D01*
X01592Y00763D02*
Y0077D01*
X01552Y00763D02*
Y0077D01*
X01556Y00763D02*
Y0077D01*
X016Y00763D02*
Y0077D01*
X01604Y00763D02*
Y0077D01*
X01596Y00763D02*
Y0077D01*
X01532Y00763D02*
Y0077D01*
X01536Y00763D02*
Y0077D01*
X01528Y00763D02*
Y0077D01*
X01544Y00763D02*
Y0077D01*
X01548Y00763D02*
Y0077D01*
X0154Y00763D02*
Y0077D01*
X01636Y00763D02*
Y0077D01*
X0164Y00763D02*
Y0077D01*
X01632Y00763D02*
Y0077D01*
X01648Y00763D02*
Y0077D01*
X01652Y00763D02*
Y0077D01*
X01644Y00763D02*
Y0077D01*
X01612Y00763D02*
Y0077D01*
X01616Y00763D02*
Y0077D01*
X01608Y00763D02*
Y0077D01*
X01624Y00763D02*
Y0077D01*
X01628Y00763D02*
Y0077D01*
X0162Y00763D02*
Y0077D01*
X01732Y00763D02*
Y0077D01*
X01736Y00763D02*
Y0077D01*
X0172Y00763D02*
Y0077D01*
X01724Y00763D02*
Y0077D01*
X01744Y00763D02*
Y0077D01*
X01748Y00763D02*
Y0077D01*
X0174Y00763D02*
Y0077D01*
X01656Y00722D02*
Y00726D01*
X0166Y00722D02*
Y00726D01*
X01652Y00722D02*
Y00726D01*
X01648Y00722D02*
Y00726D01*
X01708Y0072D02*
Y00726D01*
X01644Y00722D02*
Y00726D01*
X01624Y00722D02*
Y00726D01*
X01628Y00722D02*
Y00726D01*
X0162Y00722D02*
Y00726D01*
X01636Y00722D02*
Y00726D01*
X0164Y00722D02*
Y00726D01*
X01632Y00722D02*
Y00726D01*
X016Y00722D02*
Y00726D01*
X01604Y00722D02*
Y00726D01*
X01596Y00722D02*
Y00726D01*
X01612Y00722D02*
Y00726D01*
X01616Y00722D02*
Y00726D01*
X01608Y00722D02*
Y00726D01*
X01588Y00763D02*
Y0077D01*
Y00722D02*
Y00726D01*
X01584Y00763D02*
Y0077D01*
X0158Y00722D02*
Y00726D01*
X01584Y00722D02*
Y00726D01*
X01576Y00722D02*
Y00726D01*
X01572Y00763D02*
Y0077D01*
X01576Y00763D02*
Y0077D01*
X01568Y00763D02*
Y0077D01*
X0156Y00763D02*
Y0077D01*
X01564Y00763D02*
Y0077D01*
X01536Y00722D02*
Y00726D01*
X0156Y00722D02*
Y00726D01*
X01564Y00722D02*
Y00726D01*
X01556Y00722D02*
Y00726D01*
X01572Y00722D02*
Y00726D01*
X01592Y00722D02*
Y00726D01*
X01568Y00722D02*
Y00726D01*
X01532Y00722D02*
Y00726D01*
X0154Y00722D02*
Y00726D01*
X01528Y00722D02*
Y00726D01*
X01548Y00722D02*
Y00726D01*
X01552Y00722D02*
Y00726D01*
X01544Y00722D02*
Y00726D01*
X0212Y00654D02*
Y00699D01*
X02124Y00654D02*
Y00699D01*
X02112Y00653D02*
Y00702D01*
X02116Y00654D02*
Y00701D01*
X02104Y00649D02*
Y00708D01*
X02108Y00651D02*
Y00705D01*
X021Y00646D02*
Y00711D01*
X02083Y00708D02*
X02104D01*
X02087Y00712D02*
X02099D01*
X02079Y00704D02*
X0211D01*
X02075Y007D02*
X02119D01*
X02096Y00641D02*
Y00714D01*
X02027Y00652D02*
X02108D01*
X02023Y00648D02*
X02101D01*
X02019Y00644D02*
X02097D01*
X02015Y0064D02*
X02095D01*
X01987Y00612D02*
X02095D01*
X02011Y00636D02*
X02093D01*
X01987Y00604D02*
X02101D01*
X01987Y006D02*
X02108D01*
X01987Y00608D02*
X02097D01*
X02092Y00631D02*
Y00715D01*
X02007Y00632D02*
X02092D01*
X02003Y00628D02*
X02091D01*
X01999Y00624D02*
X02091D01*
X01987Y00612D02*
X0209Y00715D01*
X02088Y00565D02*
Y00712D01*
X02084Y00565D02*
Y00708D01*
X0191Y00636D02*
X01958D01*
X01911Y00632D02*
X01954D01*
X01912Y00628D02*
X01952D01*
X01912Y00624D02*
X0195D01*
X01995Y0062D02*
X02092D01*
X01991Y00616D02*
X02093D01*
X01988Y00584D02*
Y00612D01*
X01996Y00572D02*
Y0062D01*
X01992Y00579D02*
Y00616D01*
X0191Y00616D02*
X0195D01*
X01908Y00612D02*
X0195D01*
X01911Y0062D02*
X0195D01*
Y00587D02*
Y0062D01*
X01987Y00587D02*
Y00612D01*
X021Y00561D02*
Y00605D01*
X02104Y00559D02*
Y00602D01*
X02092Y00564D02*
Y0062D01*
X02096Y00563D02*
Y0061D01*
X02112Y00548D02*
Y00598D01*
X02124Y00524D02*
Y00597D01*
X02108Y00555D02*
Y006D01*
X0208Y00564D02*
Y00704D01*
X02076Y00563D02*
Y007D01*
X02072Y00561D02*
Y00696D01*
X02068Y00559D02*
Y00692D01*
X02064Y00555D02*
Y00688D01*
X0206Y00548D02*
Y00684D01*
X02116Y00532D02*
Y00597D01*
X01997Y00564D02*
X02076D01*
X01997Y0056D02*
X02069D01*
X0212Y00528D02*
Y00597D01*
X01996Y00556D02*
X02064D01*
X01995Y00552D02*
X02061D01*
X01993Y00548D02*
X02059D01*
X0199Y00544D02*
X02058D01*
X01985Y0054D02*
X02057D01*
X01978Y00536D02*
X02057D01*
X02016Y00393D02*
Y0064D01*
X02012Y00395D02*
Y00636D01*
X02008Y00396D02*
Y00632D01*
X02028Y00378D02*
Y00652D01*
X02024Y00385D02*
Y00648D01*
X0202Y0039D02*
Y00644D01*
X01912Y00442D02*
Y0062D01*
X02004Y00397D02*
Y00628D01*
X02Y00397D02*
Y00624D01*
X01996Y00397D02*
Y00553D01*
X01992Y00396D02*
Y00546D01*
X01988Y00394D02*
Y00541D01*
X01984Y00391D02*
Y00538D01*
X0198Y00388D02*
Y00536D01*
X01976Y00382D02*
Y00535D01*
X01921Y0038D02*
X01974D01*
X01921Y00396D02*
X01991D01*
X01921Y00392D02*
X01984D01*
X01921Y00388D02*
X01979D01*
X01921Y00384D02*
X01976D01*
X01898Y00704D02*
X02026D01*
X019Y007D02*
X02022D01*
X01902Y00696D02*
X02018D01*
X01902Y00692D02*
X02014D01*
X01902Y00688D02*
X0201D01*
X01902Y00684D02*
X02006D01*
X01902Y0068D02*
X02002D01*
X01878Y00724D02*
X02046D01*
X01882Y0072D02*
X02042D01*
X01886Y00716D02*
X02038D01*
X0189Y00712D02*
X02034D01*
X01894Y00708D02*
X0203D01*
X01902Y00652D02*
X01974D01*
X01902Y00648D02*
X0197D01*
X01906Y00644D02*
X01966D01*
X01908Y0064D02*
X01962D01*
X01902Y00676D02*
X01998D01*
X01902Y00672D02*
X01994D01*
X01902Y00668D02*
X0199D01*
X01902Y00664D02*
X01986D01*
X01902Y0066D02*
X01982D01*
X01902Y00656D02*
X01978D01*
X01711Y00712D02*
X01837D01*
X01712Y00708D02*
X01841D01*
X01712Y0071D02*
Y00726D01*
X0171Y00716D02*
X01833D01*
X01712Y007D02*
X01849D01*
X01712Y00704D02*
X01845D01*
X01702Y00726D02*
X01823D01*
X01705Y00724D02*
X01825D01*
X01708Y0072D02*
X01829D01*
X01902Y0065D02*
Y00692D01*
X01865Y0065D02*
Y00684D01*
X01864Y00646D02*
Y00685D01*
X0186Y00641D02*
Y00689D01*
X01856Y00631D02*
Y00693D01*
X01709Y00692D02*
X01857D01*
X01706Y00688D02*
X01861D01*
X01711Y00696D02*
X01853D01*
X01703Y00684D02*
X01865D01*
X01697Y0068D02*
X01865D01*
X01657Y00685D02*
X01662D01*
X01906Y00608D02*
X0195D01*
X01902Y00604D02*
X0195D01*
X01896Y00458D02*
Y006D01*
X01895Y006D02*
X0195D01*
X01908Y00446D02*
Y0061D01*
X01904Y0045D02*
Y00605D01*
X019Y00454D02*
Y00602D01*
X01884Y00482D02*
Y00597D01*
X0188Y00485D02*
Y00597D01*
X01892Y0047D02*
Y00598D01*
X01888Y00477D02*
Y00597D01*
X01886Y0048D02*
X02115D01*
X01889Y00476D02*
X02119D01*
X01881Y00484D02*
X02111D01*
X01891Y00472D02*
X02123D01*
X01893Y0046D02*
X01916Y00438D01*
X01879Y00392D02*
X01884D01*
X01874Y00488D02*
X02107D01*
X01875Y00388D02*
X01884D01*
X01869Y00384D02*
X01884D01*
X01848Y0038D02*
X01884D01*
X01838Y00376D02*
X01884D01*
X0184Y00474D02*
Y00709D01*
X01844Y0048D02*
Y00705D01*
X01836Y00428D02*
Y00713D01*
X01828Y00419D02*
Y00721D01*
X01832Y00423D02*
Y00717D01*
X01824Y00415D02*
Y00725D01*
X01816Y00407D02*
Y00726D01*
X0182Y00411D02*
Y00726D01*
X01812Y00403D02*
Y00726D01*
X01792Y00383D02*
Y00726D01*
X01796Y00387D02*
Y00726D01*
X01788Y00379D02*
Y00726D01*
X01864Y00489D02*
Y00605D01*
X01868Y00489D02*
Y00602D01*
X0186Y00489D02*
Y0061D01*
X01872Y00488D02*
Y006D01*
X01876Y00487D02*
Y00598D01*
X01856Y00488D02*
Y0062D01*
X01848Y00483D02*
Y00701D01*
X01852Y00486D02*
Y00697D01*
X01844Y00434D02*
Y00441D01*
X0184Y00432D02*
Y00447D01*
X01805Y00396D02*
X01831Y00422D01*
X02585Y0012D02*
Y00719D01*
X02568Y00085D02*
Y00713D01*
X0256Y00085D02*
Y00713D01*
X02564Y00086D02*
Y00713D01*
X0258Y00082D02*
Y00716D01*
X02576Y00084D02*
Y00714D01*
X02572Y00085D02*
Y00713D01*
X02497Y00376D02*
X02585D01*
X02494Y00372D02*
X02585D01*
X02552Y00083D02*
Y00715D01*
X02556Y00084D02*
Y00714D01*
X02548Y00081D02*
Y00717D01*
X02488Y00336D02*
X02585D01*
X02492Y00332D02*
X02585D01*
X0249Y00368D02*
X02585D01*
X02498Y00324D02*
X02585D01*
X025Y0032D02*
X02585D01*
X02495Y00328D02*
X02585D01*
X02479Y0036D02*
X02585D01*
X02469Y00356D02*
X02585D01*
X02486Y00364D02*
X02585D01*
X02475Y00344D02*
X02585D01*
X02483Y0034D02*
X02585D01*
X02492Y00332D02*
Y00369D01*
X02488Y00336D02*
Y00365D01*
X02432Y00339D02*
Y00362D01*
X02484Y00339D02*
Y00362D01*
X02504Y00307D02*
Y00394D01*
X025Y0032D02*
Y00381D01*
X02496Y00327D02*
Y00374D01*
X02428Y00336D02*
Y00365D01*
X02424Y00332D02*
Y00369D01*
X02416Y0032D02*
Y00375D01*
X0242Y00327D02*
Y00372D01*
X02412Y00307D02*
Y00377D01*
X02468Y00346D02*
Y00355D01*
X02464Y00347D02*
Y00355D01*
X0246Y00347D02*
Y00354D01*
X0248Y00341D02*
Y0036D01*
X02476Y00343D02*
Y00358D01*
X02472Y00345D02*
Y00356D01*
X02452Y00347D02*
Y00355D01*
X02456Y00347D02*
Y00354D01*
X02448Y00346D02*
Y00355D01*
X0244Y00343D02*
Y00358D01*
X02444Y00345D02*
Y00356D01*
X02436Y00341D02*
Y0036D01*
X02544Y00079D02*
Y00719D01*
X02584Y0008D02*
Y00718D01*
X02536Y00071D02*
Y00727D01*
X0254Y00075D02*
Y00723D01*
X02528Y0003D02*
Y0077D01*
X02532Y00064D02*
Y00734D01*
X02524Y0003D02*
Y0077D01*
X02508Y0003D02*
Y0077D01*
X02372Y0003D02*
Y00381D01*
X02368Y0003D02*
Y00381D01*
X02516Y0003D02*
Y0077D01*
X0252Y0003D02*
Y0077D01*
X02512Y0003D02*
Y0077D01*
X02392Y0003D02*
Y00381D01*
X02396Y0003D02*
Y00381D01*
X02388Y0003D02*
Y00381D01*
X02404Y0003D02*
Y0038D01*
X02408Y0003D02*
Y00378D01*
X024Y0003D02*
Y00381D01*
X0236Y0003D02*
Y00381D01*
X02364Y0003D02*
Y00381D01*
X02356Y0003D02*
Y00381D01*
X0238Y0003D02*
Y00381D01*
X02384Y0003D02*
Y00381D01*
X02376Y0003D02*
Y00381D01*
X02288Y0003D02*
Y00381D01*
X02292Y0003D02*
Y00381D01*
X0228Y0003D02*
Y00381D01*
X02284Y0003D02*
Y00381D01*
X023Y0003D02*
Y00381D01*
X02304Y0003D02*
Y00381D01*
X02296Y0003D02*
Y00381D01*
X0226Y0003D02*
Y00381D01*
X02264Y0003D02*
Y00381D01*
X02256Y0003D02*
Y00381D01*
X02272Y0003D02*
Y00381D01*
X02276Y0003D02*
Y00381D01*
X02268Y0003D02*
Y00381D01*
X02336Y0003D02*
Y00381D01*
X0234Y0003D02*
Y00381D01*
X02332Y0003D02*
Y00381D01*
X02348Y0003D02*
Y00381D01*
X02352Y0003D02*
Y00381D01*
X02344Y0003D02*
Y00381D01*
X02312Y0003D02*
Y00381D01*
X02316Y0003D02*
Y00381D01*
X02308Y0003D02*
Y00381D01*
X02324Y0003D02*
Y00381D01*
X02328Y0003D02*
Y00381D01*
X0232Y0003D02*
Y00381D01*
X02227Y00372D02*
X0242D01*
X0223Y00368D02*
X02425D01*
X02228Y00371D02*
Y00381D01*
X02224Y00376D02*
X02414D01*
X02232Y00364D02*
X02429D01*
X02233Y0036D02*
X02436D01*
X02232Y00364D02*
Y00381D01*
X02028Y00376D02*
X02185D01*
X02233Y00352D02*
X02585D01*
X02232Y00348D02*
X02585D01*
X02233Y00356D02*
X02446D01*
X02231Y00344D02*
X0244D01*
X02229Y0034D02*
X02432D01*
X02226Y00336D02*
X02427D01*
X02221Y00332D02*
X02423D01*
X02214Y00328D02*
X0242D01*
X02019Y00332D02*
X02188D01*
X02019Y00324D02*
X02417D01*
X02019Y0032D02*
X02415D01*
X02019Y00328D02*
X02195D01*
X0218Y00368D02*
Y00415D01*
X02184Y00374D02*
Y00411D01*
X0206Y00138D02*
Y00525D01*
X02064Y00138D02*
Y00518D01*
X02072Y00136D02*
Y00512D01*
X02076Y00134D02*
Y0051D01*
X02068Y00137D02*
Y00514D01*
X02056Y00138D02*
Y0068D01*
X02029Y00372D02*
X02182D01*
X02052Y00137D02*
Y00676D01*
X02048Y00135D02*
Y00672D01*
X02044Y00132D02*
Y00668D01*
X02029Y00368D02*
X02179D01*
X02029Y00364D02*
X02178D01*
X02028Y0036D02*
X02176D01*
X02026Y00356D02*
X02176D01*
X02023Y00352D02*
X02176D01*
X0202Y00348D02*
X02177D01*
X02019Y00344D02*
X02178D01*
X02019Y0034D02*
X0218D01*
X02019Y00336D02*
X02183D01*
X02019Y00226D02*
Y00344D01*
X02236Y0003D02*
Y00381D01*
X0224Y0003D02*
Y00381D01*
X02232Y0003D02*
Y00345D01*
X0218Y0003D02*
Y00341D01*
X02248Y0003D02*
Y00381D01*
X02252Y0003D02*
Y00381D01*
X02244Y0003D02*
Y00381D01*
X0216Y0003D02*
Y00435D01*
X02164Y0003D02*
Y00431D01*
X02156Y0003D02*
Y00439D01*
X02172Y0003D02*
Y00423D01*
X02176Y0003D02*
Y00419D01*
X02168Y0003D02*
Y00427D01*
X02216Y0003D02*
Y00328D01*
X02212Y0003D02*
Y00327D01*
X02208Y0003D02*
Y00326D01*
X02228Y0003D02*
Y00338D01*
X02224Y0003D02*
Y00333D01*
X0222Y0003D02*
Y0033D01*
X02188Y0003D02*
Y00332D01*
X02192Y0003D02*
Y00329D01*
X02184Y0003D02*
Y00335D01*
X022Y0003D02*
Y00326D01*
X02204Y0003D02*
Y00326D01*
X02196Y0003D02*
Y00328D01*
X021Y0003D02*
Y00495D01*
X02104Y0003D02*
Y00491D01*
X02096Y0003D02*
Y00499D01*
X02112Y0003D02*
Y00483D01*
X02116Y0003D02*
Y00479D01*
X02108Y0003D02*
Y00487D01*
X0208Y00131D02*
Y00509D01*
X02084Y00126D02*
Y00508D01*
X0204Y00129D02*
Y00664D01*
X02036Y00123D02*
Y0066D01*
X02092Y0003D02*
Y00503D01*
X02032Y0003D02*
Y00656D01*
X02136Y0003D02*
Y00459D01*
X0214Y0003D02*
Y00455D01*
X02132Y0003D02*
Y00463D01*
X02148Y0003D02*
Y00447D01*
X02152Y0003D02*
Y00443D01*
X02144Y0003D02*
Y00451D01*
X02028Y0003D02*
Y00359D01*
X02024Y0003D02*
Y00352D01*
X0202Y0003D02*
Y00347D01*
X02124Y0003D02*
Y00471D01*
X02128Y0003D02*
Y00467D01*
X0212Y0003D02*
Y00475D01*
X02504Y00304D02*
X02585D01*
X02504Y003D02*
X02585D01*
X02503Y00312D02*
X02585D01*
X02503Y00308D02*
X02585D01*
X02503Y00292D02*
X02585D01*
X02502Y00288D02*
X02585D01*
X02504Y00296D02*
X02585D01*
X02501Y00284D02*
X02585D01*
X02499Y0028D02*
X02585D01*
X02501Y00316D02*
X02585D01*
X02494Y00272D02*
X02585D01*
X0249Y00268D02*
X02585D01*
X02497Y00276D02*
X02585D01*
X02495Y00228D02*
X02585D01*
X02498Y00224D02*
X02585D01*
X02492Y00232D02*
X02585D01*
X02503Y00212D02*
X02585D01*
X02503Y00208D02*
X02585D01*
X025Y0022D02*
X02585D01*
X02479Y0026D02*
X02585D01*
X02469Y00256D02*
X02585D01*
X02486Y00264D02*
X02585D01*
X02483Y0024D02*
X02585D01*
X02488Y00236D02*
X02585D01*
X02475Y00244D02*
X02585D01*
X02492Y00232D02*
Y00269D01*
X02488Y00236D02*
Y00265D01*
X02484Y00239D02*
Y00262D01*
X0248Y00241D02*
Y0026D01*
X02504Y00207D02*
Y00294D01*
X025Y0022D02*
Y00281D01*
X02496Y00227D02*
Y00274D01*
X02428Y00236D02*
Y00265D01*
X02432Y00239D02*
Y00262D01*
X02424Y00232D02*
Y00269D01*
X02416Y0022D02*
Y00281D01*
X0242Y00227D02*
Y00274D01*
X02412Y00207D02*
Y00294D01*
X02468Y00246D02*
Y00255D01*
X02464Y00247D02*
Y00255D01*
X0246Y00247D02*
Y00254D01*
X02476Y00243D02*
Y00258D01*
X02501Y00216D02*
X02585D01*
X02472Y00245D02*
Y00256D01*
X02452Y00247D02*
Y00255D01*
X02456Y00247D02*
Y00254D01*
X02448Y00246D02*
Y00255D01*
X0244Y00243D02*
Y00258D01*
X02444Y00245D02*
Y00256D01*
X02436Y00241D02*
Y0026D01*
X02504Y00196D02*
X02585D01*
X02503Y00192D02*
X02585D01*
X02504Y00204D02*
X02585D01*
X02504Y002D02*
X02585D01*
X02502Y00188D02*
X02585D01*
X02501Y00184D02*
X02585D01*
X02504Y0003D02*
Y00194D01*
X02499Y0018D02*
X02585D01*
X02497Y00176D02*
X02585D01*
X025Y0003D02*
Y00181D01*
X02496Y0003D02*
Y00174D01*
X0249Y00168D02*
X02585D01*
X02576Y00084D02*
X02585D01*
X02494Y00172D02*
X02585D01*
Y00079D02*
Y0012D01*
X02532Y0003D02*
Y00035D01*
X02479Y0016D02*
X02585D01*
X02469Y00156D02*
X02585D01*
X02486Y00164D02*
X02585D01*
X02089Y00112D02*
X02585D01*
X02089Y00108D02*
X02585D01*
X02088Y00116D02*
X02585D01*
X02488Y0003D02*
Y00165D01*
X02492Y0003D02*
Y00169D01*
X02484Y0003D02*
Y00162D01*
X02432Y0003D02*
Y00162D01*
X02416Y0003D02*
Y00181D01*
X02412Y0003D02*
Y00194D01*
X02424Y0003D02*
Y00169D01*
X02428Y0003D02*
Y00165D01*
X0242Y0003D02*
Y00174D01*
X02468Y0003D02*
Y00155D01*
X02464Y0003D02*
Y00155D01*
X0246Y0003D02*
Y00154D01*
X0248Y0003D02*
Y0016D01*
X02476Y0003D02*
Y00158D01*
X02472Y0003D02*
Y00156D01*
X0244Y0003D02*
Y00158D01*
X02444Y0003D02*
Y00156D01*
X02436Y0003D02*
Y0016D01*
X02452Y0003D02*
Y00155D01*
X02456Y0003D02*
Y00154D01*
X02448Y0003D02*
Y00155D01*
X02019Y00252D02*
X02585D01*
X02019Y00248D02*
X02585D01*
X02019Y00256D02*
X02446D01*
X02019Y00244D02*
X0244D01*
X02019Y0024D02*
X02432D01*
X02019Y00236D02*
X02427D01*
X02019Y00232D02*
X02423D01*
X02019Y00276D02*
X02418D01*
X02019Y00272D02*
X02421D01*
X02019Y0028D02*
X02416D01*
X02019Y00264D02*
X02429D01*
X02019Y0026D02*
X02436D01*
X02019Y00268D02*
X02425D01*
X02072Y00136D02*
X02585D01*
X02079Y00132D02*
X02585D01*
X02019Y00228D02*
X0242D01*
X02085Y00124D02*
X02585D01*
X02087Y0012D02*
X02585D01*
X02083Y00128D02*
X02585D01*
X02019Y00224D02*
X02417D01*
X01963Y0018D02*
X02416D01*
X02018Y0022D02*
X02415D01*
X01801Y00144D02*
X02585D01*
X01816Y0014D02*
X02585D01*
X01956Y00176D02*
X02418D01*
X02019Y00316D02*
X02414D01*
X02019Y00312D02*
X02412D01*
X02019Y00308D02*
X02412D01*
X02019Y00304D02*
X02411D01*
X02019Y00296D02*
X02411D01*
X02019Y00292D02*
X02412D01*
X02019Y003D02*
X02411D01*
X02019Y00284D02*
X02414D01*
X02016Y00216D02*
X02414D01*
X02019Y00288D02*
X02413D01*
X02013Y00212D02*
X02412D01*
X02009Y00208D02*
X02412D01*
X02005Y00204D02*
X02411D01*
X02001Y002D02*
X02411D01*
X01993Y00192D02*
X02412D01*
X01989Y00188D02*
X02413D01*
X01997Y00196D02*
X02411D01*
X01981Y00184D02*
X02414D01*
X01821Y00136D02*
X02049D01*
X01825Y00132D02*
X02042D01*
X01828Y00128D02*
X02038D01*
X0183Y00124D02*
X02036D01*
X01831Y0012D02*
X02034D01*
X02085Y00096D02*
X02585D01*
X02083Y00092D02*
X02585D01*
X02088Y00104D02*
X02585D01*
X02087Y001D02*
X02585D01*
X02088Y0003D02*
Y001D01*
X02084Y0003D02*
Y00093D01*
X0208Y0003D02*
Y00088D01*
X02079Y00088D02*
X02585D01*
X02072Y00084D02*
X02553D01*
X02002Y0008D02*
X02545D01*
X02004Y00076D02*
X0254D01*
X02005Y00072D02*
X02536D01*
X02006Y00068D02*
X02533D01*
X02006Y00064D02*
X02531D01*
X02006Y0006D02*
X0253D01*
X02006Y00056D02*
X02529D01*
X02005Y00052D02*
X02529D01*
X02002Y00044D02*
X02529D01*
X01999Y0004D02*
X0253D01*
X02004Y00048D02*
X02529D01*
X0199Y00032D02*
X02533D01*
X01986Y0003D02*
X02535D01*
X01995Y00036D02*
X02531D01*
X0199Y00092D02*
X02038D01*
X02036Y0003D02*
Y00096D01*
X02016Y0003D02*
Y00215D01*
X01831Y00116D02*
X02033D01*
X01832Y00112D02*
X02032D01*
X01831Y00108D02*
X02032D01*
X01829Y001D02*
X02034D01*
X0198Y00096D02*
X02036D01*
X0183Y00104D02*
X02033D01*
X02064Y0003D02*
Y00081D01*
X0206Y0003D02*
Y00081D01*
X02056Y0003D02*
Y00081D01*
X02076Y0003D02*
Y00085D01*
X02072Y0003D02*
Y00083D01*
X02068Y0003D02*
Y00082D01*
X01995Y00088D02*
X02042D01*
X01999Y00084D02*
X02049D01*
X0204Y0003D02*
Y0009D01*
X02048Y0003D02*
Y00084D01*
X02052Y0003D02*
Y00083D01*
X02044Y0003D02*
Y00087D01*
X01921Y00376D02*
X01973D01*
X01921Y00364D02*
X01972D01*
X01921Y00372D02*
X01972D01*
X01921Y00368D02*
X01972D01*
X01921Y00356D02*
X01975D01*
X01921Y0036D02*
X01974D01*
X01921Y00348D02*
X01981D01*
X01921Y00344D02*
X01982D01*
X01921Y00352D02*
X01978D01*
X01921Y00336D02*
X01982D01*
X01921Y00332D02*
X01982D01*
X01921Y0034D02*
X01982D01*
X01921Y003D02*
X01982D01*
X01921Y00296D02*
X01982D01*
X01921Y00304D02*
X01982D01*
X01921Y00288D02*
X01982D01*
X01921Y00284D02*
X01982D01*
X01921Y00292D02*
X01982D01*
X01921Y00324D02*
X01982D01*
X01921Y0032D02*
X01982D01*
X01921Y00328D02*
X01982D01*
X01921Y00312D02*
X01982D01*
X01921Y00308D02*
X01982D01*
X01921Y00316D02*
X01982D01*
X01948Y00282D02*
Y00543D01*
X01952Y00281D02*
Y0054D01*
X01944Y00282D02*
Y00549D01*
X01833Y00372D02*
X01884D01*
X0194Y00281D02*
Y0077D01*
X01956Y0028D02*
Y00537D01*
X01936Y0028D02*
Y0077D01*
X01784Y00375D02*
Y00726D01*
X0178Y00371D02*
Y00726D01*
X01829Y00368D02*
X01884D01*
X01825Y00364D02*
X01884D01*
X01776Y00367D02*
Y00726D01*
X01817Y00356D02*
X01884D01*
X01813Y00352D02*
X01884D01*
X01821Y0036D02*
X01884D01*
X01805Y00344D02*
X01884D01*
X01801Y0034D02*
X01884D01*
X01809Y00348D02*
X01884D01*
X01793Y00332D02*
X01884D01*
X01789Y00328D02*
X01884D01*
X01797Y00336D02*
X01884D01*
X01781Y0032D02*
X01884D01*
X01777Y00316D02*
X01884D01*
X01785Y00324D02*
X01884D01*
X0196Y00278D02*
Y00536D01*
X01964Y00276D02*
Y00535D01*
X01928Y00276D02*
Y0077D01*
X01932Y00278D02*
Y0077D01*
X01972Y00265D02*
Y00534D01*
X01976Y00227D02*
Y00355D01*
X01968Y00272D02*
Y00534D01*
X0188Y00273D02*
Y00392D01*
X01876Y00273D02*
Y00388D01*
X01872Y00273D02*
Y00385D01*
X01921Y00273D02*
Y00425D01*
X01884Y00273D02*
Y00402D01*
X01884Y00273D02*
Y004D01*
X0197Y00268D02*
X01982D01*
X01972Y00264D02*
X01982D01*
X0198Y00231D02*
Y00349D01*
X01982Y00233D02*
Y00344D01*
X01957Y0028D02*
X01982D01*
X01964Y00276D02*
X01982D01*
X01921Y0028D02*
X01934D01*
X01968Y00272D02*
X01982D01*
X01921Y00276D02*
X01927D01*
X01856Y00273D02*
Y00381D01*
X01852Y00273D02*
Y0038D01*
X01848Y00273D02*
Y00379D01*
X01868Y00273D02*
Y00383D01*
X01864Y00273D02*
Y00381D01*
X0186Y00273D02*
Y00381D01*
X01832Y00273D02*
Y0037D01*
X01828Y00273D02*
Y00366D01*
X01824Y00273D02*
Y00362D01*
X01844Y00273D02*
Y00378D01*
X0184Y00273D02*
Y00376D01*
X01836Y00273D02*
Y00374D01*
X01808Y00273D02*
Y00346D01*
X01804Y00273D02*
Y00342D01*
X018Y00273D02*
Y00338D01*
X0182Y00273D02*
Y00358D01*
X01816Y00273D02*
Y00354D01*
X01812Y00273D02*
Y0035D01*
X01784Y00273D02*
Y00322D01*
X0178Y00273D02*
Y00318D01*
X01776Y00273D02*
Y00314D01*
X01796Y00273D02*
Y00334D01*
X01792Y00273D02*
Y0033D01*
X01788Y00273D02*
Y00326D01*
X01768Y00359D02*
Y00726D01*
X01772Y00363D02*
Y00726D01*
X0176Y00351D02*
Y00726D01*
X01764Y00355D02*
Y00726D01*
X01756Y00347D02*
Y00726D01*
X01767Y00306D02*
X01831Y0037D01*
X01752Y00343D02*
Y00726D01*
X01748Y00339D02*
Y00726D01*
X01743Y00334D02*
X01805Y00396D01*
X01744Y00335D02*
Y00726D01*
X0174Y00332D02*
Y00726D01*
X01769Y00308D02*
X01884D01*
X01766Y003D02*
X01884D01*
X01773Y00312D02*
X01884D01*
X01763Y00292D02*
X01884D01*
X01761Y00288D02*
X01884D01*
X01765Y00296D02*
X01884D01*
X01753Y0028D02*
X01884D01*
X01743Y00276D02*
X01884D01*
X01758Y00284D02*
X01884D01*
X01731Y00273D02*
X01884D01*
X0176D02*
Y00285D01*
X01732Y00331D02*
Y00726D01*
X01736Y00332D02*
Y00726D01*
X01724Y00328D02*
Y00726D01*
X01728Y0033D02*
Y00726D01*
X01716Y00322D02*
Y00726D01*
X0172Y00326D02*
Y00726D01*
X01712Y00315D02*
Y00699D01*
X01704Y00315D02*
Y00684D01*
X017Y00317D02*
Y00681D01*
X01668Y00315D02*
Y00681D01*
X01708Y00311D02*
Y00689D01*
X01664Y00311D02*
Y00684D01*
X0166Y00304D02*
Y00685D01*
X01695Y0032D02*
X01714D01*
X01702Y00316D02*
X01712D01*
X01696Y00319D02*
Y00679D01*
X01727Y00277D02*
X01731Y00273D01*
X01729Y00276D02*
X01732D01*
X01707Y00312D02*
X0171D01*
X01692Y0032D02*
Y00677D01*
X01688Y00321D02*
Y00676D01*
X01684Y00321D02*
Y00676D01*
X01676Y00319D02*
Y00677D01*
X0168Y0032D02*
Y00676D01*
X01672Y00317D02*
Y00679D01*
X01772Y00273D02*
Y0031D01*
X01768Y00273D02*
Y00306D01*
X01764Y00273D02*
Y00292D01*
X01756Y00273D02*
Y00281D01*
X01656Y0003D02*
Y00685D01*
X01652Y00069D02*
Y00685D01*
X01632Y00098D02*
Y00685D01*
X01636Y00096D02*
Y00685D01*
X01628Y00099D02*
Y00685D01*
X01644Y00089D02*
Y00685D01*
X01648Y00084D02*
Y00685D01*
X0164Y00093D02*
Y00685D01*
X01752Y00273D02*
Y00279D01*
X01748Y00273D02*
Y00277D01*
X01688Y0003D02*
Y00264D01*
X0169Y00262D02*
X0171Y00241D01*
X01684Y0003D02*
Y00264D01*
X01664Y0003D02*
Y00274D01*
X01668Y0003D02*
Y0027D01*
X0166Y0003D02*
Y00281D01*
X01676Y0003D02*
Y00266D01*
X0168Y0003D02*
Y00265D01*
X01672Y0003D02*
Y00268D01*
X0156Y0009D02*
Y00685D01*
X01564Y0009D02*
Y00685D01*
X01556Y0009D02*
Y00685D01*
X01572Y0009D02*
Y00685D01*
X01576Y0009D02*
Y00685D01*
X01568Y0009D02*
Y00685D01*
X01536Y0009D02*
Y00685D01*
X0154Y0009D02*
Y00685D01*
X01532Y0009D02*
Y00685D01*
X01548Y0009D02*
Y00685D01*
X01552Y0009D02*
Y00685D01*
X01544Y0009D02*
Y00685D01*
X0162Y001D02*
Y00685D01*
X01624Y00099D02*
Y00685D01*
X01616Y00099D02*
Y00685D01*
X01608Y00097D02*
Y00685D01*
X01612Y00098D02*
Y00685D01*
X01604Y00094D02*
Y00685D01*
X01596Y0009D02*
Y00685D01*
X016Y00091D02*
Y00685D01*
X01592Y0009D02*
Y00685D01*
X01584Y0009D02*
Y00685D01*
X01588Y0009D02*
Y00685D01*
X0158Y0009D02*
Y00685D01*
X01975Y00252D02*
X01982D01*
X01974Y00248D02*
X01982D01*
X01974Y0026D02*
X01982D01*
X01975Y00256D02*
X01982D01*
X01973Y00244D02*
X01982D01*
X01972Y00223D02*
Y00242D01*
X0197Y0024D02*
X01982D01*
X01968Y00236D02*
X01982D01*
X01964Y00232D02*
X0198D01*
X01969Y0022D02*
X01982Y00233D01*
X01957Y00228D02*
X01976D01*
X0199Y00188D02*
X02014Y00212D01*
X0198Y00096D02*
Y00183D01*
X01992Y0009D02*
Y0019D01*
X01988Y00093D02*
Y00187D01*
X01984Y00094D02*
Y00184D01*
X01963Y00224D02*
X01972D01*
X01976Y00096D02*
Y00183D01*
X01969D02*
X01977D01*
X01972Y00097D02*
Y00183D01*
X01964Y00223D02*
Y00231D01*
X01928Y00224D02*
Y00231D01*
X01968Y0022D02*
Y00235D01*
X01924Y00221D02*
Y00235D01*
X0192Y00215D02*
Y00236D01*
X01816Y0014D02*
Y00236D01*
X0182Y00137D02*
Y00236D01*
X01812Y00142D02*
Y00236D01*
X01828Y00128D02*
Y00236D01*
X01832Y00113D02*
Y00236D01*
X01824Y00133D02*
Y00236D01*
X01968Y00096D02*
Y00183D01*
X01964Y00096D02*
Y0018D01*
X0196Y00094D02*
Y00177D01*
X01956Y00093D02*
Y00175D01*
X01826Y00096D02*
X01963D01*
X01823Y00092D02*
X01954D01*
X01952Y0009D02*
Y00174D01*
X01819Y00088D02*
X01948D01*
X01948Y00087D02*
Y00173D01*
X02008Y0003D02*
Y00206D01*
X02004Y00076D02*
Y00202D01*
X02Y00083D02*
Y00198D01*
X01996Y00087D02*
Y00194D01*
X02012Y0003D02*
Y0021D01*
X01936Y0003D02*
Y00175D01*
X01932Y0003D02*
Y00176D01*
X01912Y0003D02*
Y00236D01*
X01916Y0003D02*
Y00236D01*
X01908Y0003D02*
Y00236D01*
X01924Y0003D02*
Y00182D01*
X01928Y0003D02*
Y00179D01*
X0192Y0003D02*
Y00188D01*
X01992Y0003D02*
Y00033D01*
X01952Y0003D02*
Y00033D01*
X02004Y0003D02*
Y00047D01*
X02Y0003D02*
Y00041D01*
X01996Y0003D02*
Y00036D01*
X01944Y00083D02*
Y00173D01*
Y0003D02*
Y00041D01*
X0194Y00076D02*
Y00173D01*
X01948Y0003D02*
Y00036D01*
X0194Y0003D02*
Y00047D01*
X01888Y0003D02*
Y00236D01*
X01892Y0003D02*
Y00236D01*
X01884Y0003D02*
Y00236D01*
X019Y0003D02*
Y00236D01*
X01904Y0003D02*
Y00236D01*
X01896Y0003D02*
Y00236D01*
X01864Y0003D02*
Y00236D01*
X01868Y0003D02*
Y00236D01*
X0186Y0003D02*
Y00236D01*
X01876Y0003D02*
Y00236D01*
X0188Y0003D02*
Y00236D01*
X01872Y0003D02*
Y00236D01*
X0184Y0003D02*
Y00236D01*
X01844Y0003D02*
Y00236D01*
X01836Y0003D02*
Y00236D01*
X01852Y0003D02*
Y00236D01*
X01856Y0003D02*
Y00236D01*
X01848Y0003D02*
Y00236D01*
X0182Y0003D02*
Y00088D01*
X01816Y0003D02*
Y00085D01*
X01812Y0003D02*
Y00084D01*
X01832Y0003D02*
Y00113D01*
X01828Y0003D02*
Y00097D01*
X01824Y0003D02*
Y00092D01*
X01804Y00143D02*
Y00236D01*
X01808Y00143D02*
Y00236D01*
X018Y00144D02*
Y00236D01*
X01812Y00084D02*
X01944D01*
X01808Y0003D02*
Y00082D01*
X01804Y0003D02*
Y00082D01*
X01724Y00236D02*
X01919D01*
X01796Y00143D02*
Y00236D01*
X01651Y00076D02*
X01939D01*
X01651Y00072D02*
X01938D01*
X01652Y00068D02*
X01937D01*
X01651Y00064D02*
X01937D01*
X0165Y0006D02*
X01937D01*
X018Y0003D02*
Y00082D01*
X0165Y0008D02*
X01942D01*
X01646Y00052D02*
X01938D01*
X01649Y00056D02*
X01937D01*
X01639Y00044D02*
X01942D01*
X01632Y0004D02*
X01944D01*
X01643Y00048D02*
X01939D01*
X01788Y00141D02*
Y00236D01*
X01792Y00142D02*
Y00236D01*
X0178Y00135D02*
Y00236D01*
X01784Y00138D02*
Y00236D01*
X01772Y00124D02*
Y00236D01*
X01776Y00131D02*
Y00236D01*
X01768Y0003D02*
Y00236D01*
X01728Y0003D02*
Y00236D01*
X01748Y0003D02*
Y00236D01*
X01752Y0003D02*
Y00236D01*
X01732Y0003D02*
Y00236D01*
X01736Y0003D02*
Y00236D01*
X01648Y00084D02*
X0179D01*
X01724Y0003D02*
Y00236D01*
X01744Y0003D02*
Y00236D01*
X01796Y0003D02*
Y00082D01*
X0174Y0003D02*
Y00236D01*
X01636Y00096D02*
X01775D01*
X01641Y00092D02*
X01778D01*
X01621Y001D02*
X01772D01*
X01645Y00088D02*
X01782D01*
X01756Y0003D02*
Y00236D01*
X0176Y0003D02*
Y00236D01*
X01716Y0003D02*
Y00238D01*
X0172Y0003D02*
Y00236D01*
X01772Y0003D02*
Y00102D01*
X01776Y0003D02*
Y00094D01*
X01764Y0003D02*
Y00236D01*
X01696Y0003D02*
Y00256D01*
X017Y0003D02*
Y00252D01*
X01692Y0003D02*
Y0026D01*
X01708Y0003D02*
Y00244D01*
X01712Y0003D02*
Y0024D01*
X01704Y0003D02*
Y00248D01*
X0178Y0003D02*
Y0009D01*
X01652Y0003D02*
Y00069D01*
X01648Y0003D02*
Y00053D01*
X01788Y0003D02*
Y00084D01*
X01792Y0003D02*
Y00083D01*
X01784Y0003D02*
Y00087D01*
X01632Y0003D02*
Y0004D01*
X01628Y0003D02*
Y00038D01*
X01624Y0003D02*
Y00038D01*
X01644Y0003D02*
Y00048D01*
X0164Y0003D02*
Y00044D01*
X01636Y0003D02*
Y00041D01*
X01556Y0003D02*
Y00048D01*
X0156Y0003D02*
Y00048D01*
X01552Y0003D02*
Y00048D01*
X01568Y0003D02*
Y00048D01*
X01572Y0003D02*
Y00048D01*
X01564Y0003D02*
Y00048D01*
X01532Y0003D02*
Y00048D01*
X01536Y0003D02*
Y00048D01*
X01528Y0003D02*
Y00048D01*
X01544Y0003D02*
Y00048D01*
X01548Y0003D02*
Y00048D01*
X0154Y0003D02*
Y00048D01*
X01604Y0003D02*
Y00043D01*
X01608Y0003D02*
Y0004D01*
X016Y0003D02*
Y00046D01*
X01616Y0003D02*
Y00038D01*
X0162Y0003D02*
Y00038D01*
X01612Y0003D02*
Y00039D01*
X0158Y0003D02*
Y00048D01*
X01584Y0003D02*
Y00048D01*
X01576Y0003D02*
Y00048D01*
X01592Y0003D02*
Y00048D01*
X01596Y0003D02*
Y00048D01*
X01588Y0003D02*
Y00048D01*
X0146Y00763D02*
Y0077D01*
X01464Y00763D02*
Y0077D01*
X01452Y00763D02*
Y0077D01*
X01456Y00763D02*
Y0077D01*
X01472Y00763D02*
Y0077D01*
X01476Y00763D02*
Y0077D01*
X01468Y00763D02*
Y0077D01*
X01432Y00763D02*
Y0077D01*
X01436Y00763D02*
Y0077D01*
X01428Y00763D02*
Y0077D01*
X01444Y00763D02*
Y0077D01*
X01448Y00763D02*
Y0077D01*
X0144Y00763D02*
Y0077D01*
X01508Y00763D02*
Y0077D01*
X01512Y00763D02*
Y0077D01*
X01504Y00763D02*
Y0077D01*
X0152Y00763D02*
Y0077D01*
X01524Y00763D02*
Y0077D01*
X01516Y00763D02*
Y0077D01*
X01484Y00763D02*
Y0077D01*
X01488Y00763D02*
Y0077D01*
X0148Y00763D02*
Y0077D01*
X01496Y00763D02*
Y0077D01*
X015Y00763D02*
Y0077D01*
X01492Y00763D02*
Y0077D01*
X0136Y00763D02*
Y0077D01*
X01364Y00763D02*
Y0077D01*
X01352Y00763D02*
Y0077D01*
X01356Y00763D02*
Y0077D01*
X01372Y00763D02*
Y0077D01*
X01376Y00763D02*
Y0077D01*
X01368Y00763D02*
Y0077D01*
X01332Y00763D02*
Y0077D01*
X01336Y00763D02*
Y0077D01*
X01328Y00763D02*
Y0077D01*
X01344Y00763D02*
Y0077D01*
X01348Y00763D02*
Y0077D01*
X0134Y00763D02*
Y0077D01*
X01408Y00763D02*
Y0077D01*
X01412Y00763D02*
Y0077D01*
X01404Y00763D02*
Y0077D01*
X0142Y00763D02*
Y0077D01*
X01424Y00763D02*
Y0077D01*
X01416Y00763D02*
Y0077D01*
X01384Y00763D02*
Y0077D01*
X01388Y00763D02*
Y0077D01*
X0138Y00763D02*
Y0077D01*
X01396Y00763D02*
Y0077D01*
X014Y00763D02*
Y0077D01*
X01392Y00763D02*
Y0077D01*
X0146Y00722D02*
Y00726D01*
X01464Y00722D02*
Y00726D01*
X01452Y00722D02*
Y00726D01*
X01456Y00722D02*
Y00726D01*
X01472Y00722D02*
Y00726D01*
X01476Y00722D02*
Y00726D01*
X01468Y00722D02*
Y00726D01*
X01432Y00722D02*
Y00726D01*
X01436Y00722D02*
Y00726D01*
X01428Y00722D02*
Y00726D01*
X01444Y00722D02*
Y00726D01*
X01448Y00722D02*
Y00726D01*
X0144Y00722D02*
Y00726D01*
X01508Y00722D02*
Y00726D01*
X01512Y00722D02*
Y00726D01*
X01504Y00722D02*
Y00726D01*
X0152Y00722D02*
Y00726D01*
X01524Y00722D02*
Y00726D01*
X01516Y00722D02*
Y00726D01*
X01484Y00722D02*
Y00726D01*
X01488Y00722D02*
Y00726D01*
X0148Y00722D02*
Y00726D01*
X01496Y00722D02*
Y00726D01*
X015Y00722D02*
Y00726D01*
X01492Y00722D02*
Y00726D01*
X0136Y00722D02*
Y00726D01*
X01364Y00722D02*
Y00726D01*
X01352Y00722D02*
Y00726D01*
X01356Y00722D02*
Y00726D01*
X01372Y00722D02*
Y00726D01*
X01376Y00722D02*
Y00726D01*
X01368Y00722D02*
Y00726D01*
X01332Y00722D02*
Y00726D01*
X01336Y00722D02*
Y00726D01*
X01328Y00722D02*
Y00726D01*
X01344Y00722D02*
Y00726D01*
X01348Y00722D02*
Y00726D01*
X0134Y00722D02*
Y00726D01*
X01408Y00722D02*
Y00726D01*
X01412Y00722D02*
Y00726D01*
X01404Y00722D02*
Y00726D01*
X0142Y00722D02*
Y00726D01*
X01424Y00722D02*
Y00726D01*
X01416Y00722D02*
Y00726D01*
X01384Y00722D02*
Y00726D01*
X01388Y00722D02*
Y00726D01*
X0138Y00722D02*
Y00726D01*
X01396Y00722D02*
Y00726D01*
X014Y00722D02*
Y00726D01*
X01392Y00722D02*
Y00726D01*
X01308Y00763D02*
Y0077D01*
X01312Y00763D02*
Y0077D01*
X013Y00763D02*
Y0077D01*
X01304Y00763D02*
Y0077D01*
X0132Y00763D02*
Y0077D01*
X01324Y00763D02*
Y0077D01*
X01316Y00763D02*
Y0077D01*
X0126Y00763D02*
Y0077D01*
X00821D02*
X0249D01*
X01256Y00763D02*
Y0077D01*
X01292Y00763D02*
Y0077D01*
X01296Y00763D02*
Y0077D01*
X01288Y00763D02*
Y0077D01*
X01268Y00763D02*
Y0077D01*
X01272Y00763D02*
Y0077D01*
X01264Y00763D02*
Y0077D01*
X0128Y00763D02*
Y0077D01*
X01284Y00763D02*
Y0077D01*
X01276Y00763D02*
Y0077D01*
X00738Y00768D02*
X02119D01*
X00738Y00764D02*
X0211D01*
X0116Y00763D02*
X01831D01*
X01248D02*
Y0077D01*
X01252Y00763D02*
Y0077D01*
X01244Y00763D02*
Y0077D01*
X01224Y00763D02*
Y0077D01*
X01228Y00763D02*
Y0077D01*
X01216Y00763D02*
Y0077D01*
X0122Y00763D02*
Y0077D01*
X01236Y00763D02*
Y0077D01*
X0124Y00763D02*
Y0077D01*
X01232Y00763D02*
Y0077D01*
X01196Y00763D02*
Y0077D01*
X012Y00763D02*
Y0077D01*
X01192Y00763D02*
Y0077D01*
X01208Y00763D02*
Y0077D01*
X01212Y00763D02*
Y0077D01*
X01204Y00763D02*
Y0077D01*
X01172Y00763D02*
Y0077D01*
X01176Y00763D02*
Y0077D01*
X01168Y00763D02*
Y0077D01*
X01184Y00763D02*
Y0077D01*
X01188Y00763D02*
Y0077D01*
X0118Y00763D02*
Y0077D01*
X0116Y00763D02*
Y0077D01*
X01164Y00763D02*
Y0077D01*
X01156Y00763D02*
Y0077D01*
X01152Y00761D02*
Y0077D01*
X00782Y0076D02*
X01149D01*
X01148Y00759D02*
Y0077D01*
X01264Y00722D02*
Y00726D01*
X01268Y00722D02*
Y00726D01*
X01256Y00722D02*
Y00726D01*
X0126Y00722D02*
Y00726D01*
X01276Y00722D02*
Y00726D01*
X0128Y00722D02*
Y00726D01*
X01272Y00722D02*
Y00726D01*
X01236Y00722D02*
Y00726D01*
X0124Y00722D02*
Y00726D01*
X01232Y00722D02*
Y00726D01*
X01248Y00722D02*
Y00726D01*
X01252Y00722D02*
Y00726D01*
X01244Y00722D02*
Y00726D01*
X01308Y00722D02*
Y00726D01*
X01312Y00722D02*
Y00726D01*
X01304Y00722D02*
Y00726D01*
X0132Y00722D02*
Y00726D01*
X01324Y00722D02*
Y00726D01*
X01316Y00722D02*
Y00726D01*
X01288Y00722D02*
Y00726D01*
X01167D02*
X01665D01*
X01284Y00722D02*
Y00726D01*
X01296Y00722D02*
Y00726D01*
X013Y00722D02*
Y00726D01*
X01292Y00722D02*
Y00726D01*
X012Y00722D02*
Y00726D01*
X01204Y00722D02*
Y00726D01*
X01212Y00722D02*
Y00726D01*
X01224Y00722D02*
Y00726D01*
X01208Y00722D02*
Y00726D01*
X00791Y00756D02*
X01144D01*
X01144Y00755D02*
Y0077D01*
X01045Y00656D02*
X01146Y00758D01*
X00796Y00752D02*
X0114D01*
X0114Y00751D02*
Y0077D01*
X0122Y00722D02*
Y00726D01*
X01228Y00722D02*
Y00726D01*
X01216Y00722D02*
Y00726D01*
X01192Y00721D02*
Y00726D01*
X01196Y00722D02*
Y00726D01*
X01188Y00718D02*
Y00726D01*
X0118Y00711D02*
Y00726D01*
X01184Y00715D02*
Y00726D01*
X01176Y00707D02*
Y00726D01*
X01168Y00699D02*
Y00726D01*
X01172Y00703D02*
Y00726D01*
X01066Y00624D02*
X01167Y00726D01*
X01316Y0057D02*
Y00685D01*
X0132Y00569D02*
Y00685D01*
X01308Y0057D02*
Y00685D01*
X01312Y0057D02*
Y00685D01*
X01328Y00565D02*
Y00685D01*
X01332Y00561D02*
Y00685D01*
X01324Y00567D02*
Y00685D01*
X01199Y00722D02*
X01657D01*
X01206Y00685D02*
X01657D01*
X01304Y0057D02*
Y00685D01*
X01296Y00567D02*
Y00685D01*
X013Y00569D02*
Y00685D01*
X01292Y00565D02*
Y00685D01*
X01201Y0068D02*
X0167D01*
X01197Y00676D02*
X01865D01*
X01205Y00684D02*
X01664D01*
X01323Y00568D02*
X0194D01*
X01329Y00564D02*
X0194D01*
X01193Y00672D02*
X01865D01*
X01185Y00664D02*
X01865D01*
X01181Y0066D02*
X01865D01*
X01189Y00668D02*
X01865D01*
X01173Y00652D02*
X01865D01*
X01172Y00592D02*
X0195D01*
X01177Y00656D02*
X01865D01*
X01268Y00561D02*
Y00685D01*
X01272Y00561D02*
Y00685D01*
X0126Y00561D02*
Y00685D01*
X01264Y00561D02*
Y00685D01*
X0128Y00561D02*
Y00685D01*
X01284Y00561D02*
Y00685D01*
X01276Y00561D02*
Y00685D01*
X01244Y00561D02*
Y00685D01*
X01252Y00561D02*
Y00685D01*
X01256Y00561D02*
Y00685D01*
X01248Y00561D02*
Y00685D01*
X01224Y00561D02*
Y00685D01*
X01228Y00561D02*
Y00685D01*
X0122Y00561D02*
Y00685D01*
X01236Y00561D02*
Y00685D01*
X0124Y00561D02*
Y00685D01*
X01232Y00561D02*
Y00685D01*
X01192Y00561D02*
Y0067D01*
Y00561D02*
X01285D01*
X01172Y00593D02*
Y0065D01*
X01212Y00561D02*
Y00685D01*
X01216Y00561D02*
Y00685D01*
X01208Y00561D02*
Y00685D01*
X0134Y00544D02*
X01947D01*
X01341Y0054D02*
X01952D01*
X01338Y00552D02*
X01942D01*
X01339Y00548D02*
X01944D01*
X01339Y00532D02*
X02057D01*
X01338Y00528D02*
X02059D01*
X0134Y00536D02*
X0196D01*
X01333Y0056D02*
X0194D01*
X01336Y00556D02*
X01941D01*
X01333Y0052D02*
X02063D01*
X01329Y00516D02*
X02066D01*
X01336Y00524D02*
X0206D01*
X01323Y00512D02*
X02072D01*
X01185Y00504D02*
X02091D01*
X01184Y00412D02*
X0182D01*
X01188Y00408D02*
X01816D01*
X01192Y00404D02*
X01812D01*
X01196Y004D02*
X01808D01*
X01177Y00496D02*
X02099D01*
X01173Y00492D02*
X02103D01*
X01181Y005D02*
X02095D01*
X01172Y00424D02*
X01832D01*
X01176Y0042D02*
X01828D01*
X0118Y00416D02*
X01824D01*
X01204Y00561D02*
Y00682D01*
X012Y00561D02*
Y00678D01*
X01196Y00561D02*
Y00674D01*
X01336Y00556D02*
Y00685D01*
X0134Y00547D02*
Y00685D01*
X01188Y0056D02*
Y00666D01*
X01184Y00559D02*
Y00662D01*
X0118Y00557D02*
Y00658D01*
X01176Y00553D02*
Y00654D01*
X01172Y00549D02*
Y00593D01*
X01197Y00516D02*
X0129D01*
X01193Y00512D02*
X01296D01*
X012Y00519D02*
X01285D01*
X012Y00396D02*
Y00518D01*
X01196Y004D02*
Y00514D01*
X0118Y00416D02*
Y00498D01*
X01176Y0042D02*
Y00494D01*
X01172Y00424D02*
Y0049D01*
X01192Y00404D02*
Y0051D01*
X01188Y00408D02*
Y00506D01*
X01184Y00412D02*
Y00502D01*
X01165Y00724D02*
X01662D01*
X01169Y00648D02*
X01865D01*
X01161Y0072D02*
X01189D01*
X01157Y00716D02*
X01184D01*
X01165Y00644D02*
X01861D01*
X01161Y0064D02*
X01859D01*
X01157Y00636D02*
X01857D01*
X01153Y00632D02*
X01856D01*
X01149Y00628D02*
X01855D01*
X01153Y00712D02*
X0118D01*
X01145Y00624D02*
X01855D01*
X01156Y0062D02*
X01856D01*
X01144Y00623D02*
X01206Y00685D01*
X01171Y006D02*
X01872D01*
X01171Y00596D02*
X0195D01*
X0117Y00604D02*
X01865D01*
X01171Y00588D02*
X0195D01*
X0117Y00584D02*
X01949D01*
X01169Y0058D02*
X01946D01*
X01165Y00612D02*
X01859D01*
X01168Y00608D02*
X01861D01*
X01161Y00616D02*
X01857D01*
X01166Y00576D02*
X01943D01*
X01163Y00572D02*
X01941D01*
X01159Y00568D02*
X01296D01*
X01149Y00708D02*
X01176D01*
X01145Y00704D02*
X01172D01*
X01164Y00695D02*
Y00722D01*
X0116Y00691D02*
Y00718D01*
X01156Y00687D02*
Y00714D01*
X01152Y00683D02*
Y0071D01*
X01148Y00679D02*
Y00706D01*
X01141Y007D02*
X01168D01*
X01137Y00696D02*
X01164D01*
X01133Y00692D02*
X0116D01*
X01144Y00675D02*
Y00702D01*
X01129Y00688D02*
X01156D01*
X0114Y00671D02*
Y00698D01*
X01156Y0062D02*
Y00634D01*
X01152Y00622D02*
Y0063D01*
X01148Y00623D02*
Y00626D01*
X01168Y00608D02*
Y00646D01*
X01164Y00613D02*
Y00642D01*
X0116Y00617D02*
Y00638D01*
X01125Y00684D02*
X01152D01*
X01121Y0068D02*
X01148D01*
X01117Y00676D02*
X01144D01*
X01113Y00672D02*
X0114D01*
X01169Y00488D02*
X01855D01*
X01165Y00484D02*
X01848D01*
X01152Y00564D02*
X0129D01*
X01115Y00493D02*
X01177Y00554D01*
X01161Y0048D02*
X01843D01*
X01157Y00476D02*
X0184D01*
X01145Y00463D02*
X012Y00519D01*
X01081Y0056D02*
X01185D01*
X01077Y00556D02*
X01178D01*
X01021Y00552D02*
X01185Y00717D01*
X01073Y00552D02*
X01174D01*
X01069Y00548D02*
X0117D01*
X01152Y00444D02*
X01842D01*
X01156Y0044D02*
X01845D01*
X01153Y00472D02*
X01838D01*
X0116Y00436D02*
X01846D01*
X01164Y00432D02*
X01839D01*
X01168Y00428D02*
X01835D01*
X01149Y00468D02*
X01837D01*
X01145Y00464D02*
X01836D01*
X01142Y0046D02*
X01836D01*
X01144Y00452D02*
X01838D01*
X01148Y00448D02*
X01839D01*
X01141Y00456D02*
X01836D01*
X01168Y00545D02*
Y00577D01*
X01164Y00541D02*
Y00572D01*
X0116Y00537D02*
Y00568D01*
X01156Y00533D02*
Y00565D01*
X01152Y00529D02*
Y00564D01*
X01148Y00525D02*
Y00562D01*
X01065Y00544D02*
X01166D01*
X01061Y0054D02*
X01162D01*
X01057Y00536D02*
X01158D01*
X01053Y00532D02*
X01154D01*
X01144Y00521D02*
Y00562D01*
X01156Y0044D02*
Y00474D01*
X01152Y00444D02*
Y0047D01*
X01148Y00448D02*
Y00466D01*
X01168Y00428D02*
Y00486D01*
X01164Y00432D02*
Y00482D01*
X0116Y00436D02*
Y00478D01*
X01049Y00528D02*
X0115D01*
X01045Y00524D02*
X01146D01*
X01041Y0052D02*
X01142D01*
X0114Y00455D02*
X01156Y00439D01*
X01144Y00452D02*
Y00462D01*
X01132Y00743D02*
Y0077D01*
X01136Y00747D02*
Y0077D01*
X01124Y00735D02*
Y0077D01*
X01128Y00739D02*
Y0077D01*
X01116Y00727D02*
Y0077D01*
X0112Y00731D02*
Y0077D01*
X01112Y00723D02*
Y0077D01*
X01104Y00715D02*
Y0077D01*
X01108Y00719D02*
Y0077D01*
X011Y00711D02*
Y0077D01*
X01072Y00683D02*
Y0077D01*
X01076Y00687D02*
Y0077D01*
X01068Y00679D02*
Y0077D01*
X01136Y00667D02*
Y00694D01*
X01109Y00668D02*
X01136D01*
X01105Y00664D02*
X01132D01*
X01132Y00663D02*
Y0069D01*
X01101Y0066D02*
X01128D01*
X01128Y00659D02*
Y00686D01*
X01092Y00703D02*
Y0077D01*
X01096Y00707D02*
Y0077D01*
X01088Y00699D02*
Y0077D01*
X0108Y00691D02*
Y0077D01*
X01084Y00695D02*
Y0077D01*
X01064Y00675D02*
Y0077D01*
X009Y00656D02*
Y0077D01*
X00904Y00656D02*
Y0077D01*
X00884Y00656D02*
Y0077D01*
X00896Y00656D02*
Y0077D01*
X00912Y00656D02*
Y0077D01*
X00916Y00656D02*
Y0077D01*
X00908Y00656D02*
Y0077D01*
X00864Y00656D02*
Y0077D01*
X00868Y00656D02*
Y0077D01*
X0086Y00656D02*
Y0077D01*
X00876Y00656D02*
Y0077D01*
X0088Y00656D02*
Y0077D01*
X00872Y00656D02*
Y0077D01*
X01056Y00667D02*
Y0077D01*
X0106Y00671D02*
Y0077D01*
X01052Y00663D02*
Y0077D01*
X00948Y00656D02*
Y0077D01*
X01048Y00659D02*
Y0077D01*
X00944Y00656D02*
Y0077D01*
X00924Y00656D02*
Y0077D01*
X00928Y00656D02*
Y0077D01*
X0092Y00656D02*
Y0077D01*
X00936Y00656D02*
Y0077D01*
X0094Y00656D02*
Y0077D01*
X00932Y00656D02*
Y0077D01*
X01124Y00655D02*
Y00682D01*
X0112Y00651D02*
Y00678D01*
X01116Y00647D02*
Y00674D01*
X01112Y00643D02*
Y0067D01*
X01108Y00639D02*
Y00666D01*
X01104Y00635D02*
Y00662D01*
X011Y00631D02*
Y00658D01*
X01044Y00656D02*
Y0077D01*
X00992Y00656D02*
X01045D01*
X0104D02*
Y0077D01*
X01097Y00656D02*
X01124D01*
X01093Y00652D02*
X0112D01*
X01096Y00627D02*
Y00654D01*
X01089Y00648D02*
X01116D01*
X01085Y00644D02*
X01112D01*
X01081Y0064D02*
X01108D01*
X01092Y00623D02*
Y0065D01*
X01088Y00619D02*
Y00646D01*
X01084Y00615D02*
Y00642D01*
X01077Y00636D02*
X01104D01*
X01073Y00632D02*
X011D01*
X01069Y00628D02*
X01096D01*
X0108Y00611D02*
Y00638D01*
X01076Y00607D02*
Y00634D01*
X01072Y00603D02*
Y0063D01*
X00972Y00656D02*
Y0077D01*
X00976Y00656D02*
Y0077D01*
X00968Y00656D02*
Y0077D01*
X00984Y00656D02*
Y0077D01*
X00988Y00656D02*
Y0077D01*
X0098Y00656D02*
Y0077D01*
X00892Y00656D02*
Y0077D01*
X00952Y00656D02*
Y0077D01*
X00888Y00656D02*
Y0077D01*
X0096Y00656D02*
Y0077D01*
X00964Y00656D02*
Y0077D01*
X00956Y00656D02*
Y0077D01*
X0102Y00656D02*
Y0077D01*
X01024Y00656D02*
Y0077D01*
X01016Y00656D02*
Y0077D01*
X01032Y00656D02*
Y0077D01*
X01036Y00656D02*
Y0077D01*
X01028Y00656D02*
Y0077D01*
X00996Y00656D02*
Y0077D01*
X01Y00656D02*
Y0077D01*
X00992Y00656D02*
Y0077D01*
X01008Y00656D02*
Y0077D01*
X01012Y00656D02*
Y0077D01*
X01004Y00656D02*
Y0077D01*
X008Y00748D02*
Y0077D01*
X008Y00748D02*
X01136D01*
X00792Y00755D02*
Y0077D01*
X00796Y00752D02*
Y0077D01*
X00802Y00744D02*
X01132D01*
X00804Y0074D02*
X01128D01*
X00804Y00741D02*
Y0077D01*
X0078Y0076D02*
Y0077D01*
X00738D02*
X00821D01*
X00776Y00761D02*
Y0077D01*
X00788Y00758D02*
Y0077D01*
X00784Y00759D02*
Y0077D01*
X00805Y00736D02*
X01124D01*
X00805Y00732D02*
X0112D01*
X00805Y00728D02*
X01116D01*
X00805Y00724D02*
X01112D01*
X00804Y0072D02*
X01108D01*
X00802Y00716D02*
X01104D01*
X008Y00712D02*
X011D01*
X00796Y00704D02*
X01092D01*
X00796Y007D02*
X01088D01*
X00796Y00696D02*
X01084D01*
X00796Y00692D02*
X0108D01*
X00768Y0076D02*
Y0077D01*
X00772Y0076D02*
Y0077D01*
X0076Y00757D02*
Y0077D01*
X00764Y00759D02*
Y0077D01*
X00752Y0075D02*
Y0077D01*
X00756Y00754D02*
Y0077D01*
X00748Y00745D02*
Y0077D01*
X00738Y0076D02*
X00767D01*
X00738Y00756D02*
X00758D01*
X00738Y00752D02*
X00753D01*
X00738Y00748D02*
X00749D01*
X00738Y00744D02*
X00747D01*
X00744Y0073D02*
Y0077D01*
X00738Y00712D02*
X00749D01*
X00738Y00704D02*
X00754D01*
X00738Y00716D02*
X00747D01*
X00738Y00696D02*
X00754D01*
X00738Y00692D02*
X00754D01*
X00738Y007D02*
X00754D01*
X00738Y0074D02*
X00745D01*
X00738Y00736D02*
X00744D01*
X00738Y00732D02*
X00744D01*
X00738Y00724D02*
X00744D01*
X00738Y0072D02*
X00745D01*
X00738Y00728D02*
X00744D01*
X0084Y00664D02*
Y0077D01*
X00844Y00662D02*
Y0077D01*
X00832Y00666D02*
Y0077D01*
X00836Y00665D02*
Y0077D01*
X00852Y00656D02*
Y0077D01*
X00856Y00656D02*
Y0077D01*
X00848Y0066D02*
Y0077D01*
X00828Y00666D02*
Y0077D01*
X00796Y00688D02*
X01076D01*
X00824Y00665D02*
Y0077D01*
X00816Y00662D02*
Y0077D01*
X0082Y00664D02*
Y0077D01*
X00812Y0066D02*
Y0077D01*
X00796Y00676D02*
X01064D01*
X00841Y00664D02*
X01052D01*
X00848Y0066D02*
X01048D01*
X00854Y00656D02*
X00992D01*
X00796Y00684D02*
X01072D01*
X00796Y0068D02*
X01068D01*
X00796Y00672D02*
X0106D01*
X00796Y00668D02*
X01056D01*
X00796Y00664D02*
X00818D01*
X00796Y0066D02*
X00811D01*
X00808Y00657D02*
Y0077D01*
X00804Y00656D02*
Y00719D01*
X00738Y00672D02*
X00754D01*
X008Y00654D02*
Y00711D01*
X00796Y00651D02*
Y00705D01*
X00754Y00532D02*
Y00705D01*
X00738Y00684D02*
X00754D01*
X00738Y0068D02*
X00754D01*
X00738Y00688D02*
X00754D01*
X00738Y00676D02*
X00754D01*
X00738Y00668D02*
X00754D01*
X00738Y00678D02*
Y0077D01*
Y0066D02*
X00754D01*
X00796Y00656D02*
X00803D01*
X00738Y00664D02*
X00754D01*
X00738Y00652D02*
X00754D01*
X00738Y00656D02*
X00754D01*
X00738Y00644D02*
X00754D01*
X00738Y0064D02*
X00754D01*
X00738Y00648D02*
X00754D01*
X00738Y00632D02*
X00754D01*
X00738Y00628D02*
X00754D01*
X00738Y00636D02*
X00754D01*
X01065Y00624D02*
X01092D01*
X01057Y0062D02*
X01088D01*
X01068Y00599D02*
Y00626D01*
X01064Y00595D02*
Y00623D01*
X0106Y00591D02*
Y0062D01*
X01056Y00587D02*
Y00619D01*
X0101Y00616D02*
X01084D01*
X0101Y00619D02*
X01053D01*
X0101Y00612D02*
X0108D01*
X0101Y00608D02*
X01076D01*
X0101Y00604D02*
X01072D01*
X01101Y0058D02*
X01112D01*
X01097Y00576D02*
X01115D01*
X01105Y00584D02*
X01111D01*
X01089Y00568D02*
X01122D01*
X01085Y00564D02*
X0113D01*
X01093Y00572D02*
X01118D01*
X0101Y006D02*
X01068D01*
X0101Y00596D02*
X01064D01*
X01012Y00592D02*
X0106D01*
X01042Y0052D02*
X0111Y00589D01*
X01015Y00588D02*
X01056D01*
X01017Y00584D02*
X01052D01*
X01048Y00579D02*
Y00619D01*
X01052Y00583D02*
Y00619D01*
X0104Y00571D02*
Y00619D01*
X01044Y00575D02*
Y00619D01*
X01032Y00563D02*
Y00619D01*
X01036Y00567D02*
Y00619D01*
X01028Y00559D02*
Y00619D01*
X01012Y00592D02*
Y00619D01*
X0101Y00596D02*
Y00619D01*
X0102Y00577D02*
Y00619D01*
X01024Y00555D02*
Y00619D01*
X01016Y00587D02*
Y00619D01*
X01019Y0058D02*
X01048D01*
X0102Y00576D02*
X01044D01*
X0102Y00572D02*
X0104D01*
X0102Y00568D02*
X01036D01*
X01019Y00564D02*
X01032D01*
X0102Y00552D02*
Y00566D01*
X01017Y0056D02*
X01028D01*
X01015Y00556D02*
X01024D01*
X01012Y00552D02*
X01021D01*
X01016D02*
Y00556D01*
X01136Y00513D02*
Y00562D01*
X0114Y00517D02*
Y00562D01*
X01128Y00505D02*
Y00564D01*
X01132Y00509D02*
Y00563D01*
X0112Y00497D02*
Y0057D01*
X01124Y00501D02*
Y00567D01*
X01116Y00493D02*
Y00574D01*
X01104Y00485D02*
Y00582D01*
X01112Y00489D02*
Y00582D01*
X011Y00484D02*
Y00578D01*
X01096Y00483D02*
Y00574D01*
X01092Y00482D02*
Y0057D01*
X01088Y00479D02*
Y00566D01*
X01033Y00516D02*
X01138D01*
X00976Y00496D02*
X01118D01*
X01108Y00486D02*
X01115Y00493D01*
X01129Y00404D02*
X01133D01*
X01129Y004D02*
X01137D01*
X00976Y00504D02*
X01126D01*
X00976Y005D02*
X01122D01*
X00976Y00492D02*
X01114D01*
X00976Y00488D02*
X0111D01*
X00976Y00484D02*
X01097D01*
X00976Y0048D02*
X01088D01*
X01084Y00476D02*
Y00562D01*
X0108Y00471D02*
Y00558D01*
X01076Y00464D02*
Y00554D01*
X01072Y0045D02*
Y0055D01*
X01068Y00446D02*
Y00546D01*
X01064Y00442D02*
Y00542D01*
X0106Y00438D02*
Y00538D01*
X01056Y00434D02*
Y00534D01*
X01052Y0043D02*
Y0053D01*
X01048Y00426D02*
Y00526D01*
X01044Y00422D02*
Y00522D01*
X01064Y00442D02*
X01073Y00452D01*
X0104Y00418D02*
Y00519D01*
X01036Y00414D02*
Y00516D01*
X0108Y004D02*
X01087D01*
X01032Y0041D02*
Y00515D01*
X00976Y00476D02*
X01083D01*
X00976Y00472D02*
X0108D01*
X00976D02*
Y00515D01*
X01028Y00406D02*
Y00515D01*
X01027Y00405D02*
X01064Y00442D01*
X01024Y00401D02*
Y00515D01*
X00976D02*
X01029D01*
X00976Y00512D02*
X01134D01*
X00976Y00508D02*
X0113D01*
X0076Y00517D02*
X00794Y00483D01*
X00738Y0052D02*
X00757D01*
X00738Y00516D02*
X00761D01*
X00738Y00524D02*
X00755D01*
X00738Y00508D02*
X00769D01*
X00738Y00504D02*
X00773D01*
X00738Y00512D02*
X00765D01*
X00899Y005D02*
X00903D01*
X009Y00496D02*
X00907D01*
X009D02*
Y00503D01*
X00898Y00488D02*
X00915D01*
X00897Y00484D02*
X00919D01*
X00899Y00492D02*
X00911D01*
X00738Y00496D02*
X00781D01*
X00738Y00492D02*
X00785D01*
X00738Y005D02*
X00777D01*
X00738Y00484D02*
X00793D01*
X00738Y0048D02*
X00798D01*
X00738Y00488D02*
X00789D01*
X00738Y00592D02*
X00754D01*
X00738Y00588D02*
X00754D01*
X00738Y006D02*
X00754D01*
X00738Y00596D02*
X00754D01*
X00738Y0058D02*
X00754D01*
X00738Y00576D02*
X00754D01*
X00738Y00584D02*
X00754D01*
X00738Y0062D02*
X00754D01*
X00738Y00616D02*
X00754D01*
X00738Y00624D02*
X00754D01*
X00738Y00608D02*
X00754D01*
X00738Y00604D02*
X00754D01*
X00738Y00612D02*
X00754D01*
X00738Y00544D02*
X00754D01*
X00738Y0054D02*
X00754D01*
X00738Y00548D02*
X00754D01*
X00738Y00532D02*
X00754D01*
X00738Y00528D02*
X00754D01*
X00738Y00536D02*
X00754D01*
X00738Y00568D02*
X00754D01*
X00738Y00564D02*
X00754D01*
X00738Y00572D02*
X00754D01*
X00738Y00556D02*
X00754D01*
X00738Y00552D02*
X00754D01*
X00738Y0056D02*
X00754D01*
X00976Y00468D02*
X01077D01*
X00976Y00464D02*
X01075D01*
X00976Y00472D02*
Y00478D01*
Y0046D02*
X01074D01*
X00976Y00456D02*
X01073D01*
X00976Y00448D02*
X01069D01*
X00976Y00444D02*
X01065D01*
X00738Y00464D02*
X00934D01*
X00738Y00456D02*
X00934D01*
X00882Y00468D02*
X00934D01*
X00976Y00452D02*
X01073D01*
X00976Y0044D02*
X01061D01*
X00738Y00452D02*
X00934D01*
X00976Y00436D02*
X01057D01*
X00976Y00432D02*
X01053D01*
X00976Y00428D02*
X01049D01*
X00976Y00424D02*
X01045D01*
X00976Y0042D02*
X01041D01*
X00976Y00416D02*
X01037D01*
X00976Y00412D02*
X01033D01*
X00976Y00408D02*
X01029D01*
X00738Y00404D02*
X00934D01*
X00976D02*
X01025D01*
X00976Y004D02*
X01023D01*
X00738D02*
X00934D01*
X00895Y0048D02*
X00923D01*
X00892Y00476D02*
X00927D01*
X00898Y00504D02*
X00934Y00469D01*
X00888Y00472D02*
X00931D01*
X00809Y00477D02*
X0084D01*
X00738Y00472D02*
X00849D01*
X00738Y00468D02*
X00855D01*
X00738Y00476D02*
X00844D01*
X00738Y00424D02*
X00934D01*
X00738Y0042D02*
X00934D01*
X00738Y00428D02*
X00934D01*
X00738Y00412D02*
X00934D01*
X00738Y00408D02*
X00934D01*
X00738Y00416D02*
X00934D01*
X00738Y00448D02*
X00934D01*
X00738Y00444D02*
X00934D01*
X00738Y0046D02*
X00934D01*
X00738Y00436D02*
X00934D01*
X00738Y00432D02*
X00934D01*
X00738Y0044D02*
X00934D01*
X01292Y00304D02*
X01659D01*
X01296Y003D02*
X01658D01*
X013Y00296D02*
X01657D01*
X01304Y00292D02*
X01657D01*
X01312Y00284D02*
X01659D01*
X01316Y0028D02*
X0166D01*
X01308Y00288D02*
X01657D01*
X01268Y00328D02*
X01722D01*
X01272Y00324D02*
X01717D01*
X01276Y0032D02*
X01676D01*
X0128Y00316D02*
X01669D01*
X01284Y00312D02*
X01664D01*
X01288Y00308D02*
X01661D01*
X01348Y00248D02*
X01704D01*
X01352Y00244D02*
X01708D01*
X01344Y00252D02*
X017D01*
X0136Y00236D02*
X01922D01*
X01364Y00232D02*
X01927D01*
X01356Y0024D02*
X01713D01*
X01324Y00272D02*
X01666D01*
X01328Y00268D02*
X01672D01*
X0132Y00276D02*
X01663D01*
X01336Y0026D02*
X01692D01*
X0134Y00256D02*
X01696D01*
X01332Y00264D02*
X01688D01*
X01352Y00244D02*
Y00685D01*
X01356Y0024D02*
Y00685D01*
X01344Y00252D02*
Y00685D01*
X01348Y00248D02*
Y00685D01*
X01364Y00232D02*
Y00685D01*
X01368Y00228D02*
Y00685D01*
X0136Y00236D02*
Y00685D01*
X01272Y00324D02*
Y00519D01*
X01276Y0032D02*
Y00519D01*
X01268Y00328D02*
Y00519D01*
X0134Y00256D02*
Y00532D01*
X01336Y0026D02*
Y00523D01*
X01284Y00312D02*
Y00519D01*
X0132Y00276D02*
Y0051D01*
X01316Y0028D02*
Y00509D01*
X01312Y00284D02*
Y00509D01*
X01332Y00264D02*
Y00518D01*
X01328Y00268D02*
Y00514D01*
X01324Y00272D02*
Y00512D01*
X01292Y00304D02*
Y00514D01*
X01296Y003D02*
Y00512D01*
X0128Y00316D02*
Y00519D01*
X01304Y00292D02*
Y00509D01*
X01308Y00288D02*
Y00509D01*
X013Y00296D02*
Y0051D01*
X01464Y0009D02*
Y00685D01*
X01468Y0009D02*
Y00685D01*
X01456Y0009D02*
Y00685D01*
X0146Y0009D02*
Y00685D01*
X01476Y0009D02*
Y00685D01*
X0148Y0009D02*
Y00685D01*
X01472Y0009D02*
Y00685D01*
X01436Y00169D02*
Y00685D01*
X0144Y0009D02*
Y00685D01*
X01432Y00175D02*
Y00685D01*
X01448Y0009D02*
Y00685D01*
X01452Y0009D02*
Y00685D01*
X01444Y0009D02*
Y00685D01*
X01512Y0009D02*
Y00685D01*
X01516Y0009D02*
Y00685D01*
X01508Y0009D02*
Y00685D01*
X01524Y0009D02*
Y00685D01*
X01528Y0009D02*
Y00685D01*
X0152Y0009D02*
Y00685D01*
X01488Y0009D02*
Y00685D01*
X01492Y0009D02*
Y00685D01*
X01484Y0009D02*
Y00685D01*
X015Y0009D02*
Y00685D01*
X01504Y0009D02*
Y00685D01*
X01496Y0009D02*
Y00685D01*
X01412Y00186D02*
Y00685D01*
X01416Y00185D02*
Y00685D01*
X01404Y00192D02*
Y00685D01*
X01408Y00188D02*
Y00685D01*
X01424Y00182D02*
Y00685D01*
X01428Y00179D02*
Y00685D01*
X0142Y00184D02*
Y00685D01*
X01384Y00212D02*
Y00685D01*
X01388Y00208D02*
Y00685D01*
X0138Y00216D02*
Y00685D01*
X01396Y002D02*
Y00685D01*
X014Y00196D02*
Y00685D01*
X01392Y00204D02*
Y00685D01*
X01372Y00224D02*
Y00685D01*
X01376Y0022D02*
Y00685D01*
X01308Y0009D02*
Y00229D01*
X013Y0009D02*
Y00237D01*
X01304Y0009D02*
Y00233D01*
X01296Y0009D02*
Y00241D01*
X01276Y0009D02*
Y00261D01*
X0128Y0009D02*
Y00257D01*
X01272Y0009D02*
Y00265D01*
X01288Y0009D02*
Y00249D01*
X01292Y0009D02*
Y00245D01*
X01284Y0009D02*
Y00253D01*
X01248Y00348D02*
Y00519D01*
X01252Y00344D02*
Y00519D01*
X0124Y00356D02*
Y00519D01*
X01244Y00352D02*
Y00519D01*
X0126Y00336D02*
Y00519D01*
X01264Y00332D02*
Y00519D01*
X01256Y0034D02*
Y00519D01*
X012Y00396D02*
X01804D01*
X01204Y00392D02*
X018D01*
X01208Y00388D02*
X01796D01*
X01212Y00384D02*
X01792D01*
X01216Y0038D02*
X01788D01*
X01236Y0036D02*
Y00519D01*
X01244Y00352D02*
X0176D01*
X01248Y00348D02*
X01756D01*
X01252Y00344D02*
X01752D01*
X01256Y0034D02*
X01748D01*
X0126Y00336D02*
X01744D01*
X01264Y00332D02*
X01732D01*
X0122Y00376D02*
X01784D01*
X01224Y00372D02*
X0178D01*
X01228Y00368D02*
X01776D01*
X01232Y00364D02*
X01772D01*
X01236Y0036D02*
X01768D01*
X0124Y00356D02*
X01764D01*
X01216Y0038D02*
Y00519D01*
X0122Y00376D02*
Y00519D01*
X01208Y00388D02*
Y00519D01*
X01212Y00384D02*
Y00519D01*
X01228Y00368D02*
Y00519D01*
X01232Y00364D02*
Y00519D01*
X01224Y00372D02*
Y00519D01*
X01204Y00392D02*
Y00519D01*
X01129Y00368D02*
X01169D01*
X01129Y00372D02*
X01165D01*
X01129Y0036D02*
X01177D01*
X01129Y00356D02*
X01181D01*
X01129Y00364D02*
X01173D01*
X01129Y00324D02*
X01213D01*
X01129Y0032D02*
X01217D01*
X01129Y00328D02*
X01209D01*
X01129Y00312D02*
X01225D01*
X01129Y00308D02*
X01229D01*
X01129Y00316D02*
X01221D01*
X01129Y00348D02*
X01189D01*
X01129Y00344D02*
X01193D01*
X01129Y00352D02*
X01185D01*
X01129Y00336D02*
X01201D01*
X01129Y00332D02*
X01205D01*
X01129Y0034D02*
X01197D01*
X01156Y00439D02*
X01409Y00187D01*
X01129Y00408D02*
X01377Y0016D01*
X0126Y0009D02*
Y00277D01*
X01264Y0009D02*
Y00273D01*
X01252Y0009D02*
Y00285D01*
X01256Y0009D02*
Y00281D01*
X01248Y0009D02*
Y00289D01*
X01129Y00288D02*
X01249D01*
X01129Y00284D02*
X01253D01*
X01129Y00292D02*
X01245D01*
X01129Y00276D02*
X01261D01*
X01129Y00272D02*
X01265D01*
X01129Y0028D02*
X01257D01*
X01129Y00264D02*
X01273D01*
X01129Y0026D02*
X01277D01*
X01129Y00268D02*
X01269D01*
X01129Y00256D02*
X01281D01*
X01129Y00252D02*
X01285D01*
X01268Y0009D02*
Y00269D01*
X01129Y00244D02*
X01293D01*
X01129Y0024D02*
X01297D01*
X01129Y00248D02*
X01289D01*
X01129Y00232D02*
X01305D01*
X01129Y00228D02*
X01309D01*
X01129Y00236D02*
X01301D01*
X01192Y0009D02*
Y00345D01*
X01196Y0009D02*
Y00341D01*
X01188Y00094D02*
Y00349D01*
X01204Y0009D02*
Y00333D01*
X01208Y0009D02*
Y00329D01*
X012Y0009D02*
Y00337D01*
X01168Y00114D02*
Y00369D01*
X01172Y0011D02*
Y00365D01*
X01164Y00118D02*
Y00373D01*
X0118Y00102D02*
Y00357D01*
X01184Y00098D02*
Y00353D01*
X01176Y00106D02*
Y00361D01*
X01228Y0009D02*
Y00309D01*
X01232Y0009D02*
Y00305D01*
X01224Y0009D02*
Y00313D01*
X0124Y0009D02*
Y00297D01*
X01244Y0009D02*
Y00293D01*
X01236Y0009D02*
Y00301D01*
X01129Y003D02*
X01237D01*
X01129Y00296D02*
X01241D01*
X01129Y00304D02*
X01233D01*
X01216Y0009D02*
Y00321D01*
X0122Y0009D02*
Y00317D01*
X01212Y0009D02*
Y00325D01*
X014Y00196D02*
X01917D01*
X01404Y00192D02*
X01918D01*
X01392Y00204D02*
X01916D01*
X01396Y002D02*
X01916D01*
X01421Y00184D02*
X01922D01*
X01427Y0018D02*
X01926D01*
X01408Y00188D02*
X0192D01*
X01368Y00228D02*
X01933D01*
X01372Y00224D02*
X01926D01*
X01376Y0022D02*
X01922D01*
X0138Y00216D02*
X0192D01*
X01384Y00212D02*
X01918D01*
X01388Y00208D02*
X01917D01*
X01438Y00164D02*
X02429D01*
X01438Y0016D02*
X02436D01*
X01436Y00168D02*
X02425D01*
X01438Y00152D02*
X02585D01*
X01438Y00148D02*
X02585D01*
X01439Y00156D02*
X02446D01*
X01431Y00176D02*
X01933D01*
X01434Y00172D02*
X02421D01*
X01436Y00144D02*
X01801D01*
X01434Y0014D02*
X01785D01*
X01431Y00136D02*
X0178D01*
X01427Y00132D02*
X01776D01*
X01368Y0009D02*
Y00169D01*
X01436Y0009D02*
Y00142D01*
X01376Y0009D02*
Y00161D01*
X0138Y0009D02*
Y00142D01*
X01372Y0009D02*
Y00165D01*
X01348Y0009D02*
Y00189D01*
X01352Y0009D02*
Y00185D01*
X01344Y0009D02*
Y00193D01*
X0136Y0009D02*
Y00177D01*
X01364Y0009D02*
Y00173D01*
X01356Y0009D02*
Y00181D01*
X01432Y0009D02*
Y00136D01*
X01421Y00128D02*
X01773D01*
X01428Y0009D02*
Y00132D01*
X01424Y0009D02*
Y00129D01*
X0142Y0009D02*
Y00127D01*
X01416Y0009D02*
Y00126D01*
X01388Y0009D02*
Y00132D01*
X014Y0009D02*
Y00126D01*
X01384Y0009D02*
Y00136D01*
X01412Y0009D02*
Y00125D01*
X01408Y0009D02*
Y00125D01*
X01404Y0009D02*
Y00125D01*
X0146Y0003D02*
Y00048D01*
X01464Y0003D02*
Y00048D01*
X01452Y0003D02*
Y00048D01*
X01456Y0003D02*
Y00048D01*
X01472Y0003D02*
Y00048D01*
X01476Y0003D02*
Y00048D01*
X01468Y0003D02*
Y00048D01*
X01432Y0003D02*
Y00048D01*
X01436Y0003D02*
Y00048D01*
X01428Y0003D02*
Y00048D01*
X01444Y0003D02*
Y00048D01*
X01448Y0003D02*
Y00048D01*
X0144Y0003D02*
Y00048D01*
X01508Y0003D02*
Y00048D01*
X01512Y0003D02*
Y00048D01*
X01504Y0003D02*
Y00048D01*
X0152Y0003D02*
Y00048D01*
X01524Y0003D02*
Y00048D01*
X01516Y0003D02*
Y00048D01*
X01484Y0003D02*
Y00048D01*
X01488Y0003D02*
Y00048D01*
X0148Y0003D02*
Y00048D01*
X01496Y0003D02*
Y00048D01*
X015Y0003D02*
Y00048D01*
X01492Y0003D02*
Y00048D01*
X01408Y0003D02*
Y00048D01*
X01412Y0003D02*
Y00048D01*
X01404Y0003D02*
Y00048D01*
X0142Y0003D02*
Y00048D01*
X01424Y0003D02*
Y00048D01*
X01416Y0003D02*
Y00048D01*
X01392Y0009D02*
Y00129D01*
X01396Y0009D02*
Y00127D01*
X0134Y0009D02*
Y00197D01*
X01396Y0003D02*
Y00048D01*
X014Y0003D02*
Y00048D01*
X01392Y0003D02*
Y00048D01*
X01372Y0003D02*
Y00048D01*
X01376Y0003D02*
Y00048D01*
X01368Y0003D02*
Y00048D01*
X01384Y0003D02*
Y00048D01*
X01388Y0003D02*
Y00048D01*
X0138Y0003D02*
Y00048D01*
X01348Y0003D02*
Y00048D01*
X01352Y0003D02*
Y00048D01*
X01344Y0003D02*
Y00048D01*
X0136Y0003D02*
Y00048D01*
X01364Y0003D02*
Y00048D01*
X01356Y0003D02*
Y00048D01*
X01145Y00148D02*
X01378D01*
X01146Y00144D02*
X01379D01*
X01144Y00156D02*
X01377D01*
X01145Y00152D02*
X01377D01*
X01149Y00136D02*
X01384D01*
X01151Y00132D02*
X01388D01*
X01147Y0014D02*
X01381D01*
X01137Y00176D02*
X01361D01*
X0114Y00172D02*
X01365D01*
X01133Y0018D02*
X01357D01*
X01143Y00164D02*
X01373D01*
X01144Y0016D02*
X01377D01*
X01142Y00168D02*
X01369D01*
X01178Y00104D02*
X01771D01*
X01182Y001D02*
X01621D01*
X01186Y00096D02*
X01605D01*
X0119Y00092D02*
X016D01*
X01192Y0009D02*
X01596D01*
X01184Y00048D02*
X01596D01*
X01158Y00124D02*
X01772D01*
X01162Y0012D02*
X0177D01*
X01154Y00128D02*
X01394D01*
X01166Y00116D02*
X0177D01*
X01174Y00108D02*
X0177D01*
X0117Y00112D02*
X0177D01*
X0132Y0009D02*
Y00217D01*
X01324Y0009D02*
Y00213D01*
X01312Y0009D02*
Y00225D01*
X01316Y0009D02*
Y00221D01*
X01332Y0009D02*
Y00205D01*
X01336Y0009D02*
Y00201D01*
X01328Y0009D02*
Y00209D01*
X01129Y0022D02*
X01317D01*
X01129Y00216D02*
X01321D01*
X01129Y00224D02*
X01313D01*
X01129Y00208D02*
X01329D01*
X01129Y00204D02*
X01333D01*
X01129Y00212D02*
X01325D01*
X01129Y00188D02*
X01349D01*
X01131Y00184D02*
X01353D01*
X01129Y00192D02*
X01345D01*
X01156Y00126D02*
X01192Y0009D01*
X01129Y002D02*
X01337D01*
X01129Y00196D02*
X01341D01*
X00897Y00056D02*
X01167D01*
X00894Y00052D02*
X01171D01*
X00891Y00048D02*
X01184D01*
X01126Y00096D02*
X01169Y00054D01*
X01296Y0003D02*
Y00048D01*
X013Y0003D02*
Y00048D01*
X01288Y0003D02*
Y00048D01*
X01292Y0003D02*
Y00048D01*
X01308Y0003D02*
Y00048D01*
X01312Y0003D02*
Y00048D01*
X01304Y0003D02*
Y00048D01*
X01268Y0003D02*
Y00048D01*
X01272Y0003D02*
Y00048D01*
X01264Y0003D02*
Y00048D01*
X0128Y0003D02*
Y00048D01*
X01284Y0003D02*
Y00048D01*
X01276Y0003D02*
Y00048D01*
X01324Y0003D02*
Y00048D01*
X01328Y0003D02*
Y00048D01*
X0132Y0003D02*
Y00048D01*
X01336Y0003D02*
Y00048D01*
X0134Y0003D02*
Y00048D01*
X01332Y0003D02*
Y00048D01*
X0088Y0004D02*
X0161D01*
X00738Y00036D02*
X01948D01*
X00887Y00044D02*
X01602D01*
X00738Y00032D02*
X01954D01*
X00756Y0003D02*
X01957D01*
X01316D02*
Y00048D01*
X01196Y0003D02*
Y00048D01*
X012Y0003D02*
Y00048D01*
X01192Y0003D02*
Y00048D01*
X01208Y0003D02*
Y00048D01*
X01212Y0003D02*
Y00048D01*
X01204Y0003D02*
Y00048D01*
X01172Y0003D02*
Y00051D01*
X01176Y0003D02*
Y00049D01*
X01168Y0003D02*
Y00055D01*
X01184Y0003D02*
Y00048D01*
X01188Y0003D02*
Y00048D01*
X0118Y0003D02*
Y00048D01*
X01244Y0003D02*
Y00048D01*
X01248Y0003D02*
Y00048D01*
X0124Y0003D02*
Y00048D01*
X01256Y0003D02*
Y00048D01*
X0126Y0003D02*
Y00048D01*
X01252Y0003D02*
Y00048D01*
X0122Y0003D02*
Y00048D01*
X01224Y0003D02*
Y00048D01*
X01216Y0003D02*
Y00048D01*
X01232Y0003D02*
Y00048D01*
X01236Y0003D02*
Y00048D01*
X01228Y0003D02*
Y00048D01*
X01129Y00392D02*
X01145D01*
X01129Y00388D02*
X01149D01*
X01076Y00396D02*
X01087D01*
X01129D02*
X01141D01*
X01129Y0038D02*
X01157D01*
X01129Y00376D02*
X01161D01*
X01129Y00384D02*
X01153D01*
X01068Y00388D02*
X01087D01*
X01064Y00384D02*
X01087D01*
X01072Y00392D02*
X01087D01*
X01063Y0038D02*
X01087D01*
X01063Y00376D02*
X01087D01*
X01063Y00382D02*
X01087Y00406D01*
X01063Y00344D02*
X01087D01*
X01063Y0034D02*
X01087D01*
X01063Y00348D02*
X01087D01*
X01063Y00332D02*
X01087D01*
X01063Y00328D02*
X01087D01*
X01063Y00336D02*
X01087D01*
X01063Y00368D02*
X01087D01*
X01063Y00364D02*
X01087D01*
X01063Y00372D02*
X01087D01*
X01063Y00356D02*
X01087D01*
X01063Y00352D02*
X01087D01*
X01063Y0036D02*
X01087D01*
X00976Y00396D02*
X01021D01*
X00976Y00392D02*
X01021D01*
X0098Y00348D02*
Y00515D01*
X00984Y00339D02*
Y00515D01*
X00976Y00353D02*
Y00472D01*
Y00384D02*
X01021D01*
X00976Y0038D02*
X01021D01*
X00976Y00388D02*
X01021D01*
X00976Y00372D02*
X01021D01*
X00976Y00368D02*
X01021D01*
X00976Y00376D02*
X01021D01*
X00984Y0034D02*
X01021D01*
X00984Y00336D02*
X01021D01*
X00982Y00344D02*
X01021D01*
X00984Y00328D02*
X01021D01*
X00984Y00324D02*
X01021D01*
X00985Y00332D02*
X01021D01*
X00976Y0036D02*
X01021D01*
X00976Y00356D02*
X01021D01*
X00976Y00364D02*
X01021D01*
X00977Y00352D02*
X01021D01*
X0098Y00348D02*
X01021D01*
X01144Y00162D02*
Y00393D01*
X01148Y00138D02*
Y00389D01*
X01136Y00177D02*
Y00401D01*
X0114Y00172D02*
Y00397D01*
X01156Y00126D02*
Y00381D01*
X0116Y00122D02*
Y00377D01*
X01152Y00131D02*
Y00385D01*
X01129Y00192D02*
Y00408D01*
X01063Y0032D02*
X01087D01*
X01063Y00324D02*
X01087D01*
Y00192D02*
Y00406D01*
X01132Y00182D02*
Y00405D01*
X01084Y00177D02*
Y00403D01*
X01063Y00288D02*
X01087D01*
X01063Y00284D02*
X01087D01*
X01063Y00292D02*
X01087D01*
X01063Y00276D02*
X01087D01*
X01063Y00272D02*
X01087D01*
X01063Y0028D02*
X01087D01*
X01063Y00312D02*
X01087D01*
X01063Y00308D02*
X01087D01*
X01063Y00316D02*
X01087D01*
X01063Y003D02*
X01087D01*
X01063Y00296D02*
X01087D01*
X01063Y00304D02*
X01087D01*
X01016Y00265D02*
Y00515D01*
X0102Y00269D02*
Y00515D01*
X01012Y00261D02*
Y00515D01*
X0108Y00172D02*
Y00399D01*
X01076Y00162D02*
Y00395D01*
X01072Y0003D02*
Y00391D01*
X01004Y00253D02*
Y00515D01*
X01008Y00257D02*
Y00515D01*
X01Y00249D02*
Y00515D01*
X00992Y00241D02*
Y00515D01*
X00996Y00245D02*
Y00515D01*
X00988Y00237D02*
Y00515D01*
X01021Y0027D02*
Y00391D01*
X01063Y00262D02*
Y00382D01*
X00982Y0032D02*
X01021D01*
X01068Y0003D02*
Y00387D01*
X01064Y0003D02*
Y00383D01*
X00984Y00233D02*
Y00324D01*
X00977Y00312D02*
X01021D01*
X00973Y00308D02*
X01021D01*
X0098Y00316D02*
X01021D01*
X0098Y00229D02*
Y00315D01*
X00976Y00225D02*
Y0031D01*
X00972Y00221D02*
Y00306D01*
X00967Y00304D02*
X01021D01*
X00968Y00217D02*
Y00304D01*
X0094Y00193D02*
Y00304D01*
X00964Y00213D02*
Y00302D01*
X00936Y00193D02*
Y00306D01*
X00738Y0038D02*
X00934D01*
X00738Y00384D02*
X00934D01*
X00738Y00304D02*
X0094D01*
X00738Y00308D02*
X00934D01*
X00738Y003D02*
X01021D01*
X00738Y00296D02*
X01021D01*
X0096Y00209D02*
Y00301D01*
X00952Y00201D02*
Y00301D01*
X00956Y00205D02*
Y00301D01*
X00948Y00197D02*
Y00301D01*
X00738Y00288D02*
X01021D01*
X00738Y00284D02*
X01021D01*
X00738Y00292D02*
X01021D01*
X00738Y00276D02*
X01021D01*
X00738Y00272D02*
X01021D01*
X00738Y0028D02*
X01021D01*
X00934Y00355D02*
Y00469D01*
X00738Y00388D02*
X00934D01*
X00738Y00396D02*
X00934D01*
X00738Y00392D02*
X00934D01*
X00928Y00348D02*
Y00475D01*
X00932Y00353D02*
Y00471D01*
X00924Y00339D02*
Y00479D01*
X00738Y00372D02*
X00934D01*
X00738Y00368D02*
X00934D01*
X00738Y00376D02*
X00934D01*
X00738Y0036D02*
X00934D01*
X00738Y00356D02*
X00934D01*
X00738Y00364D02*
X00934D01*
X00738Y00324D02*
X00924D01*
X00738Y0032D02*
X00925D01*
X00738Y00328D02*
X00923D01*
X00738Y00312D02*
X0093D01*
X00932Y00192D02*
Y0031D01*
X00738Y00316D02*
X00927D01*
X00738Y00352D02*
X0093D01*
X00738Y00348D02*
X00927D01*
X00738Y00344D02*
X00925D01*
X00738Y0034D02*
X00924D01*
X00738Y00336D02*
X00923D01*
X00738Y00332D02*
X00923D01*
X00916Y00178D02*
Y00487D01*
X0092Y00183D02*
Y00483D01*
X00912Y00163D02*
Y00491D01*
X00896Y00084D02*
Y0048D01*
X00904Y0003D02*
Y00499D01*
X00908Y0003D02*
Y00495D01*
X009Y00069D02*
Y00496D01*
X00892Y00089D02*
Y00475D01*
X00848Y00091D02*
Y00473D01*
X00844Y00087D02*
Y00476D01*
X00836Y0003D02*
Y00477D01*
X0084Y0008D02*
Y00477D01*
X00832Y0003D02*
Y00477D01*
X00924Y00187D02*
Y00324D01*
X00928Y0019D02*
Y00315D01*
X00876Y00099D02*
Y00465D01*
X00888Y00093D02*
Y00471D01*
X00884Y00096D02*
Y00468D01*
X0088Y00098D02*
Y00467D01*
X00872Y00099D02*
Y00465D01*
X00868Y001D02*
Y00465D01*
X00864Y00099D02*
Y00465D01*
X00856Y00097D02*
Y00467D01*
X0086Y00098D02*
Y00466D01*
X00852Y00094D02*
Y0047D01*
X00764Y0003D02*
Y00513D01*
X00768Y0003D02*
Y00509D01*
X0076Y0003D02*
Y00517D01*
X00776Y0003D02*
Y00501D01*
X0078Y0003D02*
Y00497D01*
X00772Y0003D02*
Y00505D01*
X0074Y0003D02*
Y0077D01*
X00744Y0003D02*
Y0073D01*
X00738Y0003D02*
Y00678D01*
X00752Y0003D02*
Y00709D01*
X00756Y0003D02*
Y00523D01*
X00748Y0003D02*
Y00714D01*
X00812Y0003D02*
Y00477D01*
X00816Y0003D02*
Y00477D01*
X00808Y0003D02*
Y00477D01*
X00824Y0003D02*
Y00477D01*
X00828Y0003D02*
Y00477D01*
X0082Y0003D02*
Y00477D01*
X00788Y0003D02*
Y00489D01*
X00792Y0003D02*
Y00485D01*
X00784Y0003D02*
Y00493D01*
X008Y0003D02*
Y00479D01*
X00804Y0003D02*
Y00477D01*
X00796Y0003D02*
Y00481D01*
X01062Y0026D02*
X01087D01*
X01062Y00256D02*
X01087D01*
X01063Y00268D02*
X01087D01*
X01063Y00264D02*
X01087D01*
X01045Y00236D02*
X01087D01*
X01037Y00228D02*
X01087D01*
X0106Y00252D02*
X01087D01*
X01029Y0022D02*
X01087D01*
X01025Y00216D02*
X01087D01*
X01033Y00224D02*
X01087D01*
X01017Y00208D02*
X01087D01*
X01013Y00204D02*
X01087D01*
X01021Y00212D02*
X01087D01*
X0116Y0003D02*
Y00063D01*
X01164Y0003D02*
Y00059D01*
X01148Y0003D02*
Y00075D01*
X01156Y0003D02*
Y00067D01*
X01144Y0003D02*
Y00079D01*
X01005Y00196D02*
X01087D01*
X01009Y002D02*
X01087D01*
X01103Y00119D02*
X01126Y00096D01*
X01057Y00248D02*
X01087D01*
X01053Y00244D02*
X01087D01*
Y00183D02*
Y00192D01*
X01049Y0024D02*
X01087D01*
X01041Y00232D02*
X01087D01*
X01001Y00192D02*
X01087D01*
X00945Y00195D02*
X01021Y0027D01*
X00997Y00188D02*
X01087D01*
X00993Y00184D02*
X01087D01*
X00975Y00165D02*
X01056Y00247D01*
X00989Y0018D02*
X01086D01*
X00985Y00176D02*
X01082D01*
X00981Y00172D02*
X0108D01*
X00977Y00168D02*
X01077D01*
X00973Y0016D02*
X01075D01*
X00973Y00156D02*
X01075D01*
X0097Y00148D02*
X01075D01*
X00967Y00144D02*
X01076D01*
X00972Y00152D02*
X01075D01*
X00958Y00136D02*
X0108D01*
X00943Y00132D02*
X01082D01*
X00963Y0014D02*
X01077D01*
X0108Y0003D02*
Y00136D01*
X01084Y0003D02*
Y0013D01*
X0106Y0003D02*
Y00251D01*
X01076Y0003D02*
Y00145D01*
X01092Y0003D02*
Y00124D01*
X01096Y0003D02*
Y00121D01*
X01088Y0003D02*
Y00126D01*
X01044Y0003D02*
Y00234D01*
X0104Y0003D02*
Y0023D01*
X01036Y0003D02*
Y00226D01*
X01056Y0003D02*
Y00246D01*
X01052Y0003D02*
Y00242D01*
X01048Y0003D02*
Y00238D01*
X01128Y0003D02*
Y00095D01*
X01132Y0003D02*
Y00091D01*
X01124Y0003D02*
Y00099D01*
X0114Y0003D02*
Y00083D01*
X01152Y0003D02*
Y00071D01*
X01136Y0003D02*
Y00087D01*
X01104Y0003D02*
Y00119D01*
X01108Y0003D02*
Y00115D01*
X011Y0003D02*
Y0012D01*
X01116Y0003D02*
Y00107D01*
X0112Y0003D02*
Y00103D01*
X01112Y0003D02*
Y00111D01*
X0102Y0003D02*
Y0021D01*
X01016Y0003D02*
Y00206D01*
X01012Y0003D02*
Y00202D01*
X01032Y0003D02*
Y00222D01*
X01028Y0003D02*
Y00218D01*
X01024Y0003D02*
Y00214D01*
X00996Y0003D02*
Y00186D01*
X00992Y0003D02*
Y00182D01*
X00988Y0003D02*
Y00178D01*
X01008Y0003D02*
Y00198D01*
X01004Y0003D02*
Y00194D01*
X01Y0003D02*
Y0019D01*
X00972Y0003D02*
Y00152D01*
X00968Y0003D02*
Y00144D01*
X00964Y0003D02*
Y0014D01*
X00984Y0003D02*
Y00174D01*
X0098Y0003D02*
Y0017D01*
X00976Y0003D02*
Y00166D01*
X00948Y0003D02*
Y00132D01*
X00944Y0003D02*
Y00132D01*
X0094Y0003D02*
Y00132D01*
X0096Y0003D02*
Y00137D01*
X00956Y0003D02*
Y00134D01*
X00952Y0003D02*
Y00133D01*
X00738Y00244D02*
X00994D01*
X00738Y0024D02*
X0099D01*
X00738Y00236D02*
X00986D01*
X00738Y00232D02*
X00982D01*
X00738Y00228D02*
X00978D01*
X00738Y00224D02*
X00974D01*
X00738Y0022D02*
X0097D01*
X00738Y00268D02*
X01018D01*
X00738Y00264D02*
X01014D01*
X00738Y0026D02*
X0101D01*
X00738Y00256D02*
X01006D01*
X00738Y00252D02*
X01002D01*
X00738Y00248D02*
X00998D01*
X00738Y0012D02*
X01101D01*
X00869Y001D02*
X01123D01*
X00889Y00092D02*
X01131D01*
X00893Y00088D02*
X01135D01*
X00884Y00096D02*
X01127D01*
X00738Y00124D02*
X01092D01*
X00738Y00116D02*
X01107D01*
X00738Y00128D02*
X01086D01*
X00738Y00108D02*
X01115D01*
X00738Y00104D02*
X01119D01*
X00738Y00112D02*
X01111D01*
X00738Y00192D02*
X00932D01*
X00738Y00188D02*
X00924D01*
X00738Y00184D02*
X0092D01*
X00738Y0018D02*
X00917D01*
X00738Y00176D02*
X00914D01*
X00738Y00172D02*
X00913D01*
X00738Y00168D02*
X00912D01*
X00738Y00216D02*
X00966D01*
X00738Y00212D02*
X00962D01*
X00738Y00208D02*
X00958D01*
X00738Y00204D02*
X00954D01*
X00738Y002D02*
X0095D01*
X00738Y00196D02*
X00946D01*
X00738Y00136D02*
X00927D01*
X00738Y00132D02*
X00943D01*
X00738Y0014D02*
X00922D01*
X00738Y001D02*
X00869D01*
X00738Y00096D02*
X00853D01*
X00738Y00092D02*
X00848D01*
X00738Y0016D02*
X00912D01*
X00738Y00156D02*
X00912D01*
X00738Y00164D02*
X00912D01*
X00738Y00148D02*
X00915D01*
X00738Y00144D02*
X00918D01*
X00738Y00152D02*
X00914D01*
X0092Y0003D02*
Y00142D01*
X00924Y0003D02*
Y00138D01*
X00912Y0003D02*
Y00163D01*
X00916Y0003D02*
Y00147D01*
X00932Y0003D02*
Y00134D01*
X00936Y0003D02*
Y00132D01*
X00928Y0003D02*
Y00135D01*
X00898Y0008D02*
X01143D01*
X00899Y00076D02*
X01147D01*
X00896Y00084D02*
X01139D01*
X00899Y00072D02*
X01151D01*
X00899Y00064D02*
X01159D01*
X00898Y0006D02*
X01163D01*
X009Y00068D02*
X01155D01*
X009Y0003D02*
Y00069D01*
X00896Y0003D02*
Y00053D01*
X00892Y0003D02*
Y00048D01*
X00876Y0003D02*
Y00038D01*
X00888Y0003D02*
Y00044D01*
X00884Y0003D02*
Y00041D01*
X0088Y0003D02*
Y0004D01*
X00738Y00088D02*
X00844D01*
X00738Y00084D02*
X00841D01*
X00738Y0008D02*
X0084D01*
Y0003D02*
Y00058D01*
X00738Y00076D02*
X00838D01*
X00738Y00072D02*
X00838D01*
X00738Y00064D02*
X00838D01*
X00738Y00068D02*
X00838D01*
X00738Y00056D02*
X0084D01*
X00738Y00052D02*
X00843D01*
X00738Y0006D02*
X00839D01*
X00856Y0003D02*
Y0004D01*
X0086Y0003D02*
Y00039D01*
X00852Y0003D02*
Y00043D01*
X00872Y0003D02*
Y00038D01*
X00868Y0003D02*
Y00038D01*
X00864Y0003D02*
Y00038D01*
X00738Y00044D02*
X0085D01*
X00738Y0004D02*
X00858D01*
X00738Y00048D02*
X00846D01*
X00844Y0003D02*
Y0005D01*
X00848Y0003D02*
Y00046D01*
X00738Y0003D02*
X00756D01*
X00594Y0067D02*
Y0077D01*
X0052Y00656D02*
Y0077D01*
X00524Y00649D02*
Y0077D01*
X00512Y00662D02*
Y0077D01*
X00516Y0066D02*
Y0077D01*
X00522Y00652D02*
X00594D01*
X0052Y00656D02*
X00594D01*
X00524Y00648D02*
X00594D01*
X00509Y00664D02*
X00594D01*
X00516Y0066D02*
X00594D01*
X00492Y00665D02*
Y0077D01*
X00488Y00664D02*
Y0077D01*
X00484Y00662D02*
Y0077D01*
X0048Y0066D02*
Y0077D01*
X00476Y00659D02*
Y0077D01*
X00504Y00665D02*
Y0077D01*
X00508Y00664D02*
Y0077D01*
X00496Y00666D02*
Y0077D01*
X005Y00666D02*
Y0077D01*
X00526Y0064D02*
X00594D01*
X00525Y00644D02*
X00594D01*
X00526Y00636D02*
X00594D01*
X00525Y00632D02*
X00594D01*
X00524Y00628D02*
X00594D01*
X0052Y0062D02*
X00594D01*
X00522Y00624D02*
X00594D01*
X00516Y00616D02*
X00594D01*
X00514Y00612D02*
X00594D01*
X0052Y00607D02*
Y00619D01*
X00524Y00601D02*
Y00626D01*
X00516Y0061D02*
Y00615D01*
X0048Y00609D02*
Y00615D01*
X00476Y00609D02*
Y00617D01*
X00468Y00659D02*
Y0077D01*
X00464Y00659D02*
Y0077D01*
X00472Y00659D02*
Y0077D01*
X00448Y00659D02*
Y0077D01*
X0046Y00659D02*
Y0077D01*
X00456Y00659D02*
Y0077D01*
X00452Y00659D02*
Y0077D01*
X00311Y00617D02*
X00478D01*
X00303Y00659D02*
X00478D01*
X00311Y00616D02*
X00479D01*
X00424Y00659D02*
Y0077D01*
X0042Y00659D02*
Y0077D01*
X00428Y00659D02*
Y0077D01*
X00412Y00659D02*
Y0077D01*
X00416Y00659D02*
Y0077D01*
X0044Y00659D02*
Y0077D01*
X00444Y00659D02*
Y0077D01*
X00432Y00659D02*
Y0077D01*
X00436Y00659D02*
Y0077D01*
X00468Y00609D02*
Y00617D01*
X00464Y00609D02*
Y00617D01*
X00472Y00609D02*
Y00617D01*
X0046Y00609D02*
Y00617D01*
X00448Y00608D02*
Y00617D01*
X0045Y00609D02*
X00479D01*
X00452D02*
Y00617D01*
X00456Y00609D02*
Y00617D01*
X0031Y00612D02*
X00483D01*
X00424Y00596D02*
Y00617D01*
X0042Y00596D02*
Y00617D01*
X00428Y00596D02*
Y00617D01*
X00412Y00597D02*
Y00617D01*
X00416Y00596D02*
Y00617D01*
X00444Y00608D02*
Y00617D01*
X0044Y00606D02*
Y00617D01*
X00436Y00603D02*
Y00617D01*
X00432Y00599D02*
Y00617D01*
X00526Y00596D02*
X00594D01*
X00524Y006D02*
X00594D01*
X00527Y00592D02*
X00594D01*
X00519Y00608D02*
X00594D01*
X00522Y00604D02*
X00594D01*
X00527Y00584D02*
X00594D01*
X00527Y00588D02*
X00594D01*
X00526Y0058D02*
X00594D01*
X00524Y00576D02*
X00594D01*
X00522Y00572D02*
X00594D01*
X00519Y00568D02*
X00594D01*
X00468Y00562D02*
Y00567D01*
X00458D02*
X00476D01*
X00464Y00558D02*
Y00567D01*
X00514Y00564D02*
X00594D01*
X00512Y00556D02*
X00594D01*
X00508Y0056D02*
X00594D01*
X00512Y00556D02*
Y00562D01*
X00517Y0054D02*
X00594D01*
X00517Y00544D02*
X00594D01*
X00517Y00536D02*
X00594D01*
X00514Y00552D02*
X00594D01*
X00516Y00548D02*
X00594D01*
X00516Y00528D02*
X00594D01*
X00517Y00532D02*
X00594D01*
X00514Y00524D02*
X00594D01*
X00512Y0052D02*
X00594D01*
X00494Y00508D02*
X00594D01*
X00516Y00549D02*
Y00565D01*
X0046Y00553D02*
Y00567D01*
X00456Y00538D02*
Y00564D01*
X00508Y00516D02*
X00594D01*
X00503Y00512D02*
X00594D01*
X00455Y00564D02*
X0047D01*
X00451Y0056D02*
X00458Y00567D01*
X00451Y0056D02*
X00465D01*
X00445Y00556D02*
X00461D01*
X0041Y00552D02*
X00459D01*
X00403Y00548D02*
X00457D01*
X00386Y00544D02*
X00456D01*
X00428Y00596D02*
X00435Y00602D01*
X00407Y006D02*
X00432D01*
X00309Y00608D02*
X00443D01*
X00307Y00604D02*
X00436D01*
X00413Y00596D02*
X00428D01*
X00413D02*
X00428D01*
X00413Y00554D02*
X00437D01*
X00404Y00504D02*
X00594D01*
X00402Y005D02*
X00594D01*
X00399Y00496D02*
X00594D01*
X00396Y00488D02*
X00594D01*
X00396Y00476D02*
X00594D01*
X00396Y00472D02*
X00594D01*
X00396Y00484D02*
X00594D01*
X00396Y0048D02*
X00594D01*
X00403Y00528D02*
X00457D01*
X004Y00532D02*
X00456D01*
X00404Y00524D02*
X00459D01*
X00393Y0054D02*
X00456D01*
X00397Y00536D02*
X00456D01*
X00406Y00516D02*
X00465D01*
X00405Y00512D02*
X0047D01*
X00405Y0052D02*
X00461D01*
X00405Y00508D02*
X00479D01*
X00384Y00659D02*
Y0077D01*
X0038Y00659D02*
Y0077D01*
X00388Y00659D02*
Y0077D01*
X00372Y00659D02*
Y0077D01*
X00376Y00659D02*
Y0077D01*
X00404Y00659D02*
Y0077D01*
X004Y00659D02*
Y0077D01*
X00408Y00659D02*
Y0077D01*
X00392Y00659D02*
Y0077D01*
X00396Y00659D02*
Y0077D01*
X00348Y00659D02*
Y0077D01*
X00344Y00659D02*
Y0077D01*
X00352Y00659D02*
Y0077D01*
X00336Y00659D02*
Y0077D01*
X0034Y00659D02*
Y0077D01*
X00364Y00659D02*
Y0077D01*
X00368Y00659D02*
Y0077D01*
X00356Y00659D02*
Y0077D01*
X0036Y00659D02*
Y0077D01*
X00388Y00602D02*
Y00617D01*
X00384Y00601D02*
Y00617D01*
X0038Y00599D02*
Y00617D01*
X00376Y00597D02*
Y00617D01*
X00372Y00596D02*
Y00617D01*
X00404Y00601D02*
Y00617D01*
X004Y00602D02*
Y00617D01*
X00408Y00599D02*
Y00617D01*
X00392Y00603D02*
Y00617D01*
X00396Y00603D02*
Y00617D01*
X00352Y00596D02*
Y00617D01*
X00348Y00596D02*
Y00617D01*
X00344Y00595D02*
Y00617D01*
X0034Y00594D02*
Y00617D01*
X00336Y00592D02*
Y00617D01*
X00364Y00596D02*
Y00617D01*
X00368Y00596D02*
Y00617D01*
X00356Y00596D02*
Y00617D01*
X0036Y00596D02*
Y00617D01*
X00328Y00659D02*
Y0077D01*
X00324Y00659D02*
Y0077D01*
X00332Y00659D02*
Y0077D01*
X00316Y00659D02*
Y0077D01*
X0032Y00659D02*
Y0077D01*
X00308Y00659D02*
Y0077D01*
X00304Y00659D02*
Y0077D01*
X00312Y00659D02*
Y0077D01*
X003Y00658D02*
Y0077D01*
X00296Y00657D02*
Y0077D01*
X00292Y00655D02*
Y0077D01*
X00288Y00652D02*
Y0077D01*
X00276Y00645D02*
Y0077D01*
X00284Y00648D02*
Y0077D01*
X00281Y00646D02*
X00288Y00652D01*
X0028Y00646D02*
Y0077D01*
X00272Y00644D02*
Y0077D01*
X00328Y00584D02*
Y00617D01*
X00268Y00642D02*
Y0077D01*
X00324Y0058D02*
Y00617D01*
X00264Y00639D02*
Y0077D01*
X00332Y00588D02*
Y00617D01*
X0032Y00576D02*
Y00617D01*
X00316Y00572D02*
Y00617D01*
X00312Y00568D02*
Y00617D01*
X0026Y00634D02*
Y0077D01*
X00256Y00627D02*
Y0077D01*
X00252Y00616D02*
Y0077D01*
X00248Y00612D02*
Y0077D01*
X0024Y00604D02*
Y0077D01*
X00244Y00608D02*
Y0077D01*
X00241Y00605D02*
X00254Y00619D01*
X00236Y00597D02*
Y0077D01*
X00354Y00552D02*
X00377D01*
X00356Y00554D02*
X00374D01*
X00376Y00546D02*
Y00552D01*
X00348Y00596D02*
X00374D01*
X00348D02*
X00374D01*
X00388Y00543D02*
Y00547D01*
X00384Y00544D02*
Y00548D01*
X00392Y0054D02*
Y00546D01*
X0035Y00548D02*
X00384D01*
X0038Y00545D02*
Y0055D01*
X00372Y00545D02*
Y00554D01*
X00368Y00545D02*
Y00554D01*
X00364Y00544D02*
Y00554D01*
X0036Y00542D02*
Y00554D01*
X00356Y00539D02*
Y00553D01*
X00346Y00544D02*
X00364D01*
X00342Y0054D02*
X00356D01*
X004Y00533D02*
Y00547D01*
X00396Y00537D02*
Y00546D01*
X00404Y00526D02*
Y00548D01*
X00352Y00535D02*
Y00549D01*
X00338Y00536D02*
X00352D01*
X00334Y00532D02*
X00349D01*
X00317Y00496D02*
X0035D01*
X00317Y00488D02*
X00354D01*
X00348Y0053D02*
Y00545D01*
X0033Y00528D02*
X00346D01*
X00344Y00515D02*
Y00541D01*
X00326Y00524D02*
X00345D01*
X00322Y0052D02*
X00344D01*
X00318Y00516D02*
X00344D01*
X00317Y00512D02*
X00344D01*
X00317Y00504D02*
X00346D01*
X00317Y005D02*
X00347D01*
X00305Y006D02*
X0038D01*
X00301Y00596D02*
X00348D01*
X00308Y00564D02*
Y00604D01*
X00294Y00592D02*
X00335D01*
X00282Y00588D02*
X00331D01*
X00278Y00584D02*
X00327D01*
X00277Y0058D02*
X00323D01*
X00277Y00576D02*
X00319D01*
X00277Y00572D02*
X00315D01*
X00277Y00568D02*
X00311D01*
X00304Y0056D02*
Y00598D01*
X003Y00556D02*
Y00595D01*
X00296Y00552D02*
Y00592D01*
X00277Y00582D02*
X00284Y00589D01*
X00277Y00556D02*
X00299D01*
X00277Y00552D02*
X00295D01*
X00277Y00564D02*
X00307D01*
X00277Y0056D02*
X00303D01*
X00317Y00514D02*
X00356Y00554D01*
X00317Y00508D02*
X00344D01*
X00317Y00484D02*
X00354D01*
X00292Y00548D02*
Y00591D01*
X00281Y00537D02*
X00333Y00589D01*
X00317Y00472D02*
X00354D01*
X00317Y00468D02*
X00354D01*
X00317Y0048D02*
X00354D01*
X00317Y00476D02*
X00354D01*
X00288Y00544D02*
Y00589D01*
X00284Y0054D02*
Y00589D01*
X0028Y00536D02*
Y00585D01*
X00277Y00548D02*
X00291D01*
X00277Y00531D02*
Y00582D01*
Y00544D02*
X00287D01*
X00277Y0054D02*
X00283D01*
X00568Y00431D02*
Y0077D01*
X00564Y00435D02*
Y0077D01*
X00572Y00426D02*
Y0077D01*
X00553Y0044D02*
X00594D01*
X0056Y00437D02*
Y0077D01*
X00573Y00424D02*
X00594D01*
X00571Y00428D02*
X00594D01*
X00575Y0042D02*
X00594D01*
X00562Y00436D02*
X00594D01*
X00567Y00432D02*
X00594D01*
X00552Y0044D02*
Y0077D01*
X00548Y0044D02*
Y0077D01*
X00556Y00439D02*
Y0077D01*
X00544Y0044D02*
Y0077D01*
X0054Y0044D02*
Y0077D01*
X00536Y00439D02*
Y0077D01*
X00532Y00437D02*
Y0077D01*
X00528Y00435D02*
Y0077D01*
X00524Y00431D02*
Y00574D01*
X00592Y0003D02*
Y0077D01*
X00588Y0003D02*
Y0077D01*
X00594Y0003D02*
Y0067D01*
X00576Y00416D02*
X00594D01*
X00576Y00412D02*
X00594D01*
X00576Y00404D02*
X00594D01*
X00576Y00408D02*
X00594D01*
X00575Y004D02*
X00594D01*
X00573Y00396D02*
X00594D01*
X00571Y00392D02*
X00594D01*
X0058Y0003D02*
Y0077D01*
X00576Y00417D02*
Y0077D01*
X00584Y0003D02*
Y0077D01*
X00572Y0003D02*
Y00393D01*
X00576Y0003D02*
Y00402D01*
X0052Y0003D02*
Y00393D01*
X00396Y00456D02*
X00594D01*
X00396Y0046D02*
X00594D01*
X00396Y00452D02*
X00594D01*
X00396Y00468D02*
X00594D01*
X00396Y00464D02*
X00594D01*
X00396Y0044D02*
X00538D01*
X00396Y00436D02*
X00529D01*
X00396Y00448D02*
X00594D01*
X00396Y00444D02*
X00594D01*
X00396Y00432D02*
X00524D01*
X0052Y00426D02*
Y00568D01*
X00516Y00417D02*
Y00527D01*
X00396Y00428D02*
X0052D01*
X00396Y00424D02*
X00518D01*
X00396Y00412D02*
X00515D01*
X00396Y00408D02*
X00515D01*
X00396Y0042D02*
X00516D01*
X00396Y00416D02*
X00515D01*
X00512Y0003D02*
Y00519D01*
X00508Y0003D02*
Y00515D01*
X005Y0003D02*
Y00509D01*
X00504Y0003D02*
Y00512D01*
X00396Y004D02*
X00516D01*
X00396Y00404D02*
X00515D01*
X00516Y0003D02*
Y00402D01*
X00396Y00396D02*
X00518D01*
X00396Y00392D02*
X0052D01*
X00476Y00094D02*
Y00509D01*
X00472Y00096D02*
Y0051D01*
X00496Y0003D02*
Y00508D01*
X00464Y00098D02*
Y00517D01*
X00468Y00097D02*
Y00513D01*
X00488Y00081D02*
Y00507D01*
X00492Y0003D02*
Y00507D01*
X0048Y00091D02*
Y00507D01*
X00484Y00087D02*
Y00507D01*
X00562Y00384D02*
X00594D01*
X00567Y00388D02*
X00594D01*
X00553Y0038D02*
X00594D01*
X00473Y00096D02*
X00594D01*
X00479Y00092D02*
X00594D01*
X0049Y00076D02*
X00594D01*
X00488Y0008D02*
X00594D01*
X0049Y00072D02*
X00594D01*
X00483Y00088D02*
X00594D01*
X00486Y00084D02*
X00594D01*
X0049Y00064D02*
X00594D01*
X00491Y00068D02*
X00594D01*
X0049Y0006D02*
X00594D01*
X00488Y00056D02*
X00594D01*
X00486Y00052D02*
X00594D01*
X00483Y00048D02*
X00594D01*
X00479Y00044D02*
X00594D01*
X00473Y0004D02*
X00594D01*
X00564Y0003D02*
Y00384D01*
X0056Y0003D02*
Y00382D01*
X00568Y0003D02*
Y00388D01*
X00532Y0003D02*
Y00382D01*
X00556Y0003D02*
Y0038D01*
X00548Y0003D02*
Y00379D01*
X00544Y0003D02*
Y00379D01*
X00552Y0003D02*
Y00379D01*
X00536Y0003D02*
Y0038D01*
X0054Y0003D02*
Y00379D01*
X00524Y0003D02*
Y00388D01*
X00488Y0003D02*
Y00054D01*
X00528Y0003D02*
Y00384D01*
X0048Y0003D02*
Y00044D01*
X00484Y0003D02*
Y00048D01*
X00472Y0003D02*
Y00039D01*
X00476Y0003D02*
Y00041D01*
X00464Y0003D02*
Y00037D01*
X00468Y0003D02*
Y00038D01*
X00405Y00336D02*
X00594D01*
X00404Y0034D02*
X00594D01*
X00405Y00332D02*
X00594D01*
X004Y00348D02*
X00594D01*
X00402Y00344D02*
X00594D01*
X00405Y00324D02*
X00594D01*
X00405Y00328D02*
X00594D01*
X00404Y0032D02*
X00594D01*
X00402Y00316D02*
X00594D01*
X004Y00312D02*
X00594D01*
X00396Y00376D02*
X00594D01*
X00396Y0038D02*
X00538D01*
X00396Y00372D02*
X00594D01*
X00396Y00388D02*
X00524D01*
X00396Y00384D02*
X00529D01*
X00396Y0036D02*
X00594D01*
X00396Y00356D02*
X00594D01*
X00396Y00368D02*
X00594D01*
X00396Y00364D02*
X00594D01*
X00391Y00304D02*
X00594D01*
X00396Y00308D02*
X00594D01*
X00382Y003D02*
X00594D01*
X00261Y00296D02*
X00594D01*
X00257Y00292D02*
X00594D01*
X00253Y00288D02*
X00594D01*
X00249Y00284D02*
X00594D01*
X00245Y0028D02*
X00594D01*
X00241Y00276D02*
X00594D01*
X00234Y00268D02*
X00594D01*
X00237Y00272D02*
X00594D01*
X00232Y00264D02*
X00594D01*
X00231Y0026D02*
X00594D01*
X00432Y0003D02*
X00594D01*
X00404Y00341D02*
Y00504D01*
X004Y00348D02*
Y00496D01*
X0046Y00099D02*
Y00522D01*
X00317Y00464D02*
X00354D01*
X00396Y00354D02*
Y0049D01*
X00317Y00444D02*
X00354D01*
X00317Y00448D02*
X00354D01*
X00317Y0044D02*
X00354D01*
X00317Y0046D02*
X00354D01*
X00317Y00452D02*
X00354D01*
Y00354D02*
Y0049D01*
X00352Y0035D02*
Y00494D01*
X00348Y00345D02*
Y00499D01*
X00317Y0036D02*
Y00514D01*
X00344Y0033D02*
Y00515D01*
X00317Y00432D02*
X00354D01*
X00317Y004D02*
X00354D01*
X00317Y00456D02*
X00354D01*
X00317Y00436D02*
X00354D01*
X00452Y00097D02*
Y0056D01*
X00448Y00096D02*
Y00557D01*
X00444Y00094D02*
Y00555D01*
X0044Y00091D02*
Y00554D01*
X00424Y0003D02*
Y00554D01*
X00456Y00098D02*
Y00538D01*
X00436Y00087D02*
Y00554D01*
X00432Y00081D02*
Y00554D01*
X0042Y0003D02*
Y00554D01*
X00428Y0003D02*
Y00554D01*
X00412Y0003D02*
Y00552D01*
X00408Y0003D02*
Y0055D01*
X00416Y0003D02*
Y00554D01*
X00336Y0003D02*
Y00533D01*
X0034Y0003D02*
Y00537D01*
X00328Y0003D02*
Y00525D01*
X00332Y0003D02*
Y00529D01*
X0032Y0003D02*
Y00517D01*
X00324Y0003D02*
Y00521D01*
X00317Y00416D02*
X00354D01*
X00317Y0042D02*
X00354D01*
X00317Y00412D02*
X00354D01*
X00317Y00428D02*
X00354D01*
X00317Y00424D02*
X00354D01*
X00317Y00392D02*
X00354D01*
X00317Y00396D02*
X00354D01*
X00317Y00388D02*
X00354D01*
X00317Y00408D02*
X00354D01*
X00317Y00404D02*
X00354D01*
X00269D02*
X00275D01*
X00235Y00428D02*
Y00591D01*
X00232Y00425D02*
Y0077D01*
X00265Y004D02*
X00275D01*
X00261Y00396D02*
X00275D01*
X00257Y00392D02*
X00275D01*
X00253Y00388D02*
X00275D01*
X00317Y00384D02*
X00354D01*
X00275Y00368D02*
Y00411D01*
X00272Y00365D02*
Y00406D01*
X00249Y00384D02*
X00275D01*
X00241Y00376D02*
X0027Y00405D01*
X00317Y0038D02*
X00354D01*
X00245D02*
X00275D01*
X00317Y00376D02*
X00354D01*
X00241D02*
X00275D01*
X00237Y00372D02*
X00275D01*
X00268Y00361D02*
Y00402D01*
X00264Y00357D02*
Y00398D01*
X0026Y00353D02*
Y00394D01*
X00256Y00349D02*
Y0039D01*
X00252Y00345D02*
Y00386D01*
X00248Y00341D02*
Y00382D01*
X00244Y00337D02*
Y00378D01*
X00239Y00373D02*
X00241Y00375D01*
X0024Y00333D02*
Y00374D01*
X004Y0003D02*
Y00311D01*
X00404Y0003D02*
Y00319D01*
X00396Y0003D02*
Y00307D01*
X00452Y0003D02*
Y00038D01*
X00432Y0003D02*
Y00054D01*
X00456Y0003D02*
Y00037D01*
X00388Y0003D02*
Y00301D01*
X00392Y0003D02*
Y00304D01*
X00317Y00368D02*
X00354D01*
X00317Y00372D02*
X00354D01*
X00317Y00364D02*
X00354D01*
X00317Y0036D02*
X00354D01*
X00316Y00356D02*
X00354D01*
X00313Y00348D02*
X00349D01*
X00309Y00344D02*
X00347D01*
X0038Y0003D02*
Y00299D01*
X00376Y0003D02*
Y00299D01*
X00384Y0003D02*
Y003D01*
X00368Y0003D02*
Y00299D01*
X00372Y0003D02*
Y00299D01*
X00448Y0003D02*
Y00039D01*
X00444Y0003D02*
Y00041D01*
X0046Y0003D02*
Y00037D01*
X00436Y0003D02*
Y00048D01*
X0044Y0003D02*
Y00044D01*
X00344Y0003D02*
Y0033D01*
X00316Y0003D02*
Y00353D01*
X00348Y0003D02*
Y00314D01*
X00308Y0003D02*
Y00342D01*
X00312Y0003D02*
Y00346D01*
X0036Y0003D02*
Y00302D01*
X00364Y0003D02*
Y00301D01*
X00352Y0003D02*
Y00309D01*
X00356Y0003D02*
Y00305D01*
X00305Y0034D02*
X00345D01*
X00301Y00336D02*
X00344D01*
X00293Y00328D02*
X00344D01*
X00289Y00324D02*
X00344D01*
X00285Y0032D02*
X00345D01*
X00277Y00312D02*
X00349D01*
X00281Y00316D02*
X00347D01*
X00273Y00308D02*
X00353D01*
X00269Y00304D02*
X00358D01*
X00265Y003D02*
X00367D01*
X00234Y00368D02*
X00274D01*
X00232Y00364D02*
X0027D01*
X00236Y00329D02*
Y00369D01*
X00231Y0036D02*
X00266D01*
X00232Y00325D02*
Y00362D01*
X00297Y00332D02*
X00344D01*
X00292Y0003D02*
Y00326D01*
X00241Y00276D02*
X0031Y00345D01*
X00239Y00273D02*
X00241Y00275D01*
X003Y0003D02*
Y00334D01*
X00296Y0003D02*
Y0033D01*
X00304Y0003D02*
Y00338D01*
X00284Y0003D02*
Y00318D01*
X00288Y0003D02*
Y00322D01*
X00276Y0003D02*
Y0031D01*
X0028Y0003D02*
Y00314D01*
X00268Y0003D02*
Y00302D01*
X00272Y0003D02*
Y00306D01*
X0026Y0003D02*
Y00294D01*
X00256Y0003D02*
Y0029D01*
X00264Y0003D02*
Y00298D01*
X00248Y0003D02*
Y00282D01*
X00252Y0003D02*
Y00286D01*
X0024Y0003D02*
Y00274D01*
X00244Y0003D02*
Y00278D01*
X00232Y0003D02*
Y00262D01*
X00236Y0003D02*
Y00269D01*
X00113Y0077D02*
X00594D01*
X002Y00591D02*
Y0077D01*
X00204Y0059D02*
Y0077D01*
X00084Y0076D02*
X00594D01*
X00085Y00756D02*
X00594D01*
X00085Y00748D02*
X00594D01*
X00085Y00752D02*
X00594D01*
X00199Y00592D02*
X00235D01*
X00085Y00744D02*
X00594D01*
X00084Y0074D02*
X00594D01*
X00192Y00593D02*
Y0077D01*
X00188Y00594D02*
Y0077D01*
X00196Y00593D02*
Y0077D01*
X00184Y00594D02*
Y0077D01*
X0018Y00594D02*
Y0077D01*
X00176Y00593D02*
Y0077D01*
X00172Y00592D02*
Y0077D01*
X00099Y00592D02*
X0017D01*
X00168Y00591D02*
Y0077D01*
X00221Y00576D02*
X00235D01*
X00217Y0058D02*
X00235D01*
X00223Y00572D02*
X00235D01*
X00208Y00588D02*
X00235D01*
X00213Y00584D02*
X00235D01*
X00229Y00552D02*
X00235D01*
X00229Y00556D02*
X00235D01*
X00229Y00548D02*
X00235D01*
X00225Y00568D02*
X00235D01*
X00227Y00564D02*
X00235D01*
X00216Y00581D02*
Y0077D01*
X00212Y00585D02*
Y0077D01*
X0022Y00577D02*
Y0077D01*
X00164Y00589D02*
Y0077D01*
X00208Y00588D02*
Y0077D01*
X00228Y00561D02*
Y0077D01*
X00228Y0056D02*
X00235D01*
X00224Y00571D02*
Y0077D01*
X00029Y00696D02*
X00594D01*
X00029Y007D02*
X00594D01*
X00029Y00692D02*
X00594D01*
X00029Y00708D02*
X00594D01*
X00029Y00704D02*
X00594D01*
X00029Y00676D02*
X00594D01*
X00029Y0068D02*
X00594D01*
X00029Y00672D02*
X00594D01*
X00029Y00688D02*
X00594D01*
X00029Y00684D02*
X00594D01*
X00083Y00764D02*
X00594D01*
X00081Y00768D02*
X00594D01*
X00083Y00736D02*
X00594D01*
X00081Y00732D02*
X00594D01*
X00078Y00728D02*
X00594D01*
X00074Y00724D02*
X00594D01*
X00069Y0072D02*
X00594D01*
X00061Y00716D02*
X00594D01*
X00029Y00712D02*
X00594D01*
X00029Y0066D02*
X00479D01*
X00029Y00656D02*
X00292D01*
X00029Y00652D02*
X00287D01*
X00029Y00668D02*
X00594D01*
X00029Y00664D02*
X00486D01*
X00029Y0064D02*
X00264D01*
X00029Y00636D02*
X0026D01*
X00029Y00632D02*
X00258D01*
X00029Y00648D02*
X00283D01*
X00029Y00644D02*
X00271D01*
X00029Y0062D02*
X00254D01*
X00029Y00616D02*
X00251D01*
X00029Y00612D02*
X00247D01*
X00029Y00628D02*
X00256D01*
X00029Y00624D02*
X00255D01*
X00029Y006D02*
X00237D01*
X00029Y00596D02*
X00235D01*
X00029Y00608D02*
X00243D01*
X00029Y00604D02*
X00239D01*
X00228Y0054D02*
X00235D01*
X00229Y00544D02*
X00235D01*
X00227Y00536D02*
X00235D01*
X00225Y00532D02*
X00235D01*
X00223Y00528D02*
X00235D01*
X00217Y0052D02*
X00235D01*
X00221Y00524D02*
X00235D01*
X00223Y00472D02*
X00235D01*
X00213Y00516D02*
X00235D01*
X00208Y00512D02*
X00235D01*
X0022Y00477D02*
Y00522D01*
X00216Y00481D02*
Y00518D01*
X00224Y00471D02*
Y00528D01*
X00212Y00485D02*
Y00514D01*
X00213Y00484D02*
X00235D01*
X00225Y00468D02*
X00235D01*
X00227Y00464D02*
X00235D01*
X00217Y0048D02*
X00235D01*
X00221Y00476D02*
X00235D01*
X00229Y00452D02*
X00235D01*
X00229Y00456D02*
X00235D01*
X00229Y00448D02*
X00235D01*
X00228Y0046D02*
X00235D01*
X00229Y00444D02*
X00235D01*
X00227Y00436D02*
X00235D01*
X00228Y0044D02*
X00235D01*
X00225Y00432D02*
X00235D01*
X00223Y00428D02*
X00234D01*
X00212Y00405D02*
X00235Y00428D01*
X00228Y00421D02*
Y00438D01*
Y00461D02*
Y00538D01*
X00224Y00417D02*
Y00428D01*
X00221Y00424D02*
X0023D01*
X0022Y00413D02*
Y00422D01*
X00217Y0042D02*
X00226D01*
X00216Y00409D02*
Y00418D01*
X00213Y00416D02*
X00222D01*
X00212Y00405D02*
Y00414D01*
X00204Y0049D02*
Y00509D01*
X002Y00491D02*
Y00508D01*
X00208Y00488D02*
Y00511D01*
X00199Y00508D02*
X00235D01*
X00196Y00493D02*
Y00506D01*
X00199Y00492D02*
X00235D01*
X00029Y00496D02*
X00235D01*
X00208Y00488D02*
X00235D01*
X00029Y00504D02*
X00235D01*
X00029Y005D02*
X00235D01*
X00192Y00493D02*
Y00506D01*
X00176Y00493D02*
Y00506D01*
X00172Y00492D02*
Y00507D01*
X00099Y00508D02*
X0017D01*
X00168Y00491D02*
Y00508D01*
X00184Y00494D02*
Y00505D01*
X00188Y00494D02*
Y00505D01*
X0018Y00494D02*
Y00505D01*
X00099Y00492D02*
X0017D01*
X00208Y00412D02*
X00218D01*
X00208Y00402D02*
Y00411D01*
X00204Y00399D02*
Y00409D01*
X00199Y00408D02*
X00214D01*
X00029Y00404D02*
X0021D01*
X00029Y004D02*
X00204D01*
X002Y00397D02*
Y00408D01*
X00099Y00408D02*
X0017D01*
X00196Y00396D02*
Y00406D01*
X00192Y00395D02*
Y00406D01*
X00029Y00396D02*
X00195D01*
X00188Y00394D02*
Y00405D01*
X0016Y00586D02*
Y0077D01*
X00156Y00583D02*
Y0077D01*
X00152Y00579D02*
Y0077D01*
X00148Y00574D02*
Y0077D01*
X00124Y00571D02*
Y0077D01*
X00117Y0058D02*
X00152D01*
X00121Y00576D02*
X00148D01*
X00123Y00572D02*
X00146D01*
X00108Y00588D02*
X00161D01*
X00113Y00584D02*
X00156D01*
X001Y00591D02*
Y0077D01*
X00096Y00593D02*
Y0077D01*
X00104Y0059D02*
Y0077D01*
X00088Y00594D02*
Y0077D01*
X00092Y00593D02*
Y0077D01*
X00116Y00581D02*
Y0077D01*
X0012Y00577D02*
Y0077D01*
X00108Y00588D02*
Y0077D01*
X00112Y00585D02*
Y0077D01*
X00144Y00567D02*
Y0077D01*
X00127Y00564D02*
X00142D01*
X00128Y0056D02*
X00141D01*
X00125Y00568D02*
X00144D01*
X00127Y00536D02*
X00142D01*
X00148Y00474D02*
Y00525D01*
X00125Y00532D02*
X00144D01*
X00144Y00467D02*
Y00532D01*
X00123Y00528D02*
X00146D01*
X00121Y00524D02*
X00148D01*
X00129Y00556D02*
X0014D01*
X00129Y00552D02*
X0014D01*
X00129Y00548D02*
X0014D01*
X00128Y00561D02*
Y0077D01*
X00129Y00544D02*
X0014D01*
X00128Y0054D02*
X00141D01*
X00128Y00461D02*
Y00538D01*
X0012Y00477D02*
Y00522D01*
X00124Y00471D02*
Y00528D01*
X00084Y00761D02*
Y0077D01*
Y00594D02*
Y00738D01*
X00079Y0077D02*
X00113D01*
X0008Y00594D02*
Y0073D01*
X00076Y00593D02*
Y00725D01*
X00072Y00592D02*
Y00721D01*
X00029Y00592D02*
X0007D01*
X00068Y00591D02*
Y00718D01*
X00064Y00589D02*
Y00716D01*
X0006Y00586D02*
Y00715D01*
X00056Y00583D02*
Y00714D01*
X00029Y00716D02*
X00038D01*
X00029Y00661D02*
Y0072D01*
Y00588D02*
X00061D01*
X00052Y00579D02*
Y00714D01*
X00029Y00584D02*
X00056D01*
X00029Y0058D02*
X00052D01*
X00029Y00576D02*
X00048D01*
X00048Y00574D02*
Y00714D01*
X00029Y00572D02*
X00046D01*
X00029Y00568D02*
X00044D01*
X00048Y00474D02*
Y00525D01*
X00029Y00532D02*
X00044D01*
X00044Y00467D02*
Y00532D01*
X00029Y00528D02*
X00046D01*
X00029Y00524D02*
X00048D01*
X00044Y00567D02*
Y00714D01*
X00029Y00564D02*
X00042D01*
X00029Y0056D02*
X00041D01*
X00029Y00556D02*
X0004D01*
X00029Y00552D02*
X0004D01*
X00029Y0054D02*
X00041D01*
X00029Y00536D02*
X00042D01*
X00029Y00548D02*
X0004D01*
X00029Y00544D02*
X0004D01*
X0016Y00486D02*
Y00513D01*
X00156Y00483D02*
Y00516D01*
X00152Y00479D02*
Y0052D01*
X00117Y0052D02*
X00152D01*
X00113Y00516D02*
X00156D01*
X00164Y00489D02*
Y0051D01*
X00113Y00484D02*
X00156D01*
X00117Y0048D02*
X00152D01*
X00108Y00512D02*
X00161D01*
X00108Y00488D02*
X00161D01*
X00112Y00485D02*
Y00514D01*
X00108Y00488D02*
Y00511D01*
X00116Y00481D02*
Y00518D01*
X001Y00491D02*
Y00508D01*
X00104Y0049D02*
Y00509D01*
X00092Y00493D02*
Y00506D01*
X00096Y00493D02*
Y00506D01*
X00084Y00494D02*
Y00505D01*
X00088Y00494D02*
Y00505D01*
X00125Y00468D02*
X00144D01*
X00127Y00464D02*
X00142D01*
X00125Y00432D02*
X00144D01*
X00121Y00476D02*
X00148D01*
X00123Y00472D02*
X00146D01*
X00121Y00424D02*
X00148D01*
X00123Y00428D02*
X00146D01*
X00117Y0042D02*
X00152D01*
X00113Y00416D02*
X00156D01*
X00108Y00412D02*
X00161D01*
X00128Y0046D02*
X00141D01*
X00129Y00456D02*
X0014D01*
X00129Y00452D02*
X0014D01*
X00129Y00448D02*
X0014D01*
X00129Y00444D02*
X0014D01*
X00128Y0044D02*
X00141D01*
X00127Y00436D02*
X00142D01*
X00068Y00491D02*
Y00508D01*
X00064Y00489D02*
Y0051D01*
X0006Y00486D02*
Y00513D01*
X00029Y00512D02*
X00061D01*
X00029Y00508D02*
X0007D01*
X0008Y00494D02*
Y00505D01*
X00076Y00493D02*
Y00506D01*
X00072Y00492D02*
Y00507D01*
X00029Y00492D02*
X0007D01*
X00029Y00488D02*
X00061D01*
X00056Y00483D02*
Y00516D01*
X00029Y0052D02*
X00052D01*
X00052Y00479D02*
Y0052D01*
X00029Y00516D02*
X00056D01*
X00029Y00484D02*
X00056D01*
X00029Y00472D02*
X00046D01*
X00029Y00468D02*
X00044D01*
X00029Y0048D02*
X00052D01*
X00029Y00476D02*
X00048D01*
X00029Y00428D02*
X00046D01*
X00029Y00424D02*
X00048D01*
X00029Y00412D02*
X00061D01*
X00029Y00408D02*
X0007D01*
X00029Y0042D02*
X00052D01*
X00029Y00416D02*
X00056D01*
X00029Y00456D02*
X0004D01*
X00029Y00452D02*
X0004D01*
X00029Y00448D02*
X0004D01*
X00029Y00464D02*
X00042D01*
X00029Y0046D02*
X00041D01*
X00029Y00436D02*
X00042D01*
X00029Y00432D02*
X00044D01*
X00029Y00444D02*
X0004D01*
X00029Y0044D02*
X00041D01*
X0023Y00356D02*
X00262D01*
X00229Y00352D02*
X00258D01*
X00229Y00348D02*
X00254D01*
X00229Y00344D02*
X0025D01*
X00228Y0034D02*
X00246D01*
X00227Y00336D02*
X00242D01*
X00225Y00332D02*
X00238D01*
X00223Y00328D02*
X00234D01*
X00221Y00324D02*
X0023D01*
X00228Y00321D02*
Y00338D01*
X00224Y00317D02*
Y00328D01*
X0022Y00313D02*
Y00322D01*
X00184Y00394D02*
Y00405D01*
X00217Y0032D02*
X00226D01*
X00213Y00316D02*
X00222D01*
X00216Y00309D02*
Y00318D01*
X00208Y00312D02*
X00218D01*
X00199Y00308D02*
X00214D01*
X00229Y00252D02*
X00594D01*
X0023Y00256D02*
X00594D01*
X00212Y00305D02*
X00275Y00368D01*
X00229Y00248D02*
X00594D01*
X00228Y0024D02*
X00594D01*
X00229Y00244D02*
X00594D01*
X00228Y0003D02*
Y00238D01*
X00227Y00236D02*
X00594D01*
X00225Y00232D02*
X00594D01*
X00212Y00305D02*
Y00314D01*
X00208Y00302D02*
Y00311D01*
X00204Y00299D02*
Y00309D01*
X002Y00297D02*
Y00308D01*
X00196Y00296D02*
Y00306D01*
X00192Y00295D02*
Y00306D01*
X00188Y00294D02*
Y00305D01*
X00184Y00294D02*
Y00305D01*
X0018Y00394D02*
Y00405D01*
X00176Y00393D02*
Y00406D01*
X00172Y00392D02*
Y00407D01*
X00168Y00391D02*
Y00408D01*
X00164Y00389D02*
Y0041D01*
X00108Y00388D02*
X00161D01*
X00108Y00312D02*
X00161D01*
X00099Y00392D02*
X0017D01*
X00099Y00308D02*
X0017D01*
X0016Y00386D02*
Y00413D01*
X00156Y00383D02*
Y00416D01*
X00152Y0038D02*
Y0042D01*
X00113Y00384D02*
X00156D01*
X00118Y0038D02*
X00152D01*
X00118Y0032D02*
X00152D01*
X00113Y00316D02*
X00156D01*
X0018Y00294D02*
Y00305D01*
X00176Y00293D02*
Y00306D01*
X00172Y00292D02*
Y00307D01*
X00029Y00304D02*
X0021D01*
X00129Y00292D02*
X0017D01*
X00029Y003D02*
X00204D01*
X00029Y00296D02*
X00195D01*
X00168Y00291D02*
Y00308D01*
X00164Y00289D02*
Y0031D01*
X0016Y00286D02*
Y00313D01*
X00156Y00283D02*
Y00316D01*
X00152Y0028D02*
Y0032D01*
X00129Y00288D02*
X00161D01*
X00129Y00284D02*
X00156D01*
X00129Y0028D02*
X00152D01*
X00221Y00224D02*
X00594D01*
X00223Y00228D02*
X00594D01*
X00217Y0022D02*
X00594D01*
X00213Y00216D02*
X00594D01*
X00208Y00212D02*
X00594D01*
X00199Y00208D02*
X00594D01*
X00085Y00048D02*
X00436D01*
X00085Y00044D02*
X0044D01*
X00084Y0004D02*
X00446D01*
X00083Y00036D02*
X00594D01*
X00129Y0022D02*
X00152D01*
X00129Y00216D02*
X00156D01*
X00129Y00212D02*
X00161D01*
X00129Y00208D02*
X0017D01*
X00085Y00056D02*
X00431D01*
X00085Y00052D02*
X00433D01*
X00083Y00064D02*
X00429D01*
X00084Y0006D02*
X0043D01*
X0022Y0003D02*
Y00222D01*
X00216Y0003D02*
Y00218D01*
X00224Y0003D02*
Y00228D01*
X00208Y0003D02*
Y00211D01*
X00212Y0003D02*
Y00214D01*
X002Y0003D02*
Y00208D01*
X00196Y0003D02*
Y00206D01*
X00204Y0003D02*
Y00209D01*
X00188Y0003D02*
Y00205D01*
X00192Y0003D02*
Y00206D01*
X00164Y0003D02*
Y0021D01*
X0016Y0003D02*
Y00213D01*
X00168Y0003D02*
Y00208D01*
X00152Y0003D02*
Y0022D01*
X00156Y0003D02*
Y00216D01*
X0018Y0003D02*
Y00205D01*
X00184Y0003D02*
Y00205D01*
X00172Y0003D02*
Y00207D01*
X00176Y0003D02*
Y00206D01*
X00029Y00156D02*
X00594D01*
X00029Y0016D02*
X00594D01*
X00029Y00152D02*
X00594D01*
X00029Y00168D02*
X00594D01*
X00029Y00164D02*
X00594D01*
X00029Y00136D02*
X00594D01*
X00029Y0014D02*
X00594D01*
X00029Y00132D02*
X00594D01*
X00029Y00148D02*
X00594D01*
X00029Y00144D02*
X00594D01*
X00029Y00192D02*
X00594D01*
X00029Y00196D02*
X00594D01*
X00029Y00188D02*
X00594D01*
X00029Y00204D02*
X00594D01*
X00029Y002D02*
X00594D01*
X00029Y00176D02*
X00594D01*
X00029Y00172D02*
X00594D01*
X00029Y00184D02*
X00594D01*
X00029Y0018D02*
X00594D01*
X00029Y00116D02*
X00594D01*
X00029Y0012D02*
X00594D01*
X00029Y00112D02*
X00594D01*
X00029Y00128D02*
X00594D01*
X00029Y00124D02*
X00594D01*
X00029Y001D02*
X00594D01*
X00081Y00032D02*
X00594D01*
X00029Y00108D02*
X00594D01*
X00029Y00104D02*
X00594D01*
X00029Y00088D02*
X00436D01*
X00061Y00084D02*
X00433D01*
X00069Y0008D02*
X00431D01*
X00029Y00096D02*
X00446D01*
X00029Y00092D02*
X0044D01*
X00081Y00068D02*
X00429D01*
X00079Y0003D02*
X00432D01*
X00074Y00076D02*
X0043D01*
X00078Y00072D02*
X00429D01*
X00148Y00376D02*
Y00425D01*
X00144Y00374D02*
Y00432D01*
X00128Y00373D02*
Y00438D01*
X0012Y00378D02*
Y00422D01*
X00124Y00375D02*
Y00428D01*
X00116Y00381D02*
Y00418D01*
X00112Y00385D02*
Y00414D01*
X00123Y00376D02*
X00146D01*
X00104Y0039D02*
Y00409D01*
X00108Y00388D02*
Y00411D01*
X00096Y00393D02*
Y00406D01*
X00076Y00393D02*
Y00406D01*
X001Y00391D02*
Y00408D01*
X00072Y00392D02*
Y00407D01*
X00068Y00391D02*
Y00408D01*
X00088Y00394D02*
Y00405D01*
X00092Y00393D02*
Y00406D01*
X00084Y00394D02*
Y00405D01*
X0008Y00394D02*
Y00405D01*
X0014Y00373D02*
Y0077D01*
X00136Y00371D02*
Y0077D01*
Y00271D02*
Y00328D01*
X00133Y00372D02*
X00136D01*
X00148Y00276D02*
Y00323D01*
X00144Y00274D02*
Y00325D01*
X0014Y00273D02*
Y00327D01*
X00133Y00328D02*
X00136D01*
X00123Y00324D02*
X00146D01*
X00132Y00372D02*
Y0077D01*
X00128Y00294D02*
Y00326D01*
X00132Y00272D02*
Y00327D01*
X00124Y00294D02*
Y00324D01*
X00116Y00294D02*
Y00318D01*
X0012Y00294D02*
Y00321D01*
X00108Y00294D02*
Y00311D01*
X00112Y00294D02*
Y00314D01*
X00064Y00389D02*
Y0041D01*
X0006Y00386D02*
Y00413D01*
X00056Y00383D02*
Y00416D01*
X00052Y00379D02*
Y0042D01*
X00048Y00374D02*
Y00425D01*
X00029Y00384D02*
X00056D01*
X00029Y0038D02*
X00052D01*
X00029Y00376D02*
X00048D01*
X00029Y00392D02*
X0007D01*
X00029Y00388D02*
X00061D01*
X00029Y00372D02*
X00046D01*
X00029Y00368D02*
X00044D01*
X00044Y00367D02*
Y00432D01*
X00029Y00364D02*
X00042D01*
X00029Y0036D02*
X00041D01*
X00029Y00348D02*
X0004D01*
X00029Y00344D02*
X0004D01*
X00029Y00356D02*
X0004D01*
X00029Y00352D02*
X0004D01*
X00048Y00294D02*
Y00325D01*
X00052Y00294D02*
Y0032D01*
X00029Y00324D02*
X00048D01*
X00029Y0032D02*
X00052D01*
X0006Y00294D02*
Y00313D01*
X00056Y00294D02*
Y00316D01*
X00064Y00294D02*
Y0031D01*
X00029Y00316D02*
X00056D01*
X00029Y00312D02*
X00061D01*
X0004Y00084D02*
Y00715D01*
X00036Y00083D02*
Y00716D01*
X00032Y00081D02*
Y00718D01*
X00029Y0034D02*
X00041D01*
X00029Y00079D02*
Y00661D01*
Y00336D02*
X00042D01*
X00044Y00294D02*
Y00332D01*
X00029Y00332D02*
X00044D01*
X00029Y00328D02*
X00046D01*
X00129Y00276D02*
X00146D01*
X00129Y00273D02*
Y00294D01*
X001D02*
Y00308D01*
X00104Y00294D02*
Y00309D01*
X00133Y00228D02*
X00136D01*
X00133Y00272D02*
X00136D01*
X00129Y00224D02*
X00146D01*
X00129Y00205D02*
Y00226D01*
X00092Y00294D02*
Y00306D01*
X0008Y00294D02*
Y00305D01*
X00096Y00294D02*
Y00306D01*
X00072Y00294D02*
Y00307D01*
X00076Y00294D02*
Y00306D01*
X00084Y00294D02*
Y00305D01*
X00088Y00294D02*
Y00305D01*
X00076Y00074D02*
Y00205D01*
X0008Y00069D02*
Y00205D01*
X00144Y0003D02*
Y00225D01*
X0014Y0003D02*
Y00227D01*
X00148Y0003D02*
Y00223D01*
X00132Y0003D02*
Y00227D01*
X00136Y0003D02*
Y00228D01*
X00124Y0003D02*
Y00205D01*
X0012Y0003D02*
Y00205D01*
X00128Y0003D02*
Y00205D01*
X00112Y0003D02*
Y00205D01*
X00116Y0003D02*
Y00205D01*
X00104Y0003D02*
Y00205D01*
X001Y0003D02*
Y00205D01*
X00108Y0003D02*
Y00205D01*
X00092Y0003D02*
Y00205D01*
X00096Y0003D02*
Y00205D01*
X00084Y00061D02*
Y00205D01*
X00088Y0003D02*
Y00205D01*
X00084Y0003D02*
Y00038D01*
X0004Y00294D02*
X00129D01*
X00068D02*
Y00308D01*
X00029Y00288D02*
X0004D01*
X00029Y00308D02*
X0007D01*
X00029Y00292D02*
X0004D01*
X00029Y00272D02*
X0004D01*
X00029Y00276D02*
X0004D01*
X00029Y00268D02*
X0004D01*
X00029Y00284D02*
X0004D01*
X00029Y0028D02*
X0004D01*
X00029Y00252D02*
X0004D01*
X00029Y00256D02*
X0004D01*
X00029Y00248D02*
X0004D01*
X00029Y00264D02*
X0004D01*
X00029Y0026D02*
X0004D01*
X00029Y00236D02*
X0004D01*
X00029Y00232D02*
X0004D01*
X00029Y00244D02*
X0004D01*
X00029Y0024D02*
X0004D01*
X00068Y00081D02*
Y00205D01*
X00064Y00083D02*
Y00205D01*
X00072Y00078D02*
Y00205D01*
X0004D02*
X00129D01*
X00052Y00085D02*
Y00205D01*
X00056Y00085D02*
Y00205D01*
X0006Y00084D02*
Y00205D01*
X00048Y00085D02*
Y00205D01*
X00029Y00224D02*
X0004D01*
X00029Y00228D02*
X0004D01*
Y00205D02*
Y00294D01*
X00029Y0022D02*
X0004D01*
X00029Y00216D02*
X0004D01*
X00029Y00212D02*
X0004D01*
X00044Y00085D02*
Y00205D01*
X00029Y00208D02*
X0004D01*
X00029Y00084D02*
X00038D01*
G54D33*
X02226Y00642D02*
X02259D01*
X02226D02*
Y00675D01*
Y00609D02*
Y00642D01*
X02193D02*
X02226D01*
X0212Y00626D02*
X02146D01*
X02093D02*
X0212D01*
Y00599D02*
Y00626D01*
Y00652*
X02205Y00355D02*
Y00381D01*
Y00355D02*
X02231D01*
X02178D02*
X02205D01*
Y00328D02*
Y00355D01*
X02458Y00201D02*
X02502D01*
X02458Y00156D02*
Y00201D01*
Y00245*
X02413Y00201D02*
X02458D01*
X02061Y0011D02*
X02087D01*
X02061D02*
Y00136D01*
X02034Y0011D02*
X02061D01*
Y00083D02*
Y0011D01*
X01801Y00113D02*
Y00142D01*
Y00113D02*
X0183D01*
X01772D02*
X01801D01*
Y00084D02*
Y00113D01*
X01141Y00593D02*
X0117D01*
X01141Y00564D02*
Y00593D01*
X00954Y00332D02*
X00983D01*
X00954Y00303D02*
Y00332D01*
X00925D02*
X00954D01*
X00869Y00069D02*
Y00098D01*
Y00069D02*
X00898D01*
X0084D02*
X00869D01*
Y0004D02*
Y00069D01*
X00487Y00538D02*
X00516D01*
X00487Y00509D02*
Y00538D01*
X00458D02*
X00487D01*
X00546Y0041D02*
X00575D01*
X00546D02*
Y00439D01*
Y00381D02*
Y0041D01*
X00517D02*
X00546D01*
X0046Y00068D02*
Y00097D01*
Y00068D02*
X00489D01*
X0046Y00039D02*
Y00068D01*
X00431D02*
X0046D01*
X00185Y0045D02*
X00227D01*
X00185Y00407D02*
Y0045D01*
Y00492*
X00142Y0045D02*
X00185D01*
X00085D02*
Y00492D01*
Y00407D02*
Y0045D01*
X00127*
X00042D02*
X00085D01*
M02*