%FSTAX23Y23*%
%MOIN*%
%SFA1B1*%

%IPPOS*%
%ADD33C,0.010000*%
%ADD34C,0.011800*%
%ADD35C,0.012000*%
%ADD36C,0.007900*%
%ADD37C,0.005000*%
%ADD38C,0.008000*%
%ADD39R,0.009600X0.059100*%
%ADD40R,0.054600X0.009800*%
%ADD41R,0.010200X0.059500*%
%ADD42R,0.055500X0.009800*%
%LNcn0349-1*%
%LPD*%
G36*
X01866Y00284D02*
Y00324D01*
X01905*
X01866Y00284*
G37*
G36*
X01188Y00244D02*
X01166D01*
X01151Y00249*
Y00281*
X01188Y00244*
G37*
G36*
X00515Y00425D02*
Y00491D01*
X00581*
X00515Y00425*
G37*
G36*
X00621Y00668D02*
Y00708D01*
X0066*
X00621Y00668*
G37*
G36*
X01873Y00703D02*
X01836Y00666D01*
Y00687*
X01841Y00703*
X01873*
Y00703*
G37*
G54D33*
X01145Y00154D02*
D01*
D01*
G75*
G03X01074I-00035J0D01*
G74*G01*
D01*
G75*
G03X01145I00035J0D01*
G74*G01*
X02261Y00642D02*
D01*
D01*
G75*
G03X0219I-00035J0D01*
G74*G01*
D01*
G75*
G03X02261I00035J0D01*
G74*G01*
X02163Y00734D02*
D01*
D01*
G75*
G03X02092I-00035J0D01*
G74*G01*
D01*
G75*
G03X02163I00035J0D01*
G74*G01*
X02007Y00062D02*
D01*
D01*
G75*
G03X01936I-00035J0D01*
G74*G01*
D01*
G75*
G03X02007I00035J0D01*
G74*G01*
X01457Y00031D02*
D01*
D01*
G75*
G03X01453I-00002J0D01*
G74*G01*
D01*
G75*
G03X01457I00002J0D01*
G74*G01*
X00357Y00566D02*
X00376Y00585D01*
X01262Y00084D02*
X01396D01*
X01262Y00143D02*
X01396D01*
Y00084D02*
Y00143D01*
X01262Y00084D02*
Y00143D01*
X02073Y00139D02*
X02207D01*
X02073Y00198D02*
X02207D01*
Y00139D02*
Y00198D01*
X02073Y00139D02*
Y00198D01*
X00423Y00585D02*
Y00719D01*
X00482Y00585D02*
Y00719D01*
X00423Y00585D02*
X00482D01*
X00423Y00719D02*
X00482D01*
X00616Y00713D02*
X00691D01*
X00716*
Y00513D02*
Y00713D01*
X00616Y00513D02*
X00716D01*
X00616D02*
Y00713D01*
X00902Y00584D02*
Y00718D01*
X00961Y00584D02*
Y00718D01*
X00902Y00584D02*
X00961D01*
X00902Y00718D02*
X00961D01*
Y00584D02*
Y00718D01*
X0102Y00584D02*
Y00718D01*
X00961Y00584D02*
X0102D01*
X00961Y00718D02*
X0102D01*
X01687Y00106D02*
Y0024D01*
X01628Y00106D02*
Y0024D01*
X01687*
X01628Y00106D02*
X01687D01*
Y00106D02*
Y0024D01*
X01746Y00106D02*
Y0024D01*
X01687Y00106D02*
X01746D01*
X01687Y0024D02*
X01746D01*
X01411Y00278D02*
X01545D01*
X01411Y00219D02*
X01545D01*
X01411D02*
Y00278D01*
X01545Y00219D02*
Y00278D01*
X01411Y00337D02*
X01545D01*
X01411Y00278D02*
X01545D01*
X01411D02*
Y00337D01*
X01545Y00278D02*
Y00337D01*
X01157Y00635D02*
X01326D01*
X01157Y00548D02*
X01326D01*
X01157D02*
Y00635D01*
X01326Y00548D02*
Y00635D01*
X01192Y00635D02*
X01326D01*
X01192Y00694D02*
X01326D01*
Y00635D02*
Y00694D01*
X01192Y00635D02*
Y00694D01*
X00984Y00357D02*
Y00491D01*
X00925Y00357D02*
Y00491D01*
X00984*
X00925Y00357D02*
X00984D01*
X00984Y00321D02*
Y0049D01*
X01071Y00321D02*
Y0049D01*
X00984Y00321D02*
X01071D01*
X00984Y0049D02*
X01071D01*
X01861Y00329D02*
X01936D01*
X01961*
Y00129D02*
Y00329D01*
X01861Y00129D02*
X01961D01*
X01861D02*
Y00329D01*
X00382Y00097D02*
Y00156D01*
X00248D02*
X00382D01*
X00248Y00097D02*
Y00156D01*
Y00097D02*
X00382D01*
X00248Y00031D02*
X00382D01*
X00248Y0009D02*
X00382D01*
Y00031D02*
Y0009D01*
X00248Y00031D02*
Y0009D01*
X00403Y00355D02*
Y00489D01*
X00344Y00355D02*
Y00489D01*
X00403*
X00344Y00355D02*
X00403D01*
X00257Y00319D02*
Y00488D01*
X00344Y00319D02*
Y00488D01*
X00257Y00319D02*
X00344D01*
X00257Y00488D02*
X00344D01*
X00364Y00585D02*
Y00719D01*
X00423Y00585D02*
Y00719D01*
X00364Y00585D02*
X00423D01*
X00364Y00719D02*
X00423D01*
X00305Y00585D02*
Y00719D01*
X00364Y00585D02*
Y00719D01*
X00305Y00585D02*
X00364D01*
X00305Y00719D02*
X00364D01*
X00843Y00584D02*
Y00718D01*
X00902Y00584D02*
Y00718D01*
X00843Y00584D02*
X00902D01*
X00843Y00718D02*
X00902D01*
X01327Y00548D02*
X01496D01*
X01327Y00635D02*
X01496D01*
Y00548D02*
Y00635D01*
X01327Y00548D02*
Y00635D01*
X01326Y00694D02*
X0146D01*
X01326Y00635D02*
X0146D01*
X01326D02*
Y00694D01*
X0146Y00635D02*
Y00694D01*
X02073Y00344D02*
X02242D01*
X02073Y00257D02*
X02242D01*
X02073D02*
Y00344D01*
X02242Y00257D02*
Y00344D01*
X02073Y00198D02*
X02207D01*
X02073Y00257D02*
X02207D01*
Y00198D02*
Y00257D01*
X02073Y00198D02*
Y00257D01*
X01603Y00638D02*
X01737D01*
X01603Y00579D02*
X01737D01*
X01603D02*
Y00638D01*
X01737Y00579D02*
Y00638D01*
X01603Y00578D02*
X01737D01*
X01603Y00519D02*
X01737D01*
X01603D02*
Y00578D01*
X01737Y00519D02*
Y00578D01*
X01603Y00461D02*
X01737D01*
X01603Y0052D02*
X01737D01*
Y00461D02*
Y0052D01*
X01603Y00461D02*
Y0052D01*
X021Y004D02*
X02234D01*
X021Y00459D02*
X02234D01*
Y004D02*
Y00459D01*
X021Y004D02*
Y00459D01*
X01603Y00461D02*
X01737D01*
X01603Y00402D02*
X01737D01*
X01603D02*
Y00461D01*
X01737Y00402D02*
Y00461D01*
X021Y00459D02*
X02234D01*
X021Y00518D02*
X02234D01*
Y00459D02*
Y00518D01*
X021Y00459D02*
Y00518D01*
X02234D01*
X021Y00577D02*
X02234D01*
Y00518D02*
Y00577D01*
X021Y00518D02*
Y00577D01*
X02073Y00139D02*
X02207D01*
X02073Y0008D02*
X02207D01*
X02073D02*
Y00139D01*
X02207Y0008D02*
Y00139D01*
X00515Y00078D02*
Y00491D01*
Y00078D02*
X00814D01*
Y00491*
X00515D02*
X00814D01*
X01411Y00396D02*
X01545D01*
X01411Y00337D02*
X01545D01*
X01411D02*
Y00396D01*
X01545Y00337D02*
Y00396D01*
X01578Y00176D02*
X01603D01*
X01578Y00061D02*
X01603D01*
Y00176*
X0141D02*
X01436D01*
X0143Y00061D02*
X01436D01*
X0141Y00081D02*
X0143Y00061D01*
X0141Y00081D02*
Y00176D01*
X00069Y00179D02*
Y00165D01*
Y00172*
X00109*
X00102Y00179*
X00171Y00153D02*
Y0018D01*
X00197Y00153*
X00204*
X00211Y0016*
Y00173*
X00204Y0018*
X00104Y00645D02*
Y00618D01*
X00097*
X0007Y00645*
X00064*
X00171Y0062D02*
X00165Y00626D01*
Y0064*
X00171Y00646*
X00178*
X00185Y0064*
X00191Y00646*
X00198*
X00205Y0064*
Y00626*
X00198Y0062*
X00191*
X00185Y00626*
X00178Y0062*
X00171*
X00185Y00626D02*
Y0064D01*
G54D34*
X00559Y00727D02*
D01*
D01*
G75*
G03X00552I-00003J0D01*
G74*G01*
D01*
G75*
G03X00559I00003J0D01*
G74*G01*
X01804Y00343D02*
D01*
D01*
G75*
G03X01797I-00003J0D01*
G74*G01*
D01*
G75*
G03X01804I00003J0D01*
G74*G01*
X01801Y0073D02*
D01*
D01*
G75*
G03X01794I-00003J0D01*
G74*G01*
D01*
G75*
G03X01801I00003J0D01*
G74*G01*
X00463Y00499D02*
D01*
D01*
G75*
G03X00456I-00003J0D01*
G74*G01*
D01*
G75*
G03X00463I00003J0D01*
G74*G01*
X01157Y00198D02*
D01*
D01*
G75*
G03X01151I-00003J0D01*
G74*G01*
D01*
G75*
G03X01157I00003J0D01*
G74*G01*
G54D35*
X00085Y002D02*
X00235D01*
Y006D02*
X00235Y002D01*
X00035Y006D02*
X00235D01*
X00035Y0025D02*
Y006D01*
Y002D02*
Y0025D01*
Y002D02*
X00085D01*
X01149Y00439D02*
X01393D01*
Y00242D02*
Y00439D01*
X01149Y00242D02*
Y00439D01*
Y00242D02*
X01393D01*
G54D36*
X01837Y00395D02*
X01995D01*
Y00705*
X01837Y00395D02*
Y00705D01*
X01994*
G54D37*
X0258Y00142D02*
Y0066D01*
X02336Y0066D02*
X0258D01*
X02336Y00142D02*
Y0066D01*
Y00141D02*
X0258D01*
X02529Y00143D02*
Y0066D01*
G54D38*
X01226Y00059D02*
X0122Y00066D01*
X01206*
X012Y00059*
Y00032*
X01206Y00026*
X0122*
X01226Y00032*
X0124Y00026D02*
X01253D01*
X01246*
Y00066*
X0124Y00059*
X013Y00066D02*
X01273D01*
Y00046*
X01286Y00052*
X01293*
X013Y00046*
Y00032*
X01293Y00026*
X0128*
X01273Y00032*
X00144Y00772D02*
X00131D01*
X00138*
Y00738*
X00131Y00732*
X00124*
X00118Y00738*
X00184Y00732D02*
X00158D01*
X00184Y00758*
Y00765*
X00178Y00772*
X00164*
X00158Y00765*
X00634Y00773D02*
Y00739D01*
X0064Y00733*
X00654*
X0066Y00739*
Y00773*
X007D02*
X00674D01*
Y00753*
X00687Y00759*
X00694*
X007Y00753*
Y00739*
X00694Y00733*
X0068*
X00674Y00739*
X0113Y00369D02*
X01096D01*
X0109Y00362*
Y00349*
X01096Y00342*
X0113*
X01123Y00329D02*
X0113Y00322D01*
Y00309*
X01123Y00302*
X01116*
X0111Y00309*
Y00315*
Y00309*
X01103Y00302*
X01096*
X0109Y00309*
Y00322*
X01096Y00329*
X01846Y00113D02*
Y00079D01*
X01852Y00073*
X01866*
X01872Y00079*
Y00113*
X01912Y00073D02*
X01886D01*
X01912Y00099*
Y00106*
X01906Y00113*
X01892*
X01886Y00106*
X0184Y00772D02*
Y00738D01*
X01846Y00732*
X0186*
X01866Y00738*
Y00772*
X0188Y00732D02*
X01893D01*
X01886*
Y00772*
X0188Y00765*
X00126Y00028D02*
Y00068D01*
X00146*
X00152Y00061*
Y00048*
X00146Y00041*
X00126*
X00139D02*
X00152Y00028D01*
X00166D02*
X00179D01*
X00172*
Y00068*
X00166Y00061*
X00199D02*
X00206Y00068D01*
X00219*
X00226Y00061*
Y00054*
X00219Y00048*
X00226Y00041*
Y00034*
X00219Y00028*
X00206*
X00199Y00034*
Y00041*
X00206Y00048*
X00199Y00054*
Y00061*
X00206Y00048D02*
X00219D01*
X00257Y00514D02*
Y00554D01*
X00277*
X00283Y00547*
Y00534*
X00277Y00527*
X00257*
X0027D02*
X00283Y00514D01*
X00297D02*
X0031D01*
X00303*
Y00554*
X00297Y00547*
X0033Y00554D02*
X00357D01*
Y00547*
X0033Y0052*
Y00514*
X00266Y00736D02*
Y00776D01*
X00286*
X00292Y00769*
Y00756*
X00286Y00749*
X00266*
X00279D02*
X00292Y00736D01*
X00306D02*
X00319D01*
X00312*
Y00776*
X00306Y00769*
X00366Y00776D02*
X00352Y00769D01*
X00339Y00756*
Y00742*
X00346Y00736*
X00359*
X00366Y00742*
Y00749*
X00359Y00756*
X00339*
X00918Y00735D02*
Y0077D01*
X00935*
X00941Y00764*
Y00752*
X00935Y00746*
X00918*
X00929D02*
X00941Y00735D01*
X00953D02*
X00964D01*
X00958*
Y0077*
X00953Y00764*
X01005Y0077D02*
X00982D01*
Y00752*
X00993Y00758*
X00999*
X01005Y00752*
Y0074*
X00999Y00735*
X00988*
X00982Y0074*
X01042Y00667D02*
Y00707D01*
X01062*
X01068Y007*
Y00687*
X01062Y0068*
X01042*
X01055D02*
X01068Y00667D01*
X01082D02*
X01095D01*
X01088*
Y00707*
X01082Y007*
X01135Y00667D02*
Y00707D01*
X01115Y00687*
X01142*
X02158Y00026D02*
Y00066D01*
X02178*
X02184Y00059*
Y00046*
X02178Y00039*
X02158*
X02171D02*
X02184Y00026D01*
X02198D02*
X02211D01*
X02204*
Y00066*
X02198Y00059*
X02231D02*
X02238Y00066D01*
X02251*
X02258Y00059*
Y00052*
X02251Y00046*
X02244*
X02251*
X02258Y00039*
Y00032*
X02251Y00026*
X02238*
X02231Y00032*
X02228Y00148D02*
Y00183D01*
X02245*
X02251Y00177*
Y00165*
X02245Y00159*
X02228*
X02239D02*
X02251Y00148D01*
X02263D02*
X02274D01*
X02268*
Y00183*
X02263Y00177*
X02315Y00148D02*
X02292D01*
X02315Y00171*
Y00177*
X02309Y00183*
X02298*
X02292Y00177*
X01567Y00297D02*
Y00337D01*
X01587*
X01593Y0033*
Y00317*
X01587Y0031*
X01567*
X0158D02*
X01593Y00297D01*
X01607D02*
X0162D01*
X01613*
Y00337*
X01607Y0033*
X0164Y00297D02*
X01653D01*
X01647*
Y00337*
X0164Y0033*
X01522Y00589D02*
Y00629D01*
X01542*
X01548Y00622*
Y00609*
X01542Y00602*
X01522*
X01535D02*
X01548Y00589D01*
X01562Y00595D02*
X01568Y00589D01*
X01582*
X01588Y00595*
Y00622*
X01582Y00629*
X01568*
X01562Y00622*
Y00615*
X01568Y00609*
X01588*
X01521Y00531D02*
Y00571D01*
X01541*
X01547Y00564*
Y00551*
X01541Y00544*
X01521*
X01534D02*
X01547Y00531D01*
X01561Y00564D02*
X01567Y00571D01*
X01581*
X01587Y00564*
Y00557*
X01581Y00551*
X01587Y00544*
Y00537*
X01581Y00531*
X01567*
X01561Y00537*
Y00544*
X01567Y00551*
X01561Y00557*
Y00564*
X01567Y00551D02*
X01581D01*
X02253Y00469D02*
Y00504D01*
X0227*
X02276Y00498*
Y00486*
X0227Y0048*
X02253*
X02264D02*
X02276Y00469D01*
X02288Y00504D02*
X02311D01*
Y00498*
X02288Y00474*
Y00469*
X01521Y00471D02*
Y00511D01*
X01541*
X01547Y00504*
Y00491*
X01541Y00484*
X01521*
X01534D02*
X01547Y00471D01*
X01587Y00511D02*
X01574Y00504D01*
X01561Y00491*
Y00477*
X01567Y00471*
X01581*
X01587Y00477*
Y00484*
X01581Y00491*
X01561*
X01706Y00089D02*
X01746D01*
Y00069*
X01739Y00062*
X01726*
X01719Y00069*
Y00089*
Y00075D02*
X01706Y00062D01*
X01746Y00022D02*
Y00049D01*
X01726*
X01732Y00035*
Y00029*
X01726Y00022*
X01712*
X01706Y00029*
Y00042*
X01712Y00049*
X02253Y00409D02*
Y00444D01*
X0227*
X02276Y00438*
Y00426*
X0227Y0042*
X02253*
X02264D02*
X02276Y00409D01*
X02305D02*
Y00444D01*
X02288Y00426*
X02311*
X01672Y00346D02*
Y00386D01*
X01692*
X01698Y00379*
Y00366*
X01692Y00359*
X01672*
X01685D02*
X01698Y00346D01*
X01712Y00379D02*
X01718Y00386D01*
X01732*
X01738Y00379*
Y00372*
X01732Y00366*
X01725*
X01732*
X01738Y00359*
Y00352*
X01732Y00346*
X01718*
X01712Y00352*
X02253Y0053D02*
Y00565D01*
X0227*
X02276Y00559*
Y00547*
X0227Y00541*
X02253*
X02264D02*
X02276Y0053D01*
X02311D02*
X02288D01*
X02311Y00553*
Y00559*
X02305Y00565*
X02293*
X02288Y00559*
X01645Y00089D02*
X01685D01*
Y00069*
X01678Y00062*
X01665*
X01658Y00069*
Y00089*
Y00075D02*
X01645Y00062D01*
Y00049D02*
Y00035D01*
Y00042*
X01685*
X01678Y00049*
X02207Y00734D02*
X02201Y00741D01*
X02187*
X02181Y00734*
Y00707*
X02187Y00701*
X02201*
X02207Y00707*
Y00721*
X02194*
X02221Y00701D02*
Y00741D01*
X02247Y00701*
Y00741*
X02261D02*
Y00701D01*
X02281*
X02287Y00707*
Y00734*
X02281Y00741*
X02261*
X02301Y00701D02*
X02314D01*
X02307*
Y00727*
X02301*
X02334Y00701D02*
X02354D01*
X0236Y00707*
X02354Y00714*
X0234*
X02334Y00721*
X0234Y00727*
X0236*
X0238Y00701D02*
X02394D01*
X024Y00707*
Y00721*
X02394Y00727*
X0238*
X02374Y00721*
Y00707*
X0238Y00701*
X00173Y00131D02*
Y00091D01*
X00193*
X00199Y00097*
Y00124*
X00193Y00131*
X00173*
X00213Y00091D02*
X00226D01*
X00219*
Y00131*
X00213Y00124*
X00834Y00764D02*
X00828Y0077D01*
X00816*
X00811Y00764*
Y0074*
X00816Y00735*
X00828*
X00834Y0074*
X00846Y00735D02*
X00857D01*
X00851*
Y0077*
X00846Y00764*
X00892Y00735D02*
Y0077D01*
X00875Y00752*
X00898*
X0045Y00769D02*
X00444Y00776D01*
X0043*
X00424Y00769*
Y00742*
X0043Y00736*
X00444*
X0045Y00742*
X00464Y00736D02*
X00477D01*
X0047*
Y00776*
X00464Y00769*
X00497D02*
X00504Y00776D01*
X00517*
X00524Y00769*
Y00762*
X00517Y00756*
X0051*
X00517*
X00524Y00749*
Y00742*
X00517Y00736*
X00504*
X00497Y00742*
X00314Y00274D02*
X00321Y00281D01*
Y00294*
X00314Y00301*
X00287*
X00281Y00294*
Y00281*
X00287Y00274*
X00281Y00261D02*
Y00247D01*
Y00254*
X00321*
X00314Y00261*
X00281Y00201D02*
Y00227D01*
X00307Y00201*
X00314*
X00321Y00207*
Y00221*
X00314Y00227*
X00389Y00274D02*
X00396Y00281D01*
Y00294*
X00389Y00301*
X00362*
X00356Y00294*
Y00281*
X00362Y00274*
X00356Y00261D02*
Y00247D01*
Y00254*
X00396*
X00389Y00261*
X00356Y00227D02*
Y00214D01*
Y00221*
X00396*
X00389Y00227*
X01037Y00278D02*
X01044Y00285D01*
Y00298*
X01037Y00305*
X0101*
X01004Y00298*
Y00285*
X0101Y00278*
X01004Y00265D02*
Y00251D01*
Y00258*
X01044*
X01037Y00265*
Y00231D02*
X01044Y00225D01*
Y00211*
X01037Y00205*
X0101*
X01004Y00211*
Y00225*
X0101Y00231*
X01037*
X00967Y00277D02*
X00974Y00284D01*
Y00297*
X00967Y00304*
X0094*
X00934Y00297*
Y00284*
X0094Y00277*
Y00264D02*
X00934Y00257D01*
Y00244*
X0094Y00237*
X00967*
X00974Y00244*
Y00257*
X00967Y00264*
X0096*
X00954Y00257*
Y00237*
X01381Y00747D02*
X01375Y00754D01*
X01361*
X01355Y00747*
Y0072*
X01361Y00714*
X01375*
X01381Y0072*
X01395Y00747D02*
X01401Y00754D01*
X01415*
X01421Y00747*
Y0074*
X01415Y00734*
X01421Y00727*
Y0072*
X01415Y00714*
X01401*
X01395Y0072*
Y00727*
X01401Y00734*
X01395Y0074*
Y00747*
X01401Y00734D02*
X01415D01*
X01432Y00522D02*
X01426Y00529D01*
X01412*
X01406Y00522*
Y00495*
X01412Y00489*
X01426*
X01432Y00495*
X01446Y00529D02*
X01472D01*
Y00522*
X01446Y00495*
Y00489*
X01249Y00745D02*
X01243Y00752D01*
X01229*
X01223Y00745*
Y00718*
X01229Y00712*
X01243*
X01249Y00718*
X01289Y00752D02*
X01263D01*
Y00732*
X01276Y00738*
X01283*
X01289Y00732*
Y00718*
X01283Y00712*
X01269*
X01263Y00718*
X01076Y00607D02*
X0107Y00614D01*
X01056*
X0105Y00607*
Y0058*
X01056Y00574*
X0107*
X01076Y0058*
X0111Y00574D02*
Y00614D01*
X0109Y00594*
X01116*
X02282Y0031D02*
X02276Y00316D01*
X02264*
X02259Y0031*
Y00286*
X02264Y00281*
X02276*
X02282Y00286*
X02294Y0031D02*
X02299Y00316D01*
X02311*
X02317Y0031*
Y00304*
X02311Y00298*
X02305*
X02311*
X02317Y00292*
Y00286*
X02311Y00281*
X02299*
X02294Y00286*
X02251Y00233D02*
X02245Y00239D01*
X02233*
X02228Y00233*
Y00209*
X02233Y00204*
X02245*
X02251Y00209*
X02286Y00204D02*
X02263D01*
X02286Y00227*
Y00233*
X0228Y00239*
X02268*
X02263Y00233*
X01585Y00272D02*
X01579Y00279D01*
X01565*
X01559Y00272*
Y00245*
X01565Y00239*
X01579*
X01585Y00245*
X01599Y00239D02*
X01612D01*
X01605*
Y00279*
X01599Y00272*
X00933Y00097D02*
X00939Y00104D01*
X00953*
X00959Y00097*
Y0009*
X00953Y00084*
X00946*
X00953*
X00959Y00077*
Y0007*
X00953Y00064*
X00939*
X00933Y0007*
X00973Y00064D02*
Y0007D01*
X00979*
Y00064*
X00973*
X01006Y00097D02*
X01013Y00104D01*
X01026*
X01033Y00097*
Y0009*
X01026Y00084*
X01019*
X01026*
X01033Y00077*
Y0007*
X01026Y00064*
X01013*
X01006Y0007*
X01046Y00104D02*
Y00077D01*
X01059Y00064*
X01073Y00077*
Y00104*
X01086Y00064D02*
X01099D01*
X01092*
Y0009*
X01086*
X01119Y00064D02*
X01139D01*
X01146Y0007*
X01139Y00077*
X01126*
X01119Y00084*
X01126Y0009*
X01146*
X01166Y00064D02*
X01179D01*
X01186Y0007*
Y00084*
X01179Y0009*
X01166*
X01159Y00084*
Y0007*
X01166Y00064*
X00632D02*
Y0003D01*
X00638Y00024*
X00652*
X00658Y0003*
Y00064*
X00692Y00024D02*
Y00064D01*
X00672Y00044*
X00698*
X02021Y00066D02*
X02047D01*
X02034*
Y00026*
X02061D02*
Y00066D01*
X02081*
X02087Y00059*
Y00046*
X02081Y00039*
X02061*
X02101Y00026D02*
X02114D01*
X02107*
Y00066*
X02101Y00059*
X01964Y00772D02*
X0199D01*
X01977*
Y00732*
X02004D02*
Y00772D01*
X02024*
X0203Y00765*
Y00752*
X02024Y00745*
X02004*
X0207Y00732D02*
X02044D01*
X0207Y00758*
Y00765*
X02064Y00772*
X0205*
X02044Y00765*
X01435Y00415D02*
Y00455D01*
X01455*
X01461Y00448*
Y00435*
X01455Y00428*
X01435*
X01448D02*
X01461Y00415D01*
X01475D02*
X01488D01*
X01481*
Y00455*
X01475Y00448*
X01508D02*
X01515Y00455D01*
X01528*
X01535Y00448*
Y00421*
X01528Y00415*
X01515*
X01508Y00421*
Y00448*
X02362Y00125D02*
X02349D01*
X02356*
Y00091*
X02349Y00085*
X02342*
X02336Y00091*
X02376Y00085D02*
X02389D01*
X02382*
Y00125*
X02376Y00118*
X01332Y00071D02*
Y00038D01*
X01338Y00031*
X01352*
X01358Y00038*
Y00071*
X01398D02*
X01385Y00065D01*
X01372Y00051*
Y00038*
X01378Y00031*
X01392*
X01398Y00038*
Y00045*
X01392Y00051*
X01372*
X00085Y0071D02*
X00098D01*
X00091*
Y0067*
X00085*
X00098*
X00118D02*
Y0071D01*
X00131Y00696*
X00145Y0071*
Y0067*
X00178Y0071D02*
X00165D01*
X00158Y00703*
Y00676*
X00165Y0067*
X00178*
X00185Y00676*
Y00703*
X00178Y0071*
X00198D02*
Y0067D01*
X00218*
X00225Y00676*
Y00703*
X00218Y0071*
X00198*
X02453Y00085D02*
X02466D01*
X02459*
Y00125*
X02453Y00118*
X02469Y0072D02*
X02443D01*
Y007*
X02456Y00706*
X02463*
X02469Y007*
Y00686*
X02463Y0068*
X02449*
X02443Y00686*
G54D39*
X00306Y00126D03*
G54D40*
X00275Y00102D03*
G54D41*
X00253Y00126D03*
G54D42*
X00276Y00151D03*
M02*