%FSTAX23Y23*%
%MOIN*%
%SFA1B1*%

%IPPOS*%
%ADD10C,0.020000*%
%ADD11C,0.015000*%
%ADD12R,0.035400X0.031500*%
%ADD13R,0.031500X0.035400*%
%ADD14R,0.080000X0.024000*%
%ADD15O,0.080000X0.024000*%
%ADD16R,0.041300X0.051200*%
%ADD17R,0.051200X0.041300*%
%ADD18O,0.060000X0.015000*%
%ADD19R,0.060000X0.015000*%
%ADD20O,0.080000X0.025000*%
%ADD21O,0.015700X0.066900*%
%ADD22R,0.015700X0.066900*%
%ADD23R,0.027600X0.057100*%
%ADD24C,0.066900*%
%ADD25R,0.066900X0.066900*%
%ADD26C,0.050000*%
%ADD27C,0.048000*%
%ADD28C,0.070900*%
%ADD29C,0.035000*%
%ADD30C,0.045000*%
%ADD31C,0.040000*%
%LNcn0349-1*%
%LPD*%
G54D10*
X01628Y00076D02*
D01*
D01*
G75*
G03X01645Y00069I00017J00017D01*
G74*G01*
D01*
D01*
G75*
G03X01628Y00061I-0J-00023D01*
G74*G01*
X00538Y00402D02*
D01*
D01*
G75*
G03X00521Y0041I-00017J-00017D01*
G74*G01*
D01*
D01*
G75*
G03X00538Y00417I0J00023D01*
G74*G01*
X00503Y00643D02*
D01*
D01*
G75*
G03X00516Y00638I00012J00012D01*
G74*G01*
D01*
D01*
G75*
G03X00503Y00632I0J-00018D01*
G74*G01*
X00288Y00623D02*
D01*
D01*
G75*
G03X00303Y00617I00015J00015D01*
G74*G01*
X00504Y00593D02*
D01*
D01*
G75*
G03X00517Y00588I00012J00012D01*
G74*G01*
D01*
D01*
G75*
G03X00504Y00582I0J-00018D01*
G74*G01*
X00494Y00545D02*
D01*
D01*
G75*
G03X00511Y00538I00017J00017D01*
G74*G01*
D01*
D01*
G75*
G03X00494Y0053I-0J-00023D01*
G74*G01*
X00477Y00538D02*
D01*
D01*
G75*
G03X0047Y00553I-00021J-0D01*
G74*G01*
X00468Y00555D02*
D01*
D01*
G75*
G03X00487Y00548I00018J00018D01*
G74*G01*
X00388Y0058D02*
D01*
D01*
G75*
G03X00394Y00593I-00012J00012D01*
G74*G01*
D01*
D01*
G75*
G03X00399Y0058I00018J0D01*
G74*G01*
X00419Y00061D02*
D01*
D01*
G75*
G03X00452Y00075I0J00047D01*
G74*G01*
D01*
D01*
G75*
G03X0046Y00092I-00017J00017D01*
G74*G01*
D01*
D01*
G75*
G03X00467Y00075I00023J-0D01*
G74*G01*
X00876Y00488D02*
D01*
D01*
G75*
G03X00869Y00472I00016J-00016D01*
G74*G01*
Y0047D02*
D01*
D01*
G75*
G03X00861Y00488I-00025J0D01*
G74*G01*
Y00076D02*
D01*
D01*
G75*
G03X00869Y00094I-00017J00018D01*
G74*G01*
Y00092D02*
D01*
D01*
G75*
G03X00876Y00076I00022J-0D01*
G74*G01*
X00954Y00322D02*
D01*
D01*
G75*
G03X00936Y00314I0J-00024D01*
G74*G01*
X00782Y00722D02*
D01*
D01*
G75*
G03X00775Y00705I00017J-00017D01*
G74*G01*
D01*
D01*
G75*
G03X00767Y00722I-00023J0D01*
G74*G01*
X01148Y006D02*
D01*
D01*
G75*
G03X01167Y00592I00019J00019D01*
G74*G01*
X01162D02*
D01*
D01*
G75*
G03X01148Y00585I-0J-00020D01*
G74*G01*
X00382Y00507D02*
D01*
D01*
G75*
G03X00374Y00488I00019J-00019D01*
G74*G01*
Y00493D02*
D01*
D01*
G75*
G03X00367Y00507I-00020J0D01*
G74*G01*
X00382Y00322D02*
D01*
D01*
G75*
G03X00375Y00305I00017J-00017D01*
G74*G01*
D01*
D01*
G75*
G03X00367Y00322I-00023J0D01*
G74*G01*
X00914Y00161D02*
D01*
D01*
G75*
G03X00935Y0017I0J00030D01*
G74*G01*
X01098Y00443D02*
D01*
D01*
G75*
G03X01075Y00452I-00022J-00022D01*
G74*G01*
X01078D02*
D01*
D01*
G75*
G03X01098Y0046I-0J00028D01*
G74*G01*
X00101Y00466D02*
D01*
D01*
G75*
G03X00141Y0045I00040J00040D01*
G74*G01*
D01*
D01*
G75*
G03X00101Y00433I-0J-00056D01*
G74*G01*
Y00566D02*
D01*
D01*
G75*
G03X00141Y0055I00040J00040D01*
G74*G01*
D01*
D01*
G75*
G03X00101Y00533I-0J-00056D01*
G74*G01*
X00216Y00433D02*
D01*
D01*
G75*
G03X00185Y00446I-00031J-00031D01*
G74*G01*
X0025Y00399D02*
D01*
D01*
G75*
G03X00185Y00426I-00065J-00065D01*
G74*G01*
X00168Y00433D02*
D01*
D01*
G75*
G03X00128Y0045I-00040J-00040D01*
G74*G01*
D01*
D01*
G75*
G03X00168Y00466I0J00056D01*
G74*G01*
X00201Y00566D02*
D01*
D01*
G75*
G03X00241Y0055I00040J00040D01*
G74*G01*
D01*
D01*
G75*
G03X00201Y00533I-0J-00056D01*
G74*G01*
X00168Y00566D02*
D01*
D01*
G75*
G03X00185Y00606I-00040J00040D01*
G74*G01*
D01*
D01*
G75*
G03X00201Y00566I00056J-0D01*
G74*G01*
X00168Y00533D02*
D01*
D01*
G75*
G03X00128Y0055I-00040J-00040D01*
G74*G01*
D01*
D01*
G75*
G03X00168Y00566I0J00056D01*
G74*G01*
X02103Y00232D02*
D01*
D01*
G75*
G03X02108Y00244I-00012J00012D01*
G74*G01*
X02119Y00288D02*
D01*
D01*
G75*
G03X02108Y0026I00027J-00027D01*
G74*G01*
X02104Y00298D02*
D01*
D01*
G75*
G03X0209Y00304I-00013J-00013D01*
G74*G01*
X02081D02*
D01*
D01*
G75*
G03X02104Y00313I-0J00032D01*
G74*G01*
X00857Y00688D02*
D01*
D01*
G75*
G03X00868Y00692I0J00016D01*
G74*G01*
X00877D02*
D01*
D01*
G75*
G03X00888Y00688I00011J00011D01*
G74*G01*
X00354Y0046D02*
D01*
D01*
G75*
G03X00313Y00443I0J-00058D01*
G74*G01*
X00293Y00458D02*
D01*
D01*
G75*
G03X00301Y00476I-00017J00018D01*
G74*G01*
D01*
D01*
G75*
G03X00308Y00458I00025J0D01*
G74*G01*
X0027Y00379D02*
D01*
D01*
G75*
G03X00296Y00368I00025J00024D01*
G74*G01*
X00313Y00365D02*
D01*
D01*
G75*
G03X00331Y00358I00018J00017D01*
G74*G01*
D01*
D01*
G75*
G03X00313Y0035I0J-00025D01*
G74*G01*
X00438Y0041D02*
D01*
D01*
G75*
G03X00378Y00385I-0J-00084D01*
G74*G01*
X00374Y00379D02*
D01*
D01*
G75*
G03X00355Y00371I0J-00025D01*
G74*G01*
X00374Y00394D02*
D01*
D01*
G75*
G03X00387Y004I0J00018D01*
G74*G01*
X0104Y0046D02*
D01*
D01*
G75*
G03X01058Y00452I00018J00018D01*
G74*G01*
D01*
D01*
G75*
G03X0104Y00445I0J-00025D01*
G74*G01*
X01015D02*
D01*
D01*
G75*
G03X00979Y0046I-00036J-00036D01*
G74*G01*
X01023Y00349D02*
D01*
D01*
G75*
G03X01001Y0034I0J-00030D01*
G74*G01*
X01006Y00345D02*
D01*
D01*
G75*
G03X01012Y0036I-00014J00014D01*
G74*G01*
X0095Y00387D02*
D01*
D01*
G75*
G03X00895Y0041I-00055J-00055D01*
G74*G01*
X00941Y00402D02*
D01*
D01*
G75*
G03X00955Y00396I00013J00013D01*
G74*G01*
X01188Y00584D02*
D01*
D01*
G75*
G03X0117Y00592I-00018J-00017D01*
G74*G01*
D01*
D01*
G75*
G03X01188Y00599I-0J00026D01*
G74*G01*
X00975Y00688D02*
D01*
D01*
G75*
G03X00986Y00692I0J00016D01*
G74*G01*
X00916Y00688D02*
D01*
D01*
G75*
G03X00927Y00692I0J00016D01*
G74*G01*
X00936D02*
D01*
D01*
G75*
G03X00947Y00688I00011J00011D01*
G74*G01*
X01408Y00157D02*
X01457D01*
X01365Y00114D02*
X01366D01*
X01408Y00156*
Y00157*
X00954Y00325D02*
X01025Y00254D01*
Y00137D02*
Y00254D01*
Y00137D02*
X01075Y00087D01*
X01181*
X01208Y00114*
X02108Y00303D02*
X02109Y00304D01*
X02108Y00227D02*
Y00303D01*
Y00227D02*
X02112Y00223D01*
X01106Y00452D02*
X01107Y00452D01*
X01028Y00452D02*
X01106D01*
X01845Y00069D02*
X01876Y001D01*
X01621Y00069D02*
X01845D01*
X01658Y00069D02*
Y00137D01*
X01294Y00113D02*
X01294Y00114D01*
X01208D02*
X01294D01*
X01457Y00069D02*
Y00157D01*
X00954Y00332D02*
X00993D01*
X01021Y0036*
X00955Y00333D02*
Y00389D01*
X00941Y00161D02*
X00943Y00163D01*
X0087Y00161D02*
X00941D01*
X00869Y0016D02*
X0087Y00161D01*
X00869Y00494D02*
X00871Y00496D01*
X00869Y0046D02*
Y00494D01*
X00873Y00575D02*
Y00614D01*
X00845Y00547D02*
X00873Y00575D01*
X00373Y0021D02*
X00375D01*
X00351Y00188D02*
X00373Y0021D01*
X00351Y00127D02*
Y00188D01*
X00375Y0021D02*
X0046D01*
X00375D02*
Y0033D01*
X00374Y0046D02*
X0046D01*
X00301D02*
X00374D01*
Y00504*
Y00458D02*
Y0046D01*
Y00504D02*
X00375Y00505D01*
X00283Y00618D02*
X00284Y00617D01*
X00335*
X01934Y00304D02*
X02021D01*
X01142Y00592D02*
X01196D01*
X00776Y00688D02*
X00989D01*
X00775Y00689D02*
X00776Y00688D01*
X00871Y00616D02*
X00873Y00614D01*
X00775Y00689D02*
Y0073D01*
X00934Y0041D02*
X00955Y00389D01*
X00869Y0041D02*
X00934D01*
X00955Y0046D02*
X0102D01*
X00869D02*
X00955D01*
X0102D02*
X01028Y00452D01*
X00869Y00072D02*
Y0011D01*
X00483Y00533D02*
Y00541D01*
X00453Y00571D02*
X00483Y00541D01*
X00453Y00571D02*
Y00617D01*
X00256Y00687D02*
X00335D01*
X00185Y00616D02*
X00256Y00687D01*
X00185Y0055D02*
Y00616D01*
X00335Y00688D02*
X00556D01*
X00452Y00061D02*
X0046Y00069D01*
Y0016D02*
Y0021D01*
X00085Y0055D02*
X00185D01*
X00301Y00358D02*
X00342D01*
X00372Y00388D02*
Y00391D01*
X00342Y00358D02*
X00372Y00388D01*
X00374Y00387D02*
X00396Y0041D01*
X00301Y00458D02*
Y00505D01*
X00351Y00061D02*
X00452D01*
X0046Y00068D02*
Y0011D01*
X00394Y00575D02*
Y00617D01*
X00488Y00538D02*
X00556D01*
X00499Y00588D02*
X00556D01*
X00335Y00687D02*
X00335Y00688D01*
X00498Y00638D02*
X00556D01*
X00085Y0045D02*
X00185D01*
X002D02*
X00301Y00349D01*
X00185Y0045D02*
X002D01*
X00396Y0041D02*
X00462D01*
X00256Y0055D02*
X00301Y00505D01*
X00185Y0055D02*
X00256D01*
X02021Y00304D02*
X02109D01*
X02176Y0011D02*
Y00169D01*
X02175Y0011D02*
X02176Y0011D01*
X02105Y00169D02*
Y00228D01*
X02021Y00087D02*
Y00154D01*
Y00087D02*
X02057Y00051D01*
X02153*
X02176Y00074*
Y0011*
X00869Y0031D02*
X00932D01*
X01876Y001D02*
Y00246D01*
X01934Y00304*
X0046Y0041D02*
X00546D01*
G54D11*
X01976Y0057D02*
D01*
D01*
G75*
G03X01993Y00563I00017J00017D01*
G74*G01*
D01*
D01*
G75*
G03X01976Y00556I0J-00024D01*
G74*G01*
D01*
D01*
G75*
G03X01969Y00538I00017J-00017D01*
G74*G01*
D01*
D01*
G75*
G03X01961Y00556I-00024J-0D01*
G74*G01*
X02068Y00117D02*
D01*
D01*
G75*
G03X02085Y0011I00017J00017D01*
G74*G01*
D01*
D01*
G75*
G03X02068Y00102I-0J-00023D01*
G74*G01*
X02078Y00529D02*
D01*
D01*
G75*
G03X0206Y00537I-00018J-00018D01*
G74*G01*
X02063D02*
D01*
D01*
G75*
G03X02078Y00544I0J00022D01*
G74*G01*
X01745Y00311D02*
D01*
D01*
G75*
G03X01762Y00304I00017J00017D01*
G74*G01*
D01*
D01*
G75*
G03X01745Y00296I-0J-00023D01*
G74*G01*
X01849Y00402D02*
D01*
D01*
G75*
G03X01832Y00409I-00017J-00017D01*
G74*G01*
D01*
D01*
G75*
G03X01849Y00416I0J00023D01*
G74*G01*
X01864D02*
D01*
D01*
G75*
G03X01881Y00409I00017J00017D01*
G74*G01*
D01*
D01*
G75*
G03X01864Y00402I-0J-00023D01*
G74*G01*
X01678Y00285D02*
D01*
D01*
G75*
G03X01661Y00293I-00017J-00017D01*
G74*G01*
D01*
D01*
G75*
G03X01678Y003I0J00023D01*
G74*G01*
Y00285D02*
D01*
D01*
G75*
G03X01661Y00293I-00017J-00017D01*
G74*G01*
D01*
D01*
G75*
G03X01678Y003I0J00023D01*
G74*G01*
X01857Y00453D02*
D01*
D01*
G75*
G03X01841Y0046I-00016J-00016D01*
G74*G01*
X0184D02*
D01*
D01*
G75*
G03X01857Y00468I0J00025D01*
G74*G01*
D01*
D01*
G75*
G03X01866Y00487I-00019J00019D01*
G74*G01*
Y00482D02*
D01*
D01*
G75*
G03X01872Y00468I00020J-0D01*
G74*G01*
X01946Y00244D02*
D01*
D01*
G75*
G03X01928Y00236I0J-00024D01*
G74*G01*
D01*
D01*
G75*
G03X01936Y00254I-00017J00017D01*
G74*G01*
X01953Y00261D02*
D01*
D01*
G75*
G03X0197Y00254I00017J00017D01*
G74*G01*
D01*
D01*
G75*
G03X01953Y00246I-0J-00023D01*
G74*G01*
X01993Y00361D02*
D01*
D01*
G75*
G03X01976Y00369I-00017J-00017D01*
G74*G01*
D01*
D01*
G75*
G03X01993Y00376I0J00023D01*
G74*G01*
X02008D02*
D01*
D01*
G75*
G03X02025Y00369I00017J00017D01*
G74*G01*
D01*
D01*
G75*
G03X02008Y00361I-0J-00023D01*
G74*G01*
X01952Y00209D02*
D01*
D01*
G75*
G03X01969Y00202I00017J00017D01*
G74*G01*
D01*
D01*
G75*
G03X01952Y00194I-0J-00023D01*
G74*G01*
X01792Y00121D02*
D01*
D01*
G75*
G03X01801Y00143I-00021J00021D01*
G74*G01*
D01*
D01*
G75*
G03X01809Y00121I00030J0D01*
G74*G01*
X0168Y00701D02*
D01*
D01*
G75*
G03X01705Y00691I00025J00025D01*
G74*G01*
X01691Y00712D02*
D01*
D01*
G75*
G03X01741Y00691I00050J00050D01*
G74*G01*
X00824Y0058D02*
D01*
D01*
G75*
G03X00807Y00588I-00017J-00017D01*
G74*G01*
D01*
D01*
G75*
G03X00824Y00595I0J00023D01*
G74*G01*
X00984Y00579D02*
D01*
D01*
G75*
G03X00991Y00593I-00014J00014D01*
G74*G01*
Y00598D02*
D01*
D01*
G75*
G03X00999Y00579I00027J-0D01*
G74*G01*
X01002Y00572D02*
D01*
D01*
G75*
G03X01009Y00554I00024J0D01*
G74*G01*
D01*
D01*
G75*
G03X00992Y00562I-00017J-00017D01*
G74*G01*
X00822Y0063D02*
D01*
D01*
G75*
G03X00805Y00638I-00017J-00017D01*
G74*G01*
D01*
D01*
G75*
G03X00822Y00645I0J00023D01*
G74*G01*
X00942Y00572D02*
D01*
D01*
G75*
G03X00949Y00553I00026J-0D01*
G74*G01*
X00947Y00555D02*
D01*
D01*
G75*
G03X00932Y00562I-00015J-00015D01*
G74*G01*
X00924Y00579D02*
D01*
D01*
G75*
G03X00932Y00596I-00017J00017D01*
G74*G01*
D01*
D01*
G75*
G03X00939Y00579I00023J-0D01*
G74*G01*
X01312Y00539D02*
D01*
D01*
G75*
G03X01299Y00575I-00045J00003D01*
G74*G01*
X01318Y00531D02*
D01*
D01*
G75*
G03X0131Y00509I00021J-00021D01*
G74*G01*
D01*
D01*
G75*
G03X01301Y00531I-00030J-0D01*
G74*G01*
X01302Y0055D02*
D01*
D01*
G75*
G03X0131Y00565I-00011J00014D01*
G74*G01*
D01*
D01*
G75*
G03X01317Y0055I00018J0D01*
G74*G01*
X02212Y00347D02*
D01*
D01*
G75*
G03X02204Y00329I00018J-00018D01*
G74*G01*
Y00332D02*
D01*
D01*
G75*
G03X02197Y00347I-00022J0D01*
G74*G01*
X02146Y00642D02*
D01*
D01*
G75*
G03X02116Y00629I-0J-00042D01*
G74*G01*
X02182Y00642D02*
D01*
D01*
G75*
G03X02127Y00618I-0J-00078D01*
G74*G01*
X02103Y00614D02*
D01*
D01*
G75*
G03X02123Y00622I0J00027D01*
G74*G01*
X02067Y00614D02*
D01*
D01*
G75*
G03X02112Y00633I0J00064D01*
G74*G01*
X02437Y00281D02*
D01*
D01*
G75*
G03X02397Y00299I-00040J-00039D01*
G74*G01*
D01*
D01*
G75*
G03X02435Y00318I0J00049D01*
G74*G01*
X02438Y00481D02*
D01*
D01*
G75*
G03X02395Y00499I-00043J-00043D01*
G74*G01*
X02422D02*
D01*
D01*
G75*
G03X02448Y0051I0J00037D01*
G74*G01*
X02386Y00499D02*
D01*
D01*
G75*
G03X02438Y0052I-0J00073D01*
G74*G01*
Y00581D02*
D01*
D01*
G75*
G03X02388Y00602I-00050J-00050D01*
G74*G01*
X02393D02*
D01*
D01*
G75*
G03X02438Y0062I0J00063D01*
G74*G01*
X01955Y00062D02*
D01*
D01*
G75*
G03X01944Y00088I-00037J-0D01*
G74*G01*
X01942Y0009D02*
D01*
D01*
G75*
G03X01972Y00078I00029J00029D01*
G74*G01*
X02214Y0063D02*
D01*
D01*
G75*
G03X02186Y00642I-00028J-00028D01*
G74*G01*
D01*
D01*
G75*
G03X02214Y00653I0J00039D01*
G74*G01*
X01552Y00172D02*
D01*
D01*
G75*
G03X01557Y00183I-00010J00010D01*
G74*G01*
D01*
D01*
G75*
G03X01561Y00172I00015J0D01*
G74*G01*
Y00053D02*
D01*
D01*
G75*
G03X01557Y00043I00010J-00010D01*
G74*G01*
D01*
D01*
G75*
G03X01552Y00053I-00015J-0D01*
G74*G01*
X01503Y00367D02*
D01*
D01*
G75*
G03X01496Y00383I-00023J-0D01*
G74*G01*
X015Y0038D02*
D01*
D01*
G75*
G03X01511Y00375I00011J00011D01*
G74*G01*
X0145Y00361D02*
D01*
D01*
G75*
G03X01444Y00344I00016J-00016D01*
G74*G01*
Y00349D02*
D01*
D01*
G75*
G03X01439Y00361I-00016J-0D01*
G74*G01*
X0132Y00248D02*
D01*
D01*
G75*
G03X0131Y00223I00024J-00025D01*
G74*G01*
X01181Y00483D02*
D01*
D01*
G75*
G03X01158Y00493I-00023J-00023D01*
G74*G01*
X02097Y00104D02*
D01*
D01*
G75*
G03X02083Y0011I-00013J-00013D01*
G74*G01*
D01*
D01*
G75*
G03X02097Y00115I-0J00020D01*
G74*G01*
X02124Y00553D02*
D01*
D01*
G75*
G03X02131Y00569I-00016J00016D01*
G74*G01*
Y00565D02*
D01*
D01*
G75*
G03X02136Y00553I00017J0D01*
G74*G01*
X0221D02*
D01*
D01*
G75*
G03X02224Y00548I00013J00013D01*
G74*G01*
D01*
D01*
G75*
G03X0221Y00542I0J-00020D01*
G74*G01*
X02103Y00486D02*
D01*
D01*
G75*
G03X02124Y00494I-0J00029D01*
G74*G01*
X0221D02*
D01*
D01*
G75*
G03X02224Y00489I00013J00013D01*
G74*G01*
D01*
D01*
G75*
G03X0221Y00483I0J-00020D01*
G74*G01*
X02208D02*
D01*
D01*
G75*
G03X02203Y00469I00013J-00013D01*
G74*G01*
D01*
D01*
G75*
G03X02197Y00483I-00020J-0D01*
G74*G01*
X01735Y00435D02*
D01*
D01*
G75*
G03X01713Y00426I-0J-00030D01*
G74*G01*
X01629Y00437D02*
D01*
D01*
G75*
G03X01635Y00451I-00013J00013D01*
G74*G01*
D01*
D01*
G75*
G03X0164Y00437I00020J0D01*
G74*G01*
Y00426D02*
D01*
D01*
G75*
G03X01635Y00412I00013J-00013D01*
G74*G01*
D01*
D01*
G75*
G03X01629Y00426I-00020J-0D01*
G74*G01*
X02124Y00424D02*
D01*
D01*
G75*
G03X02098Y00435I-00026J-00026D01*
G74*G01*
X02208Y00424D02*
D01*
D01*
G75*
G03X02203Y0041I00013J-00013D01*
G74*G01*
D01*
D01*
G75*
G03X02197Y00424I-00020J-0D01*
G74*G01*
Y00435D02*
D01*
D01*
G75*
G03X02203Y00449I-00013J00013D01*
G74*G01*
D01*
D01*
G75*
G03X02208Y00435I00020J0D01*
G74*G01*
X01641Y00485D02*
D01*
D01*
G75*
G03X01635Y0047I00014J-00014D01*
G74*G01*
Y00471D02*
D01*
D01*
G75*
G03X01629Y00485I-00019J-0D01*
G74*G01*
Y00496D02*
D01*
D01*
G75*
G03X01635Y0051I-00013J00013D01*
G74*G01*
Y00511D02*
D01*
D01*
G75*
G03X01641Y00496I00020J-0D01*
G74*G01*
X01713D02*
D01*
D01*
G75*
G03X0174Y00485I00026J00026D01*
G74*G01*
X01713Y00554D02*
D01*
D01*
G75*
G03X01727Y00549I00013J00013D01*
G74*G01*
D01*
D01*
G75*
G03X01713Y00543I-0J-00019D01*
G74*G01*
X0164D02*
D01*
D01*
G75*
G03X01635Y00529I00013J-00013D01*
G74*G01*
D01*
D01*
G75*
G03X01629Y00543I-00020J-0D01*
G74*G01*
Y00554D02*
D01*
D01*
G75*
G03X01635Y00568I-00013J00013D01*
G74*G01*
D01*
D01*
G75*
G03X0164Y00554I00020J0D01*
G74*G01*
X01716Y00609D02*
D01*
D01*
G75*
G03X01722Y00593I00022J0D01*
G74*G01*
X0172Y00595D02*
D01*
D01*
G75*
G03X01707Y006I-00012J-00012D01*
G74*G01*
X0164Y00603D02*
D01*
D01*
G75*
G03X01635Y00589I00013J-00013D01*
G74*G01*
D01*
D01*
G75*
G03X01629Y00603I-00020J-0D01*
G74*G01*
X02178Y00236D02*
D01*
D01*
G75*
G03X0219Y00241I0J00017D01*
G74*G01*
X02192Y00243D02*
D01*
D01*
G75*
G03X02186Y00228I00015J-00015D01*
G74*G01*
X02195Y00315D02*
D01*
D01*
G75*
G03X02204Y00337I-00022J00022D01*
G74*G01*
D01*
D01*
G75*
G03X02213Y00315I00031J0D01*
G74*G01*
Y00286D02*
D01*
D01*
G75*
G03X02204Y00264I00022J-00022D01*
G74*G01*
D01*
D01*
G75*
G03X02195Y00286I-00031J-0D01*
G74*G01*
X01439Y00665D02*
D01*
D01*
G75*
G03X01446Y00647I00024J-0D01*
G74*G01*
X01441Y00652D02*
D01*
D01*
G75*
G03X0143Y00656I-00010J-00011D01*
G74*G01*
X01352Y0067D02*
D01*
D01*
G75*
G03X01358Y00684I-00013J00013D01*
G74*G01*
D01*
D01*
G75*
G03X01363Y0067I00020J0D01*
G74*G01*
Y00659D02*
D01*
D01*
G75*
G03X01358Y00645I00013J-00013D01*
G74*G01*
D01*
D01*
G75*
G03X01352Y00659I-00020J-0D01*
G74*G01*
X01358Y00646D02*
D01*
D01*
G75*
G03X01374Y00606I00057J0D01*
G74*G01*
Y00577D02*
D01*
D01*
G75*
G03X01361Y00544I00033J-00033D01*
G74*G01*
Y00566D02*
D01*
D01*
G75*
G03X01356Y00577I-00016J-0D01*
G74*G01*
X01467Y00601D02*
D01*
D01*
G75*
G03X01489Y00592I00022J00022D01*
G74*G01*
D01*
D01*
G75*
G03X01467Y00582I0J-00031D01*
G74*G01*
Y00577D02*
D01*
D01*
G75*
G03X01458Y00555I00022J-00022D01*
G74*G01*
D01*
D01*
G75*
G03X01448Y00577I-00031J-0D01*
G74*G01*
Y00606D02*
D01*
D01*
G75*
G03X01458Y00628I-00022J00022D01*
G74*G01*
D01*
D01*
G75*
G03X01467Y00606I00031J0D01*
G74*G01*
X00274Y00066D02*
D01*
D01*
G75*
G03X0028Y0008I-00013J00013D01*
G74*G01*
D01*
D01*
G75*
G03X00286Y00066I00019J-0D01*
G74*G01*
Y00121D02*
D01*
D01*
G75*
G03X0028Y00107I00014J-00014D01*
G74*G01*
D01*
D01*
G75*
G03X00274Y00121I-00020J-0D01*
G74*G01*
X01977Y00202D02*
D01*
D01*
G75*
G03X01989Y00207I0J00017D01*
G74*G01*
X01042Y00369D02*
D01*
D01*
G75*
G03X01064Y0036I00022J00022D01*
G74*G01*
D01*
D01*
G75*
G03X01042Y0035I0J-00031D01*
G74*G01*
X01222Y00656D02*
D01*
D01*
G75*
G03X01204Y00649I0J-00025D01*
G74*G01*
X01209Y00654D02*
D01*
D01*
G75*
G03X01213Y00665I-00010J00010D01*
G74*G01*
X01298Y00659D02*
D01*
D01*
G75*
G03X01288Y00634I00025J-00025D01*
G74*G01*
X01301Y00586D02*
D01*
D01*
G75*
G03X01309Y00565I00027J-00001D01*
G74*G01*
D01*
D01*
G75*
G03X01288Y00573I-00020J-00020D01*
G74*G01*
X01279Y00606D02*
D01*
D01*
G75*
G03X01288Y00628I-00022J00022D01*
G74*G01*
D01*
D01*
G75*
G03X01297Y00606I00031J0D01*
G74*G01*
X0131Y00557D02*
D01*
D01*
G75*
G03X01289Y00588I-00033J-0D01*
G74*G01*
X0131Y00535D02*
D01*
D01*
G75*
G03X01283Y00574I-00042J-0D01*
G74*G01*
X01209Y00587D02*
D01*
D01*
G75*
G03X01217Y00567I00027J0D01*
G74*G01*
X01221Y00563D02*
D01*
D01*
G75*
G03X01196Y00573I-00025J-00025D01*
G74*G01*
X01186Y00606D02*
D01*
D01*
G75*
G03X01196Y00628I-00022J00022D01*
G74*G01*
D01*
D01*
G75*
G03X01205Y00606I00031J0D01*
G74*G01*
X01521Y00313D02*
D01*
D01*
G75*
G03X01535Y00308I00013J00013D01*
G74*G01*
D01*
D01*
G75*
G03X01521Y00302I-0J-00019D01*
G74*G01*
X01435D02*
D01*
D01*
G75*
G03X01423Y00307I-00011J-00011D01*
G74*G01*
X01418D02*
D01*
D01*
G75*
G03X01435Y00313I-0J00023D01*
G74*G01*
X01439D02*
D01*
D01*
G75*
G03X01444Y00325I-00012J00011D01*
G74*G01*
Y0033D02*
D01*
D01*
G75*
G03X0145Y00313I00023J0D01*
G74*G01*
X01521Y00254D02*
D01*
D01*
G75*
G03X01538Y00248I00016J00016D01*
G74*G01*
X01533D02*
D01*
D01*
G75*
G03X01521Y00243I-0J-00016D01*
G74*G01*
X01435D02*
D01*
D01*
G75*
G03X01418Y0025I-00016J-00016D01*
G74*G01*
X01423D02*
D01*
D01*
G75*
G03X01435Y00254I-0J00016D01*
G74*G01*
X01711Y00203D02*
D01*
D01*
G75*
G03X01696Y00209I-00014J-00014D01*
G74*G01*
X01697D02*
D01*
D01*
G75*
G03X01711Y00214I-0J00019D01*
G74*G01*
X01722Y00212D02*
D01*
D01*
G75*
G03X01743Y00204I00020J00020D01*
G74*G01*
X01734Y00154D02*
D01*
D01*
G75*
G03X01712Y00144I0J-00031D01*
G74*G01*
X0177Y00154D02*
D01*
D01*
G75*
G03X01722Y00134I0J-00067D01*
G74*G01*
X01663Y00214D02*
D01*
D01*
G75*
G03X01677Y00209I00013J00013D01*
G74*G01*
D01*
D01*
G75*
G03X01663Y00203I0J-00020D01*
G74*G01*
X01652D02*
D01*
D01*
G75*
G03X01638Y00209I-00013J-00013D01*
G74*G01*
D01*
D01*
G75*
G03X01652Y00214I-0J00020D01*
G74*G01*
X00996Y00692D02*
D01*
D01*
G75*
G03X0101Y00686I00013J00013D01*
G74*G01*
D01*
D01*
G75*
G03X00996Y00681I-0J-00019D01*
G74*G01*
Y00608D02*
D01*
D01*
G75*
G03X00991Y00594I00013J-00013D01*
G74*G01*
D01*
D01*
G75*
G03X00985Y00608I-00020J-0D01*
G74*G01*
X00937D02*
D01*
D01*
G75*
G03X00932Y00594I00013J-00013D01*
G74*G01*
D01*
D01*
G75*
G03X00926Y00608I-00020J-0D01*
G74*G01*
X013Y00108D02*
D01*
D01*
G75*
G03X01294Y00093I00014J-00014D01*
G74*G01*
Y00094D02*
D01*
D01*
G75*
G03X01288Y00108I-00019J-0D01*
G74*G01*
X01411Y00211D02*
X01547D01*
X01398Y00198D02*
X01411Y00211D01*
X01361Y00198D02*
X01398D01*
X01547Y00028D02*
X01557Y00038D01*
X01343Y00028D02*
X01547D01*
X01294Y00077D02*
X01343Y00028D01*
X01547Y00211D02*
X01557Y00201D01*
Y00038D02*
Y00069D01*
Y00157D02*
Y00201D01*
X0157Y00248D02*
X01609Y00209D01*
X0153Y00248D02*
X0157D01*
X01241Y00427D02*
X01398D01*
X01458Y00487*
X01351Y00401D02*
X01479D01*
X01258Y00308D02*
X01351Y00401D01*
X01479D02*
X01512Y00368D01*
X01284Y00428D02*
Y00483D01*
X01175Y00361D02*
X01241Y00427D01*
X0131Y00539D02*
X0131Y00539D01*
X0131Y00483D02*
Y00539D01*
X02386Y00499D02*
X02432D01*
X02376Y00489D02*
X02386Y00499D01*
X02203Y00489D02*
X02376D01*
X01705Y00549D02*
X01745D01*
X01757Y00537*
X01732Y00641D02*
X01759Y00614D01*
X0161Y00641D02*
X01732D01*
X01561Y00592D02*
X0161Y00641D01*
X01458Y00592D02*
X01561D01*
X01598Y00665D02*
X01798D01*
X01546Y00718D02*
X01598Y00665D01*
X01196Y00589D02*
X01233Y00552D01*
Y00484D02*
Y00552D01*
Y00484D02*
X01259D01*
X0131Y00483D02*
X01335D01*
X02135Y00642D02*
X02226D01*
X02107Y00614D02*
X02135Y00642D01*
X02035Y00614D02*
X02107D01*
X0101Y00493D02*
X01182D01*
X00932Y00571D02*
X0101Y00493D01*
X01294Y00077D02*
Y00113D01*
X01021Y0036D02*
X01174D01*
X01865Y00461D02*
X01866Y00462D01*
X01864Y0046D02*
X01865Y00461D01*
X01911Y00122D02*
Y00219D01*
X01946Y00254*
X01288Y00658D02*
X01295Y00665D01*
X01288Y00592D02*
Y00658D01*
X0131Y0054D02*
Y00565D01*
X01288Y00586D02*
X0131Y00565D01*
X01288Y00586D02*
Y00592D01*
X0131Y0054D02*
X0131Y00539D01*
X02203Y00403D02*
Y0043D01*
X02169Y00369D02*
X02203Y00403D01*
X02176Y00227D02*
X02204Y00255D01*
Y00301D02*
Y00346D01*
X02203Y0043D02*
Y00489D01*
X01946Y00254D02*
X01957Y00253D01*
X01946Y00254D02*
X02021D01*
X01866Y00462D02*
Y00513D01*
X01798Y0046D02*
X01864D01*
X01866Y00513D02*
Y00543D01*
X01846Y00563D02*
X01866Y00543D01*
X01798Y00563D02*
X01846D01*
X02397Y00299D02*
X02432D01*
X02375Y00321D02*
X02397Y00299D01*
X02375Y00321D02*
Y00489D01*
X02432Y00299D02*
X02453Y00278D01*
X02432Y00499D02*
X02453Y00478D01*
X02304Y00602D02*
X02429D01*
X0225Y00548D02*
X02304Y00602D01*
X02192Y00548D02*
X0225D01*
X02429Y00602D02*
X02453Y00578D01*
X01141Y00593D02*
X01142Y00592D01*
X01196Y00589D02*
Y00592D01*
X0122Y00665D02*
X01224D01*
X01196Y00641D02*
X0122Y00665D01*
X01196Y00592D02*
Y00641D01*
X01358Y00716D02*
X0136Y00718D01*
X01082D02*
X0136D01*
X01358Y00665D02*
Y00716D01*
X0105Y00686D02*
X01082Y00718D01*
X00991Y00686D02*
X0105D01*
X01358Y00599D02*
X01365Y00592D01*
X01358Y00599D02*
Y00665D01*
X00992Y00572D02*
X01021Y00542D01*
X00991Y00571D02*
D01*
X01969Y00459D02*
Y00509D01*
X01971Y00511*
X02035*
X01864D02*
X01866Y00513D01*
X01798Y00511D02*
X01864D01*
X00932Y00572D02*
Y00616D01*
X00776Y00638D02*
X00829D01*
X00776Y00588D02*
X00829D01*
X0028Y0007D02*
Y00134D01*
X0136Y00718D02*
X01546D01*
X01428Y00665D02*
X01458Y00635D01*
Y00592D02*
Y00635D01*
X01798Y00614D02*
X01839D01*
X01798Y00665D02*
X02035D01*
X01883Y0062D02*
X01884Y00621D01*
Y00626*
X01798Y00639D02*
X01871D01*
X01882Y00629*
X01883*
X02035Y00691D02*
X02075D01*
X02094Y00652D02*
Y00672D01*
X02075Y00691D02*
X02094Y00672D01*
X01839Y00614D02*
X01863Y00591D01*
X01935*
X01969Y00459D02*
X0197Y0046D01*
X0197Y0046D02*
X02035D01*
X01969Y00459D02*
X0197Y0046D01*
X01969Y00409D02*
Y00459D01*
Y00409D02*
X02035D01*
Y00435D02*
X02116D01*
X02121Y0043*
X01609Y00209D02*
X01711D01*
X01716Y00204D02*
X01801D01*
X01711Y00209D02*
X01716Y00204D01*
X01728Y00154D02*
X01801D01*
X01712Y00138D02*
X01728Y00154D01*
X01801Y00113D02*
Y00154D01*
X02019Y00202D02*
X02021Y00204D01*
X01945Y00202D02*
X02019D01*
X01801Y00254D02*
Y00304D01*
X01749D02*
X01801D01*
X01798Y00409D02*
X01857D01*
X01969*
X02035Y00588D02*
X02115D01*
X02131Y00573*
Y00548D02*
Y00573D01*
X02035Y00537D02*
X02085D01*
X02086Y00537*
X02204Y00255D02*
Y00301D01*
X02105Y00104D02*
Y0011D01*
X02061D02*
X02105D01*
X01969Y00509D02*
Y00563D01*
X02035*
X01361Y00505D02*
X01361Y00504D01*
X01361Y00505D02*
Y00587D01*
X01365Y00592*
X01021Y00542D02*
X01189D01*
X01207Y00487D02*
Y00524D01*
X01189Y00542D02*
X01207Y00524D01*
X00991Y00571D02*
Y00615D01*
X01883Y0062D02*
Y00629D01*
X01258Y00215D02*
Y00308D01*
X01757Y00537D02*
X01798D01*
X01714Y00485D02*
X01798D01*
X01759Y00614D02*
X01798D01*
X01284Y00212D02*
Y00269D01*
X01259Y00484D02*
Y00504D01*
X01458Y00487D02*
Y00592D01*
X0131Y00212D02*
Y00238D01*
X02118Y00486D02*
X02121Y00489D01*
X02035Y00486D02*
X02134D01*
X01284Y00483D02*
Y00487D01*
X01512Y00368D02*
X01514D01*
X01284Y00269D02*
X01322Y00307D01*
X01444*
Y00365*
X0131Y00238D02*
X01322Y0025D01*
X01438*
X0144Y00252*
X01911Y00122D02*
X01973Y0006D01*
X01513Y00308D02*
X01587D01*
X01602Y00293*
X01661*
X01684Y00705D02*
X01698Y00691D01*
X01798*
X01635Y00549D02*
Y00609D01*
Y00403D02*
X01669Y00369D01*
X01635Y00403D02*
Y00432D01*
Y00549*
X01669Y00369D02*
X02001D01*
X02169*
X01705Y00435D02*
X01796D01*
X01705Y00609D02*
X01714Y006D01*
X01716*
X01727Y00588*
X01798*
X01983Y00639D02*
X02035D01*
X01935Y00591D02*
X01983Y00639D01*
X02081D02*
X02094Y00652D01*
X02035Y00639D02*
X02081D01*
G54D12*
X01365Y00114D03*
X01294D03*
X02176Y00169D03*
X02105D03*
X01443Y00249D03*
X01513D03*
X01443Y00308D03*
X01513D03*
X01295Y00665D03*
X01224D03*
X0028Y00127D03*
X00351D03*
Y00061D03*
X0028D03*
X01358Y00665D03*
X01428D03*
X02176Y00228D03*
X02105D03*
X01635Y00609D03*
X01705D03*
X01635Y00549D03*
X01705D03*
X01706Y00491D03*
X01635D03*
X02203Y0043D03*
X02132D03*
X01635Y00432D03*
X01705D03*
X02203Y00489D03*
X02132D03*
X02203Y00548D03*
X02132D03*
X02105Y0011D03*
X02175D03*
X01443Y00367D03*
X01513D03*
G54D13*
X00453Y00617D03*
Y00687D03*
X00932Y00616D03*
Y00686D03*
X00991Y00616D03*
Y00686D03*
X01658Y00209D03*
Y00138D03*
X01717Y00138D03*
Y00208D03*
X00955Y0046D03*
Y00389D03*
X00374Y00458D03*
Y00387D03*
X00394Y00617D03*
Y00687D03*
X00335Y00617D03*
Y00687D03*
X00873Y00616D03*
Y00686D03*
G54D14*
X00556Y00688D03*
X01801Y00304D03*
X0046Y0046D03*
G54D15*
X00556Y00638D03*
Y00588D03*
Y00538D03*
X00776D03*
Y00588D03*
Y00638D03*
Y00688D03*
X01801Y00254D03*
Y00204D03*
Y00154D03*
X02021D03*
Y00204D03*
Y00254D03*
Y00304D03*
X00869Y0011D03*
X0046D03*
Y0041D03*
Y0026D03*
Y0016D03*
X00869Y0021D03*
Y0031D03*
Y0036D03*
Y0041D03*
Y0046D03*
X0046Y0031D03*
X00869Y0026D03*
Y0016D03*
X0046Y0021D03*
G54D16*
X01196Y00592D03*
X01288D03*
X01458D03*
X01365D03*
X02112Y00301D03*
X02204D03*
G54D17*
X01028Y0036D03*
Y00452D03*
X00301Y00358D03*
Y0045D03*
G54D18*
X02035Y00409D03*
Y00435D03*
Y0046D03*
Y00486D03*
X01798Y00665D03*
Y00614D03*
Y00588D03*
Y00563D03*
Y00537D03*
X02035Y00691D03*
Y00665D03*
Y00639D03*
Y00614D03*
Y00588D03*
Y00563D03*
Y00537D03*
X01798Y00639D03*
Y00511D03*
X02035D03*
X01798Y00486D03*
Y0046D03*
Y00435D03*
Y00409D03*
G54D19*
X01798Y00691D03*
G54D20*
X0046Y0036D03*
G54D21*
X01182Y00483D03*
X01207D03*
X01233D03*
X01258D03*
X01284D03*
X0131D03*
X01335D03*
X01361D03*
X01207Y00198D03*
X01233D03*
X01258D03*
X01284D03*
X0131D03*
X01335D03*
X01361D03*
G54D22*
X01182Y00198D03*
G54D23*
X01457Y00074D03*
X01507D03*
X01557D03*
Y00163D03*
X01507D03*
X01457D03*
G54D24*
X00185Y0055D03*
Y0045D03*
Y0035D03*
Y0025D03*
X00085Y0055D03*
Y0045D03*
Y0035D03*
G54D25*
X00085Y0025D03*
G54D26*
X0005Y0075D03*
Y0005D03*
X02565D03*
Y00749D03*
G54D27*
X0111Y00154D03*
X02226Y00642D03*
X02128Y00734D03*
X01972Y00062D03*
G54D28*
X02458Y00601D03*
Y00501D03*
Y00201D03*
Y00301D03*
Y00401D03*
G54D29*
X0212Y00626D03*
X02205Y00355D03*
X00932Y00572D03*
X0083Y00638D03*
X00992Y00572D03*
X00832Y00588D03*
X00394Y00575D03*
X00499Y00588D03*
X00283Y00618D03*
X00498Y00638D03*
X01684Y00705D03*
X01884Y00626D03*
X01945Y00202D03*
X02001Y00369D03*
X01946Y00254D03*
X01865Y00461D03*
X01686Y00293D03*
X01857Y00409D03*
X01738Y00304D03*
X02086Y00537D03*
X02061Y0011D03*
X01969Y00563D03*
G54D30*
X01107Y00452D03*
G54D31*
X01408Y00156D03*
X00943Y00163D03*
X00375Y0033D03*
Y00515D03*
X0131Y0054D03*
X01141Y00593D03*
X00835Y00537D03*
X00775Y0073D03*
X00954Y00332D03*
X00869Y00069D03*
Y00496D03*
X0046Y00068D03*
X00487Y00538D03*
X01801Y00113D03*
X00546Y0041D03*
X01621Y00069D03*
M02*